<svg id="Layer_1" data-name="Layer 1" xmlns="http://www.w3.org/2000/svg" viewBox="0 0 415.7 176.25"><defs><style>.cls-1{fill:#0e0e0e;}</style></defs><title>bwzy</title><path class="cls-1" d="M333.11,163.62l3.32.18a41.64,41.64,0,0,0,7.38-.28,13.27,13.27,0,0,0,5.91-2.12q2.31-1.57,4.29-6.55t1.71-6.09l-37-105H348l22,74.2,20.76-74.2h28l-34.49,98.93q-10,28.61-15.82,35.48T345.12,185q-3.51,0-5.63,0t-6.37-.32Z" transform="translate(-3 -8.78)"/><path class="cls-1" d="M56,144h0Z" transform="translate(-3 -8.78)"/><path class="cls-1" d="M85.39,129.41q10.54-14.6,10.55-36.81,0-21.42-10.69-35T55.63,44.08q-10.47,0-17.25,4.37A36.47,36.47,0,0,0,27.92,58.59V8.78H3V144H27.57V129.5q5,7,9.31,9.79Q44,143.93,55.57,144h.78Q75,143.85,85.39,129.41Zm-21-13.73a17.28,17.28,0,0,1-15.07,7.78q-11.2,0-16.66-8T27.22,95.14q0-10.4,2.64-17Q35,65.85,48.64,65.85q13.49,0,18.51,12.59,2.64,6.65,2.64,16.79Q69.79,107.9,64.42,115.68Z" transform="translate(-3 -8.78)"/><polyline class="cls-1" points="310 135.22 310.08 113.96 258.97 113.96 308.33 56.83 308.33 34.96 228.78 34.96 228.78 56.37 275.13 56.37 225.27 115.06 225.27 135.22 310 135.22 225.27 135.22"/><polygon class="cls-1" points="197.46 34.96 174.94 135.22 198.79 135.22 222.87 34.96 197.46 34.96"/><polygon class="cls-1" points="146.78 34.96 132.29 107.13 116.61 34.96 88.37 34.96 116.51 135.22 149.99 135.22 171.28 34.96 146.78 34.96"/></svg>