<svg id="svg3003" xmlns="http://www.w3.org/2000/svg" viewBox="0 0 64 66"><defs><style>.cls-1{fill:#1a1a1a;}</style></defs><title>social</title><path id="path4157" class="cls-1" d="M10.6,8.64A3.71,3.71,0,0,0,6.84,12.3V56.09a3.71,3.71,0,0,0,3.76,3.66H53.88a3.71,3.71,0,0,0,3.76-3.66V12.3a3.71,3.71,0,0,0-3.76-3.66Zm7.85,8.58a4,4,0,1,1-.06,8h0a4,4,0,1,1,.1-8ZM41.07,27.8c5,0,8.82,3.3,8.82,10.39V51.42H42.22V39.07c0-3.1-1.11-5.22-3.88-5.22a4.22,4.22,0,0,0-3.94,2.82,5.22,5.22,0,0,0-.24,1.86V51.42H26.47s.1-20.91,0-23.08h7.68V31.6a7.62,7.62,0,0,1,6.91-3.8Zm-6.91,3.8-.06.09h.06ZM14.57,28.34h7.67V51.42H14.57V28.34Z"/></svg>