<svg id="svg3003" xmlns="http://www.w3.org/2000/svg" viewBox="0 0 64 66"><defs><style>.cls-1{fill:#1a1a1a;}</style></defs><title>social</title><g id="layer1"><path id="rect3687" class="cls-1" d="M21,8.48a15,15,0,0,0-15,15V45.08A15,15,0,0,0,21,60H42.77a15,15,0,0,0,15-15V23.44a15,15,0,0,0-15-15Zm0,4.43H42.77A10.46,10.46,0,0,1,53.3,23.44V45.08A10.46,10.46,0,0,1,42.77,55.61H21A10.45,10.45,0,0,1,10.48,45.08V23.44A10.46,10.46,0,0,1,21,12.91Zm24.76,4.43a3.1,3.1,0,1,0,3.1,3.1A3.1,3.1,0,0,0,45.76,17.34ZM31.89,21A13.28,13.28,0,1,0,45.17,34.26,13.31,13.31,0,0,0,31.89,21Zm0,4.43A8.84,8.84,0,1,1,23,34.26,8.81,8.81,0,0,1,31.89,25.42Z"/></g></svg>