<svg id="Layer_1" data-name="Layer 1" xmlns="http://www.w3.org/2000/svg" xmlns:xlink="http://www.w3.org/1999/xlink" viewBox="0 0 245 128"><defs><style>.cls-1,.cls-19{fill:none;}.cls-2,.cls-8{fill:#282827;}.cls-3{fill:#2a95d2;}.cls-4{opacity:0.24;}.cls-5{clip-path:url(#clip-path);}.cls-6{fill:#6ec8f1;}.cls-7{clip-path:url(#clip-path-2);}.cls-8{font-size:59.95px;font-family:MyriadPro-Regular, Myriad Pro;}.cls-9{fill:#231f20;}.cls-10{fill:#333;}.cls-11{fill:#444445;}.cls-12{opacity:0.23;}.cls-13{clip-path:url(#clip-path-3);}.cls-14{fill:#06445e;}.cls-15{fill:#fff;}.cls-16{fill:#0e3a59;}.cls-17{fill:#5f6060;}.cls-18{fill:#2d2d2d;}.cls-19{stroke:#fff;stroke-miterlimit:10;}</style><clipPath id="clip-path"><rect class="cls-1" x="52.95" y="57" width="27.07" height="31.82"/></clipPath><clipPath id="clip-path-2"><rect class="cls-1" x="19.74" y="64" width="32.67" height="25.82"/></clipPath><clipPath id="clip-path-3"><rect class="cls-1" x="99.33" y="20.47" width="11.91" height="16.67"/></clipPath></defs><path class="cls-2" d="M198,62c0,12,19.69,8.91,19.69,15.72,0,2.2-1.92,3.43-5.19,3.43-3.85,0-6.49-1.76-7.53-5.24l-8.31,1.32c1.07,4.94,5.29,8.9,12.24,10V89.2h5.64V87.33c7.11-.58,11.53-4.49,11.53-10.44,0-12-19.69-9.3-19.69-15.42,0-1.91,1.77-3.48,4.78-3.48s5.09,2,6,4.7l8.21-1.27c-1-4.94-4.26-8.9-10.8-9.67V49.31h-5.64v2.55c-6.23.69-10.89,4-10.89,10.09"/><path class="cls-2" d="M180.06,51.84c-8.06,0-13.66,3.86-15.13,9.85l9.68,1.53c.93-2.66,2.51-4.19,5-4.19C182.45,59,184,61,184,64.15v3.46a22.58,22.58,0,0,0-7.19-1.13c-8.46,0-13.48,4.06-13.48,10.59,0,6.06,4.52,9.85,11.51,9.85a13.34,13.34,0,0,0,10.85-5v3.89h9V64c0-7.52-5.76-12.18-14.68-12.18m4,22.43C184,77.8,182,80,178.23,80c-3.06,0-4.76-1.53-4.76-4s1.91-4.13,5.31-4.13A11.3,11.3,0,0,1,184,73Z"/><path class="cls-2" d="M152.57,58.47a12,12,0,0,0-10.92-6.54c-8.25,0-13.43,6.55-13.43,17s4.87,16.94,13.06,16.94a11.19,11.19,0,0,0,9.48-4.8v2.53c0,4.86-2.29,7.86-6.35,7.86a6,6,0,0,1-5.7-3.79l-9.58,1.53c1.66,5.92,7.29,9.52,15.34,9.52,10.45,0,17-6.32,17-16.38V53.12h-9ZM145,77.73c-3.73,0-6.06-3.4-6.06-8.85S141.25,60,145.11,60s6.26,3.4,6.26,8.85-2.46,8.92-6.39,8.92"/><path class="cls-3" d="M80,56.11H54.07v6.72A151.26,151.26,0,0,1,80,57Z"/><path class="cls-3" d="M29.78,68.51c.6-4.51,2.66-6.92,6.06-6.92,3.1,0,4.92,2,5.62,5.81,2.87-1.17,5.9-2.31,9.06-3.4-2.56-6-7.64-9.15-14.68-9.15C25.05,54.85,19,61.7,19,72.15a22.56,22.56,0,0,0,.74,5.93A173.7,173.7,0,0,1,38.8,68.51Z"/><path class="cls-3" d="M67.73,64,52.95,80.92v7.89H80V80.35H65.6L80,63.68V57a151.17,151.17,0,0,0-25.94,5.83V64Z"/><g class="cls-4"><g class="cls-5"><path class="cls-6" d="M67.73,64,52.95,80.92v7.89H80V80.35H65.6L80,63.68V57a151.17,151.17,0,0,0-25.94,5.83V64Z"/></g></g><path class="cls-3" d="M36.5,89.82c8.05,0,13.52-5,15.12-11.72H43.36c-1.07,3.38-3.13,4.43-6.12,4.43-4.33,0-6.79-3.3-7.39-7.82H52.41A27.33,27.33,0,0,0,50.52,64c-3.16,1.08-6.19,2.23-9.06,3.4.07.36.13.72.17,1.11H38.8a173.69,173.69,0,0,0-19.06,9.56c2,7.48,8.12,11.75,16.77,11.75"/><g class="cls-4"><g class="cls-7"><path class="cls-6" d="M36.5,89.82c8.05,0,13.52-5,15.12-11.72H43.36c-1.07,3.38-3.13,4.43-6.12,4.43-4.33,0-6.79-3.3-7.39-7.82H52.41A27.33,27.33,0,0,0,50.52,64c-3.16,1.08-6.19,2.23-9.06,3.4.07.36.13.72.17,1.11H38.8a173.69,173.69,0,0,0-19.06,9.56c2,7.48,8.12,11.75,16.77,11.75"/></g></g><text class="cls-8" transform="translate(223.61 86.32)">.</text><rect class="cls-9" x="93.99" y="66.62" width="16.93" height="6.29"/><polygon class="cls-10" points="110.41 40.02 110.41 37.19 94.05 37.13 94.05 39.8 110.41 40.02"/><path class="cls-11" d="M113.73,97.24V35.55a.53.53,0,0,0-.53-.53H91.57a.53.53,0,0,0-.53.53V97.24a.53.53,0,0,0,.53.53H113.2a.53.53,0,0,0,.53-.53"/><path class="cls-9" d="M113.2,98.57H91.57a1.33,1.33,0,0,1-1.33-1.33V35.55a1.33,1.33,0,0,1,1.33-1.33H113.2a1.33,1.33,0,0,1,1.33,1.33V97.24a1.33,1.33,0,0,1-1.33,1.33M91.84,97h21.1V35.81H91.84Z"/><path class="cls-3" d="M100.84,29.43l2,2.87.86-2.1-1.24-2.64-2-1.36.11-3.75,2.31-2,1.45,1.77h.32l6.59,8.38a9.9,9.9,0,1,0-9.32,6.56,10,10,0,0,0,1-.05l-3.62-4.68Z"/><path class="cls-3" d="M111.24,30.62l-6.59-8.38h-.32l-1.45-1.77-2.31,2-.11,3.75,2,1.36,1.24,2.63-.86,2.1-2-2.87-1.5,3L103,37.13a9.91,9.91,0,0,0,8.29-6.51"/><g class="cls-12"><g class="cls-13"><path class="cls-14" d="M111.24,30.62l-6.59-8.38h-.32l-1.45-1.77-2.31,2-.11,3.75,2,1.36,1.24,2.63-.86,2.1-2-2.87-1.5,3L103,37.13a9.91,9.91,0,0,0,8.29-6.51"/></g></g><path class="cls-15" d="M101.08,21.36v-.89h1.85v.89a2.69,2.69,0,0,1,2.43,2.93v.38h-2.14v-.5c0-.86-.41-1.18-1.13-1.18s-1.13.33-1.13,1.18c0,2.47,4.42,2.59,4.42,6a2.72,2.72,0,0,1-2.45,2.95V34h-1.85v-.87a2.71,2.71,0,0,1-2.45-2.95v-.82h2.14v.94a1.17,1.17,0,0,0,2.35,0c0-2.47-4.42-2.59-4.42-6a2.7,2.7,0,0,1,2.39-2.93"/><path class="cls-16" d="M102.3,37.5c-5.84,0-10.77-4.7-10.77-10.26S96.46,17,102.3,17s10.77,4.7,10.77,10.26S108.13,37.5,102.3,37.5m0-18.93c-5,0-9.17,4-9.17,8.67s4.2,8.66,9.17,8.66,9.17-4,9.17-8.66-4.2-8.67-9.17-8.67"/><path class="cls-17" d="M116.86,77.2l-.24-1.58.12.79-.13-.79c.06,0,6.29-1.24,6-14.53l1.6,0c.34,14.8-7,16.09-7.33,16.14"/><rect class="cls-11" x="91.04" y="107.17" width="3.19" height="3.1"/><path class="cls-9" d="M95,111.07H90.24v-4.7H95Zm-3.19-1.6h1.6V108h-1.6Z"/><path class="cls-17" d="M117.69,87.27a2.73,2.73,0,0,1-1.36-.34l.81-1.38a1.41,1.41,0,0,0,1.38-.12c1.23-.73,4.07-4.21,4.07-20.72h1.6c0,12.84-1.66,20.28-4.92,22.14a3.19,3.19,0,0,1-1.58.43"/><rect class="cls-11" x="110.54" y="107.17" width="3.19" height="3.1"/><path class="cls-9" d="M114.53,111.07h-4.79v-4.7h4.79Zm-3.19-1.6h1.6V108h-1.6Z"/><path class="cls-10" d="M114.26,44.77h2.13a.53.53,0,0,1,.53.53v57.26a.53.53,0,0,1-.53.53h-2.13a.53.53,0,0,1-.53-.53V45.3a.53.53,0,0,1,.53-.53"/><path class="cls-9" d="M116.39,103.89h-2.13a1.33,1.33,0,0,1-1.33-1.33V45.3A1.33,1.33,0,0,1,114.26,44h2.13a1.33,1.33,0,0,1,1.33,1.33v57.26a1.33,1.33,0,0,1-1.33,1.33m-1.86-1.59h1.6V45.56h-1.6Z"/><path class="cls-10" d="M90.51,44.77H88.2a.53.53,0,0,0-.53.53v57.26a.53.53,0,0,0,.53.53h2.31a.53.53,0,0,0,.53-.53V45.3a.53.53,0,0,0-.53-.53"/><path class="cls-9" d="M90.51,103.89H88.2a1.33,1.33,0,0,1-1.33-1.33V45.3A1.33,1.33,0,0,1,88.2,44h2.3a1.33,1.33,0,0,1,1.33,1.33v57.26a1.33,1.33,0,0,1-1.33,1.33m-2-1.59h1.77V45.56H88.47Z"/><path class="cls-2" d="M119.53,103.09H84.84a.54.54,0,0,0-.54.53v3a.54.54,0,0,0,.54.53h34.69a.54.54,0,0,0,.54-.53v-3a.54.54,0,0,0-.54-.53"/><path class="cls-9" d="M119.53,108H84.84a1.33,1.33,0,0,1-1.34-1.33v-3a1.33,1.33,0,0,1,1.34-1.33h34.69a1.33,1.33,0,0,1,1.34,1.33v3a1.33,1.33,0,0,1-1.34,1.33m-34.43-1.6h34.17v-2.48H85.1Z"/><rect class="cls-9" x="83.06" y="110.54" width="38.65" height="1.6"/><path class="cls-9" d="M110,36.7h-6.64c-1.21,0-.86,1.73,0,1.6h6.37v1.24H94.85V38.29h6.07a.8.8,0,1,0,0-1.59h-6.3A1.33,1.33,0,0,0,93.26,38v3.1h18.08V38A1.33,1.33,0,0,0,110,36.7"/><path class="cls-9" d="M102.3,15.87A11.55,11.55,0,0,0,90.51,27.13c0,5.13,3.06,9.79,9.91,10.88a1.61,1.61,0,0,1-.06-.42l.52-.88a9.51,9.51,0,0,1-8.78-9.58,10.21,10.21,0,0,1,20.39,0c0,4.52-3.19,8.82-9.36,9.6,0,.55.45.93.25,1.44,7.37-1.24,10.7-5.9,10.7-11A11.55,11.55,0,0,0,102.3,15.87"/><rect class="cls-18" x="94.23" y="76.94" width="16.31" height="15.25"/><polygon class="cls-2" points="110.01 76.41 94.76 76.41 94.23 92.19 96.45 92.19 110.55 80.4 110.01 76.41"/><path class="cls-15" d="M110,73.22H94.85a.53.53,0,0,1-.53-.53V67.55a.53.53,0,0,1,.53-.53H110a.53.53,0,0,1,.53.53v5.14a.53.53,0,0,1-.53.53"/><path class="cls-9" d="M110,74H94.85a1.33,1.33,0,0,1-1.33-1.33V67.55a1.33,1.33,0,0,1,1.33-1.33H110a1.33,1.33,0,0,1,1.33,1.33v5.14A1.33,1.33,0,0,1,110,74"/><path class="cls-9" d="M110,93.52H94.76a1.33,1.33,0,0,1-1.33-1.33V76.94a1.33,1.33,0,0,1,1.33-1.33H110a1.33,1.33,0,0,1,1.33,1.33V92.19A1.33,1.33,0,0,1,110,93.52m-15-1.6h14.71V77.21H95Z"/><path class="cls-15" d="M107.46,61.07h-10a1,1,0,0,1-1-1V45.76a1,1,0,0,1,1-1h10a1,1,0,0,1,1,1V60.07a1,1,0,0,1-1,1"/><path class="cls-9" d="M107.93,61.87H97a1.33,1.33,0,0,1-1.33-1.33V45.3A1.33,1.33,0,0,1,97,44h11a1.33,1.33,0,0,1,1.33,1.33V60.54a1.33,1.33,0,0,1-1.33,1.33m-10.68-1.6h10.42V45.56H97.24Z"/><rect class="cls-3" x="98.48" y="59.11" width="1.95" height="4.54"/><path class="cls-15" d="M100.7,63.91H98.22V58.84h2.48Zm-2-.53h1.42v-4H98.75Z"/><rect class="cls-3" x="101.68" y="59.11" width="1.95" height="4.54"/><path class="cls-15" d="M103.89,63.91h-2.48V58.84h2.48Zm-1.95-.53h1.42v-4h-1.42Z"/><rect class="cls-3" x="104.87" y="59.11" width="1.95" height="4.54"/><path class="cls-15" d="M107.08,63.91H104.6V58.84h2.48Zm-2-.53h1.42v-4h-1.42Z"/><path class="cls-9" d="M106.44,57h-8c-.81,0-.87-1.6,0-1.6h8c.82,0,.89,1.6,0,1.6"/><path class="cls-9" d="M106.44,54.6h-8c-.81,0-.87-1.59,0-1.59h8c.82,0,.89,1.59,0,1.59"/><path class="cls-15" d="M104.47,49.17a2.18,2.18,0,1,1-2.17-2,2.1,2.1,0,0,1,2.17,2"/><path class="cls-9" d="M102.3,52a2.82,2.82,0,1,1,3-2.81,2.9,2.9,0,0,1-3,2.81m0-4a1.23,1.23,0,1,0,1.37,1.22A1.31,1.31,0,0,0,102.3,48"/><rect class="cls-9" x="117.67" y="103.09" width="0.53" height="4.08"/><rect class="cls-9" x="86.3" y="103.36" width="0.53" height="4.08"/><path class="cls-17" d="M124,61.72l-1.59-.14a26.59,26.59,0,0,0-.69-6.27l1.55-.36a27.64,27.64,0,0,1,.72,6.77"/><path class="cls-15" d="M122.45,61.77v8.57a.5.5,0,0,0,.46.53h.49a.5.5,0,0,0,.46-.53V61.77a.5.5,0,0,0-.46-.53h-.49a.5.5,0,0,0-.46.53"/><path class="cls-9" d="M123.4,71.67h-.49a1.3,1.3,0,0,1-1.26-1.33V61.77a1.3,1.3,0,0,1,1.26-1.33h.49a1.3,1.3,0,0,1,1.26,1.33v8.57a1.3,1.3,0,0,1-1.26,1.33"/><path class="cls-15" d="M116.39,51.19a6.65,6.65,0,0,1,6.31,5.51c.07.35.12-5.69-6.31-5.51"/><path class="cls-9" d="M122.08,57.62l-.16-.75A5.78,5.78,0,0,0,116.39,52l0-1.6h.29c4.66,0,6.6,3.16,6.84,5.92,0,.27.1,1.09-.67,1.2Z"/><path class="cls-9" d="M120.38,55.13a2.94,2.94,0,0,0,2.18,0c1.24-.46,2-1.52,0-1.52s-2.9,1.13-2.18,1.52"/><polyline class="cls-9" points="120.4 52.01 120.07 52.01 116.92 53.95 117.28 53.95"/><rect class="cls-3" x="95.03" y="67.55" width="14.71" height="4.79"/><rect class="cls-19" x="95.03" y="67.55" width="14.71" height="4.79"/></svg>