<svg id="Layer_1" data-name="Layer 1" xmlns="http://www.w3.org/2000/svg" viewBox="0 0 123 97"><defs><style>.cls-1{fill:#404041;}.cls-2{fill:none;stroke:#404041;stroke-miterlimit:10;}</style></defs><path class="cls-1" d="M18.9,58.49a6.07,6.07,0,0,1,4.57,2,6.78,6.78,0,0,1,1.31,2.15,7.26,7.26,0,0,1,.48,2.65V83.62H23.59V81.55a7.29,7.29,0,0,1-2.27,1.69,6.46,6.46,0,0,1-2.82.63,6.66,6.66,0,0,1-2.65-.53,6.68,6.68,0,0,1-3.58-3.58,6.66,6.66,0,0,1-.53-2.65V75.7q0-3.13,3.84-4.54.45-.2,1.54-.6l2.32-.88,2.4-.91q1.16-.43,1.77-.68V65.25a5.33,5.33,0,0,0-1.29-3.61,4.29,4.29,0,0,0-3.41-1.49,4.8,4.8,0,0,0-2,.4,5.61,5.61,0,0,0-1.61,1.08,4.92,4.92,0,0,0-1.11,1.61,5,5,0,0,0-.4,2H12.14a6.66,6.66,0,0,1,.53-2.65A6.67,6.67,0,0,1,16.25,59a6.67,6.67,0,0,1,2.65-.53m4.69,12.66V69.89q-.76.3-1.87.71l-2.22.83-2,.78-1.31.5a7,7,0,0,0-1.87,1.06,2.3,2.3,0,0,0-.91,1.92v1.41a5,5,0,0,0,.4,2,5,5,0,0,0,2.7,2.7,5.13,5.13,0,0,0,4,0,5,5,0,0,0,2.7-2.7,5,5,0,0,0,.4-2Z"/><path class="cls-2" d="M18.9,58.49a6.07,6.07,0,0,1,4.57,2,6.78,6.78,0,0,1,1.31,2.15,7.26,7.26,0,0,1,.48,2.65V83.62H23.59V81.55a7.29,7.29,0,0,1-2.27,1.69,6.46,6.46,0,0,1-2.82.63,6.66,6.66,0,0,1-2.65-.53,6.68,6.68,0,0,1-3.58-3.58,6.66,6.66,0,0,1-.53-2.65V75.7q0-3.13,3.84-4.54.45-.2,1.54-.6l2.32-.88,2.4-.91q1.16-.43,1.77-.68V65.25a5.33,5.33,0,0,0-1.29-3.61,4.29,4.29,0,0,0-3.41-1.49,4.8,4.8,0,0,0-2,.4,5.61,5.61,0,0,0-1.61,1.08,4.92,4.92,0,0,0-1.11,1.61,5,5,0,0,0-.4,2H12.14a6.66,6.66,0,0,1,.53-2.65A6.67,6.67,0,0,1,16.25,59,6.67,6.67,0,0,1,18.9,58.49Zm4.69,12.66V69.89q-.76.3-1.87.71l-2.22.83-2,.78-1.31.5a7,7,0,0,0-1.87,1.06,2.3,2.3,0,0,0-.91,1.92v1.41a5,5,0,0,0,.4,2,5,5,0,0,0,2.7,2.7,5.13,5.13,0,0,0,4,0,5,5,0,0,0,2.7-2.7,5,5,0,0,0,.4-2Z"/><path class="cls-1" d="M18.5,84.46a7.27,7.27,0,0,1-2.88-.58A7.26,7.26,0,0,1,11.73,80a7.27,7.27,0,0,1-.58-2.88V75.7c0-2.35,1.42-4.06,4.22-5.09.27-.12.8-.33,1.54-.6l2.31-.88,2.4-.91L23,67.68V65.25A4.72,4.72,0,0,0,21.86,62a3.7,3.7,0,0,0-3-1.29,4.24,4.24,0,0,0-1.73.35,5,5,0,0,0-1.45,1,4.4,4.4,0,0,0-1.33,3.18v.59H11.55v-.59a7.26,7.26,0,0,1,.58-2.88,7.31,7.31,0,0,1,9.59-3.89,6.75,6.75,0,0,1,2.18,1.58,7.34,7.34,0,0,1,1.43,2.33,7.86,7.86,0,0,1,.52,2.86v19H23V82.89a8.13,8.13,0,0,1-1.43.88,7.07,7.07,0,0,1-3.08.69m.4-24.89a4.87,4.87,0,0,1,3.85,1.69,5.93,5.93,0,0,1,1.43,4v3.22l-.36.15q-.61.26-1.79.69l-2.39.91-2.33.89q-1.06.39-1.51.59c-2.36.87-3.48,2.17-3.48,4v1.41a6.09,6.09,0,0,0,.48,2.42,6.15,6.15,0,0,0,8.26,3.18,6.73,6.73,0,0,0,2.09-1.55l1-1.13v3h.49V65.25a6.7,6.7,0,0,0-.44-2.43,6.18,6.18,0,0,0-1.2-2,5.57,5.57,0,0,0-1.8-1.3,6.14,6.14,0,0,0-4.75,0,6.08,6.08,0,0,0-3.27,3.27,6,6,0,0,0-.46,1.83h.49A5.45,5.45,0,0,1,13.67,63a5.51,5.51,0,0,1,1.24-1.8A6.22,6.22,0,0,1,16.69,60a5.4,5.4,0,0,1,2.21-.45m-.4,23.22a5.58,5.58,0,0,1-2.23-.45,5.64,5.64,0,0,1-3-3,5.56,5.56,0,0,1-.45-2.22V75.7a2.87,2.87,0,0,1,1.13-2.38,7.6,7.6,0,0,1,2-1.15l1.3-.5,2-.78,2.23-.84q1.1-.4,1.85-.7l.8-.32v8.08a5.58,5.58,0,0,1-.45,2.22,5.64,5.64,0,0,1-3,3,5.59,5.59,0,0,1-2.23.45m4.51-12-1.08.4L19.72,72l-2,.78-1.32.51a6.42,6.42,0,0,0-1.71,1A1.7,1.7,0,0,0,14,75.7v1.41a4.4,4.4,0,0,0,.35,1.76,4.51,4.51,0,0,0,5.91,2.4,4.63,4.63,0,0,0,1.43-1,4.55,4.55,0,0,0,1-1.43A4.4,4.4,0,0,0,23,77.11Z"/><path class="cls-2" d="M18.5,84.46a7.27,7.27,0,0,1-2.88-.58A7.26,7.26,0,0,1,11.73,80a7.27,7.27,0,0,1-.58-2.88V75.7c0-2.35,1.42-4.06,4.22-5.09.27-.12.8-.33,1.54-.6l2.31-.88,2.4-.91L23,67.68V65.25A4.72,4.72,0,0,0,21.86,62a3.7,3.7,0,0,0-3-1.29,4.24,4.24,0,0,0-1.73.35,5,5,0,0,0-1.45,1,4.4,4.4,0,0,0-1.33,3.18v.59H11.55v-.59a7.26,7.26,0,0,1,.58-2.88,7.31,7.31,0,0,1,9.59-3.89,6.75,6.75,0,0,1,2.18,1.58,7.34,7.34,0,0,1,1.43,2.33,7.86,7.86,0,0,1,.52,2.86v19H23V82.89a8.13,8.13,0,0,1-1.43.88A7.07,7.07,0,0,1,18.5,84.46Zm.4-24.89a4.87,4.87,0,0,1,3.85,1.69,5.93,5.93,0,0,1,1.43,4v3.22l-.36.15q-.61.26-1.79.69l-2.39.91-2.33.89q-1.06.39-1.51.59c-2.36.87-3.48,2.17-3.48,4v1.41a6.09,6.09,0,0,0,.48,2.42,6.15,6.15,0,0,0,8.26,3.18,6.73,6.73,0,0,0,2.09-1.55l1-1.13v3h.49V65.25a6.7,6.7,0,0,0-.44-2.43,6.18,6.18,0,0,0-1.2-2,5.57,5.57,0,0,0-1.8-1.3,6.14,6.14,0,0,0-4.75,0,6.08,6.08,0,0,0-3.27,3.27,6,6,0,0,0-.46,1.83h.49A5.45,5.45,0,0,1,13.67,63a5.51,5.51,0,0,1,1.24-1.8A6.22,6.22,0,0,1,16.69,60,5.4,5.4,0,0,1,18.9,59.57Zm-.4,23.22a5.58,5.58,0,0,1-2.23-.45,5.64,5.64,0,0,1-3-3,5.56,5.56,0,0,1-.45-2.22V75.7a2.87,2.87,0,0,1,1.13-2.38,7.6,7.6,0,0,1,2-1.15l1.3-.5,2-.78,2.23-.84q1.1-.4,1.85-.7l.8-.32v8.08a5.58,5.58,0,0,1-.45,2.22,5.64,5.64,0,0,1-3,3A5.59,5.59,0,0,1,18.5,82.79Zm4.51-12-1.08.4L19.72,72l-2,.78-1.32.51a6.42,6.42,0,0,0-1.71,1A1.7,1.7,0,0,0,14,75.7v1.41a4.4,4.4,0,0,0,.35,1.76,4.51,4.51,0,0,0,5.91,2.4,4.63,4.63,0,0,0,1.43-1,4.55,4.55,0,0,0,1-1.43A4.4,4.4,0,0,0,23,77.11Z"/><path class="cls-1" d="M48.77,47.44V83.62H47.1V81.55a7.31,7.31,0,0,1-2.27,1.69,6.46,6.46,0,0,1-2.83.63,6.65,6.65,0,0,1-2.65-.53,6.67,6.67,0,0,1-3.58-3.58,6.66,6.66,0,0,1-.53-2.65V65.25a6.65,6.65,0,0,1,.53-2.65A6.67,6.67,0,0,1,39.36,59a6.72,6.72,0,0,1,7.74,1.79V47.44ZM42,82.21a5,5,0,0,0,2-.4,5.19,5.19,0,0,0,1.61-1.09A5.11,5.11,0,0,0,46.7,79.1a5,5,0,0,0,.4-2V65.25a5,5,0,0,0-.4-2,5,5,0,0,0-2.7-2.7,5.13,5.13,0,0,0-4,0,5.05,5.05,0,0,0-2.7,2.7,5,5,0,0,0-.4,2V77.11a5,5,0,0,0,.4,2,5.11,5.11,0,0,0,1.08,1.61A5.16,5.16,0,0,0,40,81.8a5,5,0,0,0,2,.4"/><path class="cls-2" d="M48.77,47.44V83.62H47.1V81.55a7.31,7.31,0,0,1-2.27,1.69,6.46,6.46,0,0,1-2.83.63,6.65,6.65,0,0,1-2.65-.53,6.67,6.67,0,0,1-3.58-3.58,6.66,6.66,0,0,1-.53-2.65V65.25a6.65,6.65,0,0,1,.53-2.65A6.67,6.67,0,0,1,39.36,59a6.72,6.72,0,0,1,7.74,1.79V47.44ZM42,82.21a5,5,0,0,0,2-.4,5.19,5.19,0,0,0,1.61-1.09A5.11,5.11,0,0,0,46.7,79.1a5,5,0,0,0,.4-2V65.25a5,5,0,0,0-.4-2,5,5,0,0,0-2.7-2.7,5.13,5.13,0,0,0-4,0,5.05,5.05,0,0,0-2.7,2.7,5,5,0,0,0-.4,2V77.11a5,5,0,0,0,.4,2,5.11,5.11,0,0,0,1.08,1.61A5.16,5.16,0,0,0,40,81.8,5,5,0,0,0,42,82.21Z"/><path class="cls-1" d="M42,84.46a7.26,7.26,0,0,1-2.88-.58A7.26,7.26,0,0,1,35.24,80a7.27,7.27,0,0,1-.58-2.88V65.25a7.29,7.29,0,0,1,.58-2.88,7.36,7.36,0,0,1,9.84-3.81,7.26,7.26,0,0,1,1.44.88V46.86h2.84V84.2H46.52V82.89a8,8,0,0,1-1.43.88,7.06,7.06,0,0,1-3.08.69m0-25.38a6.1,6.1,0,0,0-2.42.48,6.08,6.08,0,0,0-3.27,3.27,6.11,6.11,0,0,0-.48,2.42V77.11a6.09,6.09,0,0,0,.48,2.42,6.15,6.15,0,0,0,8.26,3.18,6.75,6.75,0,0,0,2.09-1.55l1-1.13v3h.49V48h-.49V62.39l-1-1.19A6,6,0,0,0,42,59.08m0,23.71a5.57,5.57,0,0,1-2.23-.45,5.64,5.64,0,0,1-3-3,5.56,5.56,0,0,1-.45-2.22V65.25A5.57,5.57,0,0,1,36.78,63,5.74,5.74,0,0,1,38,61.23,5.81,5.81,0,0,1,39.78,60a5.73,5.73,0,0,1,4.45,0A5.81,5.81,0,0,1,46,61.23,5.76,5.76,0,0,1,47.24,63a5.58,5.58,0,0,1,.45,2.22V77.11a5.57,5.57,0,0,1-.45,2.22A5.73,5.73,0,0,1,46,81.13a5.81,5.81,0,0,1-1.79,1.21,5.6,5.6,0,0,1-2.23.45m0-22a4.41,4.41,0,0,0-1.76.36,4.48,4.48,0,0,0-2.39,2.39,4.4,4.4,0,0,0-.35,1.76V77.11a4.39,4.39,0,0,0,.35,1.76,4.51,4.51,0,0,0,8.31,0,4.41,4.41,0,0,0,.36-1.76V65.25a4.42,4.42,0,0,0-.36-1.76,4.47,4.47,0,0,0-2.39-2.4A4.43,4.43,0,0,0,42,60.74"/><path class="cls-2" d="M42,84.46a7.26,7.26,0,0,1-2.88-.58A7.26,7.26,0,0,1,35.24,80a7.27,7.27,0,0,1-.58-2.88V65.25a7.29,7.29,0,0,1,.58-2.88,7.36,7.36,0,0,1,9.84-3.81,7.26,7.26,0,0,1,1.44.88V46.86h2.84V84.2H46.52V82.89a8,8,0,0,1-1.43.88A7.06,7.06,0,0,1,42,84.46Zm0-25.38a6.1,6.1,0,0,0-2.42.48,6.08,6.08,0,0,0-3.27,3.27,6.11,6.11,0,0,0-.48,2.42V77.11a6.09,6.09,0,0,0,.48,2.42,6.15,6.15,0,0,0,8.26,3.18,6.75,6.75,0,0,0,2.09-1.55l1-1.13v3h.49V48h-.49V62.39l-1-1.19A6,6,0,0,0,42,59.08Zm0,23.71a5.57,5.57,0,0,1-2.23-.45,5.64,5.64,0,0,1-3-3,5.56,5.56,0,0,1-.45-2.22V65.25A5.57,5.57,0,0,1,36.78,63,5.74,5.74,0,0,1,38,61.23,5.81,5.81,0,0,1,39.78,60a5.73,5.73,0,0,1,4.45,0A5.81,5.81,0,0,1,46,61.23,5.76,5.76,0,0,1,47.24,63a5.58,5.58,0,0,1,.45,2.22V77.11a5.57,5.57,0,0,1-.45,2.22A5.73,5.73,0,0,1,46,81.13a5.81,5.81,0,0,1-1.79,1.21A5.6,5.6,0,0,1,42,82.79Zm0-22a4.41,4.41,0,0,0-1.76.36,4.48,4.48,0,0,0-2.39,2.39,4.4,4.4,0,0,0-.35,1.76V77.11a4.39,4.39,0,0,0,.35,1.76,4.51,4.51,0,0,0,8.31,0,4.41,4.41,0,0,0,.36-1.76V65.25a4.42,4.42,0,0,0-.36-1.76,4.47,4.47,0,0,0-2.39-2.4A4.43,4.43,0,0,0,42,60.74Z"/><path class="cls-1" d="M72.28,47.44V83.62H70.62V81.55a7.32,7.32,0,0,1-2.27,1.69,6.46,6.46,0,0,1-2.83.63,6.65,6.65,0,0,1-2.65-.53,6.67,6.67,0,0,1-3.58-3.58,6.66,6.66,0,0,1-.53-2.65V65.25a6.65,6.65,0,0,1,.53-2.65A6.67,6.67,0,0,1,62.87,59a6.72,6.72,0,0,1,7.74,1.79V47.44ZM65.52,82.21a5,5,0,0,0,2-.4,5.19,5.19,0,0,0,1.61-1.09,5.11,5.11,0,0,0,1.08-1.61,5,5,0,0,0,.4-2V65.25a5,5,0,0,0-.4-2,5,5,0,0,0-2.7-2.7,5.13,5.13,0,0,0-4,0,5.05,5.05,0,0,0-2.7,2.7,5,5,0,0,0-.4,2V77.11a5,5,0,0,0,.4,2,5.11,5.11,0,0,0,1.08,1.61,5.16,5.16,0,0,0,1.61,1.09,5,5,0,0,0,2,.4"/><path class="cls-2" d="M72.28,47.44V83.62H70.62V81.55a7.32,7.32,0,0,1-2.27,1.69,6.46,6.46,0,0,1-2.83.63,6.65,6.65,0,0,1-2.65-.53,6.67,6.67,0,0,1-3.58-3.58,6.66,6.66,0,0,1-.53-2.65V65.25a6.65,6.65,0,0,1,.53-2.65A6.67,6.67,0,0,1,62.87,59a6.72,6.72,0,0,1,7.74,1.79V47.44ZM65.52,82.21a5,5,0,0,0,2-.4,5.19,5.19,0,0,0,1.61-1.09,5.11,5.11,0,0,0,1.08-1.61,5,5,0,0,0,.4-2V65.25a5,5,0,0,0-.4-2,5,5,0,0,0-2.7-2.7,5.13,5.13,0,0,0-4,0,5.05,5.05,0,0,0-2.7,2.7,5,5,0,0,0-.4,2V77.11a5,5,0,0,0,.4,2,5.11,5.11,0,0,0,1.08,1.61,5.16,5.16,0,0,0,1.61,1.09A5,5,0,0,0,65.52,82.21Z"/><path class="cls-1" d="M65.52,84.46a7.26,7.26,0,0,1-2.88-.58A7.26,7.26,0,0,1,58.75,80a7.25,7.25,0,0,1-.58-2.88V65.25a7.27,7.27,0,0,1,.58-2.88,7.36,7.36,0,0,1,9.84-3.81,7.26,7.26,0,0,1,1.44.88V46.86h2.84V84.2H70V82.89a8,8,0,0,1-1.43.88,7.06,7.06,0,0,1-3.08.69m0-25.38a6.1,6.1,0,0,0-2.42.48,6.09,6.09,0,0,0-3.28,3.27,6.13,6.13,0,0,0-.48,2.42V77.11a6.09,6.09,0,0,0,.48,2.42,6.15,6.15,0,0,0,8.26,3.18,6.75,6.75,0,0,0,2.09-1.55l1-1.13v3h.49V48H71.2V62.39l-1-1.19a6,6,0,0,0-4.65-2.12m0,23.71a5.57,5.57,0,0,1-2.23-.45,5.64,5.64,0,0,1-3-3,5.57,5.57,0,0,1-.45-2.22V65.25A5.59,5.59,0,0,1,60.29,63a5.68,5.68,0,0,1,10.46,0,5.56,5.56,0,0,1,.45,2.22V77.11a5.55,5.55,0,0,1-.45,2.22,5.71,5.71,0,0,1-1.21,1.8,5.81,5.81,0,0,1-1.79,1.21,5.6,5.6,0,0,1-2.23.45m0-22a4.41,4.41,0,0,0-1.76.36,4.48,4.48,0,0,0-2.39,2.39A4.4,4.4,0,0,0,61,65.25V77.11a4.39,4.39,0,0,0,.35,1.76,4.51,4.51,0,0,0,8.31,0A4.41,4.41,0,0,0,70,77.11V65.25a4.42,4.42,0,0,0-.36-1.76,4.47,4.47,0,0,0-2.39-2.4,4.43,4.43,0,0,0-1.76-.35"/><path class="cls-2" d="M65.52,84.46a7.26,7.26,0,0,1-2.88-.58A7.26,7.26,0,0,1,58.75,80a7.25,7.25,0,0,1-.58-2.88V65.25a7.27,7.27,0,0,1,.58-2.88,7.36,7.36,0,0,1,9.84-3.81,7.26,7.26,0,0,1,1.44.88V46.86h2.84V84.2H70V82.89a8,8,0,0,1-1.43.88A7.06,7.06,0,0,1,65.52,84.46Zm0-25.38a6.1,6.1,0,0,0-2.42.48,6.09,6.09,0,0,0-3.28,3.27,6.13,6.13,0,0,0-.48,2.42V77.11a6.09,6.09,0,0,0,.48,2.42,6.15,6.15,0,0,0,8.26,3.18,6.75,6.75,0,0,0,2.09-1.55l1-1.13v3h.49V48H71.2V62.39l-1-1.19a6,6,0,0,0-4.65-2.12Zm0,23.71a5.57,5.57,0,0,1-2.23-.45,5.64,5.64,0,0,1-3-3,5.57,5.57,0,0,1-.45-2.22V65.25A5.59,5.59,0,0,1,60.29,63a5.68,5.68,0,0,1,10.46,0,5.56,5.56,0,0,1,.45,2.22V77.11a5.55,5.55,0,0,1-.45,2.22,5.71,5.71,0,0,1-1.21,1.8,5.81,5.81,0,0,1-1.79,1.21A5.6,5.6,0,0,1,65.52,82.79Zm0-22a4.41,4.41,0,0,0-1.76.36,4.48,4.48,0,0,0-2.39,2.39A4.4,4.4,0,0,0,61,65.25V77.11a4.39,4.39,0,0,0,.35,1.76,4.51,4.51,0,0,0,8.31,0A4.41,4.41,0,0,0,70,77.11V65.25a4.42,4.42,0,0,0-.36-1.76,4.47,4.47,0,0,0-2.39-2.4A4.43,4.43,0,0,0,65.52,60.74Z"/><path class="cls-1" d="M87.08,82.05a1.84,1.84,0,0,1-.53,1.31,1.77,1.77,0,0,1-2.57,0,1.84,1.84,0,0,1-.53-1.31A1.78,1.78,0,0,1,84,80.79a1.77,1.77,0,0,1,2.57,0,1.78,1.78,0,0,1,.53,1.26"/><path class="cls-2" d="M87.08,82.05a1.84,1.84,0,0,1-.53,1.31,1.77,1.77,0,0,1-2.57,0,1.84,1.84,0,0,1-.53-1.31A1.78,1.78,0,0,1,84,80.79a1.77,1.77,0,0,1,2.57,0A1.78,1.78,0,0,1,87.08,82.05Z"/><path class="cls-1" d="M105.58,69.79c-.3.1-.81.3-1.51.58s-1.47.58-2.3.88-1.62.61-2.4.91-1.38.52-1.82.66v4.29a5,5,0,0,0,.4,2,5.05,5.05,0,0,0,2.7,2.7,5.13,5.13,0,0,0,4,0,5.18,5.18,0,0,0,1.61-1.08,5.12,5.12,0,0,0,1.08-1.62,5,5,0,0,0,.4-2h1.66a6.66,6.66,0,0,1-.53,2.65,6.67,6.67,0,0,1-3.58,3.58,6.89,6.89,0,0,1-5.3,0,6.67,6.67,0,0,1-3.58-3.58,6.66,6.66,0,0,1-.53-2.65V65.25a6.66,6.66,0,0,1,.53-2.65A6.67,6.67,0,0,1,100,59a6.89,6.89,0,0,1,5.3,0,6.67,6.67,0,0,1,3.58,3.58,6.53,6.53,0,0,1,.53,2.6v.05q0,3.13-3.83,4.54m-2.93-9.64a5,5,0,0,0-2,.4A5.2,5.2,0,0,0,99,61.65,5.14,5.14,0,0,0,98,63.26a5,5,0,0,0-.4,2v5.8l1.87-.73,2.22-.83,2-.76,1.34-.51a7.28,7.28,0,0,0,1.82-1.06,2.36,2.36,0,0,0,.91-2,4.79,4.79,0,0,0-.4-2,5.11,5.11,0,0,0-2.7-2.67,5,5,0,0,0-2-.4"/><path class="cls-2" d="M105.58,69.79c-.3.1-.81.3-1.51.58s-1.47.58-2.3.88-1.62.61-2.4.91-1.38.52-1.82.66v4.29a5,5,0,0,0,.4,2,5.05,5.05,0,0,0,2.7,2.7,5.13,5.13,0,0,0,4,0,5.18,5.18,0,0,0,1.61-1.08,5.12,5.12,0,0,0,1.08-1.62,5,5,0,0,0,.4-2h1.66a6.66,6.66,0,0,1-.53,2.65,6.67,6.67,0,0,1-3.58,3.58,6.89,6.89,0,0,1-5.3,0,6.67,6.67,0,0,1-3.58-3.58,6.66,6.66,0,0,1-.53-2.65V65.25a6.66,6.66,0,0,1,.53-2.65A6.67,6.67,0,0,1,100,59a6.89,6.89,0,0,1,5.3,0,6.67,6.67,0,0,1,3.58,3.58,6.53,6.53,0,0,1,.53,2.6v.05Q109.41,68.38,105.58,69.79Zm-2.93-9.64a5,5,0,0,0-2,.4A5.2,5.2,0,0,0,99,61.65,5.14,5.14,0,0,0,98,63.26a5,5,0,0,0-.4,2v5.8l1.87-.73,2.22-.83,2-.76,1.34-.51a7.28,7.28,0,0,0,1.82-1.06,2.36,2.36,0,0,0,.91-2,4.79,4.79,0,0,0-.4-2,5.11,5.11,0,0,0-2.7-2.67A5,5,0,0,0,102.65,60.16Z"/><path class="cls-1" d="M102.65,84.46a7.26,7.26,0,0,1-2.88-.58A7.26,7.26,0,0,1,95.88,80a7.25,7.25,0,0,1-.58-2.88V65.25a7.27,7.27,0,0,1,.58-2.88,7.35,7.35,0,0,1,13.54,0A7.18,7.18,0,0,1,110,65.2c0,2.4-1.42,4.11-4.22,5.14h0q-.44.15-1.48.57t-2.31.89l-2.38.9q-.86.33-1.44.54v3.86a4.39,4.39,0,0,0,.35,1.76,4.5,4.5,0,0,0,8.31,0,4.4,4.4,0,0,0,.36-1.76v-.59H110v.59a7.3,7.3,0,0,1-.58,2.88,7.27,7.27,0,0,1-3.89,3.89,7.27,7.27,0,0,1-2.88.58m0-25.38a6.1,6.1,0,0,0-2.42.48,6.22,6.22,0,0,0-2,1.31,6.29,6.29,0,0,0-1.32,2,6.13,6.13,0,0,0-.48,2.42V77.11A6.09,6.09,0,0,0,97,79.53a6.08,6.08,0,0,0,3.27,3.27,6.34,6.34,0,0,0,4.84,0,6.08,6.08,0,0,0,3.27-3.27,6,6,0,0,0,.46-1.83h-.49a5.49,5.49,0,0,1-.43,1.64,5.71,5.71,0,0,1-1.21,1.8,5.68,5.68,0,0,1-9.25-1.8A5.57,5.57,0,0,1,97,77.11V72.39l.41-.13q.64-.2,1.77-.64l2.41-.91q1.23-.45,2.28-.87c.72-.29,1.23-.49,1.54-.59,2.32-.85,3.44-2.16,3.44-4a6,6,0,0,0-.48-2.42,6.09,6.09,0,0,0-3.27-3.28,6.13,6.13,0,0,0-2.42-.48M97,71.92V65.25A5.59,5.59,0,0,1,97.42,63a5.69,5.69,0,0,1,9.25-1.8A5.88,5.88,0,0,1,107.88,63a5.4,5.4,0,0,1,.45,2.2,2.92,2.92,0,0,1-1.14,2.43,7.86,7.86,0,0,1-2,1.14l-1.34.51-2,.76-2.21.83-1.86.73Zm5.68-11.18a4.41,4.41,0,0,0-1.76.36,4.48,4.48,0,0,0-2.39,2.39,4.4,4.4,0,0,0-.35,1.76v4.94l1.07-.42,2.23-.84,2-.75,1.34-.51a6.69,6.69,0,0,0,1.66-1,1.78,1.78,0,0,0,.68-1.51,4.23,4.23,0,0,0-.35-1.73,4.54,4.54,0,0,0-2.4-2.37,4.43,4.43,0,0,0-1.76-.35"/><path class="cls-2" d="M102.65,84.46a7.26,7.26,0,0,1-2.88-.58A7.26,7.26,0,0,1,95.88,80a7.25,7.25,0,0,1-.58-2.88V65.25a7.27,7.27,0,0,1,.58-2.88,7.35,7.35,0,0,1,13.54,0A7.18,7.18,0,0,1,110,65.2c0,2.4-1.42,4.11-4.22,5.14h0q-.44.15-1.48.57t-2.31.89l-2.38.9q-.86.33-1.44.54v3.86a4.39,4.39,0,0,0,.35,1.76,4.5,4.5,0,0,0,8.31,0,4.4,4.4,0,0,0,.36-1.76v-.59H110v.59a7.3,7.3,0,0,1-.58,2.88,7.27,7.27,0,0,1-3.89,3.89A7.27,7.27,0,0,1,102.65,84.46Zm0-25.38a6.1,6.1,0,0,0-2.42.48,6.22,6.22,0,0,0-2,1.31,6.29,6.29,0,0,0-1.32,2,6.13,6.13,0,0,0-.48,2.42V77.11A6.09,6.09,0,0,0,97,79.53a6.08,6.08,0,0,0,3.27,3.27,6.34,6.34,0,0,0,4.84,0,6.08,6.08,0,0,0,3.27-3.27,6,6,0,0,0,.46-1.83h-.49a5.49,5.49,0,0,1-.43,1.64,5.71,5.71,0,0,1-1.21,1.8,5.68,5.68,0,0,1-9.25-1.8A5.57,5.57,0,0,1,97,77.11V72.39l.41-.13q.64-.2,1.77-.64l2.41-.91q1.23-.45,2.28-.87c.72-.29,1.23-.49,1.54-.59,2.32-.85,3.44-2.16,3.44-4a6,6,0,0,0-.48-2.42,6.09,6.09,0,0,0-3.27-3.28A6.13,6.13,0,0,0,102.65,59.08ZM97,71.92V65.25A5.59,5.59,0,0,1,97.42,63a5.69,5.69,0,0,1,9.25-1.8A5.88,5.88,0,0,1,107.88,63a5.4,5.4,0,0,1,.45,2.2,2.92,2.92,0,0,1-1.14,2.43,7.86,7.86,0,0,1-2,1.14l-1.34.51-2,.76-2.21.83-1.86.73Zm5.68-11.18a4.41,4.41,0,0,0-1.76.36,4.48,4.48,0,0,0-2.39,2.39,4.4,4.4,0,0,0-.35,1.76v4.94l1.07-.42,2.23-.84,2-.75,1.34-.51a6.69,6.69,0,0,0,1.66-1,1.78,1.78,0,0,0,.68-1.51,4.23,4.23,0,0,0-.35-1.73,4.54,4.54,0,0,0-2.4-2.37A4.43,4.43,0,0,0,102.65,60.74Z"/><path class="cls-1" d="M104.89,41.24l-.63-1L87,47.5c0-2.69,0-5.16,0-7.61a1.78,1.78,0,0,1,.87-1.16c4.77-2.79,9.56-5.52,14.35-8.28,1.09-.63,2.17-1.28,3.31-2l-1.37-2.35-7.73,4.45L99,20.42l-2.67-.66c-1,3.84-1.88,7.61-2.84,11.37-.14.55-.29,1.29-.69,1.55-1.8,1.16-3.7,2.19-5.52,3.24-1.2-6.85.56-13.1,3.13-19.3l-2.73-.89-3.4,10.36-9.6-8.45-1.76,2.09,2.9,2.67-5.2,1.12.55,2.65c2.19-.43,4.3-.89,6.43-1.24a2.22,2.22,0,0,1,1.58.38c1.53,1.24,3,2.56,4.43,3.92a2.35,2.35,0,0,1,.69,1.5c0,4,0,8.1,0,12.15a4.19,4.19,0,0,1-.18.78c-1.9-.77-3.7-1.42-5.43-2.24A2.36,2.36,0,0,1,77.52,40c-.49-2.35-.84-4.73-1.25-7.12l-2.64.41,1,6.57-9.31-3.74-1,2.5,1.77.74c5.61,2.28,11.22,4.58,16.85,6.81a1.75,1.75,0,0,1,1.28,2c-.08,6.06-.22,21.63-.33,29.19v-7c0-.34,0-.66,0-.94h0c0-.16,0-.67,0,0,0,.34,0,.65,0,8h2.49c0-10.54.08-12.72.08-12.45l-.08,12.45.14-7c.11-6.35.33-15.05.33-18.19a2,2,0,0,1,1.42-2.17c5.44-2.19,10.83-4.49,16.24-6.76,1.39-.59-.34.17,1.39-.59Z"/><path class="cls-2" d="M104.89,41.24l-.63-1L87,47.5c0-2.69,0-5.16,0-7.61a1.78,1.78,0,0,1,.87-1.16c4.77-2.79,9.56-5.52,14.35-8.28,1.09-.63,2.17-1.28,3.31-2l-1.37-2.35-7.73,4.45L99,20.42l-2.67-.66c-1,3.84-1.88,7.61-2.84,11.37-.14.55-.29,1.29-.69,1.55-1.8,1.16-3.7,2.19-5.52,3.24-1.2-6.85.56-13.1,3.13-19.3l-2.73-.89-3.4,10.36-9.6-8.45-1.76,2.09,2.9,2.67-5.2,1.12.55,2.65c2.19-.43,4.3-.89,6.43-1.24a2.22,2.22,0,0,1,1.58.38c1.53,1.24,3,2.56,4.43,3.92a2.35,2.35,0,0,1,.69,1.5c0,4,0,8.1,0,12.15a4.19,4.19,0,0,1-.18.78c-1.9-.77-3.7-1.42-5.43-2.24A2.36,2.36,0,0,1,77.52,40c-.49-2.35-.84-4.73-1.25-7.12l-2.64.41,1,6.57-9.31-3.74-1,2.5,1.77.74c5.61,2.28,11.22,4.58,16.85,6.81a1.75,1.75,0,0,1,1.28,2c-.08,6.06-.22,21.63-.33,29.19v-7c0-.34,0-.66,0-.94h0c0-.16,0-.67,0,0,0,.34,0,.65,0,8h2.49c0-10.54.08-12.72.08-12.45l-.08,12.45.14-7c.11-6.35.33-15.05.33-18.19a2,2,0,0,1,1.42-2.17c5.44-2.19,10.83-4.49,16.24-6.76,1.39-.59-.34.17,1.39-.59Z"/></svg>