<svg id="Layer_1" data-name="Layer 1" xmlns="http://www.w3.org/2000/svg" xmlns:xlink="http://www.w3.org/1999/xlink" viewBox="0 0 145 102"><defs><style>.cls-1,.cls-6{fill:none;}.cls-2{clip-path:url(#clip-path);}.cls-3{clip-path:url(#clip-path-2);}.cls-4{fill:#2a95d2;}.cls-5{fill:#231f20;}.cls-6{stroke:#231f20;stroke-miterlimit:10;}.cls-7{fill:#fff;}.cls-8{fill:#333;}.cls-9{fill:#444445;}.cls-10{opacity:0.23;}.cls-11{clip-path:url(#clip-path-4);}.cls-12{fill:#06445e;}.cls-13{fill:#0e3a59;}.cls-14{fill:#5f6060;}.cls-15{fill:#282827;}.cls-16{fill:#2d2d2d;}</style><clipPath id="clip-path"><polyline class="cls-1" points="157 -540 157 228 -926 228 -926 -540"/></clipPath><clipPath id="clip-path-2"><rect class="cls-1" x="16.44" y="66.28" width="17.06" height="22.74"/></clipPath><clipPath id="clip-path-4"><rect class="cls-1" x="73.27" y="5.08" width="7.61" height="10.64"/></clipPath></defs><g class="cls-2"><g class="cls-3"><g class="cls-3"><polygon class="cls-4" points="33.5 85.17 33.5 89.02 16.44 89.02 16.44 85.17 16.44 82.41 16.44 78.56 16.44 70.13 16.44 68.2 16.44 66.28 33.5 66.28 33.5 70.13 20.29 70.13 20.29 77.64 20.29 81.5 20.29 85.17 33.5 85.17"/></g></g><path class="cls-5" d="M110.66,89H87.92L99.31,66.28ZM93.57,85.54H105L99.31,74Z"/><path class="cls-6" d="M110.66,89H87.92L99.31,66.28ZM93.57,85.54H105L99.31,74Z"/><path class="cls-5" d="M129.75,81.42c0,3.16-2.95,7.6-9.46,7.6-6,0-8.94-3.72-9.4-6.79l3.75-.71c.06.9,1.09,3.72,5.65,3.72s5.65-3,5.65-3.82-1.77-1.89-5.65-1.89c-8.78,0-9.46-4.34-9.46-5.68,0-3.13,2.95-7.57,9.46-7.57,6,0,8.93,3.72,9.4,6.76l-3.75.74c-.06-.9-1.09-3.69-5.65-3.69s-5.65,3-5.65,3.75,1.49,1.89,5.65,1.89a13.54,13.54,0,0,1,6.89,1.46,4.88,4.88,0,0,1,2.57,4.22"/><path class="cls-6" d="M129.75,81.42c0,3.16-2.95,7.6-9.46,7.6-6,0-8.94-3.72-9.4-6.79l3.75-.71c.06.9,1.09,3.72,5.65,3.72s5.65-3,5.65-3.82-1.77-1.89-5.65-1.89c-8.78,0-9.46-4.34-9.46-5.68,0-3.13,2.95-7.57,9.46-7.57,6,0,8.93,3.72,9.4,6.76l-3.75.74c-.06-.9-1.09-3.69-5.65-3.69s-5.65,3-5.65,3.75,1.49,1.89,5.65,1.89a13.54,13.54,0,0,1,6.89,1.46A4.88,4.88,0,0,1,129.75,81.42Z"/><polygon class="cls-4" points="43.27 83 38.29 83.04 36.58 85.17 36.58 89.02 53.64 89.02 53.64 85.17 41.51 85.17 43.27 83"/><polygon class="cls-4" points="44.55 75.28 49.42 75.35 53.64 70.13 53.64 66.28 36.58 66.28 36.58 70.13 48.71 70.13 44.55 75.28"/><polygon class="cls-4" points="50.27 77.66 19.52 77.64 19.52 80.87 47.52 80.87 50.27 77.66"/><path d="M70.05,77.67H66.14v0a11.24,11.24,0,0,0,.47,3.21h4.17a7.44,7.44,0,0,1-.73-3.21"/><path class="cls-6" d="M70.05,77.67H66.14v0a11.24,11.24,0,0,0,.47,3.21h4.17A7.44,7.44,0,0,1,70.05,77.67Z"/><path d="M85,77.67h-15a7.43,7.43,0,0,0,.73,3.21H84.22a7.74,7.74,0,0,1-6.7,4.27,7.47,7.47,0,0,1-6.74-4.27H66.61a11.37,11.37,0,0,0,22.27-3.21Z"/><path class="cls-6" d="M85,77.67h-15a7.43,7.43,0,0,0,.73,3.21H84.22a7.74,7.74,0,0,1-6.7,4.27,7.47,7.47,0,0,1-6.74-4.27H66.61a11.37,11.37,0,0,0,22.27-3.21Z"/><path d="M77.53,70.19A7.44,7.44,0,0,1,83.3,73l2.79-2.79a11.39,11.39,0,0,0-19.95,7.49h3.91a7.48,7.48,0,0,1,7.48-7.46"/><path class="cls-6" d="M77.53,70.19A7.44,7.44,0,0,1,83.3,73l2.79-2.79a11.39,11.39,0,0,0-19.95,7.49h3.91A7.48,7.48,0,0,1,77.53,70.19Z"/><path d="M66.14,77.65H62l-2.79,3.23h7.38a11.25,11.25,0,0,1-.47-3.21v0"/><path class="cls-6" d="M66.14,77.65H62l-2.79,3.23h7.38a11.25,11.25,0,0,1-.47-3.21Z"/><polygon class="cls-7" points="52.5 77.64 52.47 77.66 49.88 80.87 56.89 80.87 59.64 77.64 52.5 77.64"/><rect x="118.14" y="64.91" width="3.83" height="4.5"/><rect class="cls-6" x="118.14" y="64.91" width="3.83" height="4.5"/><rect x="118.95" y="85.77" width="3.85" height="4.5"/><rect class="cls-6" x="118.95" y="85.77" width="3.85" height="4.5"/><rect class="cls-5" x="69.86" y="34.56" width="10.81" height="4.01"/><polygon class="cls-8" points="80.34 17.57 80.34 15.76 69.9 15.73 69.9 17.43 80.34 17.57"/><path class="cls-9" d="M82.47,54.11V14.71a.34.34,0,0,0-.34-.34H68.31a.34.34,0,0,0-.34.34v39.4a.34.34,0,0,0,.34.34H82.13a.34.34,0,0,0,.34-.34"/><path class="cls-5" d="M82.13,55H68.31a.85.85,0,0,1-.85-.85V14.71a.85.85,0,0,1,.85-.85H82.13a.85.85,0,0,1,.85.85v39.4a.85.85,0,0,1-.85.85m-13.64-1H82V14.88H68.48Z"/><path class="cls-4" d="M74.23,10.8l1.27,1.83.55-1.34-.79-1.68L74,8.74l.07-2.39,1.48-1.27.93,1.13h.21l4.21,5.36a6.32,6.32,0,1,0-6,4.19,6.54,6.54,0,0,0,.66,0l-2.31-3Z"/><path class="cls-4" d="M80.88,11.57,76.67,6.22h-.21l-.93-1.13L74.06,6.35,74,8.74l1.27.87.79,1.68-.55,1.34L74.23,10.8l-1,1.93,2.31,3a6.33,6.33,0,0,0,5.3-4.16"/><g class="cls-10"><g class="cls-11"><path class="cls-12" d="M80.88,11.57,76.67,6.22h-.21l-.93-1.13L74.06,6.35,74,8.74l1.27.87.79,1.68-.55,1.34L74.23,10.8l-1,1.93,2.31,3a6.33,6.33,0,0,0,5.3-4.16"/></g></g><path class="cls-7" d="M74.39,5.66V5.09h1.18v.57a1.72,1.72,0,0,1,1.55,1.87v.24H75.75V7.45c0-.55-.26-.76-.72-.76s-.72.21-.72.76c0,1.58,2.82,1.65,2.82,3.84a1.74,1.74,0,0,1-1.56,1.88v.56H74.39v-.56a1.73,1.73,0,0,1-1.56-1.88v-.53h1.37v.6a.75.75,0,0,0,1.5,0c0-1.58-2.82-1.65-2.82-3.84a1.72,1.72,0,0,1,1.52-1.87"/><path class="cls-13" d="M75.16,16a6.81,6.81,0,0,1-6.88-6.55A6.88,6.88,0,0,1,82,9.41,6.81,6.81,0,0,1,75.16,16m0-12.09a5.78,5.78,0,0,0-5.86,5.54A5.87,5.87,0,0,0,81,9.41a5.78,5.78,0,0,0-5.86-5.54"/><path class="cls-14" d="M84.47,41.31l-.15-1,.08.5-.08-.5s4-.79,3.82-9.28l1,0c.22,9.46-4.48,10.28-4.68,10.31"/><rect class="cls-9" x="67.98" y="60.45" width="2.04" height="1.98"/><path class="cls-5" d="M70.52,62.94H67.46v-3h3.06Zm-2-1h1V61h-1Z"/><path class="cls-14" d="M85,47.75a1.73,1.73,0,0,1-.87-.22l.51-.88a.9.9,0,0,0,.88-.08c.78-.46,2.6-2.68,2.6-13.24h1c0,8.2-1.06,13-3.14,14.14a2,2,0,0,1-1,.27"/><rect class="cls-9" x="80.43" y="60.45" width="2.04" height="1.98"/><path class="cls-5" d="M83,62.94H79.92v-3H83Zm-2-1h1V61h-1Z"/><path class="cls-8" d="M82.81,20.6h1.36a.34.34,0,0,1,.34.34V57.51a.34.34,0,0,1-.34.34H82.81a.34.34,0,0,1-.34-.34V20.94a.34.34,0,0,1,.34-.34"/><path class="cls-5" d="M84.16,58.36H82.81a.85.85,0,0,1-.85-.85V20.94a.85.85,0,0,1,.85-.85h1.36a.85.85,0,0,1,.85.85V57.51a.85.85,0,0,1-.85.85m-1.19-1h1V21.11H83Z"/><path class="cls-8" d="M67.63,20.6H66.16a.34.34,0,0,0-.34.34V57.51a.34.34,0,0,0,.34.34h1.47a.34.34,0,0,0,.34-.34V20.94a.34.34,0,0,0-.34-.34"/><path class="cls-5" d="M67.64,58.36H66.16a.85.85,0,0,1-.85-.85V20.94a.85.85,0,0,1,.85-.85h1.47a.85.85,0,0,1,.85.85V57.51a.85.85,0,0,1-.85.85m-1.3-1h1.13V21.11H66.33Z"/><path class="cls-15" d="M86.17,57.85H64a.34.34,0,0,0-.34.34v1.93a.34.34,0,0,0,.34.34H86.17a.34.34,0,0,0,.34-.34V58.19a.34.34,0,0,0-.34-.34"/><path class="cls-5" d="M86.17,61H64a.85.85,0,0,1-.86-.85V58.19a.85.85,0,0,1,.86-.85H86.17a.85.85,0,0,1,.85.85v1.93a.85.85,0,0,1-.85.85m-22-1H86V58.36H64.18Z"/><rect class="cls-5" x="62.88" y="62.6" width="24.68" height="1.02"/><path class="cls-5" d="M80.09,15.45H75.85c-.77,0-.55,1.1,0,1h4.07v.79H70.41v-.79h3.88a.51.51,0,1,0,0-1h-4a.85.85,0,0,0-.85.85v2H80.94v-2a.85.85,0,0,0-.85-.85"/><path class="cls-5" d="M75.16,2.15a7.37,7.37,0,0,0-7.53,7.19c0,3.28,2,6.25,6.33,6.95a1,1,0,0,1,0-.27l.33-.56a6.07,6.07,0,0,1-5.61-6.12,6.52,6.52,0,0,1,13,0c0,2.88-2,5.63-6,6.13,0,.35.29.59.16.92,4.71-.79,6.84-3.77,6.84-7.05a7.37,7.37,0,0,0-7.53-7.19"/><rect class="cls-16" x="70.01" y="41.15" width="10.42" height="9.74"/><polygon class="cls-15" points="80.09 40.81 70.35 40.81 70.01 50.89 71.43 50.89 80.44 43.36 80.09 40.81"/><path class="cls-7" d="M80.1,38.77H70.41a.34.34,0,0,1-.34-.34V35.15a.34.34,0,0,1,.34-.34H80.1a.34.34,0,0,1,.34.34v3.29a.34.34,0,0,1-.34.34"/><path class="cls-5" d="M80.1,39.28H70.41a.85.85,0,0,1-.85-.85V35.15a.85.85,0,0,1,.85-.85H80.1a.85.85,0,0,1,.85.85v3.29a.85.85,0,0,1-.85.85"/><path class="cls-5" d="M80.09,51.74H70.35a.85.85,0,0,1-.85-.85V41.15a.85.85,0,0,1,.85-.85h9.74a.85.85,0,0,1,.85.85v9.74a.85.85,0,0,1-.85.85m-9.57-1h9.4v-9.4h-9.4Z"/><path class="cls-7" d="M78.1,31H72.43a1,1,0,0,1-1-1V21.6a1,1,0,0,1,1-1H78.1a1,1,0,0,1,1,1V30a1,1,0,0,1-1,1"/><path class="cls-5" d="M78.76,31.53h-7a.85.85,0,0,1-.85-.85V20.94a.85.85,0,0,1,.85-.85h7a.85.85,0,0,1,.85.85v9.74a.85.85,0,0,1-.85.85m-6.82-1h6.65v-9.4H71.94Z"/><rect class="cls-4" x="72.73" y="29.76" width="1.24" height="2.9"/><path class="cls-7" d="M74.15,32.83H72.56V29.59h1.59Zm-1.25-.34h.91V29.93H72.9Z"/><rect class="cls-4" x="74.77" y="29.76" width="1.24" height="2.9"/><path class="cls-7" d="M76.18,32.83H74.6V29.59h1.59Zm-1.25-.34h.91V29.93h-.91Z"/><rect class="cls-4" x="76.81" y="29.76" width="1.25" height="2.9"/><path class="cls-7" d="M78.22,32.83H76.64V29.59h1.59ZM77,32.49h.91V29.93H77Z"/><path class="cls-5" d="M77.81,28.41h-5.1c-.52,0-.56-1,0-1h5.1c.52,0,.57,1,0,1"/><path class="cls-5" d="M77.81,26.88h-5.1c-.52,0-.56-1,0-1h5.1c.52,0,.57,1,0,1"/><path class="cls-7" d="M76.55,23.42a1.39,1.39,0,1,1-1.39-1.29,1.34,1.34,0,0,1,1.39,1.29"/><path class="cls-5" d="M75.16,25.21a1.8,1.8,0,1,1,1.9-1.8,1.85,1.85,0,0,1-1.9,1.8m0-2.58a.78.78,0,1,0,.88.78.83.83,0,0,0-.88-.78"/><rect class="cls-5" x="84.98" y="57.85" width="0.34" height="2.6"/><rect class="cls-5" x="64.94" y="58.02" width="0.34" height="2.6"/><path class="cls-14" d="M89,31.43l-1-.09a17,17,0,0,0-.44-4l1-.23A17.68,17.68,0,0,1,89,31.43"/><path class="cls-7" d="M88,31.46v5.47a.32.32,0,0,0,.3.34h.31a.32.32,0,0,0,.3-.34V31.46a.32.32,0,0,0-.3-.34h-.31a.32.32,0,0,0-.3.34"/><path class="cls-5" d="M88.64,37.78h-.31a.83.83,0,0,1-.8-.85V31.46a.83.83,0,0,1,.8-.85h.31a.83.83,0,0,1,.8.85v5.47a.83.83,0,0,1-.8.85"/><path class="cls-7" d="M84.16,24.71a4.24,4.24,0,0,1,4,3.52,3.58,3.58,0,0,0-4-3.52"/><path class="cls-5" d="M87.8,28.81l-.1-.48a3.69,3.69,0,0,0-3.53-3.12v-1h.18A4.05,4.05,0,0,1,88.7,28c0,.17.06.69-.43.77Z"/><path class="cls-5" d="M86.71,27.22a1.88,1.88,0,0,0,1.39,0c.79-.29,1.29-1,0-1s-1.85.72-1.39,1"/><polyline class="cls-5" points="86.73 25.23 86.52 25.23 84.5 26.47 84.73 26.47"/><rect class="cls-4" x="70.52" y="35.15" width="9.4" height="3.06"/></g></svg>