<svg id="Layer_1" data-name="Layer 1" xmlns="http://www.w3.org/2000/svg" xmlns:xlink="http://www.w3.org/1999/xlink" viewBox="0 0 207 51"><defs><style>.cls-1,.cls-5{fill:none;}.cls-2{clip-path:url(#clip-path);}.cls-3{fill:#ffb91d;}.cls-4{fill:#b7b7b7;}.cls-5{stroke:#000;stroke-linecap:round;stroke-linejoin:round;stroke-width:0;}.cls-6{fill:#232323;}</style><clipPath id="clip-path"><polyline class="cls-1" points="231 -642 231 126 -852 126 -852 -642"/></clipPath></defs><g class="cls-2"><polygon points="9.34 30.43 18.4 30.43 18.4 36.17 2.92 36.17 2.92 11.21 9.34 11.21 9.34 30.43"/><path d="M45,33H35.15l-1.46,3.14H27.45v-.93L38.69,10.88h2.75L52.7,35.24v.93H46.46ZM40,21l-2.82,6.56h5.71Z"/><polygon points="134.31 30.57 134.31 36.17 121.65 36.17 121.65 30.57 124.82 30.57 124.82 16.77 121.9 16.77 121.9 11.21 134.06 11.21 134.06 16.77 131.14 16.77 131.14 30.57 134.31 30.57"/><path d="M158.52,28.82c0-1.75-2.07-2.14-4.57-2.28-5.42-.39-9-2.25-9.06-7.67-.21-10.77,19.19-10.77,19,0h-6.06c0-3.32-6.71-3-6.92-.07-.14,1.89,1.71,2.28,4,2.53,5,.54,9.81,1.28,9.81,7.52,0,10.49-20.33,10.66-20.18-.32h6.17c0,3.17,7.81,3.21,7.81.28"/><polygon points="198 36.17 191.47 36.17 191.47 26.15 183.77 26.15 183.77 36.17 177.24 36.17 177.24 11.21 183.77 11.21 183.77 20.26 191.47 20.26 191.47 11.21 198 11.21 198 36.17"/><path class="cls-3" d="M107.16,10.72h-11l-.16.14C94.63,12,93.44,13,92.44,13.93l1,1.55-1.36,5,.81-.95,3.53,0,.05,1.18-5.16,3h6l0,0,.51-.49.16-.16L98,23h0l.53-.53c3.53-3.58,8.74-9.6,9.62-10.69Z"/><polygon class="cls-4" points="102.23 26.93 101.47 25.72 101.61 26.41 101.53 26.43 91.4 29.35 90.6 28.54 90.92 31.16 102.23 26.93"/><path class="cls-5" d="M95.16,25.73l.53-.39"/><path class="cls-5" d="M94.89,25.91l.26-.17"/><path class="cls-5" d="M94.57,26.1l.2-.11"/><path class="cls-5" d="M89.85,16.1h0"/><path class="cls-5" d="M89.84,16.11l-.48.49"/><polygon class="cls-4" points="89.22 34.25 89.46 35.16 89.69 33.11 86.75 34.21 86.75 35.28 89.22 34.25"/><polygon class="cls-3" points="87.83 18.84 87.83 18.83 87.82 18.84 87.83 18.84"/><polygon class="cls-4" points="86.98 20.19 89.5 24.66 92.19 15.86 91.83 15.1 88.33 21.11 86.98 20.19"/><path class="cls-3" d="M84.33,30.5h0v-.07l-.15-.29a5.17,5.17,0,0,0-.74-1l-.22-.22-.07-.07-.16.18-.2.25c-.1.14-.21.3-.31.46s-.25.42-.36.65l-.12.25,0,.05a8.54,8.54,0,0,0-.39,1.09c.17-.24.39-.55.61-.82l.21-.25c.33-.37.57-.52.74-.49a1.33,1.33,0,0,1,.6.39l.23.24c.16.18.28.34.31.39l0,0v0h-.09v.09l0,0,0,0-.42-.28-.29-.15a.49.49,0,0,0-.25-.07v1l0,4.32h.58l1.41-2.34s0-.16,0-.32a10.73,10.73,0,0,0-.55-2.3c-.09-.25-.19-.48-.29-.7"/><path class="cls-6" d="M83,30.84a.16.16,0,0,1,.08-.13c.09-.05.23,0,.42.05l.25.13-.16-.17a1.17,1.17,0,0,0-.51-.34s-.18,0-.57.43l-.21.24c-.41.5-.82,1.12-.89,1.24h0l-.23,1.54,1.25,2.27,0,0H83Z"/><polygon class="cls-4" points="78.14 21.11 74.64 15.09 74.28 15.86 76.97 24.66 79.49 20.19 78.14 21.11"/><path class="cls-5" d="M77.89,18.09l.22.32"/><path class="cls-5" d="M76.14,16.11l-.24-.23"/><polygon class="cls-4" points="75.56 28.53 74.75 29.35 64.6 26.41 64.6 25.86 64.03 26.98 75.34 31.17 75.56 28.53"/><path class="cls-3" d="M67.46,22.48c.46.47.9.9,1.3,1.28l0,0h6.39l-5.43-3.22V19.39l3.81.05,1.1,1.14L72.9,15.73l.85-1.61-.06-.06-.1-.09-.26-.24,0,0L72.54,13l-.47-.41-.21-.18-1.3-1.11L70,10.86l-.08-.07-.08-.07h-11l-1,1.07c.85,1.06,5.23,6.11,8.58,9.62l.1-.15-.05.19,1,1"/><path d="M102.57,4.6l-.27.19s-6,4.74-10.26,8.49l-.69-1.13-3.87,5.23.12.5,0,0c-.13.18-.24.35-.34.52l-1.3-1-5.48,0h0l-1.53,1.2c-.08-.15-.17-.3-.28-.48l-.06,0,.09-1-3.83-5-.68,1.29C69.9,9.67,63.71,4.8,63.68,4.78l-.26-.18-5.64,6.28-.84.94.19.25h0l0,0,.07.09.31.36c.82,1,5.05,5.92,8.47,9.5l-3.59,5.44,12.45,5.14.74,3.29h0l-2.93,2.82c-1.37,1.32-2.18,1.48-3.47,1.34a2.78,2.78,0,0,1-1.65-.76l-.4-.45-.52.44.09.14.07.07a3.59,3.59,0,0,1,.3.3L72.65,46l.23.24.09.1.13.14L73.6,46l-.37-.46a2.92,2.92,0,0,1-.59-1.68,3.32,3.32,0,0,1,.62-2.33,8.14,8.14,0,0,1,1-1.08l2.93-2.83,2.08,1.14a26.44,26.44,0,0,0,1.07,2.7A14.08,14.08,0,0,0,83,45.61l.07.06.06-.07A20.71,20.71,0,0,0,86,41.45a13.54,13.54,0,0,0,1.1-2.89l1.78-.9,2.88,2.78a8,8,0,0,1,1,1.07,3.32,3.32,0,0,1,.62,2.33,2.89,2.89,0,0,1-.59,1.67l-.37.46.5.49.2-.22,0,0,5.78-6.42a3.55,3.55,0,0,1,.31-.3l.06-.06.11-.14-.53-.44-.4.45a2.79,2.79,0,0,1-1.65.76c-1.29.15-2.1,0-3.47-1.34l-2.65-2.56h0l.69-3.58,12.4-5.25-3.66-5.44c3.45-3.62,7.72-8.63,8.54-9.6h0l.2-.24.21-.27ZM66.43,21.41c-3.34-3.51-7.73-8.56-8.58-9.62l1-1.07,4.65-5.18c.61.45,2.46,1.94,4.5,3.63l.63.53.65.54.57.48.08.07.08.07.57.48,1.3,1.11.21.18.47.41.76.67,0,0,.26.24.1.09.06.06-.85,1.61,1.69,4.86-1.1-1.14-3.81-.05v1.19l5.43,3.22H68.73l0,0c-.41-.39-.84-.82-1.3-1.28l-1-1,.05-.19ZM77,24.66l-2.7-8.8.36-.77,3.5,6,1.35-.92Zm.92-6.56.22.32-.22-.32m-2-2.22.24.24-.24-.24M67,23l.76.76H65.81l.43-1.51L67,23M64.6,25.86v.55l10.15,2.94.82-.82-.22,2.64L64,27Zm20.58,7.64c0,.16,0,.27,0,.31L83.8,36.15h-.58l0-4.32v-1a.5.5,0,0,1,.25.06l.29.15.42.28v0l0,0v-.09h.09v0l0,0s-.15-.21-.31-.39l-.23-.24a1.34,1.34,0,0,0-.6-.39c-.17,0-.4.12-.74.49l-.21.25c-.22.27-.44.58-.61.82a8.61,8.61,0,0,1,.4-1.09l0-.05.12-.25c.12-.23.24-.45.36-.65s.21-.32.31-.46l.2-.25.16-.18.07.07.22.22a5.22,5.22,0,0,1,.74,1l.15.28v.07h0c.1.22.2.45.29.7a10.7,10.7,0,0,1,.55,2.3M83,36.15h-.58l0,0-1.25-2.27.23-1.54h0c.07-.11.48-.73.89-1.24l.21-.24c.39-.43.53-.44.57-.43a1.17,1.17,0,0,1,.51.35l.16.17-.25-.13c-.2-.09-.34-.1-.42-.05a.16.16,0,0,0-.08.13ZM95.68,25.34l-.53.39.53-.39m-.53.4-.26.17.26-.17m-.39.25-.2.11.2-.11m-6.94-7.14h0Zm.5,2.27,3.5-6,.37.77-2.7,8.8L87,20.19ZM98,23h0l-.09.09-.16.16-.51.49,0,0h-6l5.16-3-.05-1.18-3.53,0-.81.95,1.36-5-1-1.55c1-.89,2.19-1.92,3.55-3.07l.16-.14.14-.12,1.28-1.07.14-.12.09-.07c2.14-1.77,4.09-3.33,4.71-3.8l4.65,5.18,1,1.07c-.88,1.1-6.09,7.11-9.62,10.69L98,23M89.85,16.1h0l-.48.49.48-.49h0m-3.1,18.11,2.94-1.1-.23,2.05-.24-.9-2.47,1Zm4.65-4.86,10.13-2.92.08,0-.14-.68.76,1.21L90.92,31.16l-.32-2.62ZM81,33.65h0l-.47.46Zm19.43-9.85H98.25L99,23l.94-1ZM77.12,37.39h0l2.22-2.14Zm6.53,4a14.72,14.72,0,0,1-.58,2.12,11.18,11.18,0,0,1-1.48-2.14,18.88,18.88,0,0,1-1.91-6.14v-.06l-.18-.06L77,34.21l-.22,1-.24-2.05,3.11,1V34c0-.44,0-.82,0-1.19,0-.15,0-.29,0-.44a28,28,0,0,1,.32-3.69l.06-.38c.09-.5.19-1,.32-1.47,0-.12.06-.24.09-.35.95-3.43,2.45-4.74,2.69-4.94a6.36,6.36,0,0,1,1.43,1.7c-.69-.67-1.17-1-1.32-1h-.08v5.52h-.07a3.14,3.14,0,0,0-.74.6l-.21.25a6,6,0,0,0-.7,1.14l-.14.31c-.11.26-.22.54-.31.82s-.14.42-.2.64a15.84,15.84,0,0,0-.46,2.24c0,.1,0,.16,0,.16v0l.14.25,1.49,2.68,2.36,0a35.07,35.07,0,0,1-.6,4.43"/><path class="cls-4" d="M80.4,34.23,80.26,34v0s0-.06,0-.16a15.86,15.86,0,0,1,.46-2.24c.06-.22.13-.43.2-.64s.2-.56.31-.82l.14-.31a6,6,0,0,1,.7-1.14l.21-.25a3.12,3.12,0,0,1,.74-.6h.07V22.27h.08c.15,0,.64.34,1.32,1a6.36,6.36,0,0,0-1.43-1.7c-.24.19-1.74,1.5-2.69,4.93,0,.11-.07.23-.09.35-.12.48-.23,1-.32,1.48l-.06.38a27.81,27.81,0,0,0-.32,3.69c0,.14,0,.29,0,.44,0,.36,0,.75,0,1.19v.13l-3.11-1,.24,2.05.22-1,2.52.9.18.06v.06a18.88,18.88,0,0,0,1.91,6.14,11.18,11.18,0,0,0,1.48,2.14,14.72,14.72,0,0,0,.58-2.12,35.08,35.08,0,0,0,.6-4.43l-2.36,0Z"/></g></svg>