<svg id="Layer_1" data-name="Layer 1" xmlns="http://www.w3.org/2000/svg" xmlns:xlink="http://www.w3.org/1999/xlink" viewBox="0 0 299 182"><defs><style>.cls-1,.cls-55{fill:none;}.cls-2{fill:#fff;}.cls-3{clip-path:url(#clip-path);}.cls-4{clip-path:url(#clip-path-2);}.cls-5{clip-path:url(#clip-path-3);}.cls-6{clip-path:url(#clip-path-4);}.cls-7{clip-path:url(#clip-path-5);}.cls-8{clip-path:url(#clip-path-6);}.cls-9{clip-path:url(#clip-path-7);}.cls-10{clip-path:url(#clip-path-8);}.cls-11{clip-path:url(#clip-path-9);}.cls-12{clip-path:url(#clip-path-10);}.cls-13{clip-path:url(#clip-path-11);}.cls-14{clip-path:url(#clip-path-12);}.cls-15{clip-path:url(#clip-path-13);}.cls-16{clip-path:url(#clip-path-14);}.cls-17{clip-path:url(#clip-path-15);}.cls-18{clip-path:url(#clip-path-16);}.cls-19{clip-path:url(#clip-path-17);}.cls-20{clip-path:url(#clip-path-18);}.cls-21{clip-path:url(#clip-path-19);}.cls-22{clip-path:url(#clip-path-20);}.cls-23{clip-path:url(#clip-path-21);}.cls-24{clip-path:url(#clip-path-22);}.cls-25{clip-path:url(#clip-path-23);}.cls-26{clip-path:url(#clip-path-24);}.cls-27{clip-path:url(#clip-path-25);}.cls-28{clip-path:url(#clip-path-26);}.cls-29{clip-path:url(#clip-path-27);}.cls-30{clip-path:url(#clip-path-28);}.cls-31{clip-path:url(#clip-path-29);}.cls-32{clip-path:url(#clip-path-30);}.cls-33{clip-path:url(#clip-path-31);}.cls-34{clip-path:url(#clip-path-32);}.cls-35{clip-path:url(#clip-path-33);}.cls-36{clip-path:url(#clip-path-34);}.cls-37{clip-path:url(#clip-path-35);}.cls-38{clip-path:url(#clip-path-36);}.cls-39{clip-path:url(#clip-path-37);}.cls-40{clip-path:url(#clip-path-38);}.cls-41{clip-path:url(#clip-path-39);}.cls-42{clip-path:url(#clip-path-40);}.cls-43{clip-path:url(#clip-path-41);}.cls-44{clip-path:url(#clip-path-42);}.cls-45{clip-path:url(#clip-path-43);}.cls-46{clip-path:url(#clip-path-44);}.cls-47{clip-path:url(#clip-path-45);}.cls-48{clip-path:url(#clip-path-46);}.cls-49{clip-path:url(#clip-path-47);}.cls-50{clip-path:url(#clip-path-48);}.cls-51{clip-path:url(#clip-path-49);}.cls-52{clip-path:url(#clip-path-50);}.cls-53{clip-path:url(#clip-path-51);}.cls-54{clip-path:url(#clip-path-52);}.cls-55{stroke:#000;stroke-miterlimit:10;}.cls-56{clip-path:url(#clip-path-53);}</style><clipPath id="clip-path"><path id="SVGID" class="cls-1" d="M97.13,94.56c-2.66,1.59-6.11,5.25-8.62,9.6-3.34,5.72-3.91,10.39-1.2,10.39h3.78c-2.72,0-2.14-4.67,1.2-10.39,2.5-4.35,6-8,8.62-9.6Z"/></clipPath><clipPath id="clip-path-2"><path id="SVGID-2" data-name="SVGID" class="cls-1" d="M98.38,87.72c.94,0,1.25,1.11,1.36,2.38h3.78c-.1-1.27-.42-2.38-1.36-2.38Z"/></clipPath><clipPath id="clip-path-3"><path id="SVGID-3" data-name="SVGID" class="cls-1" d="M101.14,110.15c-5.69,8.64-11.85,12.77-17.59,12.77h3.78c5.74,0,11.9-4.13,17.59-12.77Z"/></clipPath><clipPath id="clip-path-4"><path id="SVGID-4" data-name="SVGID" class="cls-1" d="M102.87,107.23c-.52,1-1.1,1.91-1.72,2.92h3.78c.63-1,1.2-2,1.72-2.92Z"/></clipPath><clipPath id="clip-path-5"><path id="SVGID-5" data-name="SVGID" class="cls-1" d="M105.43,101.45a3.89,3.89,0,0,0,.71.06h3.78a3.88,3.88,0,0,1-.71-.06Z"/></clipPath><clipPath id="clip-path-6"><path id="SVGID-6" data-name="SVGID" class="cls-1" d="M103.7,88c2.87,0,3.55,4.45,3,8.11a26.74,26.74,0,0,1-1.25,5.35h3.78a26.74,26.74,0,0,0,1.25-5.35c.57-3.66-.1-8.11-3-8.11Z"/></clipPath><clipPath id="clip-path-7"><path id="SVGID-7" data-name="SVGID" class="cls-1" d="M114.35,115.45c-3,1-5.33,1.81-5.53,2.92-.17.89.28,1.29.94,1.29h3.78c-.66,0-1.11-.4-.94-1.29.21-1.11,2.51-2,5.53-2.92Z"/></clipPath><clipPath id="clip-path-8"><path id="SVGID-8" data-name="SVGID" class="cls-1" d="M119,98.17c-3.78,3.88-9.84,9.15-15,9.15h3.78c5.13,0,11.2-5.27,15-9.15Z"/></clipPath><clipPath id="clip-path-9"><path id="SVGID-9" data-name="SVGID" class="cls-1" d="M124.43,91.67h-3.74A36.15,36.15,0,0,0,119,98.17h3.78a36.15,36.15,0,0,1,1.72-6.51Z"/></clipPath><clipPath id="clip-path-10"><path id="SVGID-10" data-name="SVGID" class="cls-1" d="M120.89,91.18l-.2.49h3.78l.2-.49Z"/></clipPath><clipPath id="clip-path-11"><path id="SVGID-11" data-name="SVGID" class="cls-1" d="M124.22,111.9c-3.55,9.28-8.87,11-14.2,11h3.78c5.33,0,10.65-1.75,14.2-11Z"/></clipPath><clipPath id="clip-path-12"><path id="SVGID-12" data-name="SVGID" class="cls-1" d="M128.56,93c-1.15,4.72-1.78,11.56-4.33,18.92H128c2.56-7.37,3.18-14.21,4.33-18.92Z"/></clipPath><clipPath id="clip-path-13"><path id="SVGID-13" data-name="SVGID" class="cls-1" d="M130,85.25h0Zm3.78,0H130c7.51,0-1,7.34-1.4,7.72h3.78c.44-.39,8.91-7.72,1.4-7.72h0"/></clipPath><clipPath id="clip-path-14"><path id="SVGID-14" data-name="SVGID" class="cls-1" d="M37.8,118.77c-3,0-10.75,3.31-11.16,3.48h3.78c.41-.17,8.18-3.48,11.16-3.48Z"/></clipPath><clipPath id="clip-path-15"><path id="SVGID-15" data-name="SVGID" class="cls-1" d="M66.07,119.2c-3,.43-10,2.91-10.41,3h3.78c.37-.13,7.44-2.61,10.41-3Z"/></clipPath><clipPath id="clip-path-16"><path id="SVGID-16" data-name="SVGID" class="cls-1" d="M87.47,87.45s-.26.39-.27.39H91s.26-.37.27-.39Z"/></clipPath><clipPath id="clip-path-17"><path id="SVGID-17" data-name="SVGID" class="cls-1" d="M100.49,68.25c-9.49,0-14.45,7.5-14.71,7.89h3.78c.26-.4,5.21-7.89,14.71-7.89Z"/></clipPath><clipPath id="clip-path-18"><path id="SVGID-18" data-name="SVGID" class="cls-1" d="M104.18,80.85c-11.74,0-16.46,6.27-16.71,6.6h3.78c.25-.33,5-6.6,16.71-6.6Z"/></clipPath><clipPath id="clip-path-19"><path id="SVGID-19" data-name="SVGID" class="cls-1" d="M100.21,61.22c1.1,0,2.24,0,3.43.13,4.34.33,8.86.49,13.46.49h3.78c-4.6,0-9.12-.16-13.46-.49-1.19-.09-2.34-.13-3.43-.13Z"/></clipPath><clipPath id="clip-path-20"><path id="SVGID-20" data-name="SVGID" class="cls-1" d="M107.8,75c2.49,0,5.26.13,8.38.32,4.64.29,9.2.41,13.58.41h3.78c-4.37,0-8.93-.12-13.58-.41-3.11-.19-5.89-.32-8.37-.32Z"/></clipPath><clipPath id="clip-path-21"><path id="SVGID-21" data-name="SVGID" class="cls-1" d="M142.29,118.07c-4.75,4.55-7.7,5.89-10,5.89h3.78c2.29,0,5.24-1.34,10-5.89Z"/></clipPath><clipPath id="clip-path-22"><path id="SVGID-22" data-name="SVGID" class="cls-1" d="M143.66,106.37c-4.42,8-4,11-1.36,11.71h3.78c-2.68-.72-3.06-3.66,1.36-11.71Z"/></clipPath><clipPath id="clip-path-23"><path id="SVGID-23" data-name="SVGID" class="cls-1" d="M147.57,83c-2.35.13-5,.21-8,.21h3.78c3,0,5.64-.08,8-.21Z"/></clipPath><clipPath id="clip-path-24"><path id="SVGID-24" data-name="SVGID" class="cls-1" d="M156.44,82.14c-5.11,9.67-11.43,21.63-12.79,24.22h3.78c1.36-2.59,7.68-14.56,12.78-24.22Z"/></clipPath><clipPath id="clip-path-25"><path id="SVGID-25" data-name="SVGID" class="cls-1" d="M163.27,116.87c-2.94,3-6.47,5.46-9.9,5.46h3.78c3.44,0,7-2.48,9.9-5.46Z"/></clipPath><clipPath id="clip-path-26"><path id="SVGID-26" data-name="SVGID" class="cls-1" d="M163.29,81.36l-6.85.78h3.78l6.85-.78Z"/></clipPath><clipPath id="clip-path-27"><path id="SVGID-27" data-name="SVGID" class="cls-1" d="M163.29,69.18l-2.43,4.61h3.78l2.43-4.61Z"/></clipPath><clipPath id="clip-path-28"><path id="SVGID-28" data-name="SVGID" class="cls-1" d="M170.53,94.53c-2.59,0-7.27,4.45-10.5,9.9s-3.68,9.9-1.15,9.9h3.78c-2.54,0-2-4.45,1.14-9.9s7.91-9.9,10.5-9.9Z"/></clipPath><clipPath id="clip-path-29"><path id="SVGID-29" data-name="SVGID" class="cls-1" d="M173.73,63.09c-1.16.27-23.27,5.3-63,5.3h3.78c39.75,0,61.86-5,63-5.3Z"/></clipPath><clipPath id="clip-path-30"><path id="SVGID-30" data-name="SVGID" class="cls-1" d="M169.44,88.77c2.83,0,4.93,2.68,5.52,5.66h3.78c-.59-3-2.69-5.66-5.52-5.66Z"/></clipPath><clipPath id="clip-path-31"><path id="SVGID-31" data-name="SVGID" class="cls-1" d="M174.86,110.85h0Z"/></clipPath><clipPath id="clip-path-32"><path id="SVGID-32" data-name="SVGID" class="cls-1" d="M176.56,106.31c-.75,1.36-2.09,4.14-1.69,4.54h3.78c-.4-.4.95-3.18,1.69-4.54Z"/></clipPath><clipPath id="clip-path-33"><path id="SVGID-33" data-name="SVGID" class="cls-1" d="M185.81,88.77c-.36.67-7.12,13.44-9.26,17.54h3.78c2.14-4.09,8.9-16.87,9.26-17.54Z"/></clipPath><clipPath id="clip-path-34"><path id="SVGID-34" data-name="SVGID" class="cls-1" d="M186.69,105.53c-4.63,4.71-9.46,9.58-11.38,11.43-4.28,4.15-7,5.36-9.11,5.36H170c2.09,0,4.83-1.21,9.11-5.36,1.92-1.86,6.75-6.73,11.38-11.43Z"/></clipPath><clipPath id="clip-path-35"><path id="SVGID-35" data-name="SVGID" class="cls-1" d="M191.28,111.8h0Z"/></clipPath><clipPath id="clip-path-36"><path id="SVGID-36" data-name="SVGID" class="cls-1" d="M192.83,107.63c-.69,1.25-1.92,3.8-1.55,4.17h3.78c-.37-.37.87-2.92,1.55-4.17Z"/></clipPath><clipPath id="clip-path-37"><path id="SVGID-37" data-name="SVGID" class="cls-1" d="M195.58,113.55c-1.68,1.69-3.07,3.07-3.88,3.86-4,3.8-6.44,4.92-8.36,4.92h3.78c1.92,0,4.38-1.12,8.36-4.92.82-.79,2.21-2.17,3.88-3.86Z"/></clipPath><clipPath id="clip-path-38"><path id="SVGID-38" data-name="SVGID" class="cls-1" d="M205.39,126.73c-5.43,3.94-8.86,6.82-8.86,9,0,1.53.82,2,1.78,2h3.78c-1,0-1.78-.47-1.78-2,0-2.13,3.43-5,8.86-9Z"/></clipPath><clipPath id="clip-path-39"><path id="SVGID-39" data-name="SVGID" class="cls-1" d="M209.14,76.6c-.72,1.36-14.34,27.27-16.3,31h3.78c2-3.76,15.59-29.66,16.3-31Z"/></clipPath><clipPath id="clip-path-40"><path id="SVGID-40" data-name="SVGID" class="cls-1" d="M210.46,116.95c-2.78,2.92-6.16,5.38-9.5,5.38h3.78c3.33,0,6.72-2.46,9.5-5.38Z"/></clipPath><clipPath id="clip-path-41"><path id="SVGID-41" data-name="SVGID" class="cls-1" d="M216.54,118.66c-3,5.75-5.53,10.53-6.31,11.87-3.79,6.54-6.16,10.25-12,10.25H202c5.8,0,8.18-3.71,12-10.25.77-1.34,3.29-6.12,6.3-11.87Z"/></clipPath><clipPath id="clip-path-42"><path id="SVGID-42" data-name="SVGID" class="cls-1" d="M216.72,96.82c-2.33,0-6.62,4.08-9.59,9.09S203.7,115,206.08,115h3.78c-2.37,0-1.87-4.08,1-9.09s7.26-9.09,9.59-9.09Z"/></clipPath><clipPath id="clip-path-43"><path id="SVGID-43" data-name="SVGID" class="cls-1" d="M215.76,91.53c2.65,0,4.57,2.51,5.07,5.29h3.78c-.5-2.78-2.42-5.29-5.07-5.29Z"/></clipPath><clipPath id="clip-path-44"><path id="SVGID-44" data-name="SVGID" class="cls-1" d="M230.74,91.53c-.29.57-5.85,11.31-11.37,21.8h3.78c5.53-10.48,11.08-21.23,11.37-21.8Z"/></clipPath><clipPath id="clip-path-45"><path id="SVGID-45" data-name="SVGID" class="cls-1" d="M231.67,106.44c-5.22,4.69-10.4,8.73-15.13,12.22h3.78c4.74-3.49,9.92-7.53,15.14-12.22Z"/></clipPath><clipPath id="clip-path-46"><path id="SVGID-46" data-name="SVGID" class="cls-1" d="M236.72,111.8h0Z"/></clipPath><clipPath id="clip-path-47"><path id="SVGID-47" data-name="SVGID" class="cls-1" d="M238.27,107.63c-.69,1.25-1.92,3.8-1.55,4.17h3.78c-.36-.37.87-2.92,1.55-4.17Z"/></clipPath><clipPath id="clip-path-48"><path id="SVGID-48" data-name="SVGID" class="cls-1" d="M243.79,110.75c-2.88,2.91-5.42,5.46-6.66,6.66-4,3.8-6.44,4.92-8.36,4.92h3.78c1.92,0,4.39-1.12,8.36-4.92,1.24-1.19,3.79-3.75,6.66-6.66Z"/></clipPath><clipPath id="clip-path-49"><path id="SVGID-49" data-name="SVGID" class="cls-1" d="M246.77,91.53c-.33.62-6.53,12.34-8.5,16.09h3.78c2-3.76,8.17-15.48,8.5-16.09Z"/></clipPath><clipPath id="clip-path-50"><path id="SVGID-50" data-name="SVGID" class="cls-1" d="M250.1,75.35c2.83,0,4.07,2.32,2.83,5.15s-4.52,5.1-7.31,5.1h3.78c2.79,0,6.08-2.28,7.31-5.1s0-5.15-2.83-5.15Z"/></clipPath><clipPath id="clip-path-51"><path id="SVGID-51" data-name="SVGID" class="cls-1" d="M263.16,96.82c-2.37,0-6.67,4-9.59,9.09-3.74,6.4-2.7,10.9,2.69,10.9H260c-5.39,0-6.44-4.5-2.69-10.9,2.93-5.06,7.22-9.09,9.59-9.09Z"/></clipPath><clipPath id="clip-path-52"><path id="SVGID-52" data-name="SVGID" class="cls-1" d="M267.77,111.06c.18.1,3.52,1.95,1.33,4-4.7,4.36-10,7.24-15.07,7.24h3.78c5.12,0,10.37-2.88,15.07-7.24,2.19-2.09-1.15-3.94-1.33-4Z"/></clipPath><clipPath id="clip-path-53"><path id="SVGID-53" data-name="SVGID" class="cls-1" d="M262.2,91.53c6.58,0,10.46,6.17,4.16,14.7a2.4,2.4,0,0,1-2,1.08h3.78a2.4,2.4,0,0,0,2-1.08c6.3-8.53,2.42-14.7-4.16-14.7Z"/></clipPath></defs><path d="M169.89,63.44c1.29.51,1.76,1.42,2.06,2.86a47.46,47.46,0,0,0-17.77-4.46l1.56-1.67a40.46,40.46,0,0,1,7.2,1.06,51.69,51.69,0,0,1,7,2.21"/><path class="cls-2" d="M144.39,28.39a34.93,34.93,0,0,1,18.57,1,16.21,16.21,0,0,1,4.37,2.34c2.62,2,2.56,4.52,0,6.61-.54.44-1.13.79-1.88,1.31-.25-1.51-1.21-1.88-2.37-2.14l-.09,0c-2.44-.53-4.87-1.13-7.29-1.78a18.07,18.07,0,0,0-9.25.07c-1.77.44-3.53.87-5.29,1.32l-2.57.67a6.28,6.28,0,0,0-1.51.91c-3-1.57-3.38-4.64-.76-6.87a17.18,17.18,0,0,1,8.05-3.43"/><path class="cls-2" d="M163.38,39c0,1.32,0,2.64-.07,4a3.12,3.12,0,0,1-.5,1l-.33-.17V38.26a1.44,1.44,0,0,1,.38-.05c.38,0,.54.25.53.76"/><path class="cls-2" d="M161.68,42a10.86,10.86,0,0,1,.16,1.55c0,1.11-.46,1.39-1.76,1.54V42.83l1.6-.84"/><path class="cls-2" d="M157.67,45.46a13.44,13.44,0,0,1-.15-1.54c0-.86.37-.9,1.64-1a5,5,0,0,1,.31,1.49c0,.87-.57,1.17-1.8,1.06"/><path class="cls-2" d="M156.13,45.64l-.8.08a8.64,8.64,0,0,1-.23-1.12c-.12-1,.33-1.21,1.77-1.29v2.27l-.75.07"/><path class="cls-2" d="M156.15,54.58c0,.71-.15.75-1.11.64l.25-4.79.17-.18c.23.37.63.73.67,1.11a24.94,24.94,0,0,1,0,3.21"/><path class="cls-2" d="M155.32,46.5a4.16,4.16,0,0,1,.89-.19c-.15.7.06,1.43,0,2.1a1.85,1.85,0,0,1-.87,1.28c0-1.22,0-2.21,0-3.19"/><path d="M154.18,61.84l-47.13,50.47c-1.25-9.69,1-19.56,7-29.61,5.88-9.73,14.73-16,25.71-19.15a45.07,45.07,0,0,1,14.38-1.71"/><path class="cls-2" d="M152.72,44.27c.08-.53.55-.6,1.66-.56q.08.56.11.94c.12,1.19-.18,1.22-1.59,1.1a4.36,4.36,0,0,1-.18-1.48"/><path class="cls-2" d="M151.81,45.83c-.05.15-1.14.15-1.2,0a9.15,9.15,0,0,1-.38-2.06l1.9.11c0,.11,0,.21,0,.32a6.36,6.36,0,0,1-.28,1.64"/><path class="cls-2" d="M147.92,44.81a9.13,9.13,0,0,1,.14-1.36l1.56.22v1.95a4.35,4.35,0,0,1-1,.15c-.52,0-.73-.28-.73-1"/><path class="cls-2" d="M149.39,50.38V55.3l-.93.07-.33,0v-5h1.26Z"/><path d="M155,55.22c1,.11,1.08.07,1.11-.64a24.94,24.94,0,0,0,0-3.21c0-.38-.44-.74-.66-1.11l-.18.18L155,55.22m-6.39-9.44a4.36,4.36,0,0,0,1-.15V43.76h.6a9.09,9.09,0,0,0,.38,2.07c.06.16,1.15.15,1.2,0a6.37,6.37,0,0,0,.28-1.64l.63.08a4.38,4.38,0,0,0,.18,1.48c1.42.12,1.71.09,1.59-1.1l.61-.06a8.63,8.63,0,0,0,.23,1.12l.79-.08.07.67a4.2,4.2,0,0,0-.89.19c0,1,0,2,0,3.19a1.85,1.85,0,0,0,.87-1.28l.52.09c-.08.42-.19.83-.27,1.25,0,.1-.11.22-.08.28,1,1.68.31,3.53.54,5.37.86.09,1.71.21,2.55.34L159.1,58a46.58,46.58,0,0,0-10.46-.38l-.18-2.23.93-.07V50.38h-.11v-.86c.07-1,.13-2,.2-3l-.89-.12Z"/><path class="cls-2" d="M148.23,49.52c-.08-1-.15-2-.23-3.15l.59.07.89.11c-.07,1-.13,2-.2,3Z"/><path class="cls-2" d="M147.14,43.27v2.22c-1.2.18-1.66.28-1.66-.79a13.14,13.14,0,0,1,.17-1.68l1.49.24"/><path class="cls-2" d="M144.79,44.7v.57a4.55,4.55,0,0,1-1,0c-.46,0-.68-.26-.73-.77a8.62,8.62,0,0,1,.17-2l1.6.31Z"/><path class="cls-2" d="M142.44,44.89c-1.56-.15-1.78-.37-1.79-1.65,0-1.45,0-2.91,0-4.36,0-.67.15-1.06.7-1.14a1.5,1.5,0,0,1,.33,0s.13.08.14.14c.21,2.23.41,4.47.61,6.73l0,.3"/><path d="M141.34,37.74l-.16-.64c1.76-.45,3.53-.88,5.29-1.32a18.08,18.08,0,0,1,9.25-.07c2.42.64,4.85,1.25,7.29,1.77l-.16.73a1.4,1.4,0,0,0-.37.05v5.27h-.63a10.84,10.84,0,0,0-.16-1.54l-1.6.84v1.57h-.61a5,5,0,0,0-.31-1.49c-1.27.12-1.64.16-1.64,1h-.64V43.3c-1.44.08-1.89.28-1.77,1.29l-.61.06q0-.38-.11-.94c-1.11,0-1.58,0-1.66.56l-.63-.08c0-.11,0-.21,0-.32l-1.9-.11h-.6v-.08l-1.56-.22a9.13,9.13,0,0,0-.14,1.36h-.78V43.27L145.65,43a13.14,13.14,0,0,0-.17,1.68h-.69V42.87l-1.6-.31a8.56,8.56,0,0,0-.17,2l-.61.05c-.21-2.26-.4-4.5-.61-6.73,0-.05-.09-.1-.14-.14a1.57,1.57,0,0,0-.33,0"/><path class="cls-2" d="M139.1,39.53c-.06-.48-.31-1.25.8-1.3,0,.31.08.54.08.77a40,40,0,0,1-.18,4.66c-1.26-1.19-.53-2.75-.7-4.14"/><path d="M139.1,39.53c.18,1.38-.56,3,.7,4.14A39.8,39.8,0,0,0,140,39c0-.23-.05-.46-.09-.77-1.11,0-.86.82-.8,1.3M133,37.14a4,4,0,0,1,0-5,10.24,10.24,0,0,1,4.2-3.31,30.58,30.58,0,0,1,12-2.73,35.38,35.38,0,0,1,14.73,2.13,13,13,0,0,1,5,3.16,4.41,4.41,0,0,1,0,6.58A12.5,12.5,0,0,1,166.13,40l-.19.12-.47-.47c.75-.52,1.35-.87,1.88-1.31,2.53-2.09,2.59-4.62,0-6.61A16.24,16.24,0,0,0,163,29.39a34.93,34.93,0,0,0-18.57-1,17.18,17.18,0,0,0-8.05,3.43c-2.62,2.22-2.22,5.29.76,6.87a6.27,6.27,0,0,1,1.51-.91l2.57-.67.16.64c-.55.08-.73.47-.7,1.14.05,1.45,0,2.9,0,4.36,0,1.29.23,1.51,1.79,1.65l0-.3.61-.05c0,.51.27.73.73.77l-.08.69c-1.38-.17-2.75-.33-4.11-.46a2.46,2.46,0,0,1-2.39-1.35c-.11-.24-.48-.36-.72-.56-.7-.6-1.45-1.15-2.17-1.74l.32-.4a11.47,11.47,0,0,0,2.54,1.59,9.32,9.32,0,0,1,0-1.15A1.93,1.93,0,0,0,136,39.79a11.61,11.61,0,0,1-3-2.65"/><path class="cls-2" d="M133,32.1a4,4,0,0,0,0,5,11.61,11.61,0,0,0,3,2.65,1.93,1.93,0,0,1,1.14,2.14,9.31,9.31,0,0,0,0,1.15,11.54,11.54,0,0,1-2.54-1.59c-2.28-1.87-3.85-4.6-3.34-7.27a8.87,8.87,0,0,1,2.87-4.84c2.54-2.41,5.65-3.29,9-3.76a45.09,45.09,0,0,1,19.28,1.21,14.65,14.65,0,0,1,6.47,3.63c3,3,2.82,6.74-.37,9.46a36.68,36.68,0,0,1-3,2.1c-.26-.93-.24-1.46.41-1.9l.19-.12a12.53,12.53,0,0,0,2.72-2.07,4.41,4.41,0,0,0,0-6.58,13,13,0,0,0-5-3.16,35.39,35.39,0,0,0-14.73-2.13,30.57,30.57,0,0,0-12,2.73A10.24,10.24,0,0,0,133,32.1"/><path d="M132.24,40a7.29,7.29,0,0,1,.1-9.65,17.82,17.82,0,0,1,9.38-5.7,34.71,34.71,0,0,1,23.46,1.14,14.81,14.81,0,0,1,6.59,4.93,7.42,7.42,0,0,1-.25,9.43A15.64,15.64,0,0,1,166,44.33c-.42.21-.76.6-1.18.82a4.67,4.67,0,0,1-1.51.57c-1.83.21-3.66.36-5.5.47-.73,0-1,.27-1,1a7,7,0,0,1-.16,1.26l-.52-.09c.11-.67-.1-1.4,0-2.1l-.07-.67.75-.07V43.92h.63a13.43,13.43,0,0,0,.15,1.54c1.23.11,1.8-.19,1.8-1.06h.61v.68c1.3-.15,1.76-.44,1.76-1.54h.63v.25l.33.17a3.12,3.12,0,0,0,.5-1c.07-1.31,0-2.64.07-4,0-.5-.15-.76-.53-.76l.16-.73.09,0c1.16.26,2.12.64,2.37,2.14l.47.47c-.65.44-.67,1-.41,1.9a36.76,36.76,0,0,0,3-2.1c3.19-2.72,3.32-6.45.37-9.46a14.65,14.65,0,0,0-6.47-3.63,45.12,45.12,0,0,0-19.28-1.21c-3.4.47-6.51,1.35-9,3.76a8.87,8.87,0,0,0-2.87,4.84c-.5,2.68,1.06,5.4,3.34,7.27l-.32.41a13.57,13.57,0,0,1-2-1.93"/><path d="M107.18,121.07a44.9,44.9,0,0,0,7.39,14.26,3.07,3.07,0,0,0,2.84,1.1c-5.77-7.89-9.3-15.94-10.35-24.13l47.13-50.47A47.47,47.47,0,0,1,172,66.3c-.31-1.44-.77-2.35-2.07-2.86a51.83,51.83,0,0,0-7-2.21l.11-.49a66.76,66.76,0,0,1,13.3,4.85,3.79,3.79,0,0,0-2.17-2.92A53.46,53.46,0,0,0,159.1,58l.32-2.24a51,51,0,0,1,34.76,20.95c7.75,10.57,10.79,22.54,9.61,35.58-2.3,25.42-24,45.81-49.6,46.59a51.86,51.86,0,0,1-53.25-43.62,51.93,51.93,0,0,1,44.3-59.56,20.52,20.52,0,0,1,0-3.3,17.93,17.93,0,0,0,0-5.08c0-.34,0-.68-.05-1.12L143.67,46l.08-.69a4.6,4.6,0,0,0,1,0V44.7h.69c0,1.07.46,1,1.66.79v-.67h.78c0,.69.21,1,.73,1l-.05.67-.59-.07c.08,1.14.15,2.12.23,3.15h1v.86h-1.15v5l.33,0,.18,2.23a50.36,50.36,0,0,0-14.19,3.24,49.44,49.44,0,0,0-26.33,68.94c.74,1.45.88,1.52,2.44,1.32a70.11,70.11,0,0,1-3.86-9.9Z"/><path d="M114.57,135.33a45,45,0,0,1-9-21.46l1.46-1.56c1,8.18,4.57,16.23,10.35,24.13a3.08,3.08,0,0,1-2.84-1.1"/><path d="M139.81,63.55C128.83,66.65,120,73,114.1,82.7c-6.06,10-8.29,19.92-7,29.61l-1.46,1.56a44.64,44.64,0,0,0,1.58,7.2l-.47.14c-5.28-17.44-1.74-33.59,12.11-48.27,13.69-12.33,28.47-16,44.25-12.19l-.12.49a40.58,40.58,0,0,0-7.2-1.06l-1.56,1.67a45.07,45.07,0,0,0-14.38,1.71"/><path d="M106.7,121.21a70.18,70.18,0,0,0,3.86,9.9c-1.56.2-1.7.12-2.44-1.32a49.44,49.44,0,0,1,26.33-68.94,50.29,50.29,0,0,1,14.19-3.24A46.51,46.51,0,0,1,159.1,58a53.5,53.5,0,0,1,15.08,4.69,3.79,3.79,0,0,1,2.17,2.92,66.7,66.7,0,0,0-13.3-4.85c-15.78-3.82-30.56-.14-44.25,12.19-13.84,14.69-17.39,30.83-12.1,48.27"/><path d="M97.13,94.56h3.78c-2.66,1.59-6.11,5.25-8.62,9.6-3.34,5.72-3.91,10.39-1.2,10.39H87.31c-2.72,0-2.14-4.67,1.2-10.39,2.51-4.35,6-8,8.62-9.6"/><g class="cls-3"><path d="M97.13,94.56h3.78a22.79,22.79,0,0,0-5.48,5H91.65a22.81,22.81,0,0,1,5.48-5"/><path d="M91.65,99.61h3.78a34.41,34.41,0,0,0-2.8,4H88.85a34.54,34.54,0,0,1,2.8-4"/><path d="M88.85,103.58h3.78l-.34.58c-.55.94-1,1.86-1.43,2.73H87.08c.4-.87.88-1.79,1.43-2.73l.34-.58"/><path d="M87.08,106.89h3.78A22.26,22.26,0,0,0,90,109H86.23a22.52,22.52,0,0,1,.85-2.14"/><path d="M86.23,109H90a14.75,14.75,0,0,0-.4,1.42H85.83c.1-.45.24-.92.41-1.42"/><path d="M85.83,110.45H89.6c-.08.35-.14.68-.18,1H85.65a10,10,0,0,1,.18-1"/><path d="M85.65,111.44h3.78a7.21,7.21,0,0,0-.05.72H85.59a6.93,6.93,0,0,1,.06-.72"/><path d="M85.59,112.16h3.78a4.66,4.66,0,0,0,0,.56H85.61a4.88,4.88,0,0,1,0-.56"/><path d="M85.61,112.72h3.78a3.38,3.38,0,0,0,.08.49H85.69a3.38,3.38,0,0,1-.08-.49"/><path d="M85.69,113.21h3.78a1.85,1.85,0,0,0,.53,1H86.23a1.85,1.85,0,0,1-.53-1"/><path d="M86.23,114.18H90l.17.13H86.4l-.17-.13"/><path d="M86.4,114.31h3.78l.15.08H86.55l-.15-.08"/><path d="M86.55,114.39h3.78l.15.06H86.7l-.15-.06"/><path d="M86.7,114.45h3.78l.16,0H86.85l-.16,0"/><path d="M86.85,114.5h3.78l.19,0H87l-.19,0"/><path d="M87,114.53h3.78l.22,0H87.26l-.22,0"/></g><path d="M98.38,87.72h3.78c.94,0,1.25,1.11,1.36,2.39H99.74c-.1-1.27-.42-2.39-1.36-2.39"/><g class="cls-4"><path d="M98.38,87.72h0"/><path d="M98.41,87.72h0"/><path d="M98.53,87.73h3.78l.1,0H98.63l-.1,0"/><path d="M98.63,87.75h3.78l.09,0H98.72l-.09,0"/><path d="M98.72,87.78h3.78l.09,0H98.81l-.09,0"/><path d="M98.81,87.82h3.78l.1.05H98.91l-.1-.05"/><path d="M98.91,87.87h3.78l.12.09H99l-.12-.09"/><path d="M99,88h3.78a2.06,2.06,0,0,1,.56,1.09H99.58A2.06,2.06,0,0,0,99,88"/><path d="M99.58,89h3.78a6.58,6.58,0,0,1,.15.92H99.73a6.73,6.73,0,0,0-.15-.92"/><path d="M99.73,90h3.78v.14H99.74V90"/></g><path d="M101.14,110.15h3.78c-5.69,8.64-11.85,12.77-17.59,12.77H83.55c5.74,0,11.9-4.13,17.59-12.77"/><g class="cls-5"><path d="M101.14,110.15h3.78a48.2,48.2,0,0,1-2.93,4H98.21a48,48,0,0,0,2.93-4"/><path d="M98.22,114.15H102c-4.84,5.92-9.89,8.77-14.66,8.77H83.55c4.77,0,9.82-2.85,14.66-8.77"/></g><path d="M102.87,107.23h3.78c-.52,1-1.09,1.91-1.72,2.92h-3.78c.63-1,1.2-2,1.72-2.92"/><g class="cls-6"><path d="M102.87,107.23h3.78c-.34.62-.7,1.24-1.08,1.87h-3.78c.38-.63.74-1.25,1.08-1.87"/><path d="M101.79,109.1h3.78l-.65,1.05h-3.78l.65-1.05"/></g><path d="M105.43,101.45h3.78a3.88,3.88,0,0,0,.71.06h-3.78a3.88,3.88,0,0,1-.71-.06"/><g class="cls-7"><path d="M105.43,101.45h3.78l.18,0H105.6l-.18,0"/><path d="M105.6,101.48h3.78l.42,0H106l-.42,0"/><path d="M106,101.51h0"/></g><path d="M103.7,88h3.78c2.87,0,3.55,4.45,3,8.11a26.81,26.81,0,0,1-1.25,5.35h-3.78a26.74,26.74,0,0,0,1.25-5.35c.57-3.66-.1-8.11-3-8.11"/><g class="cls-8"><path d="M103.7,88h0"/><path d="M103.77,88h3.78l.28,0H104l-.28,0"/><path d="M104,88h3.78l.25,0h-3.78L104,88"/><path d="M104.29,88.06h3.78l.23.07h-3.78l-.23-.07"/><path d="M104.52,88.13h3.78l.23.1h-3.78l-.23-.1"/><path d="M104.75,88.22h3.78l.25.14H105l-.25-.14"/><path d="M105,88.36h3.78a2.54,2.54,0,0,1,.3.22h-3.78a2.62,2.62,0,0,0-.29-.22"/><path d="M105.29,88.58h3.78A4.65,4.65,0,0,1,110.35,91h-3.78a4.64,4.64,0,0,0-1.29-2.44"/><path d="M106.58,91h3.78a10.21,10.21,0,0,1,.23,1.43h-3.78a10.22,10.22,0,0,0-.23-1.43"/><path d="M106.81,92.44h3.78a13.77,13.77,0,0,1,.06,1.57h-3.78a13.77,13.77,0,0,0-.06-1.57"/><path d="M106.87,94h3.78a15.59,15.59,0,0,1-.12,1.68h-3.78a15.85,15.85,0,0,0,.13-1.68"/><path d="M106.74,95.69h3.78c0,.14,0,.28-.06.41-.11.8-.26,1.69-.48,2.67H106.2c.22-1,.37-1.87.48-2.67,0-.14,0-.27.06-.41"/><path d="M106.2,98.77H110c-.17.74-.38,1.52-.66,2.35h-3.78c.28-.83.49-1.61.66-2.35"/><path d="M105.54,101.12h3.78l-.12.34h-3.78l.12-.34"/></g><path d="M114.35,115.45h3.78c-3,1-5.32,1.81-5.53,2.92-.17.89.28,1.29.94,1.29h-3.78c-.66,0-1.11-.4-.94-1.29.21-1.11,2.51-2,5.53-2.92"/><g class="cls-9"><path d="M114.35,115.45h3.78c-2.53.8-4.55,1.52-5.27,2.39h-3.78c.72-.87,2.74-1.59,5.27-2.39"/><path d="M109.09,117.84h3.78l-.12.17H109l.13-.17"/><path d="M109,118h3.78l-.06.12H108.9L109,118"/><path d="M108.9,118.13h3.78l0,.1h-3.78l0-.1"/><path d="M108.85,118.24h3.78l0,.09h-3.78l0-.09"/><path d="M108.83,118.33h3.78v0l0,.13H108.8l0-.13v0"/><path d="M108.8,118.5h3.78a1.8,1.8,0,0,0,0,.19h-3.78a1.8,1.8,0,0,1,0-.19"/><path d="M108.79,118.68h3.78a1.45,1.45,0,0,0,0,.16h-3.78a1.46,1.46,0,0,1,0-.16"/><path d="M108.79,118.85h3.78a1.13,1.13,0,0,0,0,.16h-3.78a1.13,1.13,0,0,1,0-.16"/><path d="M108.82,119h3.78a.79.79,0,0,0,.25.43h-3.78a.8.8,0,0,1-.25-.43"/><path d="M109.07,119.44h3.78l.09.07h-3.78l-.09-.07"/><path d="M109.16,119.5h3.78l.09,0h-3.78l-.09,0"/><path d="M109.25,119.55H113l.09,0h-3.78l-.09,0"/><path d="M109.34,119.59h3.78l.11,0h-3.78l-.1,0"/><path d="M109.45,119.62h3.78l.12,0h-3.78l-.12,0"/><path d="M109.57,119.64h0"/><path d="M109.72,119.66h0"/></g><path d="M119,98.17h3.78c-3.78,3.88-9.84,9.15-15,9.15H104c5.13,0,11.19-5.27,15-9.15"/><g class="cls-10"><path d="M119,98.17h3.78c-3.78,3.88-9.84,9.15-15,9.15H104c5.13,0,11.19-5.27,15-9.15"/></g><path d="M122.74,98.17H119a36,36,0,0,1,1.72-6.5h3.78a36.13,36.13,0,0,0-1.72,6.5"/><g class="cls-11"><path d="M120.89,91.18h3.78c-.21.49-.4,1-.58,1.53h-3.78c.18-.53.37-1,.58-1.53"/><path d="M120.31,92.71h3.78a32.73,32.73,0,0,0-.87,3.17h-3.78c.25-1.1.54-2.16.87-3.17"/><path d="M119.44,95.87h3.78c-.17.76-.33,1.53-.47,2.3H119c.14-.78.3-1.55.47-2.3"/></g><path d="M124.46,91.67h-3.78l.2-.49h3.78l-.2.49"/><g class="cls-12"><path d="M120.89,91.18h3.78c-.21.49-.4,1-.58,1.53h-3.78c.18-.53.37-1,.58-1.53"/></g><path d="M124.22,111.9H128c-3.55,9.28-8.87,11-14.2,11H110c5.33,0,10.65-1.75,14.2-11"/><g class="cls-13"><path d="M124.22,111.9H128q-.36.94-.74,1.78h-3.78q.38-.84.74-1.78"/><path d="M123.48,113.68h3.78a23.68,23.68,0,0,1-1.28,2.44H122.2a23.88,23.88,0,0,0,1.28-2.44"/><path d="M122.2,116.12H126a17.91,17.91,0,0,1-1.45,2.07h-3.78a17.91,17.91,0,0,0,1.46-2.07"/><path d="M120.74,118.19h3.78c-3.15,3.85-6.94,4.73-10.72,4.73H110c3.79,0,7.58-.88,10.72-4.73"/></g><path d="M128.56,93h3.78c-1.15,4.72-1.78,11.56-4.33,18.92h-3.78c2.56-7.37,3.18-14.21,4.33-18.92"/><g class="cls-14"><path d="M128.56,93h3.78l-.13.57h-3.78l.13-.57"/><path d="M128.42,93.54h3.78c-.71,3.1-1.24,7-2.24,11.4h-3.78c1-4.36,1.53-8.3,2.24-11.4"/><path d="M126.19,104.94H130c-.47,2.06-1,4.22-1.78,6.42H124.4c.74-2.21,1.31-4.36,1.78-6.42"/><path d="M124.4,111.37h3.78l-.18.53h-3.78l.18-.53"/></g><path d="M130,85.25h3.78c7.51,0-1,7.34-1.4,7.72h-3.78c.44-.39,8.91-7.72,1.4-7.72"/><g class="cls-15"><path d="M130,85.25h0"/><path d="M130.19,85.25H134a8,8,0,0,1,.86.06h-3.78a7.92,7.92,0,0,0-.86-.06"/><path d="M131.05,85.31h3.78l.5.09h-3.78l-.5-.09"/><path d="M131.55,85.4h3.78l.36.1h-3.78l-.36-.1"/><path d="M131.91,85.51h3.78l.27.11h-3.78l-.27-.11"/><path d="M132.18,85.62H136l.24.13h-3.78l-.23-.13"/><path d="M132.42,85.75h3.78l.21.16h-3.78l-.21-.16"/><path d="M132.62,85.9h3.78a1.23,1.23,0,0,1,.38.61H133a1.24,1.24,0,0,0-.38-.61"/><path d="M133,86.52h3.78a1.3,1.3,0,0,1,0,.21H133a1.42,1.42,0,0,0,0-.21"/><path d="M133,86.72h3.78a1.63,1.63,0,0,1,0,.21h-3.78a1.63,1.63,0,0,0,0-.21"/><path d="M133.05,86.93h3.78a1.9,1.9,0,0,1,0,.21H133a1.68,1.68,0,0,0,0-.21"/><path d="M133,87.14h3.78c0,.07,0,.15,0,.23H133a2.19,2.19,0,0,0,0-.23"/><path d="M133,87.37h3.78a3,3,0,0,1-.09.31H132.9a2.81,2.81,0,0,0,.09-.31"/><path d="M132.9,87.68h3.78a4.28,4.28,0,0,1-.17.41h-3.78a4.28,4.28,0,0,0,.17-.41"/><path d="M132.74,88.09h3.78a6.67,6.67,0,0,1-.35.64h-3.78a6.67,6.67,0,0,0,.35-.64"/><path d="M132.39,88.73h3.78a11.88,11.88,0,0,1-.94,1.3h-3.78a12,12,0,0,0,.94-1.3"/><path d="M131.45,90h3.78A26.25,26.25,0,0,1,132.33,93h-3.78A26.44,26.44,0,0,0,131.45,90"/></g><path d="M37.8,118.77h3.78c-3,0-10.75,3.31-11.16,3.48H26.64c.41-.17,8.18-3.48,11.16-3.48"/><g class="cls-16"><path d="M37.8,118.77h3.78c-3,0-10.75,3.31-11.16,3.48H26.64c.41-.17,8.18-3.48,11.16-3.48"/></g><polygon points="51.94 87.89 55.71 87.89 41.58 118.77 37.8 118.77 51.94 87.89"/><polygon points="58.63 68.31 62.41 68.31 66.5 106.16 62.72 106.16 58.63 68.31"/><path d="M66.07,119.2h3.78c-3,.44-10,2.92-10.41,3H55.66c.37-.13,7.44-2.61,10.41-3"/><g class="cls-17"><path d="M66.07,119.2h3.78c-3,.44-10,2.92-10.41,3H55.66c.37-.13,7.44-2.61,10.41-3"/></g><polygon points="85.79 76.14 89.56 76.14 69.85 119.2 66.07 119.2 85.79 76.14"/><path d="M87.47,87.45h3.78s-.26.39-.27.39H87.2s.26-.37.27-.39"/><g class="cls-18"><path d="M87.47,87.45h3.78s-.2.3-.26.38H87.21c.06-.07.25-.36.26-.37"/><path d="M87.21,87.83H91l0,0H87.2l0,0"/></g><path d="M100.49,68.25h3.78c-9.49,0-14.45,7.5-14.71,7.89H85.79c.26-.4,5.21-7.89,14.71-7.89"/><g class="cls-19"><path d="M100.49,68.25h3.78a18.11,18.11,0,0,0-13.9,6.81H86.59a18.11,18.11,0,0,1,13.9-6.81"/><path d="M86.59,75.06h3.78a13,13,0,0,0-.81,1.08H85.79c.06-.08.33-.49.81-1.08"/></g><path d="M104.18,80.85H108c-11.74,0-16.46,6.27-16.71,6.6H87.47c.25-.33,5-6.6,16.71-6.6"/><g class="cls-20"><path d="M104.18,80.85H108c-10.78,0-15.64,5.29-16.56,6.4H87.62c.91-1.12,5.77-6.4,16.56-6.4"/><path d="M87.62,87.26H91.4l-.15.19H87.47l.15-.19"/></g><path d="M100.21,61.22H104c1.1,0,2.24,0,3.43.14,4.34.33,8.86.49,13.46.49H117.1c-4.6,0-9.12-.16-13.46-.49-1.19-.09-2.34-.14-3.43-.14"/><g class="cls-21"><path d="M100.21,61.22H104l1.11,0h-3.78l-1.11,0"/><path d="M101.32,61.23h3.78q1.13,0,2.33.12c2.76.21,5.6.35,8.48.43h-3.78c-2.88-.07-5.72-.22-8.48-.43q-1.2-.09-2.33-.12"/><path d="M112.12,61.78h3.78q2.47.06,5,.06H117.1q-2.51,0-5-.06"/></g><path d="M107.8,74.95h3.78c2.49,0,5.27.13,8.38.32,4.64.29,9.2.41,13.58.41h-3.78c-4.37,0-8.93-.12-13.58-.41-3.11-.19-5.89-.32-8.37-.32"/><g class="cls-22"><path d="M107.8,74.95h3.78l2.26,0h-3.78l-2.25,0"/><path d="M110.05,75h3.78c1.88.05,3.92.15,6.12.29,2.56.16,5.1.27,7.6.33h-3.78c-2.5-.06-5-.17-7.6-.33-2.2-.14-4.24-.24-6.12-.29"/><path d="M123.77,75.6h3.78q3,.08,6,.08h-3.78q-2.94,0-6-.08"/></g><path d="M142.29,118.07h3.78c-4.75,4.55-7.7,5.89-10,5.89H132.3c2.29,0,5.24-1.34,10-5.89"/><g class="cls-23"><path d="M142.29,118.07h3.78c-4.75,4.55-7.7,5.89-10,5.89H132.3c2.29,0,5.24-1.34,10-5.89"/></g><path d="M143.66,106.37h3.78c-4.42,8-4,11-1.37,11.71h-3.78c-2.68-.72-3.06-3.66,1.37-11.71"/><g class="cls-24"><path d="M143.66,106.37h3.78c-.69,1.26-1.27,2.4-1.74,3.42h-3.78c.47-1,1-2.16,1.74-3.42"/><path d="M141.92,109.79h3.78a26.44,26.44,0,0,0-1,2.53H140.9a26.21,26.21,0,0,1,1-2.53"/><path d="M140.9,112.32h3.78c-.16.49-.29.95-.39,1.36h-3.78a14.12,14.12,0,0,1,.39-1.36"/><path d="M140.51,113.68h3.78c-.07.32-.12.61-.16.89h-3.78c0-.28.09-.57.16-.89"/><path d="M140.35,114.57h3.78a6.54,6.54,0,0,0,0,.66H140.3a6.26,6.26,0,0,1,.05-.66"/><path d="M140.3,115.23h3.78a4.42,4.42,0,0,0,0,.54h-3.78a4.63,4.63,0,0,1,0-.54"/><path d="M140.32,115.76h3.78a3.29,3.29,0,0,0,.08.49h-3.78a3.28,3.28,0,0,1-.08-.49"/><path d="M140.4,116.26h3.78a2.31,2.31,0,0,0,.72,1.23h-3.78a2.3,2.3,0,0,1-.72-1.23"/><path d="M141.13,117.49h3.78a2.42,2.42,0,0,0,.29.21h-3.78a2.43,2.43,0,0,1-.29-.21"/><path d="M141.41,117.7h3.78l.29.16H141.7l-.29-.16"/><path d="M141.7,117.86h3.78l.32.13H142l-.32-.13"/><path d="M142,118h3.78l.27.08h-3.78L142,118"/></g><path d="M147.57,83h3.78c-2.35.13-5,.21-8,.21h-3.78c3,0,5.64-.08,8-.21"/><g class="cls-25"><path d="M147.57,83h3.78c-2.35.13-5,.21-8,.21h-3.78c3,0,5.64-.08,8-.21"/></g><path d="M156.44,82.14h3.78c-5.11,9.67-11.43,21.63-12.78,24.23h-3.78c1.36-2.59,7.68-14.56,12.79-24.23"/><g class="cls-26"><path d="M156.44,82.14h3.78c-5.11,9.67-11.43,21.63-12.78,24.23h-3.78c1.36-2.59,7.68-14.56,12.79-24.23"/></g><path d="M163.27,116.87H167c-2.94,3-6.47,5.46-9.9,5.46h-3.78c3.43,0,7-2.48,9.9-5.46"/><g class="cls-27"><path d="M163.27,116.87H167c-2.94,3-6.47,5.46-9.9,5.46h-3.78c3.43,0,7-2.48,9.9-5.46"/></g><path d="M163.29,81.36h3.78l-6.85.78h-3.78l6.85-.78"/><g class="cls-28"><path d="M163.29,81.36h3.78l-6.85.78h-3.78l6.85-.78"/></g><path d="M163.29,69.18h3.78l-2.43,4.61h-3.78l2.43-4.61"/><g class="cls-29"><path d="M163.29,69.18h3.78l-2.43,4.61h-3.78l2.43-4.61"/></g><polygon points="168.86 72.66 172.64 72.66 167.07 81.36 163.29 81.36 168.86 72.66"/><path d="M170.54,94.53h3.78c-2.59,0-7.27,4.45-10.5,9.9s-3.68,9.9-1.14,9.9h-3.78c-2.54,0-2-4.45,1.14-9.9s7.91-9.9,10.5-9.9"/><g class="cls-30"><path d="M170.54,94.53h3.78c-1.86,0-4.78,2.28-7.48,5.59h-3.78c2.7-3.3,5.63-5.59,7.49-5.59"/><path d="M163.05,100.12h3.78a35.2,35.2,0,0,0-2.79,3.94h-3.78a35.33,35.33,0,0,1,2.79-3.94"/><path d="M160.26,104.06H164l-.22.38c-.52.89-1,1.75-1.34,2.56H158.7c.37-.82.82-1.68,1.34-2.56l.23-.37"/><path d="M158.7,107h3.78a21.16,21.16,0,0,0-.81,2h-3.78a21.16,21.16,0,0,1,.81-2"/><path d="M157.89,109h3.78c-.16.48-.29.94-.39,1.36H157.5a14.06,14.06,0,0,1,.39-1.36"/><path d="M157.5,110.39h3.78q-.11.5-.17,1h-3.78q.06-.45.17-1"/><path d="M157.33,111.35h3.78q0,.37-.05.7h-3.78a6.84,6.84,0,0,1,.05-.7"/><path d="M157.27,112H161a4.84,4.84,0,0,0,0,.55h-3.78a4.6,4.6,0,0,1,0-.55"/><path d="M157.29,112.59h3.78a3.2,3.2,0,0,0,.08.48h-3.78a3.34,3.34,0,0,1-.08-.48"/><path d="M157.37,113.07h3.78a1.76,1.76,0,0,0,.51.93h-3.78a1.77,1.77,0,0,1-.51-.93"/><path d="M157.88,114h3.78l.16.12H158l-.16-.12"/><path d="M158,114.11h3.78l.14.08h-3.78l-.14-.08"/><path d="M158.18,114.19H162l.14.06h-3.78l-.14-.06"/><path d="M158.32,114.25h3.78l.15,0h-3.78l-.15,0"/><path d="M158.47,114.29h3.78l.18,0h-3.78l-.17,0"/><path d="M158.64,114.33h3.78l.2,0h-3.78l-.2,0"/><path d="M158.84,114.34h0"/></g><path d="M173.73,63.09h3.78c-1.16.27-23.27,5.3-63,5.3h-3.78c39.75,0,61.86-5,63-5.3"/><g class="cls-31"><path d="M173.73,63.09h3.78c-1.16.27-23.27,5.3-63,5.3h-3.78c39.75,0,61.86-5,63-5.3"/></g><path d="M169.44,88.77h3.78c2.83,0,4.93,2.68,5.52,5.66H175c-.59-3-2.69-5.66-5.52-5.66"/><g class="cls-32"><path d="M169.44,88.77h0"/><path d="M169.55,88.77h3.78l.47,0H170l-.47,0"/><path d="M170,88.81h3.78l.44.08h-3.78l-.44-.08"/><path d="M170.47,88.89h3.78l.44.13h-3.78l-.44-.13"/><path d="M170.91,89h3.78l.46.19h-3.78l-.45-.19"/><path d="M171.36,89.21h3.78a5.1,5.1,0,0,1,.51.28h-3.78a5.1,5.1,0,0,0-.51-.28"/><path d="M171.87,89.49h3.78a5.58,5.58,0,0,1,.63.47h-3.78a5.49,5.49,0,0,0-.63-.47"/><path d="M172.51,90h3.78a7.88,7.88,0,0,1,2.37,4.1h-3.78a7.89,7.89,0,0,0-2.37-4.1"/><path d="M174.88,94.06h3.78c0,.12.06.24.08.37H175c0-.12-.05-.25-.08-.37"/></g><path d="M178.77,110.86h0"/><g class="cls-33"><path d="M174.86,110.85h0"/><path d="M175,110.86h0"/></g><path d="M176.56,106.31h3.78c-.75,1.36-2.09,4.14-1.69,4.55h-3.78c-.4-.4.95-3.18,1.69-4.55"/><g class="cls-34"><path d="M176.56,106.31h3.78c-.28.52-.65,1.24-1,2h-3.78c.33-.72.7-1.44,1-2"/><path d="M175.58,108.26h3.78c-.23.51-.44,1-.59,1.44H175c.15-.43.36-.93.59-1.44"/><path d="M175,109.7h3.78c-.06.18-.11.35-.14.5h-3.78c0-.15.08-.32.15-.5"/><path d="M174.85,110.2h3.78c0,.08,0,.16,0,.23H174.8c0-.07,0-.15,0-.23"/><path d="M174.8,110.43h3.78c0,.05,0,.1,0,.14h-3.78s0-.09,0-.14"/><path d="M174.79,110.57h3.78a.74.74,0,0,0,0,.1h-3.78s0-.06,0-.1"/><path d="M174.79,110.67h3.78a.38.38,0,0,0,0,.07h-3.78a.38.38,0,0,1,0-.07"/><path d="M174.81,110.74h3.78a.24.24,0,0,0,.06.11h-3.78a.24.24,0,0,1-.06-.11"/></g><polygon points="182.57 49.61 186.34 49.61 177.51 63.09 173.73 63.09 182.57 49.61"/><path d="M185.81,88.77h3.78c-.36.67-7.12,13.44-9.26,17.54h-3.78c2.14-4.1,8.9-16.87,9.26-17.54"/><g class="cls-35"><path d="M185.81,88.77h3.78c-.36.67-7.12,13.44-9.26,17.54h-3.78c2.14-4.1,8.9-16.87,9.26-17.54"/></g><path d="M186.69,105.53h3.78c-4.63,4.71-9.46,9.58-11.38,11.44-4.28,4.15-7,5.36-9.11,5.36H166.2c2.09,0,4.83-1.21,9.11-5.36,1.92-1.86,6.75-6.73,11.38-11.44"/><g class="cls-36"><path d="M186.69,105.53h3.78c-4.63,4.71-9.46,9.58-11.38,11.44-4.28,4.15-7,5.36-9.11,5.36H166.2c2.09,0,4.83-1.21,9.11-5.36,1.92-1.86,6.75-6.73,11.38-11.44"/></g><path d="M195.17,111.81h0"/><g class="cls-37"><path d="M191.28,111.8h0"/><path d="M191.37,111.81h0"/></g><path d="M192.83,107.63h3.78c-.69,1.25-1.92,3.8-1.55,4.17h-3.78c-.37-.37.87-2.92,1.55-4.17"/><g class="cls-38"><path d="M192.83,107.63h3.78c-.26.47-.6,1.13-.9,1.79h-3.78c.3-.66.64-1.31.9-1.79"/><path d="M191.94,109.41h3.78a14.31,14.31,0,0,0-.54,1.33H191.4a14.31,14.31,0,0,1,.54-1.33"/><path d="M191.4,110.74h3.78a4.76,4.76,0,0,0-.13.46h-3.78c0-.14.08-.29.13-.46"/><path d="M191.26,111.2H195a2,2,0,0,0,0,.22h-3.78c0-.07,0-.14,0-.22"/><path d="M191.22,111.42H195a1.21,1.21,0,0,0,0,.13h-3.78a1.21,1.21,0,0,1,0-.13"/><path d="M191.21,111.54H195a.83.83,0,0,0,0,.09h-3.78a.83.83,0,0,1,0-.09"/><path d="M191.22,111.63H195a.4.4,0,0,0,0,.07h-3.78a.4.4,0,0,1,0-.07"/><path d="M191.23,111.7H195a.22.22,0,0,0,.05.1h-3.78a.22.22,0,0,1-.05-.1"/></g><path d="M195.58,113.55h3.78c-1.68,1.69-3.06,3.07-3.88,3.86-4,3.8-6.44,4.92-8.36,4.92h-3.78c1.92,0,4.38-1.12,8.36-4.92.82-.79,2.21-2.17,3.88-3.86"/><g class="cls-39"><path d="M195.58,113.55h3.78c-1.68,1.69-3.06,3.07-3.88,3.86-4,3.8-6.44,4.92-8.36,4.92h-3.78c1.92,0,4.38-1.12,8.36-4.92.82-.79,2.21-2.17,3.88-3.86"/></g><path d="M205.39,126.73h3.78c-5.43,3.94-8.86,6.82-8.86,8.95,0,1.53.82,2,1.78,2h-3.78c-1,0-1.78-.47-1.78-2,0-2.13,3.43-5,8.86-8.95"/><g class="cls-40"><path d="M205.39,126.73h3.78c-3.56,2.58-6.25,4.71-7.69,6.46H197.7c1.44-1.76,4.13-3.88,7.69-6.46"/><path d="M197.7,133.19h3.78a7.7,7.7,0,0,0-.63.88h-3.78a7.7,7.7,0,0,1,.63-.87"/><path d="M197.07,134.07h3.78a4.6,4.6,0,0,0-.26.49h-3.78a5,5,0,0,1,.26-.49"/><path d="M196.81,134.56h3.78a3.47,3.47,0,0,0-.14.34h-3.78a3.25,3.25,0,0,1,.14-.34"/><path d="M196.67,134.9h3.78c0,.09-.06.19-.08.27h-3.78c0-.09,0-.18.08-.27"/><path d="M196.59,135.18h3.78c0,.08,0,.16,0,.24h-3.78a2.16,2.16,0,0,1,0-.24"/><path d="M196.55,135.42h3.78a2.09,2.09,0,0,0,0,.22h-3.78a2.09,2.09,0,0,1,0-.22"/><path d="M196.53,135.64h3.78v0c0,.12,0,.24,0,.35h-3.78c0-.11,0-.23,0-.35v0"/><path d="M196.55,136h3.78a3,3,0,0,0,.06.39h-3.78a2.73,2.73,0,0,1-.06-.39"/><path d="M196.61,136.42h3.78a1.62,1.62,0,0,0,.5.87h-3.78a1.61,1.61,0,0,1-.5-.87"/><path d="M197.11,137.3h3.78l.16.12h-3.78l-.16-.12"/><path d="M197.27,137.42h3.78l.15.08h-3.78l-.15-.08"/><path d="M197.43,137.5h3.78l.16.07h-3.78l-.16-.07"/><path d="M197.58,137.56h3.78l.18.05h-3.78l-.18-.05"/><path d="M197.76,137.62h3.78l.21,0H198l-.21,0"/><path d="M198,137.66h3.78l.27,0h-3.78l-.27,0"/><path d="M198.24,137.68h0"/></g><path d="M209.14,76.6h3.78c-.72,1.36-14.34,27.27-16.3,31h-3.78c2-3.76,15.59-29.66,16.3-31"/><g class="cls-41"><path d="M209.14,76.6h3.78c-.72,1.36-14.34,27.27-16.3,31h-3.78c2-3.76,15.59-29.66,16.3-31"/></g><path d="M210.46,116.95h3.78c-2.78,2.92-6.16,5.38-9.5,5.38H201c3.33,0,6.72-2.46,9.5-5.38"/><g class="cls-42"><path d="M210.46,116.95h3.78c-2.78,2.92-6.16,5.38-9.5,5.38H201c3.33,0,6.72-2.46,9.5-5.38"/></g><path d="M216.54,118.66h3.78c-3,5.75-5.53,10.53-6.3,11.87-3.79,6.54-6.16,10.25-12,10.25h-3.78c5.8,0,8.18-3.71,12-10.25.77-1.34,3.29-6.12,6.3-11.87"/><g class="cls-43"><path d="M216.54,118.66h3.78c-3,5.75-5.53,10.53-6.3,11.87-.48.82-.93,1.6-1.37,2.34h-3.78c.44-.73.9-1.51,1.37-2.34.77-1.34,3.29-6.12,6.3-11.87"/><path d="M208.86,132.87h3.78a34.44,34.44,0,0,1-2.71,4h-3.78a34.57,34.57,0,0,0,2.71-4"/><path d="M206.15,136.86h3.78a9.37,9.37,0,0,1-7.88,3.93h-3.78a9.36,9.36,0,0,0,7.88-3.93"/></g><path d="M216.72,96.82h3.78c-2.33,0-6.62,4.08-9.59,9.09s-3.42,9.09-1,9.09h-3.78c-2.37,0-1.87-4.08,1-9.09s7.26-9.09,9.59-9.09"/><g class="cls-44"><path d="M216.72,96.82h3.78c-1.67,0-4.34,2.09-6.82,5.12H209.9c2.47-3,5.15-5.12,6.82-5.12"/><path d="M209.9,101.94h3.78a32.75,32.75,0,0,0-2.57,3.62h-3.78a32.61,32.61,0,0,1,2.57-3.62"/><path d="M207.33,105.56h3.78l-.21.35c-.48.83-.9,1.63-1.25,2.39h-3.78c.35-.76.76-1.56,1.25-2.39l.21-.35"/><path d="M205.88,108.3h3.78a19.32,19.32,0,0,0-.75,1.87h-3.78a19.56,19.56,0,0,1,.75-1.87"/><path d="M205.13,110.17h3.78c-.15.44-.26.85-.35,1.24h-3.78c.09-.39.21-.8.35-1.24"/><path d="M204.78,111.41h3.78a8.67,8.67,0,0,0-.16.87h-3.78c0-.27.09-.56.16-.87"/><path d="M204.62,112.28h3.78a6,6,0,0,0,0,.63h-3.78a6,6,0,0,1,0-.63"/><path d="M204.57,112.91h3.78a4.34,4.34,0,0,0,0,.49h-3.78a4.13,4.13,0,0,1,0-.49"/><path d="M204.59,113.4h3.78a3,3,0,0,0,.07.43h-3.78a3,3,0,0,1-.07-.43"/><path d="M204.66,113.83h3.78a1.61,1.61,0,0,0,.47.84h-3.78a1.61,1.61,0,0,1-.47-.84"/><path d="M205.13,114.67h3.78l.15.11h-3.78l-.15-.11"/><path d="M205.28,114.79h3.78l.13.07h-3.78l-.13-.07"/><path d="M205.41,114.86h3.78l.13.06h-3.78l-.13-.06"/><path d="M205.54,114.91h3.78l.14,0h-3.78l-.14,0"/><path d="M205.68,115h3.78l.16,0h-3.78l-.16,0"/><path d="M205.84,115h3.78l.19,0H206l-.19,0"/></g><path d="M215.76,91.53h3.78c2.65,0,4.57,2.51,5.07,5.29h-3.78c-.5-2.78-2.42-5.29-5.07-5.29"/><g class="cls-45"><path d="M215.76,91.53h0"/><path d="M215.86,91.53h3.78l.44,0H216.3l-.44,0"/><path d="M216.3,91.57h3.78l.41.08h-3.78l-.41-.08"/><path d="M216.71,91.65h3.78l.4.12h-3.78l-.4-.12"/><path d="M217.12,91.77h3.78l.42.17h-3.78l-.42-.17"/><path d="M217.54,91.94h3.78a4.52,4.52,0,0,1,.47.26H218a4.54,4.54,0,0,0-.47-.26"/><path d="M218,92.2h3.78a5,5,0,0,1,.58.43h-3.78a5.1,5.1,0,0,0-.57-.43"/><path d="M218.58,92.62h3.78a7.13,7.13,0,0,1,2.15,3.71h-3.78a7.12,7.12,0,0,0-2.15-3.71"/><path d="M220.73,96.34h3.78c0,.16.07.32.1.48h-3.78c0-.16-.06-.32-.1-.48"/></g><path d="M230.74,91.53h3.78c-.29.57-5.84,11.31-11.37,21.8h-3.78c5.53-10.49,11.08-21.23,11.37-21.8"/><g class="cls-46"><path d="M230.74,91.53h3.78c-.29.57-5.84,11.31-11.37,21.8h-3.78c5.53-10.49,11.08-21.23,11.37-21.8"/></g><path d="M231.67,106.44h3.78c-5.22,4.69-10.4,8.73-15.14,12.22h-3.78c4.74-3.49,9.92-7.53,15.14-12.22"/><g class="cls-47"><path d="M231.67,106.44h3.78c-5.22,4.69-10.4,8.73-15.14,12.22h-3.78c4.74-3.49,9.92-7.53,15.14-12.22"/></g><path d="M240.61,111.81h0"/><g class="cls-48"><path d="M236.72,111.8h0"/><path d="M236.81,111.81h0"/></g><path d="M238.27,107.63h3.78c-.69,1.25-1.92,3.8-1.55,4.17h-3.78c-.36-.37.87-2.92,1.55-4.17"/><g class="cls-49"><path d="M238.27,107.63h3.78c-.26.47-.59,1.12-.89,1.77h-3.78c.3-.65.63-1.3.89-1.77"/><path d="M237.38,109.4h3.78c-.21.47-.41.94-.54,1.34h-3.78c.14-.4.33-.87.55-1.34"/><path d="M236.84,110.74h3.78c-.06.17-.1.32-.13.46h-3.78a4.71,4.71,0,0,1,.13-.46"/><path d="M236.71,111.2h3.78c0,.08,0,.15,0,.22h-3.78a2.1,2.1,0,0,1,0-.22"/><path d="M236.67,111.42h3.78s0,.09,0,.13h-3.78a1.23,1.23,0,0,1,0-.13"/><path d="M236.65,111.55h3.78a.83.83,0,0,0,0,.09h-3.78a.83.83,0,0,1,0-.09"/><path d="M236.66,111.63h3.78v.07h-3.78a.42.42,0,0,1,0-.07"/><path d="M236.67,111.7h3.78a.22.22,0,0,0,.05.1h-3.78a.21.21,0,0,1-.05-.1"/></g><path d="M243.79,110.75h3.78c-2.88,2.91-5.42,5.47-6.66,6.66-4,3.8-6.44,4.92-8.36,4.92h-3.78c1.92,0,4.39-1.12,8.36-4.92,1.24-1.19,3.79-3.75,6.66-6.66"/><g class="cls-50"><path d="M243.79,110.75h3.78c-2.88,2.91-5.42,5.47-6.66,6.66-4,3.8-6.44,4.92-8.36,4.92h-3.78c1.92,0,4.39-1.12,8.36-4.92,1.24-1.19,3.79-3.75,6.66-6.66"/></g><path d="M246.77,91.53h3.78c-.33.62-6.53,12.34-8.5,16.09h-3.78c2-3.76,8.17-15.48,8.5-16.09"/><g class="cls-51"><path d="M246.77,91.53h3.78c-.33.62-6.53,12.34-8.5,16.09h-3.78c2-3.76,8.17-15.48,8.5-16.09"/></g><path d="M250.1,75.35h3.78c2.83,0,4.07,2.32,2.83,5.15s-4.52,5.1-7.31,5.1h-3.78c2.79,0,6.08-2.27,7.31-5.1s0-5.15-2.83-5.15"/><g class="cls-52"><path d="M250.1,75.35h0"/><path d="M250.23,75.35H254l.49,0h-3.78l-.49,0"/><path d="M250.72,75.39h3.78l.41.08h-3.78l-.41-.08"/><path d="M251.13,75.46h3.78l.35.1h-3.78l-.35-.1"/><path d="M251.48,75.57h3.78l.32.13H251.8l-.32-.13"/><path d="M251.8,75.7h3.78l.31.17h-3.78l-.31-.17"/><path d="M252.11,75.87h3.78a2.78,2.78,0,0,1,.32.24h-3.78a2.87,2.87,0,0,0-.32-.24"/><path d="M252.44,76.11h3.78a2.75,2.75,0,0,1,.88,1.46h-3.78a2.75,2.75,0,0,0-.88-1.46"/><path d="M253.32,77.57h3.78a3.32,3.32,0,0,1,.08.48H253.4a3.47,3.47,0,0,0-.08-.48"/><path d="M253.4,78h3.78a3.59,3.59,0,0,1,0,.44h-3.78a3.8,3.8,0,0,0,0-.44"/><path d="M253.41,78.49h3.78a4.4,4.4,0,0,1,0,.45h-3.78a4.4,4.4,0,0,0,0-.45"/><path d="M253.38,78.94h3.78a4.88,4.88,0,0,1-.09.49h-3.78c0-.16.07-.33.09-.49"/><path d="M253.29,79.43h3.78c0,.18-.09.36-.15.54h-3.78c.06-.18.11-.37.15-.54"/><path d="M253.14,80h3.78q-.09.26-.2.52l0,.11h-3.78l0-.11q.12-.26.2-.52"/><path d="M252.89,80.61h3.78a7.27,7.27,0,0,1-.4.74h-3.78a7.28,7.28,0,0,0,.4-.74"/><path d="M252.49,81.35h3.78a8.57,8.57,0,0,1-.69,1H251.8a8.56,8.56,0,0,0,.69-1"/><path d="M251.8,82.32h3.78a8.64,8.64,0,0,1-6.18,3.28h-3.78a8.64,8.64,0,0,0,6.18-3.28"/></g><path d="M263.16,96.82h3.78c-2.37,0-6.67,4-9.59,9.09-3.74,6.4-2.7,10.9,2.69,10.9h-3.78c-5.39,0-6.44-4.5-2.7-10.9,2.93-5.05,7.22-9.09,9.59-9.09"/><g class="cls-53"><path d="M263.16,96.82h3.78c-1.69,0-4.34,2-6.78,5h-3.78c2.44-3,5.1-5,6.78-5"/><path d="M256.38,101.84h3.78a31,31,0,0,0-2.54,3.61h-3.78a31.11,31.11,0,0,1,2.54-3.61"/><path d="M253.84,105.45h3.78l-.27.46a22.19,22.19,0,0,0-1,2h-3.78q.44-1,1-2l.27-.46"/><path d="M252.54,107.89h3.78a16.25,16.25,0,0,0-.63,1.58h-3.78a16.23,16.23,0,0,1,.63-1.58"/><path d="M251.91,109.47h3.78c-.13.4-.24.79-.33,1.16h-3.78c.09-.37.2-.76.33-1.16"/><path d="M251.58,110.63h3.78a9.39,9.39,0,0,0-.17.93h-3.78a9.38,9.38,0,0,1,.17-.93"/><path d="M251.41,111.56h3.78a7.81,7.81,0,0,0-.06.79h-3.78a7.53,7.53,0,0,1,.06-.79"/><path d="M251.35,112.35h3.78a6.06,6.06,0,0,0,0,.71h-3.78a6.06,6.06,0,0,1,0-.71"/><path d="M251.38,113.05h3.78a4.92,4.92,0,0,0,.12.7h-3.78a4.92,4.92,0,0,1-.12-.7"/><path d="M251.49,113.75h3.78a3.65,3.65,0,0,0,1.16,2h-3.78a3.65,3.65,0,0,1-1.16-2"/><path d="M252.66,115.71h3.78a3.78,3.78,0,0,0,.44.33H253.1a3.7,3.7,0,0,1-.44-.33"/><path d="M253.09,116h3.78a4.25,4.25,0,0,0,.43.24h-3.78a4.13,4.13,0,0,1-.43-.24"/><path d="M253.52,116.27h3.78a4.5,4.5,0,0,0,.46.19H254a4.5,4.5,0,0,1-.46-.19"/><path d="M254,116.46h3.78a5.35,5.35,0,0,0,.54.16h-3.78a5.2,5.2,0,0,1-.54-.16"/><path d="M254.52,116.62h3.78a6.37,6.37,0,0,0,.66.12h-3.78a6.39,6.39,0,0,1-.66-.12"/><path d="M255.18,116.74H259a8,8,0,0,0,.86.07H256a8,8,0,0,1-.86-.07"/><path d="M256,116.8h0"/></g><path d="M267.77,111.06h3.78c.18.1,3.52,1.95,1.33,4-4.7,4.36-10,7.24-15.07,7.24H254c5.12,0,10.37-2.88,15.07-7.24,2.19-2.09-1.15-3.94-1.33-4"/><g class="cls-54"><path d="M267.77,111.06h3.78l.25.15H268l-.25-.15"/><path d="M268,111.21h3.78a6.09,6.09,0,0,1,.72.53h-3.78a6.1,6.1,0,0,0-.71-.53"/><path d="M268.74,111.73h3.78a3.11,3.11,0,0,1,1,1.49h-3.78a3.11,3.11,0,0,0-1-1.49"/><path d="M269.79,113.22h3.78a1.62,1.62,0,0,1,0,.24h-3.78a1.62,1.62,0,0,0,0-.24"/><path d="M269.84,113.46h3.78a1.71,1.71,0,0,1,0,.19h-3.78a1.73,1.73,0,0,0,0-.19"/><path d="M269.84,113.65h3.78a1.27,1.27,0,0,1,0,.16h-3.78c0-.05,0-.11,0-.16"/><path d="M269.83,113.81h3.78a1.52,1.52,0,0,1,0,.16H269.8c0-.05,0-.11,0-.16"/><path d="M269.8,114h3.78a1.41,1.41,0,0,1,0,.16h-3.78c0-.05,0-.11,0-.16"/><path d="M269.76,114.13h3.78a1.71,1.71,0,0,1-.07.18h-3.78a1.73,1.73,0,0,0,.07-.18"/><path d="M269.69,114.31h3.78a1.84,1.84,0,0,1-.11.2h-3.78l.11-.2"/><path d="M269.58,114.52h3.78a2.31,2.31,0,0,1-.2.28h-3.78a2.43,2.43,0,0,0,.2-.28"/><path d="M269.38,114.8h3.78a3.36,3.36,0,0,1-.27.3c-4.7,4.36-10,7.23-15.07,7.23H254c5.12,0,10.37-2.88,15.07-7.23a3.21,3.21,0,0,0,.28-.3"/></g><path class="cls-2" d="M120.1,91.65c-1.15,1.51-9,9.87-14,9.87a3.89,3.89,0,0,1-.71-.06,26.74,26.74,0,0,0,1.25-5.35c.58-3.66-.1-8.11-3-8.11a5.63,5.63,0,0,0-4,2.12c-.1-1.27-.42-2.38-1.36-2.38-4.65,0-11.85,3.5-18.75,15.27s-3.18,19.93,3.92,19.93c5.74,0,11.9-4.13,17.59-12.77.63-1,1.2-2,1.72-2.92a7,7,0,0,0,1.12.09c5.13,0,11.19-5.27,15-9.15a34.23,34.23,0,0,1,1.92-7,1,1,0,0,0-.79.47m-32.79,22.9c-2.71,0-2.14-4.67,1.2-10.39,2.51-4.35,6-8,8.62-9.59a10.31,10.31,0,0,0,.68,8.91c-2.71,5.14-6.94,11.08-10.49,11.08"/><path class="cls-55" d="M120.1,91.65c-1.15,1.51-9,9.87-14,9.87a3.89,3.89,0,0,1-.71-.06,26.74,26.74,0,0,0,1.25-5.35c.58-3.66-.1-8.11-3-8.11a5.63,5.63,0,0,0-4,2.12c-.1-1.27-.42-2.38-1.36-2.38-4.65,0-11.85,3.5-18.75,15.27s-3.18,19.93,3.92,19.93c5.74,0,11.9-4.13,17.59-12.77.63-1,1.2-2,1.72-2.92a7,7,0,0,0,1.12.09c5.13,0,11.19-5.27,15-9.15a34.23,34.23,0,0,1,1.92-7A1,1,0,0,0,120.1,91.65Zm-32.79,22.9c-2.71,0-2.14-4.67,1.2-10.39,2.51-4.35,6-8,8.62-9.59a10.31,10.31,0,0,0,.68,8.91C95.09,108.61,90.86,114.55,87.31,114.55Z"/><path class="cls-2" d="M130,85.25c-.29,0-.6,0-.93,0-4.2.29-6.58,2.64-8.07,5.89a30.35,30.35,0,0,0-2,7c-.4,2.14-.7,4.34-1.06,6.41a48.18,48.18,0,0,1-1.41,6c-6.68,1.81-12.84,3-13.47,6.68-.84,4.61,3.76,5.67,7,5.67,5.33,0,10.65-1.75,14.2-11,2.56-7.37,3.18-14.21,4.33-18.92.44-.39,8.91-7.72,1.4-7.72M112.37,118.1a3.6,3.6,0,0,1-2.61,1.56c-.66,0-1.11-.4-.94-1.29.21-1.11,2.51-2,5.53-2.92-.68,1.06-1.36,1.8-2,2.65"/><path class="cls-55" d="M130,85.25c-.29,0-.6,0-.93,0-4.2.29-6.58,2.64-8.07,5.89a30.35,30.35,0,0,0-2,7c-.4,2.14-.7,4.34-1.06,6.41a48.18,48.18,0,0,1-1.41,6c-6.68,1.81-12.84,3-13.47,6.68-.84,4.61,3.76,5.67,7,5.67,5.33,0,10.65-1.75,14.2-11,2.56-7.37,3.18-14.21,4.33-18.92C129,92.59,137.47,85.25,130,85.25ZM112.37,118.1a3.6,3.6,0,0,1-2.61,1.56c-.66,0-1.11-.4-.94-1.29.21-1.11,2.51-2,5.53-2.92C113.67,116.51,113,117.25,112.37,118.1Z"/><path class="cls-2" d="M156.44,82.14l6.85-.78,5.57-8.7c-.15,0-3,.52-8,1.13l2.43-4.61-8.81.94L152,74.7c-6.29.54-14,1-22.28,1-4.37,0-8.93-.12-13.58-.41-3.11-.19-5.89-.32-8.37-.32-8.47,0-13.56,1.48-16.9,6.85-3.15,5.06-3.73,6-3.7,6s.26-.37.27-.39c.25-.33,5-6.6,16.71-6.6.69,0,1.4,0,2.14.07a279.67,279.67,0,0,0,33.27,2.31c3,0,5.64-.08,8-.21-6.68,12.48-16,29.87-17.41,32.5-3.12,5.77-1.48,8.44,2.13,8.44,2.29,0,5.24-1.34,10-5.88-2.68-.72-3.06-3.66,1.36-11.71,1.36-2.59,7.68-14.56,12.79-24.23"/><path class="cls-55" d="M156.44,82.14l6.85-.78,5.57-8.7c-.15,0-3,.52-8,1.13l2.43-4.61-8.81.94L152,74.7c-6.29.54-14,1-22.28,1-4.37,0-8.93-.12-13.58-.41-3.11-.19-5.89-.32-8.37-.32-8.47,0-13.56,1.48-16.9,6.85-3.15,5.06-3.73,6-3.7,6s.26-.37.27-.39c.25-.33,5-6.6,16.71-6.6.69,0,1.4,0,2.14.07a279.67,279.67,0,0,0,33.27,2.31c3,0,5.64-.08,8-.21-6.68,12.48-16,29.87-17.41,32.5-3.12,5.77-1.48,8.44,2.13,8.44,2.29,0,5.24-1.34,10-5.88-2.68-.72-3.06-3.66,1.36-11.71C145,103.77,151.34,91.81,156.44,82.14Z"/><path class="cls-2" d="M100.49,68.25c.47,0,1,0,1.45.06q4.5.09,8.76.08c39.75,0,61.86-5,63-5.3l8.84-13.49C170.29,57,142.49,61.84,117.1,61.84c-4.6,0-9.12-.16-13.46-.49-1.19-.09-2.34-.14-3.43-.14-19.7,0-23.52,13.35-23.72,14.06L62.72,106.16,58.63,68.31l-10,4.35L26.64,122.25c.41-.17,8.18-3.48,11.16-3.48L51.94,87.89l3.72,34.36c.37-.13,7.44-2.61,10.41-3L85.79,76.14c.26-.4,5.21-7.89,14.71-7.89"/><path class="cls-55" d="M100.49,68.25c.47,0,1,0,1.45.06q4.5.09,8.76.08c39.75,0,61.86-5,63-5.3l8.84-13.49C170.29,57,142.49,61.84,117.1,61.84c-4.6,0-9.12-.16-13.46-.49-1.19-.09-2.34-.14-3.43-.14-19.7,0-23.52,13.35-23.72,14.06L62.72,106.16,58.63,68.31l-10,4.35L26.64,122.25c.41-.17,8.18-3.48,11.16-3.48L51.94,87.89l3.72,34.36c.37-.13,7.44-2.61,10.41-3L85.79,76.14C86,75.75,91,68.25,100.49,68.25Z"/><path class="cls-2" d="M245.63,85.6c2.79,0,6.08-2.27,7.31-5.1s0-5.15-2.83-5.15-6,2.32-7.31,5.15,0,5.1,2.83,5.1"/><path class="cls-55" d="M245.63,85.6c2.79,0,6.08-2.27,7.31-5.1s0-5.15-2.83-5.15-6,2.32-7.31,5.15S242.84,85.6,245.63,85.6Z"/><path class="cls-2" d="M267.77,111.06c-4,3.57-8,5.75-11.51,5.75-5.39,0-6.44-4.5-2.7-10.9,2.93-5.05,7.22-9.09,9.59-9.09s-.14,5.43-3.06,7.93c.11.13,2.19,2.56,4.27,2.56a2.4,2.4,0,0,0,2-1.08c6.3-8.53,2.42-14.7-4.16-14.7-4,0-10,3.45-15.07,11.29-3.58,3.44-7,6.67-7.76,7.35-1,.86-1.94,1.72-2.65,1.62-.36-.37.87-2.92,1.55-4.17,2-3.76,8.17-15.48,8.5-16.09l-7.26,0-3.3,6.27c-5.1,4.92-11.36,10.8-16.84,15.48,5.53-10.49,11.08-21.23,11.37-21.8h-7.22l-2.69,5.29c-.5-2.78-2.42-5.29-5.07-5.29-4.06,0-9.91,3.34-16.39,13.36l-.27.43c-2.5,2.39-4.56,4.34-5.16,4.85-1,.86-1.94,1.72-2.65,1.62-.37-.37.87-2.92,1.55-4.17,2-3.76,15.59-29.66,16.3-31h-7.26l-9.93,18.93c-5.17,5.05-12.85,12.43-14.2,13.56-1.09.94-2.07,1.87-2.88,1.76-.4-.4.95-3.18,1.69-4.54,2.14-4.09,8.9-16.87,9.26-17.54l-7.92.05c-.06.12-1.19,2.33-2.94,5.61-.59-3-2.69-5.66-5.52-5.66-4.38,0-10.75,3.64-17.82,14.55s-5,19,1.74,19c3.43,0,7-2.48,9.9-5.46-1.35,3.74.15,5.46,2.93,5.46,2.09,0,4.83-1.21,9.11-5.36,1.92-1.86,6.75-6.73,11.38-11.44-2.56,4.88-4.58,8.71-5.14,9.74-2.6,4.82-1.23,7.05,1.78,7.05,1.92,0,4.38-1.12,8.36-4.92.82-.79,2.21-2.17,3.88-3.86-1,5.34,1.16,8.78,5.39,8.78,3.34,0,6.72-2.46,9.5-5.38L208,121.72c-9.22,5.56-16.76,7.65-16.76,12.94,0,4.08,4.2,6.12,7,6.12,5.8,0,8.18-3.71,12-10.25.77-1.34,3.29-6.12,6.3-11.87,4.74-3.49,9.92-7.53,15.13-12.22-2.1,4-4,7.55-4.68,8.83-2.6,4.82-1.23,7.05,1.78,7.05,1.92,0,4.39-1.12,8.36-4.92,1.24-1.19,3.79-3.75,6.66-6.66-1.2,6.69,2.53,11.58,10.24,11.58,5.12,0,10.37-2.88,15.07-7.23,2.19-2.09-1.15-3.94-1.33-4m-98.43-6.62c-3.18,5.46-7.86,9.9-10.45,9.9s-2-4.45,1.15-9.9,7.91-9.91,10.5-9.91,2,4.45-1.2,9.91m34.5,25.36c-2.37,4.5-3.65,7.88-5.53,7.88-1,0-1.78-.47-1.78-2,0-2.13,3.43-5,8.86-8.95Zm11.83-23.89c-2.93,5-7.22,9.09-9.59,9.09s-1.87-4.08,1-9.09,7.26-9.09,9.59-9.09,1.92,4.08-1,9.09"/><path class="cls-55" d="M267.77,111.06c-4,3.57-8,5.75-11.51,5.75-5.39,0-6.44-4.5-2.7-10.9,2.93-5.05,7.22-9.09,9.59-9.09s-.14,5.43-3.06,7.93c.11.13,2.19,2.56,4.27,2.56a2.4,2.4,0,0,0,2-1.08c6.3-8.53,2.42-14.7-4.16-14.7-4,0-10,3.45-15.07,11.29-3.58,3.44-7,6.67-7.76,7.35-1,.86-1.94,1.72-2.65,1.62-.36-.37.87-2.92,1.55-4.17,2-3.76,8.17-15.48,8.5-16.09l-7.26,0-3.3,6.27c-5.1,4.92-11.36,10.8-16.84,15.48,5.53-10.49,11.08-21.23,11.37-21.8h-7.22l-2.69,5.29c-.5-2.78-2.42-5.29-5.07-5.29-4.06,0-9.91,3.34-16.39,13.36l-.27.43c-2.5,2.39-4.56,4.34-5.16,4.85-1,.86-1.94,1.72-2.65,1.62-.37-.37.87-2.92,1.55-4.17,2-3.76,15.59-29.66,16.3-31h-7.26l-9.93,18.93c-5.17,5.05-12.85,12.43-14.2,13.56-1.09.94-2.07,1.87-2.88,1.76-.4-.4.95-3.18,1.69-4.54,2.14-4.09,8.9-16.87,9.26-17.54l-7.92.05c-.06.12-1.19,2.33-2.94,5.61-.59-3-2.69-5.66-5.52-5.66-4.38,0-10.75,3.64-17.82,14.55s-5,19,1.74,19c3.43,0,7-2.48,9.9-5.46-1.35,3.74.15,5.46,2.93,5.46,2.09,0,4.83-1.21,9.11-5.36,1.92-1.86,6.75-6.73,11.38-11.44-2.56,4.88-4.58,8.71-5.14,9.74-2.6,4.82-1.23,7.05,1.78,7.05,1.92,0,4.38-1.12,8.36-4.92.82-.79,2.21-2.17,3.88-3.86-1,5.34,1.16,8.78,5.39,8.78,3.34,0,6.72-2.46,9.5-5.38L208,121.72c-9.22,5.56-16.76,7.65-16.76,12.94,0,4.08,4.2,6.12,7,6.12,5.8,0,8.18-3.71,12-10.25.77-1.34,3.29-6.12,6.3-11.87,4.74-3.49,9.92-7.53,15.13-12.22-2.1,4-4,7.55-4.68,8.83-2.6,4.82-1.23,7.05,1.78,7.05,1.92,0,4.39-1.12,8.36-4.92,1.24-1.19,3.79-3.75,6.66-6.66-1.2,6.69,2.53,11.58,10.24,11.58,5.12,0,10.37-2.88,15.07-7.23C271.29,113,268,111.15,267.77,111.06Zm-98.43-6.62c-3.18,5.46-7.86,9.9-10.45,9.9s-2-4.45,1.15-9.9,7.91-9.91,10.5-9.91S172.57,99,169.34,104.44Zm34.5,25.36c-2.37,4.5-3.65,7.88-5.53,7.88-1,0-1.78-.47-1.78-2,0-2.13,3.43-5,8.86-8.95Zm11.83-23.89c-2.93,5-7.22,9.09-9.59,9.09s-1.87-4.08,1-9.09,7.26-9.09,9.59-9.09S218.64,100.9,215.67,105.91Z"/><path d="M262.2,91.53H266c6.58,0,10.46,6.17,4.16,14.7a2.4,2.4,0,0,1-2,1.08h-3.78a2.4,2.4,0,0,0,2-1.08c6.3-8.53,2.42-14.7-4.16-14.7"/><g class="cls-56"><path d="M262.2,91.53h0"/><path d="M262.46,91.54h3.78a9.79,9.79,0,0,1,1,.08H263.5a9.77,9.77,0,0,0-1-.08"/><path d="M263.5,91.62h3.78a8.81,8.81,0,0,1,.9.17H264.4a8.76,8.76,0,0,0-.9-.17"/><path d="M264.4,91.78h3.78a8.16,8.16,0,0,1,.8.24H265.2a8.16,8.16,0,0,0-.8-.24"/><path d="M265.2,92H269a7.41,7.41,0,0,1,.74.31h-3.78a7.49,7.49,0,0,0-.74-.31"/><path d="M265.94,92.32h3.78a7.24,7.24,0,0,1,.72.4h-3.78a7.24,7.24,0,0,0-.72-.4"/><path d="M266.66,92.72h3.78a6.45,6.45,0,0,1,.77.57h-3.78a6.55,6.55,0,0,0-.77-.57"/><path d="M267.43,93.29h3.78a6,6,0,0,1,1.93,3.19h-3.78a6,6,0,0,0-1.93-3.19"/><path d="M269.36,96.48h3.78a6.9,6.9,0,0,1,.16,1h-3.78a7.05,7.05,0,0,0-.16-1"/><path d="M269.52,97.46h3.78a7.62,7.62,0,0,1,0,.9h-3.78a7.85,7.85,0,0,0,0-.9"/><path d="M269.56,98.36h3.78a8.54,8.54,0,0,1-.07.91h-3.78a8.81,8.81,0,0,0,.07-.91"/><path d="M269.49,99.27h3.78a10,10,0,0,1-.18,1h-3.78a10,10,0,0,0,.18-1"/><path d="M269.31,100.26h3.78a11.57,11.57,0,0,1-.32,1.13H269a11.58,11.58,0,0,0,.32-1.12"/><path d="M269,101.38h3.78a14.1,14.1,0,0,1-.54,1.37h-3.78a14.36,14.36,0,0,0,.54-1.37"/><path d="M268.45,102.75h3.78a17.43,17.43,0,0,1-1,1.8h-3.78a17.64,17.64,0,0,0,1-1.8"/><path d="M267.49,104.55h3.78q-.5.82-1.13,1.68l-.1.12h-3.78l.1-.12q.63-.86,1.13-1.68"/><path d="M266.26,106.36H270a2.36,2.36,0,0,1-1.89,1h-3.78a2.36,2.36,0,0,0,1.89-1"/></g><path d="M223.24,124.64c2.08,0,3,1.37,3,3.45v1.23h-1.43V128c0-1.23-.48-2-1.58-2s-1.58.74-1.58,2v7.24c0,1.23.5,2,1.58,2s1.58-.74,1.58-2v-1.78h1.43v1.7c0,2.07-1,3.45-3,3.45s-3-1.37-3-3.45v-7.09c0-2.07,1-3.45,3-3.45"/><path d="M233.52,124.64c2.08,0,3.1,1.35,3.1,3.45v7.09c0,2.07-1,3.44-3.1,3.44s-3.09-1.37-3.09-3.44v-7.09c0-2.1,1-3.45,3.09-3.45m1.6,10.61V128c0-1.23-.5-2-1.6-2s-1.6.74-1.6,2v7.24c0,1.25.52,2,1.6,2s1.6-.72,1.6-2"/><polygon points="158.89 141.61 158.89 141.61 152.27 141.61 152.27 142.18 158.89 142.18 158.89 141.61"/><polyline points="151.71 133.16 151.71 141.61 152.27 141.61 152.27 133.16"/><rect x="151.71" y="141.61" width="0.56" height="0.57"/><polygon points="152.05 141.98 151.84 141.99 146.68 136.2 146.89 136.2 152.05 141.98"/></svg>