<svg id="Layer_1" data-name="Layer 1" xmlns="http://www.w3.org/2000/svg" xmlns:xlink="http://www.w3.org/1999/xlink" viewBox="0 0 63 67"><defs><style>.cls-1{fill:none;}.cls-2{clip-path:url(#clip-path);}.cls-3{fill:#2eb9ef;}</style><clipPath id="clip-path"><polyline class="cls-1" points="87 -693 87 75 -996 75 -996 -693"/></clipPath></defs><g class="cls-2"><path class="cls-3" d="M41.42,42.63a60.65,60.65,0,0,1-10.56-2.09l-5.45,16.9a24.65,24.65,0,0,0,14-1,2.14,2.14,0,0,1-.07-.57,48.82,48.82,0,0,1,2.11-13.19"/><path class="cls-3" d="M18.48,29.13l.52.39a41.76,41.76,0,0,0,9,4.91L36.05,9.34a24.58,24.58,0,0,0-14.36,1.08A71.49,71.49,0,0,1,20.4,21.89a56.1,56.1,0,0,1-1.92,7.24"/><path class="cls-3" d="M16.63,33.73A32.18,32.18,0,0,1,9.25,44a2.25,2.25,0,0,1-.62.4A24.72,24.72,0,0,0,21,56l5.48-17a46.62,46.62,0,0,1-9.84-5.3"/><path class="cls-3" d="M14.76,25.94A62.68,62.68,0,0,0,17,12.83a24.77,24.77,0,0,0-7.13,7.23l.11.14a33.36,33.36,0,0,0,4.74,5.75"/><path class="cls-3" d="M43,37.93q1.3-3.5,3-7.18a100.24,100.24,0,0,1,5.63-10.22,24.73,24.73,0,0,0-11.2-9.75L32.35,35.94a56.55,56.55,0,0,0,10.64,2"/><path class="cls-3" d="M13,30.85a40.13,40.13,0,0,1-5.51-5.92A24.68,24.68,0,0,0,6.92,40,28.75,28.75,0,0,0,13,30.85"/><path class="cls-3" d="M54.82,38A24.59,24.59,0,0,0,54,25.45a92.45,92.45,0,0,0-6.24,12.75q3.46.08,7.1-.18"/><path class="cls-3" d="M46,43a47.8,47.8,0,0,0-2.15,11.14A24.72,24.72,0,0,0,53.33,43c-1.28.06-2.59.1-3.94.1q-1.64,0-3.34-.07"/></g></svg>