<svg id="Layer_1" data-name="Layer 1" xmlns="http://www.w3.org/2000/svg" xmlns:xlink="http://www.w3.org/1999/xlink" viewBox="0 0 106 95"><defs><style>.cls-1,.cls-15{fill:none;}.cls-2{clip-path:url(#clip-path);}.cls-3{fill:#231f20;}.cls-4{fill:#333;}.cls-5{fill:#444445;}.cls-6{fill:#2a95d2;}.cls-7{opacity:0.23;}.cls-8{clip-path:url(#clip-path-2);}.cls-9{fill:#06445e;}.cls-10{fill:#fff;}.cls-11{fill:#0e3a59;}.cls-12{fill:#5f6060;}.cls-13{fill:#282827;}.cls-14{fill:#2d2d2d;}.cls-15{stroke:#fff;stroke-miterlimit:10;}</style><clipPath id="clip-path"><polyline class="cls-1" points="717 -629 717 139 -366 139 -366 -629"/></clipPath><clipPath id="clip-path-2"><rect class="cls-1" x="73.57" y="10.8" width="9.56" height="13.38"/></clipPath></defs><g class="cls-2"><rect x="64.21" y="21.68" width="5.69" height="47.75"/><polygon points="64.68 54.99 64.68 40.01 49.55 54.99 64.68 54.99"/><polygon points="30.21 55.18 30.45 55.18 30.44 55.17 44.54 41.08 30.21 41.08 30.21 27.68 67.91 27.68 69.91 13.57 14.21 13.57 14.21 83.58 66.51 83.58 66.51 69.48 30.21 69.48 30.21 55.18"/><rect class="cls-3" x="69.28" y="47.85" width="13.58" height="5.05"/><polygon class="cls-4" points="82.45 26.5 82.45 24.23 69.33 24.18 69.33 26.32 82.45 26.5"/><path class="cls-5" d="M85.12,72.42V22.91a.43.43,0,0,0-.43-.43H67.34a.43.43,0,0,0-.43.43V72.42a.43.43,0,0,0,.43.43H84.69a.43.43,0,0,0,.43-.43"/><path class="cls-3" d="M84.69,73.49H67.34a1.07,1.07,0,0,1-1.07-1.07V22.91a1.07,1.07,0,0,1,1.07-1.07H84.69a1.07,1.07,0,0,1,1.07,1.07V72.42a1.07,1.07,0,0,1-1.07,1.07M67.55,72.21H84.48V23.12H67.55Z"/><path class="cls-6" d="M74.77,18l1.6,2.3.69-1.68-1-2.11-1.6-1.09.09-3,1.86-1.6,1.17,1.42h.26L83.12,19a7.95,7.95,0,1,0-7.48,5.27,8.11,8.11,0,0,0,.83,0l-2.9-3.75Z"/><path class="cls-6" d="M83.12,19l-5.29-6.73h-.26l-1.17-1.42-1.86,1.6-.09,3,1.6,1.09,1,2.11-.69,1.68L74.77,18l-1.21,2.43,2.9,3.76A8,8,0,0,0,83.12,19"/><g class="cls-7"><g class="cls-8"><path class="cls-9" d="M83.12,19l-5.29-6.73h-.26l-1.17-1.42-1.86,1.6-.09,3,1.6,1.09,1,2.11-.69,1.68L74.77,18l-1.21,2.43,2.9,3.76A8,8,0,0,0,83.12,19"/></g></g><path class="cls-10" d="M75,11.53v-.71h1.48v.71a2.16,2.16,0,0,1,1.95,2.35v.3H76.69v-.4c0-.69-.33-.95-.91-.95s-.91.26-.91.95c0,2,3.55,2.08,3.55,4.83a2.19,2.19,0,0,1-2,2.37v.7H75V21a2.18,2.18,0,0,1-2-2.37V18h1.72v.76a.94.94,0,0,0,1.88,0c0-2-3.55-2.08-3.55-4.83A2.17,2.17,0,0,1,75,11.53"/><path class="cls-11" d="M75.94,24.47a8.56,8.56,0,0,1-8.64-8.23,8.65,8.65,0,0,1,17.28,0,8.56,8.56,0,0,1-8.64,8.23m0-15.19a7.26,7.26,0,0,0-7.36,7,7.37,7.37,0,0,0,14.72,0,7.26,7.26,0,0,0-7.36-7"/><path class="cls-12" d="M87.64,56.33l-.19-1.26.1.63-.1-.63c.05,0,5-1,4.8-11.66l1.28,0c.28,11.88-5.63,12.92-5.88,13"/><rect class="cls-5" x="66.91" y="80.39" width="2.56" height="2.49"/><path class="cls-3" d="M70.11,83.52H66.27V79.75h3.84Zm-2.56-1.28h1.28V81H67.55Z"/><path class="cls-12" d="M88.3,64.42a2.19,2.19,0,0,1-1.09-.27L87.86,63a1.13,1.13,0,0,0,1.11-.1c1-.58,3.27-3.37,3.27-16.63h1.28c0,10.3-1.33,16.28-3.95,17.76a2.55,2.55,0,0,1-1.27.34"/><rect class="cls-5" x="82.56" y="80.39" width="2.56" height="2.49"/><path class="cls-3" d="M85.76,83.52H81.92V79.75h3.84ZM83.2,82.24h1.28V81H83.2Z"/><path class="cls-4" d="M85.55,30.31h1.71a.43.43,0,0,1,.43.43v46a.43.43,0,0,1-.43.43H85.55a.43.43,0,0,1-.43-.43v-46a.43.43,0,0,1,.43-.43"/><path class="cls-3" d="M87.26,77.75H85.55a1.07,1.07,0,0,1-1.07-1.07v-46a1.07,1.07,0,0,1,1.07-1.07h1.71a1.07,1.07,0,0,1,1.07,1.07v46a1.07,1.07,0,0,1-1.07,1.07m-1.49-1.28H87V30.95H85.76Z"/><path class="cls-4" d="M66.48,30.31H64.63a.43.43,0,0,0-.43.43v46a.43.43,0,0,0,.43.43h1.85a.43.43,0,0,0,.43-.43v-46a.43.43,0,0,0-.43-.43"/><path class="cls-3" d="M66.48,77.75H64.63a1.07,1.07,0,0,1-1.07-1.07v-46a1.07,1.07,0,0,1,1.07-1.07h1.85a1.07,1.07,0,0,1,1.07,1.07v46a1.07,1.07,0,0,1-1.07,1.07m-1.64-1.28h1.42V30.95H64.85Z"/><path class="cls-13" d="M89.77,77.11H61.94a.43.43,0,0,0-.43.43V80a.43.43,0,0,0,.43.43H89.77a.43.43,0,0,0,.43-.43V77.54a.43.43,0,0,0-.43-.43"/><path class="cls-3" d="M89.77,81H61.94A1.07,1.07,0,0,1,60.86,80V77.54a1.07,1.07,0,0,1,1.07-1.07H89.77a1.07,1.07,0,0,1,1.07,1.07V80A1.07,1.07,0,0,1,89.77,81M62.14,79.75H89.57v-2H62.14Z"/><rect class="cls-3" x="60.51" y="83.09" width="31.02" height="1.28"/><path class="cls-3" d="M82.13,23.83H76.81c-1,0-.69,1.39,0,1.28h5.12v1H70v-1h4.87a.64.64,0,1,0,0-1.27H69.76a1.07,1.07,0,0,0-1.07,1.07v2.49H83.2V24.9a1.07,1.07,0,0,0-1.07-1.07"/><path class="cls-3" d="M75.94,7.12a9.27,9.27,0,0,0-9.46,9c0,4.12,2.45,7.86,8,8.73a1.3,1.3,0,0,1,0-.34l.42-.71a7.63,7.63,0,0,1-7-7.69,8.19,8.19,0,0,1,16.36,0c0,3.62-2.56,7.08-7.51,7.71,0,.44.36.74.2,1.16,5.92-1,8.59-4.74,8.59-8.86a9.27,9.27,0,0,0-9.46-9"/><rect class="cls-14" x="69.47" y="56.13" width="13.09" height="12.24"/><polygon class="cls-13" points="82.13 55.7 69.9 55.7 69.47 68.36 71.25 68.36 82.57 58.9 82.13 55.7"/><path class="cls-10" d="M82.14,53.14H70a.43.43,0,0,1-.43-.43V48.59a.43.43,0,0,1,.43-.43H82.14a.43.43,0,0,1,.43.43v4.13a.43.43,0,0,1-.43.43"/><path class="cls-3" d="M82.14,53.78H70a1.07,1.07,0,0,1-1.07-1.07V48.59A1.07,1.07,0,0,1,70,47.52H82.14a1.07,1.07,0,0,1,1.07,1.07v4.13a1.07,1.07,0,0,1-1.07,1.07"/><path class="cls-3" d="M82.13,69.43H69.9a1.07,1.07,0,0,1-1.07-1.07V56.13a1.07,1.07,0,0,1,1.07-1.07H82.13a1.07,1.07,0,0,1,1.07,1.07V68.36a1.07,1.07,0,0,1-1.07,1.07m-12-1.28H81.92V56.34H70.11Z"/><path class="cls-10" d="M79.89,43.4H72.25a1,1,0,0,1-1-1V31.31a1,1,0,0,1,1-1h7.64a1,1,0,0,1,1,1V42.4a1,1,0,0,1-1,1"/><path class="cls-3" d="M80.46,44H71.68A1.07,1.07,0,0,1,70.61,43V30.73a1.07,1.07,0,0,1,1.07-1.07h8.79a1.07,1.07,0,0,1,1.07,1.07V43A1.07,1.07,0,0,1,80.46,44m-8.57-1.28h8.36V30.95H71.89Z"/><rect class="cls-6" x="72.89" y="41.82" width="1.57" height="3.64"/><path class="cls-10" d="M74.66,45.67h-2V41.6h2Zm-1.57-.43h1.14V42H73.1Z"/><rect class="cls-6" x="75.45" y="41.82" width="1.57" height="3.64"/><path class="cls-10" d="M77.23,45.67h-2V41.6h2Zm-1.57-.43H76.8V42H75.66Z"/><rect class="cls-6" x="78.01" y="41.82" width="1.57" height="3.64"/><path class="cls-10" d="M79.79,45.67h-2V41.6h2Zm-1.57-.43h1.14V42H78.22Z"/><path class="cls-3" d="M79.27,40.12h-6.4c-.65,0-.7-1.28,0-1.28h6.4c.66,0,.71,1.28,0,1.28"/><path class="cls-3" d="M79.27,38.2h-6.4c-.65,0-.7-1.28,0-1.28h6.4c.66,0,.71,1.28,0,1.28"/><path class="cls-10" d="M77.69,33.85a1.75,1.75,0,1,1-1.74-1.62,1.68,1.68,0,0,1,1.74,1.62"/><path class="cls-3" d="M75.94,36.1a2.26,2.26,0,1,1,2.38-2.26,2.33,2.33,0,0,1-2.38,2.26m0-3.24a1,1,0,1,0,1.1,1,1,1,0,0,0-1.1-1"/><rect class="cls-3" x="88.29" y="77.12" width="0.43" height="3.27"/><rect class="cls-3" x="63.1" y="77.33" width="0.43" height="3.27"/><path class="cls-12" d="M93.32,43.92,92,43.8a21.3,21.3,0,0,0-.55-5l1.25-.29a22.15,22.15,0,0,1,.58,5.43"/><path class="cls-10" d="M92.12,44v6.88a.4.4,0,0,0,.37.43h.39a.4.4,0,0,0,.37-.43V44a.4.4,0,0,0-.37-.43h-.39a.4.4,0,0,0-.37.43"/><path class="cls-3" d="M92.88,51.9h-.39a1,1,0,0,1-1-1.07V44a1,1,0,0,1,1-1.07h.39a1,1,0,0,1,1,1.07v6.88a1,1,0,0,1-1,1.07"/><path class="cls-10" d="M87.25,35.46a5.33,5.33,0,0,1,5.06,4.42c.06.28.09-4.57-5.06-4.42"/><path class="cls-3" d="M91.82,40.62l-.13-.6a4.64,4.64,0,0,0-4.44-3.92l0-1.28h.23A5.1,5.1,0,0,1,93,39.57c0,.22.08.87-.54,1Z"/><path class="cls-3" d="M90.46,38.63a2.36,2.36,0,0,0,1.75,0c1-.37,1.62-1.22,0-1.22s-2.32.91-1.75,1.22"/><polyline class="cls-3" points="90.47 36.12 90.21 36.12 87.68 37.68 87.97 37.68"/><rect class="cls-6" x="70.11" y="48.59" width="11.81" height="3.85"/><rect class="cls-15" x="70.11" y="48.59" width="11.81" height="3.85"/></g></svg>