<svg id="Layer_1" data-name="Layer 1" xmlns="http://www.w3.org/2000/svg" viewBox="0 0 86 67.5"><defs><style>.cls-1{fill:red;}</style></defs><rect class="cls-1" x="41.5" y="7.27" width="1.08" height="17.45"/><rect class="cls-1" x="42.58" y="26.16" width="19.01" height="1.08"/><path d="M42.22,41.63a15.11,15.11,0,0,1-2.16-30.06V9.75A16.91,16.91,0,1,0,59,28.68H57.17a15.13,15.13,0,0,1-15,12.95"/><path d="M57.17,24.36H59A16.91,16.91,0,0,0,44,9.71v1.81A15.14,15.14,0,0,1,57.17,24.36"/><path d="M42.4,30.12A3.42,3.42,0,1,0,39,26.7a3.42,3.42,0,0,0,3.42,3.42"/><path d="M10.08,50.13a3.31,3.31,0,0,1,1,2.7v6.74H8.38V53.48a2.8,2.8,0,0,0-.21-1.21,1.47,1.47,0,0,0-1.46-.77,1.81,1.81,0,0,0-1.82,1.13,3.92,3.92,0,0,0-.25,1.53v5.42H2v-10H4.55V51a4.49,4.49,0,0,1,1-1.11,3.3,3.3,0,0,1,2-.61,3.84,3.84,0,0,1,2.53.81"/><path d="M21.85,58.34A4.66,4.66,0,0,1,18,59.91a4.66,4.66,0,0,1-3.85-1.56,6.22,6.22,0,0,1,0-7.53A4.63,4.63,0,0,1,18,49.23a4.63,4.63,0,0,1,3.85,1.59,6.21,6.21,0,0,1,0,7.53m-2.09-1.45a4.67,4.67,0,0,0,0-4.64A2.08,2.08,0,0,0,18,51.44a2.1,2.1,0,0,0-1.77.81,4.65,4.65,0,0,0,0,4.64,2.09,2.09,0,0,0,1.77.82,2.08,2.08,0,0,0,1.76-.82"/><path d="M27,56.37a1.75,1.75,0,0,0,.36,1,2.44,2.44,0,0,0,1.81.52,2.77,2.77,0,0,0,1.23-.23.74.74,0,0,0,.46-.69.74.74,0,0,0-.37-.67,14.92,14.92,0,0,0-2.74-.79,5.7,5.7,0,0,1-2.41-1.06,2.29,2.29,0,0,1-.7-1.8,3.12,3.12,0,0,1,1.09-2.38,4.39,4.39,0,0,1,3.07-1,5.65,5.65,0,0,1,3.06.75,3.21,3.21,0,0,1,1.36,2.59H30.63a1.54,1.54,0,0,0-.29-.8,1.8,1.8,0,0,0-1.47-.53,2.12,2.12,0,0,0-1.22.27.76.76,0,0,0-.36.63.68.68,0,0,0,.39.65,16.58,16.58,0,0,0,2.74.73,5,5,0,0,1,2.35,1.11,2.52,2.52,0,0,1,.77,1.88A3,3,0,0,1,32.42,59a5.22,5.22,0,0,1-3.43.94,5.17,5.17,0,0,1-3.49-1,3.24,3.24,0,0,1-1.13-2.54Z"/><path d="M34.43,51.51V49.64h1.4V46.85h2.59v2.79H40v1.86H38.42V56.8a1.19,1.19,0,0,0,.16.77,1.72,1.72,0,0,0,1,.15H40v2l-1.24,0a3.34,3.34,0,0,1-2.54-.64,1.92,1.92,0,0,1-.44-1.39V51.51Z"/><path d="M45.69,53.47a4.14,4.14,0,0,0,1-.23.79.79,0,0,0,.56-.74.88.88,0,0,0-.43-.85,2.74,2.74,0,0,0-1.27-.23,1.67,1.67,0,0,0-1.33.46,1.89,1.89,0,0,0-.37.92H41.37a3.84,3.84,0,0,1,.74-2.16,4.31,4.31,0,0,1,3.58-1.32,6.38,6.38,0,0,1,2.93.65,2.5,2.5,0,0,1,1.28,2.46V57c0,.32,0,.7,0,1.16a1.45,1.45,0,0,0,.16.7.93.93,0,0,0,.39.3v.39H47.62a2.89,2.89,0,0,1-.17-.57q0-.27-.07-.61a5.44,5.44,0,0,1-1.26,1,3.8,3.8,0,0,1-1.92.49,3.32,3.32,0,0,1-2.26-.78A2.76,2.76,0,0,1,41,56.9a2.85,2.85,0,0,1,1.43-2.67,6.42,6.42,0,0,1,2.31-.64Zm1.6,1.22a3,3,0,0,1-.51.25,4.43,4.43,0,0,1-.7.18l-.6.11a3.94,3.94,0,0,0-1.2.36,1.2,1.2,0,0,0-.62,1.11,1.16,1.16,0,0,0,.38,1A1.44,1.44,0,0,0,45,58a2.74,2.74,0,0,0,1.58-.5,2.1,2.1,0,0,0,.75-1.81Z"/><rect x="52.25" y="46.02" width="2.62" height="13.55"/><path d="M62.38,49.54A3.14,3.14,0,0,1,63.92,51V49.55h2.55v9.5A5.32,5.32,0,0,1,65.82,62q-1.12,1.69-4.3,1.69a5.86,5.86,0,0,1-3.13-.75A2.78,2.78,0,0,1,57,60.66h2.85a1.18,1.18,0,0,0,.36.66,2.22,2.22,0,0,0,1.43.36,1.91,1.91,0,0,0,1.89-.95,4.81,4.81,0,0,0,.31-2v-.64a3.19,3.19,0,0,1-.81,1,3.26,3.26,0,0,1-2,.6A3.84,3.84,0,0,1,58,58.26a5.48,5.48,0,0,1-1.15-3.67,6.2,6.2,0,0,1,1.11-3.75,3.67,3.67,0,0,1,3.15-1.52,3.42,3.42,0,0,1,1.31.23m.89,7.18a3.22,3.22,0,0,0,.63-2.21,3.39,3.39,0,0,0-.6-2.17,2,2,0,0,0-1.61-.74,1.89,1.89,0,0,0-1.89,1.3,4.61,4.61,0,0,0-.27,1.7,3.9,3.9,0,0,0,.29,1.55,1.91,1.91,0,0,0,1.9,1.27,2,2,0,0,0,1.55-.69"/><path d="M71.61,48.36H69V45.94h2.66ZM69,49.55h2.66v10H69Z"/><path d="M80.14,53.14a2.32,2.32,0,0,0-.38-1,1.59,1.59,0,0,0-1.37-.61,1.81,1.81,0,0,0-1.82,1.31,5.46,5.46,0,0,0-.26,1.85,5,5,0,0,0,.26,1.77,1.75,1.75,0,0,0,1.77,1.25,1.56,1.56,0,0,0,1.31-.5,2.46,2.46,0,0,0,.47-1.29H82.8a4.39,4.39,0,0,1-.86,2.26,4.21,4.21,0,0,1-3.65,1.72,4.27,4.27,0,0,1-3.56-1.43,5.78,5.78,0,0,1-1.14-3.72,5.88,5.88,0,0,1,1.26-4,4.39,4.39,0,0,1,3.48-1.43,5.24,5.24,0,0,1,3.09.85,3.93,3.93,0,0,1,1.42,3Z"/></svg>