<svg id="Layer_1" data-name="Layer 1" xmlns="http://www.w3.org/2000/svg" xmlns:xlink="http://www.w3.org/1999/xlink" viewBox="0 0 104 102"><defs><style>.cls-1{fill:none;}.cls-2{clip-path:url(#clip-path);}.cls-3{fill:#2eb9ef;}.cls-4{fill:#fff;}</style><clipPath id="clip-path"><polyline class="cls-1" points="254 -368 254 400 -829 400 -829 -368"/></clipPath></defs><g class="cls-2"><path class="cls-3" d="M99,52.5A44.5,44.5,0,1,1,54.5,8,44.5,44.5,0,0,1,99,52.5"/><path class="cls-4" d="M61.1,53.6c.33-.6.67-1.2,1-1.81,1.05-2,2.11-4,3.14-6.07A1.21,1.21,0,0,1,66.49,45c1.25,0,2.5,0,3.9,0a6.62,6.62,0,0,1-.32.82Q66,53.1,61.84,60.38a1.07,1.07,0,0,1-1,.62c-.91,0-1.82,0-2.73,0-.57,0-.81-.24-.87-.8-.41-3.71-.84-7.42-1.27-11.12-.12-1-.24-2.05-.36-3.08H55.4c-.18.79-.34,1.58-.53,2.37s-.27.92-1.2.92c-1.63,0-3.26,0-4.88,0a.93.93,0,0,0-1.08.92c-.1.59.11.8.68.8,1.43,0,2.86,0,4.3,0,1.11,0,1.14,0,.91,1.09-.13.64-.29,1.27-.41,1.91a.83.83,0,0,1-.94.76c-1.52,0-3,0-4.56,0a1.1,1.1,0,0,0-1.22,1.35c0,.46.39.47.72.47h5c.87,0,.95.1.76,1s-.39,1.65-.53,2.48c-.11.64-.45.85-1.07.85-3,0-6.08,0-9.11,0-.84,0-1-.15-.77-1Q42.76,54,44.06,48c.14-.66.28-1.32.43-2,.2-.88.28-1,1.18-1,2.63,0,5.25,0,7.88,0,1.91,0,3.82-.09,5.72-.11,1,0,1,.06,1.09,1q.23,3.47.48,6.94a6.26,6.26,0,0,0,.1.62l.18,0"/><path class="cls-4" d="M63.14,60.87c.5-.93.89-1.67,1.3-2.4,2.33-4.16,4.68-8.32,7-12.49a1.42,1.42,0,0,1,1.44-.87c.82,0,1.65,0,2.47,0,.59,0,.85.23.92.82.45,3.75.92,7.49,1.39,11.24.12.95.23,1.9.36,2.84.08.58-.15.86-.75.85H74.41a.78.78,0,0,1-.89-.8c-.15-1.28-.17-1.28-1.49-1.28-.78,0-1.56,0-2.34,0a1.26,1.26,0,0,0-1.34.82c-.09.2-.21.38-.29.58a1.05,1.05,0,0,1-1.12.7c-1.19,0-2.37,0-3.79,0m9.68-9.36-.21,0c-.4.75-.82,1.49-1.19,2.26A12.24,12.24,0,0,0,71,55l1.43.18a.36.36,0,0,0,.25,0c.16-.15.43-.33.43-.48,0-1-.16-2.08-.24-3.12"/><path class="cls-4" d="M36.79,61.13a8.65,8.65,0,0,1-6.41-2.28.76.76,0,0,1-.12-1.18c.56-.77,1.1-1.56,1.62-2.36.27-.41.5-.45.87-.1a6.39,6.39,0,0,0,3.11,1.68c.85.18,1.44,0,1.62-.46s-.1-.86-1-1.31c-.74-.37-1.51-.67-2.22-1.08a4.27,4.27,0,0,1-2.13-5.26,5.51,5.51,0,0,1,5.15-4.06,8.07,8.07,0,0,1,5.58,1.78c.45.36.53.67.18,1.14-.56.77-1.1,1.56-1.61,2.36-.29.45-.53.39-.95.14A18.19,18.19,0,0,0,38.1,49a1.9,1.9,0,0,0-1.08,0,1,1,0,0,0-.62.53c-.05.17.16.54.36.66.55.34,1.18.55,1.73.89a12,12,0,0,1,2.41,1.62c1.3,1.31,1.27,3,.81,4.64a5.1,5.1,0,0,1-4.92,3.85"/></g></svg>