<svg id="Layer_1" data-name="Layer 1" xmlns="http://www.w3.org/2000/svg" xmlns:xlink="http://www.w3.org/1999/xlink" viewBox="0 0 133 77"><defs><style>.cls-1{fill:none;}.cls-2{fill:#2a95d2;}.cls-3{opacity:0.24;}.cls-4{clip-path:url(#clip-path);}.cls-5{fill:#6ec8f1;}.cls-6{clip-path:url(#clip-path-2);}</style><clipPath id="clip-path"><rect id="SVGID" class="cls-1" x="33.76" y="29.21" width="17.29" height="20.32"/></clipPath><clipPath id="clip-path-2"><rect id="SVGID-2" data-name="SVGID" class="cls-1" x="12.55" y="33.68" width="20.87" height="16.49"/></clipPath></defs><path d="M120.92,18.74,87.42,1.17,54,20.66V57.25L85.87,71.89,120,55.84,88.3,38.75,68.58,48.63l18.07,7.7,19.59-9.63L106.29,32,87.46,22.44l-18.88,8.7.07,5.95,18.41-7.95,12.45,6.14,0,7.88c-1.48,1.62-2.92,2.38-6.32,3.79-6.71,4.21-11.39-.28-11.39-.28l5.62-2.89,21,11.53L85.88,65.47,59.82,53.56l.08-30.24L87.42,7.45l33.51,17.18Z"/><polygon points="115.93 23.19 115.93 25.17 87.78 10.56 66.18 23.63 116.62 49.91 86.16 63.97 61.44 52.6 61.44 50.83 85.98 62.16 112.29 49.91 62.57 23.57 87.46 8.93 115.93 23.19"/><path class="cls-2" d="M51,28.64H34.48v4.29A96.77,96.77,0,0,1,51,29.21Z"/><path class="cls-2" d="M19,36.56c.38-2.88,1.7-4.42,3.87-4.42,2,0,3.14,1.29,3.59,3.71,1.83-.75,3.77-1.48,5.79-2.17-1.64-3.84-4.88-5.84-9.38-5.84-6.89,0-10.76,4.37-10.76,11a14.39,14.39,0,0,0,.48,3.79,111.13,111.13,0,0,1,12.17-6.11Z"/><path class="cls-2" d="M43.2,33.68,33.76,44.49v5H51v-5.4H41.84L51,33.48V29.21a96.77,96.77,0,0,0-16.57,3.73v.75Z"/><g class="cls-3"><g class="cls-4"><path class="cls-5" d="M43.2,33.68,33.76,44.49v5H51v-5.4H41.84L51,33.48V29.21a96.77,96.77,0,0,0-16.57,3.73v.75Z"/></g></g><path class="cls-2" d="M23.26,50.17a9.48,9.48,0,0,0,9.65-7.49H27.64a3.6,3.6,0,0,1-3.91,2.83c-2.76,0-4.34-2.11-4.72-5H33.42a17.44,17.44,0,0,0-1.21-6.84c-2,.69-4,1.42-5.79,2.17,0,.23.08.46.11.71H24.72a110.77,110.77,0,0,0-12.17,6.11c1.3,4.78,5.19,7.5,10.71,7.5"/><g class="cls-3"><g class="cls-6"><path class="cls-5" d="M23.26,50.17a9.48,9.48,0,0,0,9.65-7.49H27.64a3.6,3.6,0,0,1-3.91,2.83c-2.76,0-4.34-2.11-4.72-5H33.42a17.44,17.44,0,0,0-1.21-6.84c-2,.69-4,1.42-5.79,2.17,0,.23.08.46.11.71H24.72a110.77,110.77,0,0,0-12.17,6.11c1.3,4.78,5.19,7.5,10.71,7.5"/></g></g></svg>