<svg id="Layer_1" data-name="Layer 1" xmlns="http://www.w3.org/2000/svg" xmlns:xlink="http://www.w3.org/1999/xlink" viewBox="0 0 127 89"><defs><style>.cls-1,.cls-4{fill:none;}.cls-2{clip-path:url(#clip-path);}.cls-3{fill:#0f173b;}.cls-4{stroke:#fff;stroke-miterlimit:10;stroke-width:4px;}.cls-5{fill:#af4b25;}.cls-6{fill:#e56025;}.cls-7{fill:#fff;}.cls-8{fill:#9dabbe;}</style><clipPath id="clip-path"><polyline class="cls-1" points="519 -229 519 539 -564 539 -564 -229"/></clipPath></defs><g class="cls-2"><path class="cls-3" d="M14,4.21l109-.09V53.5h-6.12l-.2.7s-5.42,28.34-52.45,28.34S12.34,53.38,12.34,53.38L7,53.4V4.21H14"/><path class="cls-4" d="M14,4.21l109-.09V53.5h-6.12l-.2.7s-5.42,28.34-52.45,28.34S12.34,53.38,12.34,53.38L7,53.4V4.21H14"/><path class="cls-5" d="M43.24,61.93v0"/><path class="cls-5" d="M41.66,65.24l.08-.16-.08.16"/><path class="cls-5" d="M44.51,58.61l.08-.25-.08.25"/><path class="cls-5" d="M38.83,69.51a22,22,0,0,1-1.75,1.94c5.93,2.76,13.69,4.78,23.84,5.26V72.9a76,76,0,0,1-22.16-3.27l.08-.11"/><path class="cls-5" d="M40.77,66.77l0-.07,0,.07"/><path class="cls-5" d="M45.09,56.81c.23-.76.45-1.52.66-2.29-.21.77-.43,1.53-.66,2.29"/><path class="cls-5" d="M43.88,60.34l.09-.23-.09.23"/><path class="cls-5" d="M46,53.75c.13-.51.27-1,.39-1.54-.12.51-.26,1-.39,1.54"/><path class="cls-5" d="M42.5,63.58l0-.08,0,.08"/><path class="cls-5" d="M96.56,60.43l-.29-.32.29.32"/><path class="cls-5" d="M91.18,52.87,91,52.51l.19.35"/><path class="cls-5" d="M93,55.91l-.08-.12.08.12"/><path class="cls-5" d="M97.12,61a41.57,41.57,0,0,0,4.7,4.25,31.75,31.75,0,0,0,9.29-13.75l-5.39,0A47.25,47.25,0,0,1,97.12,61"/><path class="cls-5" d="M94.19,57.57l-.32-.43.32.43"/><path class="cls-5" d="M95.23,58.9l-.31-.39.31.39"/><path class="cls-5" d="M92.05,54.41,91.81,54l.24.41"/><path class="cls-5" d="M67.08,72.78v4c13.59-.25,23.09-3.56,29.7-7.73A47.94,47.94,0,0,1,92,64.51l.19.21a51.41,51.41,0,0,1-25.09,8.07"/><path class="cls-5" d="M87.87,59.3l.4.58-.4-.58"/><path class="cls-5" d="M88.68,60.45l.44.6-.44-.6"/><path class="cls-5" d="M83.86,51.86l.22.52-.22-.52"/><path class="cls-5" d="M90.72,63.06l.5.59-.5-.59"/><path class="cls-5" d="M89.82,62l.48.59L89.82,62"/><path class="cls-5" d="M84.58,53.5l.25.53-.25-.53"/><path class="cls-5" d="M86.1,56.45l.34.59-.34-.59"/><path class="cls-5" d="M85.25,54.85l.29.55-.29-.55"/><path class="cls-5" d="M86.85,57.72l.36.58-.36-.58"/><path class="cls-5" d="M34,66l-.3.35L34,66"/><path class="cls-5" d="M34.65,65.18l-.28.37.28-.37"/><path class="cls-5" d="M20.68,56.61A32.72,32.72,0,0,0,31.52,68.34a11.79,11.79,0,0,0,1.33-1.1C26.38,64,22.74,60,20.68,56.61"/><path class="cls-5" d="M40.15,51.58l0-.15h0l0,.15"/><path class="cls-5" d="M33.32,66.77l-.31.32.31-.32"/><path class="cls-5" d="M37.83,59.1l-.17.45.17-.45"/><path class="cls-5" d="M37.42,60.12l-.18.43.18-.43"/><path class="cls-5" d="M37,61.16l-.17.37.17-.37"/><path class="cls-5" d="M35.8,63.41l-.22.36.22-.36"/><path class="cls-5" d="M36.32,62.48l-.14.25.14-.25"/><path class="cls-5" d="M35.25,64.32l-.25.37.25-.37"/><path class="cls-5" d="M39.16,55.15l-.11.37.11-.37"/><path class="cls-5" d="M39.44,54.21l-.09.29.09-.29"/><path class="cls-5" d="M38.55,57.1l-.15.44.15-.44"/><path class="cls-5" d="M38.21,58.09l-.16.45.16-.45"/><path class="cls-5" d="M38.87,56.11l-.13.41.13-.41"/><path class="cls-6" d="M18.47,51.52a20.49,20.49,0,0,0,2.21,5.08C22.74,60,26.38,64,32.85,67.24h0l.15-.15.31-.32.39-.43L34,66l.36-.46.28-.37.35-.49.25-.37.34-.55.22-.36c.13-.23.26-.46.38-.69l.14-.25q.24-.47.47-.95l.17-.37.28-.61.18-.43.23-.57.17-.45.21-.56.16-.45.2-.56.15-.44.19-.57.13-.41.18-.59.11-.37.19-.64.08-.29.25-.9q.24-.86.46-1.73l0-.15c-7.1,0-14.39,0-21.71.09"/><path class="cls-6" d="M46.53,51.41c-.06.27-.12.54-.18.8-.12.51-.26,1-.39,1.54-.07.26-.13.52-.2.77-.21.76-.43,1.53-.66,2.29-.16.52-.33,1-.5,1.55l-.08.25q-.26.75-.54,1.5l-.09.23c-.2.52-.4,1-.62,1.55v0q-.34.79-.71,1.57l0,.08q-.36.76-.76,1.5l-.09.16c-.27.49-.55,1-.84,1.45l0,.08a26.56,26.56,0,0,1-1.94,2.75l-.08.11A76,76,0,0,0,60.91,72.9V51.4H46.53"/><path class="cls-6" d="M105.71,51.5l-15.26-.06c.17.36.35.72.54,1.07l.19.36q.31.57.63,1.12l.24.41c.28.47.57.93.87,1.38l.08.12c.28.42.57.82.86,1.23l.32.43c.24.32.48.63.73.94l.31.39q.51.62,1,1.21l.29.32.55.61h0a47.24,47.24,0,0,0,8.59-9.53"/><path class="cls-6" d="M67.08,51.4V72.78a51.4,51.4,0,0,0,25.09-8.07L92,64.51l-.77-.86-.5-.59-.41-.5-.48-.6-.71-.92-.44-.6-.4-.57-.41-.58q-.33-.5-.65-1l-.36-.58L86.45,57l-.34-.59c-.2-.35-.39-.69-.57-1l-.29-.55L84.83,54l-.25-.53c-.17-.37-.34-.74-.5-1.12l-.22-.52-.17-.43-16.61,0"/><polygon class="cls-7" points="82.69 46.61 74.49 46.61 74.49 17.31 66.43 17.31 66.43 9.83 90.59 9.83 90.59 17.15 82.69 17.15 82.69 46.61"/><polygon class="cls-7" points="38.7 9.8 46.61 9.8 46.61 39.13 54.66 39.13 54.66 46.56 38.7 46.56 38.7 9.8"/><rect class="cls-7" x="56.61" y="9.89" width="7.94" height="36.7"/><rect class="cls-7" x="12.65" y="9.87" width="24.21" height="7.55"/><rect class="cls-7" x="92.48" y="9.83" width="24.18" height="7.63"/><rect class="cls-7" x="12.59" y="38.95" width="24.24" height="7.58"/><rect class="cls-7" x="92.52" y="38.92" width="24.16" height="7.65"/><rect class="cls-7" x="12.63" y="24.74" width="24.22" height="7.27"/><rect class="cls-7" x="92.45" y="24.75" width="24.22" height="7.26"/><polygon class="cls-8" points="36.86 14.85 36.86 17.42 12.65 17.42 12.65 9.87 14.86 14.98 36.86 14.85"/><polygon class="cls-8" points="36.86 29.91 36.86 32.48 12.65 32.48 12.65 24.93 14.3 30.05 36.86 29.91"/><polygon class="cls-8" points="36.81 43.95 36.81 46.52 12.6 46.52 12.6 38.97 14.25 44.09 15.88 44.08 36.81 43.95"/><path class="cls-8" d="M54.66,44v2.56c-8,0-7.76,0-15.91,0,0-7.55-.05-34.09-.05-36.72l1.68,3.34.26,30.95Z"/><path class="cls-8" d="M64.55,44v2.54c-8,0,.15-.07-8-.07,0-7.55-.05-34.09-.05-36.72l1.68,3.34.26,30.95Z"/><polygon class="cls-8" points="82.69 44.23 82.69 46.61 74.49 46.61 74.49 16.23 76.34 16.23 76.43 44.27 82.69 44.23"/><polygon class="cls-8" points="74.49 16.23 74.49 17.31 66.43 17.31 66.43 9.83 68.16 12.92 68.17 16.23 74.49 16.23"/><polygon class="cls-8" points="116.68 14.89 116.68 17.46 92.46 17.46 92.46 9.91 94.67 15.03 116.68 14.89"/><path class="cls-8" d="M116.67,29.43V32H92.46c0-7.55,0-4.62,0-7.25l2.21,4.81Z"/><path class="cls-8" d="M116.68,44.21v2.37c-8,0-16,0-24.16,0V39.06l2.21,5.11Z"/></g></svg>