<svg id="Layer_1" data-name="Layer 1" xmlns="http://www.w3.org/2000/svg" xmlns:xlink="http://www.w3.org/1999/xlink" viewBox="0 0 262 66"><defs><style>.cls-1{fill:none;}.cls-2{clip-path:url(#clip-path);}.cls-3{fill:#2a2b2a;}.cls-4{fill:#40bbec;}.cls-5{fill:#0c7db2;}.cls-6{fill:#349fd9;}.cls-7{fill:#d6d6d6;}.cls-8{fill:#bababa;}.cls-9{fill:#7a7a7a;}.cls-10{fill:#8ed6f0;}</style><clipPath id="clip-path"><polyline class="cls-1" points="378 -229 378 539 -705 539 -705 -229"/></clipPath></defs><g class="cls-2"><path class="cls-3" d="M43.34,48.74c-.29-.46-.6-.9-.89-1.36v0l-.29-.43c-2.23-3.37-4.57-6.67-6.84-10l-.07-.09-5.66-8.28s-1.16-1.17-1.29-5.87c0-2,0-4.34,0-6.71a4.47,4.47,0,0,1,.77-2.39c1-1.38.49-1.91-.91-2-2.09-.07-3.46-.08-5.41,0h-.25l-.81,0c-1.4,0-1.93.58-.91,2A4.48,4.48,0,0,1,21.57,16c.07,2.21.05,4.42,0,6.31l-.11,2.18c-.32,3.22-1.18,4.09-1.18,4.09l-5.66,8.28-.07.09c-2.27,3.35-4.61,6.65-6.84,10l-.29.43v0c-.3.45-.6.9-.89,1.36-2,3.15-.7,5.68,3.08,5.72,9.92.11,3,.13,11.53,0,9.1.09,9.17.08,19.09,0,3.78,0,5.1-2.57,3.08-5.72"/><path class="cls-3" d="M22.53,11.59c.41,0-.54,0,0,0"/><path class="cls-4" d="M27.6,38.17a1.05,1.05,0,0,0,1.18.67,1,1,0,0,0,.89-.94,1.22,1.22,0,0,0-.23-.86,1.39,1.39,0,0,1,.68,1.21,3.08,3.08,0,0,1-.62,1.89c-.28.37-.85,1.16-3.74,1.38,1,.15,4.42.27,5.44.44.16-.27.74-1,.86-1.3a4.65,4.65,0,0,0,.33-2.77A2.76,2.76,0,0,0,28.59,36a1.74,1.74,0,0,0-1,2.2"/><path class="cls-4" d="M19.05,36.59a1.53,1.53,0,0,0,1.72,1,1.47,1.47,0,0,0,1.29-1.37,1.78,1.78,0,0,0-.33-1.25,2,2,0,0,1,1,1.77,4.48,4.48,0,0,1-.91,2.75c-.4.54-1.25,1.7-5.46,2,1.49.21,6.44.4,7.93.64.23-.4,1.07-1.45,1.26-1.9a6.79,6.79,0,0,0,.47-4,4,4,0,0,0-5.52-2.8,2.54,2.54,0,0,0-1.45,3.21"/><path class="cls-5" d="M23.59,45.54c-1.09,0-2.06-.06-3-.11-9.37-.53-8.45-2.6-8.45-2.6L7.8,49.26s-1.49,2.24,0,3.06,17.05.45,17.05.45,14.91.22,16.33-.37a2.49,2.49,0,0,0,.7-.42s-5.76-6.21-18.28-6.43"/><path class="cls-6" d="M41.18,48.22l-4.92-6.93-2-2.73a2.34,2.34,0,0,1-.32,2.73H32.68a2.89,2.89,0,0,0,.55-2.45,2,2,0,0,0-2.67-1.35,1.22,1.22,0,0,0-.7,1.55.74.74,0,0,0,.83.47.71.71,0,0,0,.63-.66.86.86,0,0,0-.16-.61,1.15,1.15,0,0,1,.48,1,1.69,1.69,0,0,1-.35,1.18s-.47.82-2.68.91H26.35a6.3,6.3,0,0,0,.58-.89,4.78,4.78,0,0,0,.33-2.84,2.83,2.83,0,0,0-3.89-2,1.79,1.79,0,0,0-1,2.26,1.08,1.08,0,0,0,1.21.69,1,1,0,0,0,.91-1,1.26,1.26,0,0,0-.23-.88,1.43,1.43,0,0,1,.7,1.24,3.16,3.16,0,0,1-.64,1.93c-.28.38-.87,1.18-3.8,1.41H20c-6.7.08-3.65-5.21-3.65-5.21l-3.13,5.21-1,1.54s-.92,2.07,8.45,2.6c.89,0,1.87.09,3,.11C36.11,45.76,41.87,52,41.87,52c.76-.68.69-1.8-.7-3.75"/><path class="cls-7" d="M43.34,48.74c-.29-.46-.6-.9-.89-1.36v0l-.29-.43c-2.23-3.37-4.57-6.67-6.84-10l-.07-.09-5.66-8.28s-1.16-1.17-1.29-5.87c0-2,0-4.34,0-6.71a4.47,4.47,0,0,1,.77-2.39c1-1.38.49-1.91-.91-2-2.09-.07-3.46-.08-5.41,0h-.25l-.81,0c-1.4,0-1.93.58-.91,2A4.48,4.48,0,0,1,21.57,16c.07,2.21.05,4.42,0,6.31l-.11,2.18c-.32,3.22-1.18,4.09-1.18,4.09l-5.66,8.28-.07.09c-2.27,3.35-4.61,6.65-6.84,10l-.29.43v0c-.3.45-.6.9-.89,1.36-2,3.15-.7,5.68,3.08,5.72,9.92.11,3,.13,11.53,0,9.1.09,9.17.08,19.09,0,3.78,0,5.1-2.57,3.08-5.72"/><path class="cls-3" d="M22.53,11.59c.41,0-.54,0,0,0"/><path class="cls-4" d="M27.6,38.17a1.05,1.05,0,0,0,1.18.67,1,1,0,0,0,.89-.94,1.22,1.22,0,0,0-.23-.86,1.39,1.39,0,0,1,.68,1.21,3.08,3.08,0,0,1-.62,1.89c-.28.37-.85,1.16-3.74,1.38,1,.15,4.42.27,5.44.44.16-.27.74-1,.86-1.3a4.65,4.65,0,0,0,.33-2.77A2.76,2.76,0,0,0,28.59,36a1.74,1.74,0,0,0-1,2.2"/><path class="cls-4" d="M19.05,36.59a1.53,1.53,0,0,0,1.72,1,1.47,1.47,0,0,0,1.29-1.37,1.78,1.78,0,0,0-.33-1.25,2,2,0,0,1,1,1.77,4.48,4.48,0,0,1-.91,2.75c-.4.54-1.25,1.7-5.46,2,1.49.21,6.44.4,7.93.64.23-.4,1.07-1.45,1.26-1.9a6.79,6.79,0,0,0,.47-4,4,4,0,0,0-5.52-2.8,2.54,2.54,0,0,0-1.45,3.21"/><path class="cls-5" d="M23.59,45.54c-1.09,0-2.06-.06-3-.11-9.37-.53-8.45-2.6-8.45-2.6L7.8,49.26s-1.49,2.24,0,3.06,17.05.45,17.05.45,14.91.22,16.33-.37a2.49,2.49,0,0,0,.7-.42s-5.76-6.21-18.28-6.43"/><path class="cls-6" d="M41.18,48.22l-4.92-6.93-2-2.73a2.34,2.34,0,0,1-.32,2.73H32.68a2.89,2.89,0,0,0,.55-2.45,2,2,0,0,0-2.67-1.35,1.22,1.22,0,0,0-.7,1.55.74.74,0,0,0,.83.47.71.71,0,0,0,.63-.66.86.86,0,0,0-.16-.61,1.15,1.15,0,0,1,.48,1,1.69,1.69,0,0,1-.35,1.18s-.47.82-2.68.91H26.35a6.3,6.3,0,0,0,.58-.89,4.78,4.78,0,0,0,.33-2.84,2.83,2.83,0,0,0-3.89-2,1.79,1.79,0,0,0-1,2.26,1.08,1.08,0,0,0,1.21.69,1,1,0,0,0,.91-1,1.26,1.26,0,0,0-.23-.88,1.43,1.43,0,0,1,.7,1.24,3.16,3.16,0,0,1-.64,1.93c-.28.38-.87,1.18-3.8,1.41H20c-6.7.08-3.65-5.21-3.65-5.21l-3.13,5.21-1,1.54s-.92,2.07,8.45,2.6c.89,0,1.87.09,3,.11C36.11,45.76,41.87,52,41.87,52c.76-.68.69-1.8-.7-3.75"/><polygon class="cls-8" points="58.25 46.13 61.33 25.75 67.6 25.75 67.6 54.46 63.34 54.46 63.34 33.87 60.22 54.46 55.95 54.46 52.59 34.16 52.59 54.46 48.66 54.46 48.66 25.75 54.93 25.75 58.25 46.13"/><path class="cls-8" d="M85.48,54.46H80.93l-.78-5.21H74.61l-.78,5.21H69.69l4.59-28.7h6.6Zm-10.29-9.1h4.35L77.36,30.84Z"/><path class="cls-8" d="M97,54.46a8.83,8.83,0,0,1-.41-3.53V46.42c0-2.67-.9-3.65-3-3.65H92.08V54.46H87.57V25.75h6.81c4.67,0,6.68,2.17,6.68,6.6v2.26c0,3-.94,4.88-3,5.82,2.26.94,3,3.11,3,6.11V51a8.48,8.48,0,0,0,.49,3.49Zm-4.92-24.6v8.82h1.76c1.68,0,2.71-.74,2.71-3V32.81c0-2.05-.7-3-2.3-3Z"/><polygon class="cls-8" points="109.96 43.02 108.56 45.64 108.56 54.46 104.05 54.46 104.05 25.75 108.56 25.75 108.56 38.26 114.47 25.75 118.98 25.75 112.71 38.55 118.98 54.46 114.35 54.46 109.96 43.02"/><polygon class="cls-8" points="125.54 37.85 131.73 37.85 131.73 41.95 125.54 41.95 125.54 50.36 133.33 50.36 133.33 54.46 121.03 54.46 121.03 25.75 133.33 25.75 133.33 29.86 125.54 29.86 125.54 37.85"/><polygon class="cls-8" points="134.81 25.75 148.75 25.75 148.75 29.86 144.03 29.86 144.03 54.46 139.52 54.46 139.52 29.86 134.81 29.86 134.81 25.75"/><rect class="cls-8" x="150.72" y="25.75" width="4.51" height="28.7"/><polygon class="cls-8" points="162.53 33.67 162.53 54.46 158.47 54.46 158.47 25.75 164.13 25.75 168.76 42.94 168.76 25.75 172.78 25.75 172.78 54.46 168.14 54.46 162.53 33.67"/><path class="cls-8" d="M182.78,38.46h6.31v9.1c0,4.59-2.29,7.22-6.72,7.22s-6.72-2.62-6.72-7.22V32.64c0-4.59,2.3-7.22,6.72-7.22s6.72,2.62,6.72,7.22v2.79h-4.26V32.36c0-2.05-.9-2.83-2.34-2.83s-2.34.78-2.34,2.83v15.5c0,2,.9,2.79,2.34,2.79s2.34-.74,2.34-2.79V42.57h-2Z"/><polygon class="cls-9" points="192.01 25.75 196.52 25.75 196.52 50.36 203.94 50.36 203.94 54.46 192.01 54.46 192.01 25.75"/><path class="cls-9" d="M220.51,54.46H216l-.78-5.21h-5.54l-.78,5.21h-4.14l4.59-28.7h6.6Zm-10.29-9.1h4.35l-2.17-14.51Z"/><path class="cls-9" d="M236.09,32.36v1c0,3-.9,4.84-2.91,5.78,2.42.94,3.36,3.12,3.36,6.15v2.34c0,4.43-2.34,6.81-6.85,6.81H222.6V25.75h6.81c4.67,0,6.68,2.17,6.68,6.6m-9-2.5v7.58h1.76c1.68,0,2.71-.74,2.71-3v-1.6c0-2.05-.7-3-2.3-3Zm0,11.69v8.82h2.58c1.52,0,2.34-.7,2.34-2.83V45c0-2.67-.86-3.49-2.91-3.49Z"/><path class="cls-9" d="M245.32,25.43c4.39,0,6.64,2.62,6.64,7.22v.9h-4.26V32.36c0-2.05-.82-2.83-2.26-2.83s-2.26.78-2.26,2.83c0,5.9,8.82,7,8.82,15.21,0,4.59-2.3,7.22-6.72,7.22s-6.73-2.62-6.73-7.22V45.8h4.27v2.05c0,2,.9,2.79,2.34,2.79s2.34-.74,2.34-2.79c0-5.9-8.82-7-8.82-15.21,0-4.59,2.26-7.22,6.64-7.22"/><path class="cls-10" d="M53.88,20.76v1.39c0,1.67-.84,2.63-2.45,2.63S49,23.83,49,22.15V16.71c0-1.67.84-2.63,2.45-2.63s2.45,1,2.45,2.63v1H52.32V16.61c0-.75-.33-1-.85-1s-.85.28-.85,1v5.65c0,.75.33,1,.85,1s.85-.27.85-1v-1.5Z"/><path class="cls-10" d="M59.23,16.71a2.5,2.5,0,1,1,5,0v5.44a2.5,2.5,0,1,1-5,0Zm1.65,5.54c0,.75.33,1,.85,1s.85-.28.85-1V16.61c0-.75-.33-1-.85-1s-.85.28-.85,1Z"/><path class="cls-10" d="M75.07,24.66H73.41l-.28-1.9h-2l-.28,1.9H69.31L71,14.2h2.41Zm-3.75-3.32H72.9l-.79-5.29Z"/><path class="cls-10" d="M82.53,14.08c1.6,0,2.42,1,2.42,2.63V17H83.39v-.43c0-.75-.3-1-.82-1s-.82.28-.82,1c0,2.15,3.21,2.56,3.21,5.55,0,1.67-.84,2.63-2.45,2.63s-2.45-1-2.45-2.63v-.64h1.55v.75c0,.75.33,1,.85,1s.85-.27.85-1c0-2.15-3.21-2.56-3.21-5.54,0-1.67.82-2.63,2.42-2.63"/><polygon class="cls-10" points="89.91 14.2 94.99 14.2 94.99 15.7 93.27 15.7 93.27 24.66 91.63 24.66 91.63 15.7 89.91 15.7 89.91 14.2"/><path class="cls-10" d="M104.95,24.66h-1.66l-.28-1.9h-2l-.28,1.9H99.19l1.67-10.46h2.41Zm-3.75-3.32h1.58L102,16.05Z"/><polygon class="cls-10" points="110.19 14.2 111.84 14.2 111.84 23.17 114.54 23.17 114.54 24.66 110.19 24.66 110.19 14.2"/></g></svg>