<svg id="Layer_1" data-name="Layer 1" xmlns="http://www.w3.org/2000/svg" viewBox="0 0 127.25 157"><defs><style>.cls-1{fill:#0d3151;}.cls-2{fill:#5db0e2;}.cls-3{fill:#fff;}.cls-4{fill:none;stroke:#fff;stroke-miterlimit:10;stroke-width:3px;}</style></defs><polygon class="cls-1" points="96.91 42.86 100.35 36.88 94.88 37.69 93.38 40.99 95.86 42.51 96.91 42.86"/><polygon class="cls-1" points="97.92 74.08 104.43 92.59 107.21 105.68 107.36 122.13 111.06 117 112.91 108.48 115.05 113.53 115.05 117 118.52 110.88 118.59 99.69 119.79 99.69 118.59 86.8 121.13 86.8 116.96 76.51 111.51 69.45 116.96 70.53 110.32 61.98 113.85 61.98 110.32 58.32 112.91 57.26 108.69 51.76 112.91 51.76 108.2 47.11 110.32 44.77 105.74 44.35 102.34 44.35 104.21 42.36 106.01 40.89 105.74 38.64 100.5 41.18 96.91 42.86 96.91 73.71 97.92 74.08"/><polygon class="cls-1" points="39.84 43.72 36.1 40.17 32.16 37.69 28.93 36.88 31.16 42.86 39.84 43.72"/><polygon class="cls-1" points="31.16 74.08 24.65 92.59 21.87 105.68 21.71 122.13 18.02 117 16.16 108.48 14.03 113.53 14.03 117 10.56 110.88 10.49 99.69 9.29 99.69 10.49 86.8 7.95 86.8 12.12 76.51 17.57 69.45 12.12 70.53 18.76 61.98 15.23 61.98 18.76 58.32 16.16 57.26 20.38 51.76 16.16 51.76 20.88 47.11 18.76 44.77 23.34 44.35 26.74 44.35 24.87 42.36 23.07 40.89 23.34 38.64 28.58 41.18 32.16 42.86 32.16 73.71 31.16 74.08"/><path class="cls-2" d="M120.24,89.7s0-.12.14-.36l2.06,2.88a30,30,0,0,0-8.19-21.08l.17-.34,4.36,2a16.68,16.68,0,0,0-2.48-4.87c-1-1.49-2-2.92-3.12-4.58l2-.1c-.68-1.88-1.94-3.13-3.18-4.79l2.73.64c-1.05-2.17-2.53-3.55-3.77-5.46a13.87,13.87,0,0,1,1.7,0,16,16,0,0,1,1.79.4c-.44-4.12-3.13-5.5-6.1-6.92A22,22,0,0,1,110.67,46c.69-.25,1.43-.33,2.24-.7a15.69,15.69,0,0,0-2.66-1.53,9.92,9.92,0,0,0-3.06-.44,28.47,28.47,0,0,0-3.23.3,3.56,3.56,0,0,1,2.26-2.72c1-.52,2.12-.94,3.42-1.5a8.42,8.42,0,0,0-5.2-.71c-1.69.44-3.33,1.18-5,1.8A9.88,9.88,0,0,1,103,35.41c-4,.6-7.9,1.14-11.43,3.87L89.45,50.13l.11,0a32.63,32.63,0,0,1,.29,5.11c-.19,2.08.29,3.27,1.9,4.23a10.78,10.78,0,0,1,4.3,5A7,7,0,0,1,95.7,71c-.73,1.3-1.45,2.61-2.23,3.87a1.38,1.38,0,0,0,.05,1.71c2,3.07,4.14,6.07,6,9.29,3.82,6.76,5.75,14.4,6.72,22.43a57.28,57.28,0,0,1-.52,18.37c0,.2,0,.4-.1.94a33.61,33.61,0,0,0,7.71-15.5c1.61,3.6.77,7.12.3,10.63a31.48,31.48,0,0,0,5.72-17.38h.29l.34,2.41.72-1.39.89-4.64a54,54,0,0,0-1.33-12M92.3,49.76c-.14-5.92,3.27-11.8,7.11-12.07-3.4,3.36-5,7.89-7.11,12.07m4.82-1.24c1.23-4.65,5.25-8.6,8.68-8.34-3.57,2.13-6,5.44-8.68,8.34m2.36,2c2-3.93,7.8-7,9.86-5.23-3.59.87-6.61,3.17-9.86,5.23m11.79,1.27c-3.71-.53-7.24.7-10.92,1.44,2.64-3.13,9.5-4,10.92-1.44m-.74,4.74c-3.19-1.41-6.46-1.32-9.83-1.46,2.89-2.39,8-1.55,9.83,1.46M113.12,62c-3.65-2-7.48-1.86-11.1-2.73,3.14-1.6,8.56-1.41,11.1,2.73m-10.57,3.14c3.19-1.21,10.62.28,12.71,4.32-4-2.28-8.27-3.35-12.71-4.32m.67,7.21a1.7,1.7,0,0,1,.89,0,65.53,65.53,0,0,1,6.49,2,15.88,15.88,0,0,1,8,6.61,29.71,29.71,0,0,1,1.41,3.2l-.25.19c-4.68-5.53-11.06-7.93-16.53-12m11.26,13.17a18.91,18.91,0,0,1,4.32,11.81c-3.63-7.6-9-13.43-14.16-19.49a23.92,23.92,0,0,1,9.84,7.68M108.91,119c.82-9.83-1.07-19-3-28.36,5.79,6,7.47,22,3,28.36m7-3.41c-1-10.74-4.81-20.24-8.48-29.85a4.68,4.68,0,0,1,1,.85,32.45,32.45,0,0,1,5.2,7.69,29.86,29.86,0,0,1,3.48,15.53,20.07,20.07,0,0,1-1.23,5.78"/><path class="cls-2" d="M7.72,101.75l.89,4.64.72,1.39.35-2.41H10a31.48,31.48,0,0,0,5.72,17.38c-.47-3.51-1.3-7,.3-10.63a33.61,33.61,0,0,0,7.71,15.5c-.06-.54-.06-.75-.1-.94a57.31,57.31,0,0,1-.52-18.37c1-8,2.91-15.67,6.72-22.43,1.82-3.23,4-6.22,6-9.29a1.38,1.38,0,0,0,.05-1.71c-.78-1.26-1.5-2.57-2.23-3.87a7,7,0,0,1-.35-6.51,10.78,10.78,0,0,1,4.3-5c1.61-1,2.09-2.16,1.9-4.23a32.65,32.65,0,0,1,.29-5.11l.11,0L37.75,39.27c-3.54-2.72-7.48-3.26-11.44-3.87a9.87,9.87,0,0,1,3.55,5.07c-1.69-.62-3.33-1.36-5-1.8a8.41,8.41,0,0,0-5.2.71c1.29.57,2.37,1,3.42,1.51a3.55,3.55,0,0,1,2.26,2.72,28.48,28.48,0,0,0-3.23-.3,9.88,9.88,0,0,0-3.06.44,15.67,15.67,0,0,0-2.66,1.53c.81.37,1.55.45,2.24.7a22.09,22.09,0,0,1,2.26,1.13c-3,1.42-5.65,2.8-6.1,6.92a15.75,15.75,0,0,1,1.79-.4,13.87,13.87,0,0,1,1.71,0c-1.23,1.91-2.71,3.29-3.76,5.46l2.72-.64c-1.24,1.66-2.49,2.92-3.18,4.79l2,.1C15,65,13.93,66.45,13,67.94A16.68,16.68,0,0,0,10.5,72.8l4.36-2,.17.34a28.85,28.85,0,0,0-6,9.4A28.66,28.66,0,0,0,6.85,92.23L8.9,89.35c.1.24.15.31.14.36a54.15,54.15,0,0,0-1.33,12M29.87,37.69c3.84.27,7.25,6.15,7.11,12.07-2.09-4.19-3.71-8.72-7.11-12.07m-6.39,2.5c3.43-.26,7.46,3.69,8.68,8.34-2.7-2.9-5.11-6.21-8.68-8.34m-3.54,5.11c2.06-1.79,7.91,1.3,9.86,5.23-3.25-2.07-6.27-4.36-9.86-5.23m9,7.95c-3.68-.74-7.21-2-10.92-1.44,1.42-2.59,8.28-1.68,10.92,1.44m-.35,1.84c-3.36.14-6.64,0-9.82,1.46,1.81-3,6.93-3.84,9.82-1.46m-1.32,4.18c-3.62.87-7.45.7-11.1,2.73,2.54-4.14,8-4.33,11.1-2.73M14,69.45c2.09-4,9.51-5.53,12.71-4.32-4.43,1-8.68,2-12.71,4.32M9.54,84.37l-.25-.19A29.54,29.54,0,0,1,10.69,81a15.89,15.89,0,0,1,8-6.61,65.82,65.82,0,0,1,6.49-2,1.7,1.7,0,0,1,.88,0c-5.47,4.11-11.85,6.51-16.53,12m15.11-6.54c-5.17,6.05-10.53,11.88-14.16,19.49a18.93,18.93,0,0,1,4.32-11.81,23.91,23.91,0,0,1,9.84-7.68M23.37,90.66c-1.92,9.37-3.82,18.53-3,28.36-4.48-6.36-2.8-22.39,3-28.36m-11.2,19.17A29.87,29.87,0,0,1,15.65,94.3a32.5,32.5,0,0,1,5.21-7.69,4.62,4.62,0,0,1,1-.85c-3.66,9.61-7.51,19.11-8.48,29.85a20,20,0,0,1-1.22-5.78"/><path class="cls-2" d="M81.6,27.92a.74.74,0,0,0,0-.52c0-.12,0-.24,0-.35a2.63,2.63,0,0,0-.28-1,3.46,3.46,0,0,0-1.15-1.33c-.32-.23-.66-.41-1-.6a4.43,4.43,0,0,0-.48-.24c-.14-.06-.29-.1-.44-.15l-.43-.15-.34-.11-.32-.08c-.12,0-.24-.08-.36-.1l-.83-.14L74.86,23c0-.08,0-.17,0-.27a5.39,5.39,0,0,0,0-.62,3,3,0,0,0-.14-.64,3.9,3.9,0,0,0-.48-1,3.57,3.57,0,0,0-1.05-1c-.49-.31-1-.63-1.49-.91S71,18.2,70.56,18c-.19-.09-.4-.14-.6-.21l-.54-.18-.29-.06-.45-.08L68,17.38h-.14c-.59,0-1.18,0-1.77,0a7.84,7.84,0,0,0-.83.11c-.17,0-.34,0-.51.07a2.61,2.61,0,0,0-.77.2h0A3,3,0,0,0,63,18c-.27.09-.55.17-.82.27s-.55.24-.81.37-.73.35-1.08.54-.49.29-.74.45-.6.38-.89.59-.61.48-.91.73a17.51,17.51,0,0,0-1.88,1.79c-.3.33-.58.68-.87,1l0,.06s0,0,0,0l1.21-.49,0,0-.3.42-.52.79c-.15.23-.29.46-.43.7s-.26.49-.39.73-.22.43-.32.65-.22.49-.32.74-.2.45-.28.68-.16.48-.25.73-.15.39-.21.58-.09.31-.14.47l-.2.65-.15.51-.14.49-.09.34-.07.24,1.28-.81,0,0-.15.5-.15.49-.16.58c0,.18-.09.36-.13.54l-.17.67c0,.1,0,.2-.06.3-.06.26-.12.51-.17.77s-.08.45-.13.67-.14.6-.22.9-.09.4-.13.6-.08.34-.13.51-.1.35-.16.53l-.28.84c-.06.18-.12.37-.19.55s-.18.44-.27.66l-.19.43a.26.26,0,0,0,0,.08l.73-.3.78-.28.61-.23.47-.15.5-.16.33-.1.35-.1.28-.08.43-.09.46-.11h0l.52-.07a7.44,7.44,0,0,1,1.48-.06c.28,0,.55.07.83.11l.36.07c.23.06.46.12.68.19s.58.21.86.34a7.71,7.71,0,0,1,.77.42c.28.17.56.35.83.55s.54.43.81.66a19.33,19.33,0,0,1,1.53,1.51c.4.43.83.84,1.25,1.25a15.65,15.65,0,0,0,1.81,1.52c.41.29.84.55,1.27.8.27.16.55.31.83.44s.56.23.83.34.55.21.83.31.51.15.76.21l1,.26.85.19,1,.21s.07,0,.1-.07,0,0,0-.05a26.58,26.58,0,0,0,.05-3.44c0-.35-.07-.7-.12-1s-.1-.62-.17-.92-.15-.56-.22-.84-.08-.35-.13-.52-.14-.43-.21-.65l-.13-.43c-.07-.2-.13-.4-.2-.6s-.14-.37-.21-.55l-.29-.68c-.1-.24-.2-.48-.31-.72s-.19-.39-.28-.58-.2-.48-.31-.72-.2-.42-.28-.64-.14-.45-.2-.68a3.37,3.37,0,0,1-.1-1,3,3,0,0,0,0-.38,1.78,1.78,0,0,1,.12-.64c0-.18.08-.37.13-.55s.13-.39.2-.58.11-.23.14-.35a.74.74,0,0,1,.24-.37c.29-.24.58-.49.89-.7a4.63,4.63,0,0,1,.78-.44,1.65,1.65,0,0,1,.92-.2c.38.06.76.11,1.15.13s.84,0,1.26,0a.79.79,0,0,0,.16,0c.26-.05.43,0,.59.33a4.63,4.63,0,0,1,.33.75A2.13,2.13,0,0,1,79,32a.84.84,0,0,1,0,.21c0,.15-.07.29-.1.44s0,.08,0,.14a3,3,0,0,0,.77-.51A4.5,4.5,0,0,0,80.61,31c.18-.34.36-.68.51-1a7.28,7.28,0,0,0,.25-.8c.08-.27.16-.55.22-.83a1.93,1.93,0,0,0,0-.38s0-.06,0-.08"/><path class="cls-1" d="M70.94,110.28a1.85,1.85,0,0,1,1.25-3h16a1.61,1.61,0,0,1,1.3.69l5.38,7.45a24.08,24.08,0,0,0,3.72-12c0-.29,0-.58,0-.87h0V38.64H30.27v63.84h0c0,.29,0,0,0,.26,0,12.28,14.45,29.46,32.59,30.41l-16.3-22.65a1.85,1.85,0,0,1,1.25-3h16a1.61,1.61,0,0,1,1.3.69l15.14,21q1.5-.8,2.92-1.72Z"/><path class="cls-3" d="M63.83,107.48h-16a1.85,1.85,0,0,0-1.25,3l16.3,22.65c.52,0,1,0,1.58,0a33.79,33.79,0,0,0,15.83-4.05l-15.14-21a1.61,1.61,0,0,0-1.3-.69"/><path class="cls-3" d="M88.21,107.25h-16a1.85,1.85,0,0,0-1.25,3l12.25,17.14a37.61,37.61,0,0,0,11.69-12l-5.37-7.45a1.61,1.61,0,0,0-1.3-.69"/><polyline class="cls-4" points="51.3 62.03 51.3 45 36.1 45 36.1 94.21 51.3 94.21 51.3 78.12 43.7 78.12"/><path class="cls-4" d="M57.53,45V94.21h14.1A1.17,1.17,0,0,0,72.73,93V46.23A1.17,1.17,0,0,0,71.63,45Z"/><polygon class="cls-4" points="78.19 45 78.19 94.22 93.38 94.22 93.38 65.82 85.78 65.82 92.78 61.23 92.78 45 78.19 45"/></svg>