<svg id="Layer_1" data-name="Layer 1" xmlns="http://www.w3.org/2000/svg" viewBox="0 0 158 142.7"><defs><style>.cls-1{fill:#ffb91d;}.cls-2{fill:#890000;}.cls-3{fill:#fff;}.cls-4{fill:#b7b7b7;}.cls-5{fill:#5b5b5b;}.cls-6{fill:#232323;}</style></defs><path class="cls-1" d="M144.74,65.13c.19,2.05.3,4.12.3,6.22a66,66,0,0,1-64.29,66c-1.16,0-2.34,0-3.49,0a65.61,65.61,0,0,1-45.9-20.28l-.17-.17c-.95-1-1.85-2-2.69-3s-1.65-2-2.41-3l-.14-.18a65.95,65.95,0,0,1-8.41-63.44,15.54,15.54,0,0,1,.77-1.38l.31.41,0,0,.07.07.17.2.14.17,0,.09c-1.66,4.1-4,12.29-3,24.52,1.31,15.38,6,24.79,11.17,31.42A39.46,39.46,0,0,0,42.6,114.59l.55.22.15,0h2l9.61,10.71.54.57.21.22.3.32,1.19-1.15-.86-1.07a6.73,6.73,0,0,1-1.38-3.92,7.75,7.75,0,0,1,1.44-5.43l.19-.25H72.75a.33.33,0,0,0,0,.09c1.4,3,3.63,7.16,6.38,9.73l.15.15.15-.15A48.43,48.43,0,0,0,86.1,115a.48.48,0,0,1,0-.1h15.47l.19.25a7.76,7.76,0,0,1,1.45,5.43,6.75,6.75,0,0,1-1.38,3.91l-.87,1.08,1.19,1.15.46-.5.07-.07,10.14-11.27h1.53s.45-.16,1.24-.5l.14-.07.32-.15a39.58,39.58,0,0,0,14.42-11.38c5.14-6.63,9.87-16,11.18-31.42,1-11.56-1.07-19.52-2.7-23.82l-.17-.44.15-.17,0,0,.47-.56.43-.56A65.48,65.48,0,0,1,143.68,58c.25,1.27.46,2.54.64,3.78q.1.62.17,1.24c0,.21.06.42.08.63q.1.75.17,1.5"/><path d="M148,71.35a69,69,0,0,1-67.2,69l-1.81,0-1.81,0a68.59,68.59,0,0,1-48-21.21l-.14-.14c-1-1-1.95-2.12-2.83-3.17s-1.72-2.11-2.53-3.18l0,0a.84.84,0,0,1-.08-.11l0,0A69,69,0,1,1,148,71.35m-3,0c0-2.1-.11-4.17-.3-6.22q-.07-.75-.17-1.5c0-.21,0-.42-.08-.63q-.07-.62-.17-1.24c-.17-1.28-.38-2.54-.64-3.78a65.51,65.51,0,0,0-3.8-12.21l-.43.56-.47.57,0,0-.15.17-.3.35c-1.78,2.09-6.37,7.45-11.46,13.14l-1.53-.86c5.76-6.38,11-12.47,12.28-14.07l-2.24-2.5,1.17-1.05L139,44.64l.74.82-.08-.18a66,66,0,0,0-121.49.4c-.22.52-.44,1-.64,1.55a65.95,65.95,0,0,0,8.41,63.44l.14.18c.77,1,1.58,2.05,2.42,3s1.74,2,2.69,3l.17.17a65.61,65.61,0,0,0,45.9,20.28c1.15,0,2.33,0,3.49,0a66,66,0,0,0,64.29-66"/><path d="M139,47.54c1.63,4.3,3.67,12.26,2.7,23.82-1.31,15.38-6,24.79-11.18,31.42a39.58,39.58,0,0,1-14.42,11.38l3.91-4.53-3.21-3.29-.15.21a8.29,8.29,0,0,1-4.9,3.19,6.55,6.55,0,0,1-5.07-1.54c-5.27-4-7.21-6.41-7.54-6.85l1.08-5.23,30.26-12.7-8.66-13Z"/><path class="cls-2" d="M139.66,45.29l.08.18-.74-.82a5.52,5.52,0,0,1,.66.65"/><path class="cls-3" d="M139.66,45.29a5.52,5.52,0,0,0-.66-.65l-2.29-2.54L124.8,28.84l-.63.44c-.1.08-14.09,11.08-24,19.85l-1.62-2.63-9,12.21.28,1.17-.09-.07c-.29.42-.55.82-.78,1.21l-3-2.37-12.8.1H73l-3.58,2.8c-.19-.35-.4-.71-.65-1.12l-.14.09.2-2.36L59.92,46.47l-1.6,3C48.47,40.7,34,29.32,33.93,29.27l-.61-.43L20.14,43.5l-2,2.2a66,66,0,0,1,121.49-.4M81.47,37,95,18.45l-3-.06L81.47,33.14ZM93.21,48.62V45.56H84.31l0-10.13-3,3.69v9.5Zm-10.53-27,1.86-3-8.17-.12v30h3.34V37.71l-.14-16.11Zm-8.57,27v-30H65.89l2,3,3,.1-.11,11.72L60,18.4H56.52l14.25,19.3V48.62Z"/><path class="cls-3" d="M139,47.54,121.81,70.42l8.66,13L100.2,96.12l-1.08,5.23c.33.44,2.28,2.83,7.54,6.85a6.55,6.55,0,0,0,5.07,1.54,8.29,8.29,0,0,0,4.9-3.19l.15-.21,3.21,3.29-3.91,4.53-.32.15,1.93-2.33h0l1.71-2.08-2.58-2.77a9.57,9.57,0,0,1-1.4,1.4,7.67,7.67,0,0,1-3.63,1.7,7,7,0,0,1-5.4-1.65c-5.88-4.49-7.62-6.92-7.69-7l0-.08,1.16-5.63.1,0,29.9-12.54-8.54-12.82,17.22-23,.3-.35.17.44"/><path class="cls-3" d="M138.51,47.45l-17.22,23,8.54,12.82L99.93,95.77l-.1,0-1.16,5.63,0,.08c.07.11,1.81,2.54,7.69,7a7,7,0,0,0,5.4,1.66,7.69,7.69,0,0,0,3.63-1.7l.56.49-.86,1a6.53,6.53,0,0,1-3.85,1.79c-3,.34-4.91,0-8.12-3.13l-6.2-6,0,0,1.62-8.35,29-12.26L119,69.37c2.6-2.73,5.4-5.8,8.06-8.78,5.09-5.69,9.68-11,11.46-13.14"/><path class="cls-1" d="M135.54,43.15l2.25,2.5c-1.28,1.6-6.52,7.69-12.28,14.07-3.45,3.84-7.1,7.77-10.2,10.91l-1.22,1.24h0l-.23.23-.37.36-1.19,1.15.09.1h-14l12.07-7.1-.12-2.76-8.25-.11L100.19,66l3.17-11.7-2.21-3.61c2.33-2.08,5.11-4.5,8.29-7.17l.38-.32Z"/><path d="M124.8,28.84,136.72,42.1l-1.17,1L124.68,31.06c-.73.54-2.23,1.73-4.17,3.3s-4.33,3.51-6.83,5.58l-.22.18-.33.27-3,2.49-.33.27-.38.32c-3.18,2.67-6,5.09-8.29,7.17l2.21,3.61L100.19,66l1.89-2.22,8.25.11.12,2.76L98.39,73.7h14l-.09-.1,1.19-1.15.37-.36.23-.23h0l1.22-1.24c3.1-3.14,6.75-7.08,10.2-10.91l1.54.86c-2.66,3-5.46,6-8.06,8.78l8.54,12.7-29,12.26-1.61,8.35,0,0,6.2,6c3.21,3.1,5.1,3.47,8.12,3.13a6.54,6.54,0,0,0,3.85-1.79l.86-1,.07-.08,1.25,1-.25.32-.14.14a8.57,8.57,0,0,0-.72.7l-3.36,3.74-10.14,11.27-.07.07-.46.5L101,125.54l.87-1.08a6.74,6.74,0,0,0,1.38-3.91,7.77,7.77,0,0,0-1.45-5.43l-.19-.25a19.34,19.34,0,0,0-2.06-2.26l-6.72-6.48-4.16,2.11a31.56,31.56,0,0,1-2.53,6.64.53.53,0,0,0,0,.1,48.43,48.43,0,0,1-6.63,9.71l-.14.15-.15-.15c-2.75-2.56-5-6.7-6.38-9.72a.29.29,0,0,1,0-.09,59.86,59.86,0,0,1-2.46-6.21L65.42,106l-6.86,6.61a19.44,19.44,0,0,0-2.05,2.26l-.19.25a7.75,7.75,0,0,0-1.44,5.43,6.73,6.73,0,0,0,1.38,3.92l.86,1.07-1.19,1.16-.3-.32-.21-.23-.54-.57-9.61-10.71-3.36-3.74a8.28,8.28,0,0,0-.7-.69,1,1,0,0,1-.17-.18l-.21-.32,1.22-1L43,110a6.51,6.51,0,0,0,3.84,1.79c3,.34,4.91,0,8.12-3.13L61.8,102h0l-1.72-7.7L31,82.34l8.38-12.71C33.31,63.27,26.14,55,22.21,50.48l-2.62-3.05L19,46.74l-.15-.17-.17-.2-.07-.07,0,0-.31-.41-.13-.17,2-2.2L33.32,28.84l.61.43c.08.06,14.54,11.43,24.39,20.22l1.6-3,9,11.68-.2,2.36.14-.09c.26.41.47.78.65,1.12L73,58.74h.07l12.8-.1L89,61c.23-.39.49-.79.78-1.21l.09.07-.28-1.17,9-12.21,1.62,2.63c9.87-8.76,23.86-19.76,24-19.85ZM124,81l-1.78-2.82.33,1.59-.19.06L98.72,86.68l-1.88-1.88.74,6.12Zm-4.2-7.32-1.11-4-2.2,2.27c-.61.61-1.2,1.2-1.79,1.78ZM100.57,55.15l-.86-1.79L91.54,67.43l-3.15-2.16,5.89,10.44Zm-6.39,45.09.53-4.79L87.86,98v2.5l5.76-2.41ZM90.37,62.13v0h0Zm-9.43,40.43,3.3-5.47c0-.11,0-.37-.07-.73A24.8,24.8,0,0,0,82.88,91c-.21-.57-.44-1.12-.69-1.62h-.08v-.17l-.35-.66A12.21,12.21,0,0,0,80,86.11a6.18,6.18,0,0,0-.52-.51l-.16-.15c-.09.1-.22.23-.37.43l-.47.58c-.24.33-.49.7-.73,1.08s-.57,1-.85,1.53l-.27.58-.06.12a20.27,20.27,0,0,0-.92,2.54c.4-.57.9-1.28,1.43-1.92.16-.2.33-.39.49-.57.78-.86,1.33-1.23,1.72-1.15a3.11,3.11,0,0,1,1.41.92c.21.2.39.4.53.57.37.42.65.79.73.9l.06,0v.11h-.2v.21l-.1-.09,0,0c-.39-.27-.71-.49-1-.65a5.19,5.19,0,0,0-.67-.36,1.1,1.1,0,0,0-.57-.15l0,2.24.08,10.1Zm1.06,1.9-5.52-.1-3.8-6.85v-.06s0-.14,0-.38a39.59,39.59,0,0,1,1.07-5.23c.15-.5.3-1,.47-1.49.22-.65.46-1.3.73-1.91.1-.25.22-.49.34-.74A13.62,13.62,0,0,1,77,85.05c.15-.18.31-.38.5-.58a7.25,7.25,0,0,1,1.74-1.4l0,0h.11V70.13l.18,0c.36-.06,1.48.8,3.09,2.37-1.22-1.81-2.67-3.71-3.33-4C78.74,68.95,75.23,72,73,80c-.07.27-.15.54-.22.82-.28,1.12-.53,2.29-.74,3.45l-.15.89a64.94,64.94,0,0,0-.74,8.62c0,.34,0,.68,0,1,0,.83,0,1.7,0,2.71v.36L63.9,95.56l.57,4.8L65,98l6.3,2.25v.14a44.06,44.06,0,0,0,4.48,14.35,26.25,26.25,0,0,0,3.46,5,33.14,33.14,0,0,0,1.36-4.95A82.29,82.29,0,0,0,82,104.46m-1.2-14.18c-.1-.12-.23-.25-.37-.39a2.72,2.72,0,0,0-1.2-.81c-.08,0-.42,0-1.33,1-.16.17-.32.36-.48.56a35.17,35.17,0,0,0-2.08,2.88.06.06,0,0,0,0,0l-.53,3.6,3,5.37v0h1.36L79,90.15a.4.4,0,0,1,.19-.3c.2-.12.52-.08,1,.12.18.08.37.19.58.31M65,75.72l5.88-10.44-3.14,2.16L59.55,53.37l-.86,1.79ZM61.2,90.94l.51-6.17L59.8,86.68,36.09,79.8V78.52l-1.32,2.62ZM45.73,73.7H60.67L48,66.18V63.41l8.89.13,2.58,2.67-4-11.35,2-3.76L57.33,51,57,50.63l-.5-.45-.06,0-1.76-1.55-1.11-1L53,47.2c-1-.86-2-1.74-3-2.6l-1.33-1.13-.2-.16-.19-.16L47,42l-1.51-1.26L44,39.53c-4.76-3.94-9.1-7.41-10.52-8.47L22.57,43.15l-2.25,2.5c2,2.46,12.23,14.27,20,22.47l.22-.34-.12.44c.8.84,1.57,1.65,2.31,2.39,1.08,1.09,2.1,2.1,3,3Zm-6.82,0h4.47L41.6,71.93c-.55-.56-1.12-1.15-1.7-1.75Z"/><path class="cls-3" d="M124.68,31.06l10.86,12.09H109.82l.33-.27,3-2.49.33-.27.22-.18c2.5-2.07,4.88-4,6.82-5.58s3.45-2.75,4.18-3.3"/><polygon class="cls-4" points="122.25 78.2 124.03 81.02 97.58 90.92 96.84 84.79 98.72 86.68 122.4 79.85 122.58 79.79 122.25 78.2"/><path class="cls-3" d="M116.82,107.11l2.58,2.77L117.7,112h0l-2.07,2.4c-.79.34-1.24.5-1.24.5h-1.54l3.36-3.74a8.38,8.38,0,0,1,.72-.7l.14-.14.25-.32-1.25-1L116,109l-.56-.49a9.55,9.55,0,0,0,1.4-1.4"/><path class="cls-5" d="M117.69,112l-1.93,2.33-.14.06Z"/><path class="cls-3" d="M101.61,114.86H99l-5.83-6.22-3,1.06a25.61,25.61,0,0,1-1.76,5.16H86.15a31.54,31.54,0,0,0,2.53-6.64l4.16-2.11,6.72,6.48a19.36,19.36,0,0,1,2.06,2.26"/><polygon class="cls-4" points="99.72 53.37 100.57 55.15 94.27 75.72 88.39 65.27 91.53 67.43 99.72 53.37"/><path d="M93.21,108.64,99,114.86H88.5a25.61,25.61,0,0,0,1.76-5.16Z"/><polygon class="cls-1" points="94.96 18.45 81.47 37 81.47 33.14 91.95 18.39 94.96 18.45"/><polygon class="cls-4" points="94.72 95.45 94.18 100.24 93.62 98.14 87.86 100.54 87.86 98.04 94.72 95.45"/><polygon points="93.22 45.56 93.22 48.62 81.25 48.62 81.25 39.12 84.26 35.43 84.31 45.56 93.22 45.56"/><polygon class="cls-1" points="90.36 62.11 90.37 62.13 90.36 62.11 90.36 62.11"/><polygon points="84.54 18.59 82.68 21.6 79.56 21.59 79.71 37.71 79.71 48.49 76.37 48.49 76.37 18.47 84.54 18.59"/><path class="cls-3" d="M84.24,97.09l-3.3,5.47H79.58L79.5,92.46l0-2.24a1.1,1.1,0,0,1,.57.15,5.26,5.26,0,0,1,.67.36c.28.16.61.38,1,.65l0,0,.1.09v-.21H82v-.11l-.06,0c-.08-.11-.35-.48-.73-.9-.14-.17-.32-.36-.53-.57a3.11,3.11,0,0,0-1.41-.92c-.4-.08-.95.28-1.72,1.15-.16.18-.33.37-.49.57-.52.64-1,1.35-1.43,1.92a20.05,20.05,0,0,1,.92-2.54l.06-.12.27-.58c.27-.55.57-1.06.85-1.53s.49-.74.73-1.07l.47-.58c.15-.19.28-.33.37-.43l.16.15a6.17,6.17,0,0,1,.52.51,12.25,12.25,0,0,1,1.75,2.41l.35.66v.17h.08c.24.5.48,1.05.69,1.62a24.86,24.86,0,0,1,1.29,5.38c0,.36.07.62.07.73"/><path class="cls-4" d="M76.49,104.36l5.52.1a82.11,82.11,0,0,1-1.4,10.36,33,33,0,0,1-1.36,4.95,26.22,26.22,0,0,1-3.47-5,44.08,44.08,0,0,1-4.47-14.34v-.14L65,98l-.52,2.32-.57-4.8,7.28,2.34v-.36l1.51,0Z"/><path class="cls-4" d="M79.31,68.5c.66.25,2.11,2.16,3.33,4C81,70.9,79.91,70,79.55,70.1l-.18,0V83h-.11l0,0a7.21,7.21,0,0,0-1.74,1.4,7.35,7.35,0,0,0-.5.58,13.59,13.59,0,0,0-1.63,2.66c-.12.24-.23.48-.34.73-.27.61-.51,1.25-.73,1.91-.17.48-.32,1-.47,1.49a39.48,39.48,0,0,0-1.08,5.23c0,.24,0,.38,0,.38v.07l-1.51,0c0-1,0-1.87,0-2.71,0-.35,0-.69,0-1a64.76,64.76,0,0,1,.74-8.62l.14-.89c.2-1.16.45-2.33.74-3.45L73,80c2.21-8,5.73-11.08,6.29-11.53"/><path class="cls-6" d="M80.44,89.89c.14.14.27.27.37.39-.21-.12-.4-.23-.58-.31-.47-.2-.79-.24-1-.12a.4.4,0,0,0-.19.3l.1,12.41H77.8v0l-3-5.37.53-3.6a.06.06,0,0,1,0,0,35,35,0,0,1,2.08-2.88c.15-.2.32-.39.48-.56.9-1,1.24-1,1.33-1a2.72,2.72,0,0,1,1.2.81"/><polygon points="74.11 48.55 74.11 48.62 70.77 48.62 70.77 37.84 70.77 37.71 56.52 18.4 60.01 18.4 70.81 33.44 70.92 21.72 67.89 21.63 65.89 18.59 74.11 18.59 74.11 37.74 74.11 48.55"/><path class="cls-3" d="M72.75,114.86H70.48a25.72,25.72,0,0,1-1.76-5.16l-3-1.06-5.82,6.22H56.51a19.6,19.6,0,0,1,2.05-2.26L65.42,106l4.87,2.66a59.85,59.85,0,0,0,2.46,6.21"/><polygon class="cls-4" points="70.88 65.27 65 75.72 58.7 55.15 59.55 53.37 67.74 67.43 70.88 65.27"/><path d="M70.48,114.86H59.93l5.82-6.22,3,1.06a25.68,25.68,0,0,0,1.76,5.16"/><path class="cls-3" d="M60.09,94.36l1.72,7.7h0L55,108.64c-3.21,3.1-5.1,3.46-8.12,3.13A6.51,6.51,0,0,1,43,110l-.94-1.06-1.22,1,.21.32a1,1,0,0,0,.17.18,8.15,8.15,0,0,1,.7.69l3.36,3.74h-2L40.86,112l-.07-.09-1.71-2.07L41.66,107a8.48,8.48,0,0,0,5,3.16,7,7,0,0,0,5.39-1.61c5.88-4.5,7.62-6.91,7.69-7l0-.07-1.16-5.62-30-12.57L37.2,70.43l-15-20C26.14,55,33.31,63.27,39.38,69.63L31,82.34Z"/><polygon class="cls-4" points="61.71 84.77 61.2 90.94 34.76 81.13 36.09 78.52 36.09 79.8 59.8 86.67 61.71 84.77"/><path class="cls-1" d="M60.67,73.7H45.73l.09-.1c-.95-.9-2-1.91-3-3-.73-.74-1.51-1.55-2.31-2.39l.12-.44-.22.34c-7.82-8.2-18.07-20-20-22.47l2.24-2.5H48.3l.19.16.2.16L50,44.6c1,.86,2,1.74,3,2.6l.49.42,1.11,1,1.76,1.55.06,0,.5.45.36.32.15.14-2,3.76,4,11.35-2.58-2.67L48,63.41v2.78Z"/><path class="cls-3" d="M58.65,95.82l1.16,5.62,0,.07c-.07.11-1.81,2.52-7.69,7a7,7,0,0,1-5.4,1.61,8.47,8.47,0,0,1-5-3.16l-2.58,2.89,1.71,2.07.07.09,2.29,2.77-.55-.22.21,0-4.3-5,3.21-3.29.15.21a8.32,8.32,0,0,0,4.89,3.19,6.55,6.55,0,0,0,5.07-1.54c5.27-4,7.21-6.41,7.54-6.85l-1.08-5.23L28,83.42l8.66-13L19,46.83l0-.09.57.69,2.63,3.05,15,19.95L28.66,83.24Z"/><path d="M58.28,96.12l1.08,5.23c-.33.44-2.28,2.83-7.54,6.85a6.55,6.55,0,0,1-5.07,1.54,8.32,8.32,0,0,1-4.89-3.19l-.15-.21-3.21,3.3,4.31,5-.21,0a39.48,39.48,0,0,1-15.43-11.82C22,96.14,17.31,86.73,16,71.35c-1-12.23,1.31-20.43,3-24.52l17.7,23.58L28,83.42Z"/><path class="cls-3" d="M48.3,43.15H22.57L33.44,31.06c1.41,1.06,5.76,4.53,10.52,8.47l1.49,1.23L47,42l1.35,1.13"/><path class="cls-5" d="M40.86,112l2.43,2.82-.15,0Z"/></svg>