<svg id="Layer_1" data-name="Layer 1" xmlns="http://www.w3.org/2000/svg" xmlns:xlink="http://www.w3.org/1999/xlink" viewBox="0 0 111 125"><defs><style>.cls-1{fill:none;}.cls-2{clip-path:url(#clip-path);}.cls-3{fill:#1d75b1;}.cls-4{fill:#529dd6;}.cls-5{fill:#61a3d8;}.cls-6{fill:#59a0d7;}.cls-7{fill:#6aa6da;}.cls-8{fill:#1c75b2;}.cls-9{fill:#539ed6;}.cls-10{fill:#165580;}.cls-11{fill:#216da5;}.cls-12{fill:#226ea5;}.cls-13{fill:#216da4;}</style><clipPath id="clip-path"><polyline class="cls-1" points="342 -558 342 210 -741 210 -741 -558"/></clipPath></defs><g class="cls-2"><path class="cls-3" d="M59.84,8c2.24,1.74,4.8,3,7.15,4.54.41.28,1.06.39.91,1.13a27.87,27.87,0,0,1-2.35,5.41c-2.46,5.29-5,10.56-7.45,15.83-1.09,2.31-2.17,4.63-3.41,7.19,1.63-.9,3.09-1.55,4.49-2.35.79-.45,1.53-1.14,2.56-1L86.63,25.58c.16-.08.32-.14.49-.22.36.41.18.85,0,1.27-1,3-2.13,6-3.11,9a2.28,2.28,0,0,1-.74,1.1,41.59,41.59,0,0,1-5.26,3C69.54,44.4,61,49,52.47,53.58a50.75,50.75,0,0,1-6.92,3.56,2.71,2.71,0,0,1-1.47-.61c-2.07-1.34-4.21-2.57-6.27-4-.32.26.19,1.16-.72,1.06a2.88,2.88,0,0,1,.28-2.8c2.16-4.57,4.26-9.18,6.43-13.74S48.09,27.79,50.3,23c-7.55,4.29-15,8.51-22.43,12.81-2.43,1.32-4.8,2.73-7.2,4.1a4,4,0,0,1-1.58.68,10.41,10.41,0,0,1-3.19-1.7,35.69,35.69,0,0,1-5.53-3.57.49.49,0,0,1,0-.38c1.35-1.46,3.25-2.05,4.92-3C23.18,27.56,31.11,23.25,39,18.9q9.21-5.07,18.44-10.09A18.24,18.24,0,0,1,59.29,8Z"/><path class="cls-4" d="M10.43,35.27l8.64,5.13c.61.68.42,1.53.42,2.32q0,16.21,0,32.43c0,.72,0,1.43,0,2.15s.77.93,1.27,1.27a55,55,0,0,1,5.12,3.38c.19.57-.15.95-.5,1.28a15.53,15.53,0,0,0-3.32,4.3c-.11.22-.25.49-.6.39q-5-2.91-10-5.83c-.46-.27-.86-.61-1.29-.92V68.48a18.88,18.88,0,0,0,.13-4c0-2.73,0-5.45,0-8.18q0-6.19,0-12.38c.09-2.89-.18-5.78.13-8.67"/><path class="cls-5" d="M10.42,43.91q0,6.21,0,12.42-.14.18-.27,0V43.91c.09-.12.18-.12.27,0"/><path class="cls-6" d="M10.15,56.33h.27c0,3.59,0,7.17,0,10.76,0,.47.18,1-.26,1.39Z"/><path class="cls-7" d="M10.42,43.91h-.27V35h.27a1.18,1.18,0,0,0,0,.25q0,4.32,0,8.64"/><path class="cls-8" d="M21.5,87.92A16.55,16.55,0,0,1,25.16,83c.29-.26.65-.5.63-1,.27-.22.51,0,.73.09q4.51,2.78,9,5.61a1.18,1.18,0,0,1,.36.39.72.72,0,0,1,0,.39c-.47.88-1.36,1.4-1.9,2.22-1.52,2.29-1.33,4.13.68,6.37a21.52,21.52,0,0,0,11.69,7.51,34.67,34.67,0,0,0,25-2.36,10.46,10.46,0,0,0,4.83-4.15c2.08-2.41,1.88-5,.77-7.77a7,7,0,0,1-.85-2.09c.07-.52.51-.7.89-.92,2.39-1.32,4.7-2.75,7.11-4,.5-.26,1-.7,1.59-.23A17.28,17.28,0,0,1,90,96.85c-.42,4.37-3.08,7.39-6.26,10A29.55,29.55,0,0,1,72,112.32a58.17,58.17,0,0,1-15.48,1.85c-8.93-.2-17.49-2-25.21-6.8A27.74,27.74,0,0,1,22,98.55a15.32,15.32,0,0,1-1.33-3.63,16.83,16.83,0,0,1,.83-7"/><path class="cls-9" d="M85.73,83.06c-1.7.35-3,1.46-4.49,2.26-1.67.92-3.3,1.91-4.95,2.88a.26.26,0,0,1-.37-.1,2.12,2.12,0,0,1,.19-1.44c2.77-8.45,5.47-16.93,8.19-25.4,3.22-10,6.5-20,9.66-30a2.31,2.31,0,0,1,.73-1.4c1.59,4.36,3.2,8.72,4.75,13.09,3.6,10.12,7.16,20.25,10.79,30.36.3.85.21,1.24-.59,1.65-1.31.68-2.54,1.51-3.83,2.23-.34.19-.66.7-1.16.28a18.26,18.26,0,0,1-2.06-3.9c-.88.23-1.55,1.11-2.58,1.17a24.12,24.12,0,0,0-4.34,2.34c-2.93,1.63-5.82,3.33-8.71,5-.45.26-1,.41-1.23,1"/><path class="cls-10" d="M20.67,94.92c.81.94.88,2.22,1.52,3.26a27.35,27.35,0,0,0,9.49,9,45.77,45.77,0,0,0,18.75,6.18,57.06,57.06,0,0,0,25.05-2.47A22.94,22.94,0,0,0,87.81,102,22,22,0,0,0,90,96.85a57.5,57.5,0,0,1-.3,10.51c-.62,4.56-3.45,7.8-7.18,10.27-4.88,3.23-10.39,4.74-16.09,5.67a56.24,56.24,0,0,1-14.77.55c-9.63-1-18.49-3.85-25.82-10.48-3.15-2.85-5.19-6.23-5.31-10.63a55.93,55.93,0,0,1,.11-7.81"/><path class="cls-11" d="M94.7,29.85c-.36,1.25-.68,2.51-1.08,3.74q-6.09,18.9-12.19,37.79Q78.72,79.77,76,88.16a1.2,1.2,0,0,1,0,1.15c-.69,2-1.3,4.07-2,6.07-.35.36-.68.11-1-.07-2.7-1.69-5.37-3.44-8.06-5.16a.72.72,0,0,1-.41-.65c.81-2.23,1.58-4.46,2.31-6.72.9-2.29,1.68-4.62,2.53-6.93,1.62-4.94,3.38-9.84,5.07-14.76q1.84-5.34,3.69-10.68c1.61-4.6,3.06-9.25,4.86-13.78.17-.2.43-.38.5-.61,1.1-3.58,2.65-7,3.55-10.66,1.38.18,2.31,1.22,3.44,1.86C92,28,93.32,29,94.7,29.85"/><path class="cls-10" d="M61.74,38.76l-7.58,4c.3-.77.5-1.37.77-1.95q6.2-13.13,12.42-26.25a10.06,10.06,0,0,1,.55-.91c-.12,3.44-.14,6.9-.41,10.33-.19,2.34-1.62,4.31-2.42,6.48-1,2.79-2.45,5.43-3.33,8.29"/><path class="cls-12" d="M100,74.73a1,1,0,0,1,.17-.2c2.4-1.56,2.41-1.57,3.65,1a4.8,4.8,0,0,1,.81,2A44.82,44.82,0,0,1,100,74.73"/><path class="cls-10" d="M78.47,50.4c-.69-.08-1.18.39-1.71.68Q61.49,59.46,46.24,67.84c-.39.21-.73.69-1.29.47a2.47,2.47,0,0,1-.16-1.57c.11-2.11,0-4.23.06-6.34a6.39,6.39,0,0,1,.7-3.51Q54,52.35,62.5,47.81c4.9-2.64,9.77-5.3,14.66-8l5.9-3.22c-.16,1.93-1,3.65-1.63,5.45-.92,2.8-2,5.55-3,8.32"/><path class="cls-11" d="M27.73,45.93q0,9.85,0,19.7c0,2.74,0,5.49,0,8.23a.76.76,0,0,1-.4.51A66,66,0,0,1,19.3,78c-.44-.46-.23-1-.23-1.54q0-18,0-36l8.62-4.87a1.89,1.89,0,0,1,.44,1.5c0,2.46,0,4.91,0,7.37a2.84,2.84,0,0,1-.41,1.53"/><path class="cls-10" d="M27.73,45.93l0-10.39,14.83-8.48L51,22.24l-6.85,15a85.15,85.15,0,0,0-7.91,4.14c-2.85,1.48-5.66,3-8.49,4.55"/><path class="cls-13" d="M45.55,56.89a89.05,89.05,0,0,0-.32,9.45,15.14,15.14,0,0,1-.28,2c-2.52-1.53-5-3.07-7.58-4.58a1.16,1.16,0,0,1-.55-1.24c.14-3,.26-5.91.38-8.87.42-.39.08-1,.36-1.46,2.79,1.38,5.19,3.4,8,4.73"/><path class="cls-10" d="M19.3,78c1.56-1.18,3.47-1.64,5.16-2.56,1.06-.58,2.19-1,3.29-1.54L34,77.45a5.22,5.22,0,0,1,1.76.6c2.6,1.48,5.21,3,7.8,4.47.41.24.93.44.74,1.1a80.39,80.39,0,0,1-7.91,4.68.51.51,0,0,1-.51,0L25.79,82,19.3,78"/><path class="cls-4" d="M44.45,91.23,35.81,96a1.13,1.13,0,0,1-.37-.84c-.1-1.89-.08-3.78,0-5.67a2.34,2.34,0,0,1,.37-1,1.14,1.14,0,0,0,0-.22l8.34-4.67c.47.47.34,1.08.37,1.65a26.78,26.78,0,0,0,.17,4.54,1.72,1.72,0,0,1-.27,1.46"/><path class="cls-10" d="M76.34,98.22l-2.48-2.76c.25-2.06,1.21-3.91,1.75-5.88.13-.47.29-.94.43-1.41l.25,0a15,15,0,0,1,1.83,4.74c.32,2-.48,4.48-1.79,5.28"/><path class="cls-10" d="M35.79,88.48q0,3.76,0,7.51l-1.4,1.13A4.69,4.69,0,0,1,34,90.23a7.3,7.3,0,0,1,1.84-1.76"/><path class="cls-10" d="M99,66.31,88.9,72.13c1-3.41,1.68-6.56,2.79-9.6.37-.19.69,0,1,.13,1.84.71,3.56,1.67,5.37,2.44.46.2,1.21.34.9,1.19"/><path class="cls-11" d="M99,66.31c-.22-.85-1.06-.89-1.66-1.19-1.86-.9-3.75-1.73-5.63-2.58.63-3,1.57-5.84,2.52-9.08l4.93,12c.12.3.24.6-.15.8"/><path class="cls-8" d="M44.4,89.83c-.47-2.07-.07-4.17-.22-6.25-.22-.84-1.07-.88-1.65-1.22-2.83-1.67-5.71-3.28-8.56-4.91a97.23,97.23,0,0,1,10-2.09,89,89,0,0,1,17.62-.53c2.78.17,5.46,1,8.23,1.14q-1,2.78-2,5.55c-.17.46-.22,1-.67,1.28-.61.43-1.21.12-1.81,0a40.18,40.18,0,0,0-17-.14c-.66.14-1.3.35-2,.48a1.73,1.73,0,0,0-1.54,2.1c.07,1,0,2.06,0,3.09,0,.53.05,1.09-.43,1.49"/><path class="cls-10" d="M44.4,89.83c0-1.79.07-3.58,0-5.37A1.25,1.25,0,0,1,45.53,83a39.08,39.08,0,0,1,21-.23,4.1,4.1,0,0,0,.53.07,23.93,23.93,0,0,1-2.39,6.75c-2.44-.3-4.86-.76-7.33-.86a27.16,27.16,0,0,0-12.91,2.52l-.05-1.4"/></g></svg>