<svg id="Layer_1" data-name="Layer 1" xmlns="http://www.w3.org/2000/svg" xmlns:xlink="http://www.w3.org/1999/xlink" viewBox="0 0 225 88"><defs><style>.cls-1{fill:none;}.cls-2{clip-path:url(#clip-path);}</style><clipPath id="clip-path"><polyline class="cls-1" points="488 -67 488 701 -595 701 -595 -67"/></clipPath></defs><g class="cls-2"><path d="M94.86,43.15c-.4.44-9.86,12-16.72,10.92-.44.8-.93,1.59-1.46,2.43-4.82,7.21-10,10.66-14.9,10.66-6,0-9.15-6.81-3.32-16.63S70.4,37.8,74.34,37.8c.8,0,1.06.93,1.15,2A4.79,4.79,0,0,1,78.85,38c2.43,0,3,3.72,2.52,6.77a22,22,0,0,1-1.06,4.47c4.11.75,11.41-6.85,12.43-8.18s2.57,1.59,2.12,2.08m-21,7.78a8.49,8.49,0,0,1-.58-7.43,23.78,23.78,0,0,0-7.3,8c-2.83,4.78-3.32,8.67-1,8.67,3,0,6.59-5,8.89-9.24"/><path d="M84.2,67.16c-2.74,0-6.63-.88-5.92-4.73.53-3.05,5.75-4.07,11.41-5.57a40.07,40.07,0,0,0,1.19-5c1.24-6.94,1.68-15.57,9.42-16.1s-.4,6.41-.4,6.41c-1,3.94-1.5,9.64-3.67,15.79-3,7.74-7.52,9.2-12,9.2m2-4c.53-.71,1.1-1.33,1.68-2.21-2.57.8-4.51,1.5-4.69,2.43-.31,1.64,1.9,1.28,3-.22"/><path d="M76.79,21.6c38.17.73,60.81-4.35,60.81-4.35L145.09,6c-12.29,7.26-42.91,11.61-66.86,9.8-19.2-1.46-23,11.61-23,11.61L43.57,53.17,40.1,21.6l-8.51,3.63L13,66.6s6.93-2.9,9.45-2.9l12-25.76L37.58,66.6a77.25,77.25,0,0,1,8.82-2.54L63.1,28.14S68,20.88,76.79,21.6"/><path d="M198.51,36a7.49,7.49,0,0,0,6.19-4.26c1-2.36,0-4.29-2.4-4.29a7.59,7.59,0,0,0-6.19,4.29c-1,2.36,0,4.26,2.4,4.26"/><path d="M217.27,57.26c-3.4,3-6.77,4.8-9.75,4.8-4.57,0-5.46-3.75-2.28-9.09,2.48-4.22,6.11-7.58,8.12-7.58s-.12,4.53-2.59,6.62c0,0,3.33,3.83,5.3,1.24,5.34-7.12,2.05-12.26-3.52-12.26-3.36,0-8.49,2.88-12.76,9.42-3,2.87-5.9,5.56-6.58,6.14-1,.85-1.93,1.7-2.24,1.35s.73-2.44,1.32-3.48c1.66-3.13,7.2-13.42,7.2-13.42l-6.15,0-2.8,5.23c-4.32,4.1-9.62,9-14.26,12.91,4.68-8.74,9.63-18.18,9.63-18.18h-6.11l-2.28,4.41c-.43-2.32-2.05-4.41-4.29-4.41-3.44,0-8.4,2.79-13.89,11.14l-.23.36c-2.12,2-3.86,3.62-4.37,4-1,.85-1.93,1.7-2.24,1.35s.74-2.44,1.32-3.48c1.66-3.13,13.81-25.88,13.81-25.88h-6.15L153,44.31c-4.38,4.22-10.88,10.37-12,11.31s-2.07,1.85-2.45,1.47.8-2.66,1.43-3.79c1.81-3.42,7.84-14.63,7.84-14.63l-6.7,0s-1,1.94-2.49,4.68c-.51-2.49-2.28-4.72-4.68-4.72-3.71,0-9.11,3-15.09,12.14s-4.26,15.85,1.48,15.85c2.91,0,5.9-2.07,8.39-4.55-1.14,3.12.13,4.55,2.49,4.55,1.77,0,4.09-1,7.72-4.47,1.63-1.55,5.72-5.61,9.64-9.54-2.17,4.07-3.88,7.27-4.35,8.13-2.2,4-1,5.88,1.51,5.88,1.63,0,3.71-.93,7.08-4.1.69-.66,1.87-1.81,3.29-3.22-.89,4.46,1,7.32,4.56,7.32,2.82,0,5.69-2,8-4.49l-2.09,4c-7.81,4.64-14.2,6.38-14.2,10.79,0,3.4,3.56,5.11,6,5.11,4.91,0,6.93-3.09,10.14-8.55.66-1.12,2.79-5.11,5.34-9.9,4-2.91,8.4-6.28,12.82-10.19-1.78,3.32-3.38,6.3-4,7.37-2.21,4-1,5.88,1.51,5.88,1.63,0,3.71-.93,7.08-4.1,1-1,3.21-3.13,5.64-5.56-1,5.59,2.15,9.66,8.67,9.66,4.33,0,8.78-2.4,12.77-6,1.86-1.74-1.12-3.37-1.12-3.37m-83.39-5.52C131.18,56.29,127.22,60,125,60s-1.73-3.71,1-8.26,6.7-8.26,8.9-8.26,1.73,3.71-1,8.26m29.23,21.15c-2,3.75-3.1,6.58-4.68,6.58-.81,0-1.51-.39-1.51-1.66,0-1.78,2.9-4.18,7.51-7.47Zm10-19.93c-2.48,4.18-6.11,7.58-8.12,7.58s-1.59-3.4.89-7.58S172,45.39,174,45.39s1.63,3.4-.89,7.58"/><path d="M123,33.14l5.8-.65,4.72-7.26s-2.52.43-6.78.94l2.06-3.84-7.47.78-2.08,3.82a212,212,0,0,1-30.37.48c-11.61-.71-17.75-.35-21.41,5.44-4.35,6.9-2.9,4.72-2.9,4.72s4.72-6.17,16-5.44c16.26,1.94,27.43,2.16,34.95,1.75C109.78,44.29,101.89,58.8,100.7,61c-2.64,4.81-1.25,7,1.81,7,1.94,0,4.44-1.11,8.47-4.91-2.27-.6-2.59-3.05,1.16-9.77,1.15-2.16,6.5-12.14,10.83-20.21"/></g></svg>