<svg id="Layer_1" data-name="Layer 1" xmlns="http://www.w3.org/2000/svg" xmlns:xlink="http://www.w3.org/1999/xlink" viewBox="0 0 100 111"><defs><style>.cls-1,.cls-4{fill:none;}.cls-2{clip-path:url(#clip-path);}.cls-3{fill:#f27221;}.cls-4{stroke:#231f20;stroke-miterlimit:10;stroke-width:6px;}.cls-5{fill:#231f20;}.cls-6{fill:#333;}.cls-7{fill:#444445;}.cls-8{fill:#2a95d2;}.cls-9{opacity:0.23;}.cls-10{clip-path:url(#clip-path-2);}.cls-11{fill:#06445e;}.cls-12{fill:#fff;}.cls-13{fill:#0e3a59;}.cls-14{fill:#5f6060;}.cls-15{fill:#2d2d2d;}.cls-16{fill:#282827;}.cls-17{opacity:0.25;}.cls-18{clip-path:url(#clip-path-3);}.cls-19{fill:#68c9f2;}.cls-20{font-size:15.87px;fill:#e6f4f8;font-family:BebasNeueBold, Bebas Neue;font-weight:700;letter-spacing:0.3em;}.cls-21{letter-spacing:0.28em;}.cls-22{letter-spacing:0.3em;}.cls-23{letter-spacing:0.3em;}.cls-24{letter-spacing:0em;}</style><clipPath id="clip-path"><polyline class="cls-1" points="116 -229 116 539 -967 539 -967 -229"/></clipPath><clipPath id="clip-path-2"><rect class="cls-1" x="48.19" y="8.83" width="12.53" height="17.53"/></clipPath><clipPath id="clip-path-3"><rect class="cls-1" x="18.51" y="89.95" width="70.16" height="15.21"/></clipPath></defs><g class="cls-2"><path class="cls-3" d="M93.47,59.73A41.69,41.69,0,1,1,51.78,18,41.69,41.69,0,0,1,93.47,59.73"/><circle class="cls-4" cx="51.78" cy="59.73" r="41.69"/><rect class="cls-5" x="42.57" y="57.38" width="17.8" height="6.61"/><polygon class="cls-6" points="59.84 29.41 59.84 26.42 42.64 26.37 42.64 29.18 59.84 29.41"/><path class="cls-7" d="M63.34,89.6V24.7a.56.56,0,0,0-.56-.56H40a.56.56,0,0,0-.56.56V89.6a.56.56,0,0,0,.56.56H62.78a.56.56,0,0,0,.56-.56"/><path class="cls-5" d="M62.78,91H40a1.4,1.4,0,0,1-1.4-1.4V24.7A1.4,1.4,0,0,1,40,23.3H62.78a1.4,1.4,0,0,1,1.4,1.4V89.6a1.4,1.4,0,0,1-1.4,1.4M40.31,89.32H62.5V25H40.31Z"/><path class="cls-8" d="M49.77,18.26l2.09,3,.91-2.21-1.3-2.77-2.09-1.43.11-3.94,2.43-2.09,1.53,1.87h.34l6.93,8.82a10.42,10.42,0,1,0-9.81,6.9A10.53,10.53,0,0,0,52,26.37l-3.81-4.92Z"/><path class="cls-8" d="M60.72,19.52,53.79,10.7h-.34L51.92,8.83l-2.43,2.09-.11,3.94,2.09,1.43,1.3,2.77-.91,2.21-2.09-3-1.58,3.19L52,26.37a10.43,10.43,0,0,0,8.72-6.85"/><g class="cls-9"><g class="cls-10"><path class="cls-11" d="M60.72,19.52,53.79,10.7h-.34L51.92,8.83l-2.43,2.09-.11,3.94,2.09,1.43,1.3,2.77-.91,2.21-2.09-3-1.58,3.19L52,26.37a10.43,10.43,0,0,0,8.72-6.85"/></g></g><path class="cls-12" d="M50,9.78V8.84H52v.94a2.83,2.83,0,0,1,2.55,3.09v.4H52.28v-.52c0-.9-.43-1.24-1.19-1.24s-1.19.34-1.19,1.24c0,2.6,4.65,2.72,4.65,6.33A2.87,2.87,0,0,1,52,22.17v.92H50v-.92a2.85,2.85,0,0,1-2.58-3.1V18.2h2.25v1a1.23,1.23,0,0,0,2.47,0c0-2.6-4.65-2.72-4.65-6.33A2.84,2.84,0,0,1,50,9.78"/><path class="cls-13" d="M51.31,26.75C45.17,26.75,40,21.81,40,16s5.19-10.8,11.33-10.8S62.63,10.11,62.63,16,57.45,26.75,51.31,26.75m0-19.91c-5.23,0-9.65,4.18-9.65,9.12s4.42,9.11,9.65,9.11S61,20.9,61,16s-4.42-9.12-9.65-9.12"/><path class="cls-14" d="M66.63,68.51l-.25-1.66.13.83-.13-.83c.07,0,6.61-1.31,6.29-15.28l1.68,0c.36,15.57-7.38,16.93-7.71,17"/><path class="cls-14" d="M67.5,79.11a2.87,2.87,0,0,1-1.43-.36l.85-1.45a1.48,1.48,0,0,0,1.45-.13c1.29-.77,4.29-4.42,4.29-21.8h1.68c0,13.5-1.74,21.34-5.18,23.28a3.35,3.35,0,0,1-1.66.45"/><path class="cls-6" d="M63.9,34.4h2.24a.56.56,0,0,1,.56.56V95.19a.56.56,0,0,1-.56.56H63.9a.56.56,0,0,1-.56-.56V35a.56.56,0,0,1,.56-.56"/><path class="cls-5" d="M66.13,96.59H63.9a1.4,1.4,0,0,1-1.4-1.4V35a1.4,1.4,0,0,1,1.4-1.4h2.24a1.4,1.4,0,0,1,1.4,1.4V95.19a1.4,1.4,0,0,1-1.4,1.4m-2-1.68h1.68V35.24H64.18Z"/><path class="cls-6" d="M38.91,34.4H36.48a.56.56,0,0,0-.56.56V95.19a.56.56,0,0,0,.56.56h2.43a.56.56,0,0,0,.56-.56V35a.56.56,0,0,0-.56-.56"/><path class="cls-5" d="M38.91,96.59H36.48a1.4,1.4,0,0,1-1.4-1.4V35a1.4,1.4,0,0,1,1.4-1.4h2.42a1.4,1.4,0,0,1,1.4,1.4V95.19a1.4,1.4,0,0,1-1.4,1.4m-2.14-1.68h1.86V35.24H36.76Z"/><path class="cls-5" d="M59.42,25.91h-7c-1.27,0-.9,1.82,0,1.68h6.7v1.3H43.48v-1.3h6.39a.84.84,0,1,0,0-1.67H43.2a1.4,1.4,0,0,0-1.4,1.4v3.26h19V27.31a1.4,1.4,0,0,0-1.4-1.4"/><path class="cls-5" d="M51.31,4c-6.84,0-12.4,5.31-12.4,11.84,0,5.4,3.22,10.3,10.43,11.44a1.69,1.69,0,0,1-.06-.44l.55-.93a10,10,0,0,1-9.24-10.08c0-5.6,4.81-10.16,10.72-10.16S62,10.24,62,15.84c0,4.75-3.36,9.28-9.84,10.1,0,.58.48,1,.26,1.51,7.75-1.3,11.26-6.21,11.26-11.61C63.71,9.31,58.15,4,51.31,4"/><rect class="cls-15" x="42.82" y="68.24" width="17.16" height="16.04"/><polygon class="cls-16" points="59.42 67.68 43.38 67.68 42.82 84.28 45.15 84.28 59.99 71.88 59.42 67.68"/><path class="cls-12" d="M59.44,64.33h-16a.56.56,0,0,1-.56-.56V58.36a.56.56,0,0,1,.56-.56h16a.56.56,0,0,1,.56.56v5.41a.56.56,0,0,1-.56.56"/><path class="cls-5" d="M59.44,65.17h-16a1.4,1.4,0,0,1-1.4-1.4V58.36a1.4,1.4,0,0,1,1.4-1.4h16a1.4,1.4,0,0,1,1.4,1.4v5.41a1.4,1.4,0,0,1-1.4,1.4"/><path class="cls-5" d="M59.42,85.68h-16a1.4,1.4,0,0,1-1.4-1.4v-16a1.4,1.4,0,0,1,1.4-1.4h16a1.4,1.4,0,0,1,1.4,1.4v16a1.4,1.4,0,0,1-1.4,1.4M43.66,84H59.14V68.52H43.66Z"/><path class="cls-12" d="M56.79,51.55H46.15a1,1,0,0,1-1-1V35.4a1,1,0,0,1,1-1H56.79a1,1,0,0,1,1,1V50.55a1,1,0,0,1-1,1"/><path class="cls-5" d="M57.23,52.39H45.71a1.4,1.4,0,0,1-1.4-1.4V35a1.4,1.4,0,0,1,1.4-1.4H57.23a1.4,1.4,0,0,1,1.4,1.4V51a1.4,1.4,0,0,1-1.4,1.4M46,50.71H57V35.24H46Z"/><rect class="cls-8" x="47.3" y="49.48" width="2.05" height="4.77"/><path class="cls-12" d="M49.63,54.54H47V49.2h2.61ZM47.58,54h1.49V49.76H47.58Z"/><rect class="cls-8" x="50.65" y="49.48" width="2.05" height="4.77"/><path class="cls-12" d="M53,54.54H50.38V49.2H53ZM50.94,54h1.49V49.76H50.94Z"/><rect class="cls-8" x="54.01" y="49.48" width="2.05" height="4.77"/><path class="cls-12" d="M56.34,54.54H53.73V49.2h2.61ZM54.29,54h1.49V49.76H54.29Z"/><path class="cls-5" d="M55.66,47.26H47.27c-.85,0-.92-1.68,0-1.68h8.39c.86,0,.93,1.68,0,1.68"/><path class="cls-5" d="M55.66,44.75H47.27c-.85,0-.92-1.68,0-1.68h8.39c.86,0,.93,1.68,0,1.68"/><path class="cls-12" d="M53.59,39a2.29,2.29,0,1,1-2.28-2.12A2.21,2.21,0,0,1,53.59,39"/><path class="cls-5" d="M51.31,42a3,3,0,1,1,3.12-3,3,3,0,0,1-3.12,3m0-4.24A1.29,1.29,0,1,0,52.75,39a1.37,1.37,0,0,0-1.44-1.28"/><path class="cls-14" d="M74.09,52.24l-1.67-.15a28,28,0,0,0-.72-6.6l1.64-.37a29,29,0,0,1,.76,7.12"/><path class="cls-12" d="M72.51,52.28v9a.53.53,0,0,0,.49.56h.51A.53.53,0,0,0,74,61.3v-9a.53.53,0,0,0-.49-.56H73a.53.53,0,0,0-.49.56"/><path class="cls-5" d="M73.51,62.7H73a1.37,1.37,0,0,1-1.33-1.4v-9A1.37,1.37,0,0,1,73,50.88h.51a1.37,1.37,0,0,1,1.33,1.4v9a1.37,1.37,0,0,1-1.33,1.4"/><path class="cls-12" d="M66.13,41.16A7,7,0,0,1,72.77,47c.08.36.12-6-6.64-5.8"/><path class="cls-5" d="M72.12,47.92,72,47.13A6.08,6.08,0,0,0,66.13,42l0-1.68h.31c4.9,0,6.94,3.33,7.19,6.22,0,.28.1,1.14-.71,1.26Z"/><path class="cls-5" d="M70.33,45.3a3.1,3.1,0,0,0,2.3,0c1.31-.48,2.12-1.6,0-1.6s-3,1.19-2.3,1.6"/><polyline class="cls-5" points="70.35 42.02 70.01 42.02 66.69 44.06 67.07 44.06"/><rect class="cls-8" x="43.66" y="58.36" width="15.48" height="5.04"/><path class="cls-16" d="M57.85,99.2A37.29,37.29,0,0,0,67,96.59H35.85a25.28,25.28,0,0,0,7.82,2.61Z"/><path d="M67.49,95.75h1.25q.7-.36,1.29-.71a1.41,1.41,0,0,0-.59-.13h-36a8.23,8.23,0,0,0,1.06.84Z"/><path d="M53,99.7a45.9,45.9,0,0,0,4.84-.5H43.67a41.56,41.56,0,0,0,9.34.5"/><path d="M67.49,96.36l-.52.23h.52Z"/><path d="M35.85,96.59c-.3-.17-.57-.32-.81-.48v.48Z"/><path d="M68.73,95.75H68v.34l.69-.34"/><path d="M35,96v.08c.24.15.51.31.81.48H67l.52-.23v-.61h-33l.42.28Z"/><path d="M67.77,96.59v-.36l-.28.13v.23Z"/><path d="M68,96.59v-.5l-.28.13v.36Z"/><path d="M67.77,96.23l.28-.13v-.34h-.28Z"/><path d="M67.77,96.23v-.48h-.28v.61l.28-.13"/><path d="M34.76,96v.56H35v-.48L34.91,96h-.43v.56h.28Z"/><path d="M35,96h-.13l.13.08Z"/><polygon class="cls-8" points="58.81 75.02 59.8 75.02 59.31 71.69 58.81 75.02"/><path class="cls-8" d="M80.9,105.15H22.38a7.6,7.6,0,0,1,0-15.21H80.9a7.6,7.6,0,1,1,0,15.21"/><g class="cls-17"><g class="cls-18"><path class="cls-19" d="M81.07,89.95H64.72c-16.46,3.73-36.94,9-46.21,14a7.53,7.53,0,0,0,4,1.18H81.07a7.6,7.6,0,0,0,0-15.21"/></g></g></g><text class="cls-20" transform="translate(22.12 103.48)">E<tspan class="cls-21" x="10.6" y="0">Z</tspan><tspan class="cls-22" x="21" y="0">-</tspan><tspan class="cls-23" x="30.05" y="0">G</tspan><tspan x="40.98" y="0">A</tspan><tspan class="cls-24" x="52.2" y="0">$</tspan></text></svg>