<svg id="Layer_1" data-name="Layer 1" xmlns="http://www.w3.org/2000/svg" xmlns:xlink="http://www.w3.org/1999/xlink" viewBox="0 0 113 95.5"><defs><style>.cls-1{fill:none;}.cls-2{clip-path:url(#clip-path);}.cls-3{fill:#f9b800;}</style><clipPath id="clip-path"><polyline class="cls-1" points="644 -189 644 579 -439 579 -439 -189"/></clipPath></defs><g class="cls-2"><polyline points="52.11 59.69 52.11 85.78 44.1 85.78 44.1 59.69 9.67 13.03 18.09 13.03 45 50.51"/><polyline points="65.28 20.74 65.61 59.61 65.61 85.62 57.55 85.62 57.55 13.19 77.27 13.5 72.79 20.77"/><polygon points="69.31 85.93 69.31 63.02 76.59 54.13 76.71 78.56 98.21 78.56 98.21 85.93 69.31 85.93"/><polygon class="cls-3" points="95.23 13.03 70 48.61 70 57.92 102.52 13.15 95.23 13.03"/><polyline points="37.1 20.82 32.27 13.5 52.11 13.5 52.11 85.93 44.05 85.93 44.05 59.92 44.41 21.05"/></g></svg>