<svg id="Layer_1" data-name="Layer 1" xmlns="http://www.w3.org/2000/svg" viewBox="0 0 111 99"><defs><style>.cls-1{fill:#fff;}.cls-2{fill:none;stroke:#fff;stroke-miterlimit:10;}</style></defs><path class="cls-1" d="M50.06,60.5v.07h0l3-3.1-.85.86Z"/><path class="cls-1" d="M42.18,68.34a1.1,1.1,0,0,1-1,.29l-.2,0,.78.18,5.45-5.37Z"/><path class="cls-1" d="M54.6,55.82l5-5.23-5,5.23"/><path class="cls-1" d="M69.5,40.23l-6.06,6.34,6.06-6.34"/><path class="cls-1" d="M82.4,80l-.18.2.18-.2-.16-.1.16.1"/><path class="cls-1" d="M41.19,87.38l2.75-7.81-3.71,6.8a1.91,1.91,0,0,1-2.63.75l2.05,1.19,2.2-3.58-1.66,3.89L53,96,42,89.68a1.92,1.92,0,0,1-.85-2.3"/><path d="M94,50.83c0-7.07,0-14.14,0-21.21a2.71,2.71,0,0,0-1.59-2.74c-1.22-.62-2.37-1.36-3.56-2-1.64-.94-1.86-.92-3.15.44L45.37,67.53c-1.3,1.36-1.19,1.8.58,2.21Q65,74.08,84,78.36A3.93,3.93,0,0,0,86.47,78c2.11-1.08,4.12-2.34,6.18-3.51A2.39,2.39,0,0,0,94,72.17c0-7.11,0-14.23,0-21.34ZM78.08,65.89,66.39,63.06,80.54,48l.82,16.29Z"/><path d="M67.61,12.58h0l-7.5,8.21L59.55,20l5.68,8.45L75.65,17.23l-8-4.65"/><path d="M70.54,36.31c.85,1.26,1.36,1.39,2.23.48q6-6.21,11.91-12.47a11.63,11.63,0,0,0,.82-1.13A16.49,16.49,0,0,0,83.94,22L76.64,17.8,65.88,29.38l4.66,6.92"/><path d="M58.45,7.26h0l-3.88,5.3h0q2.5,3.7,5,7.4l6.92-8-8-4.67"/><path d="M56,5.85A3.18,3.18,0,0,0,52.16,6c-1,.69-1.22,1.27-.49,2.32s1.6,2.33,2.39,3.5l3.71-4.95L56,5.85"/><path class="cls-1" d="M48.4,64.29,49,61.73h0L47.3,63.46Z"/><path class="cls-1" d="M39,89.36l.1,1.78,1.08-2.52-.54-.31Z"/><path class="cls-1" d="M39.66,88.31l.54.31,1.66-3.89Z"/><path class="cls-1" d="M65.88,29.38l-.65-1h0l-.33,2h0Z"/><path class="cls-1" d="M78.77,15.51H77.25l-1.6,1.72,1,.57Z"/><path class="cls-1" d="M76.64,17.8l-1-.57L65.24,28.42l.65,1Z"/><path class="cls-1" d="M66.85,11.49l-.38.44,1.13.65Z"/><path class="cls-1" d="M67.61,12.59h0l-1.13-.65-6.92,8,.56.83Z"/><path class="cls-1" d="M53.87,12l.69.53L54,11.81Z"/><path class="cls-1" d="M58.54,5.81l-.79,1.05.69.4Z"/><path class="cls-1" d="M58.45,7.27h0l-.69-.4L54,11.81l.52.76h0Z"/><path d="M37.59,87.12h0L15.79,74.55l21.8,12.57"/><path d="M16.14,64.39c-.64-.15-1.06-.15-1.32.05.26-.2.68-.2,1.32-.05"/><path d="M82.24,79.85l-.48-.32-.33-.19a1.56,1.56,0,0,0-.34-.13l-7.72-1.77-23.15-5.3-17-3.87-17-3.87c-.64-.15-1.06-.15-1.32.05l-.09.08a.81.81,0,0,0-.14.22l-.05.14a3.11,3.11,0,0,0-.1.79c0,.43,0,.85,0,1.28,0,.14,0,.29,0,.43,0,.57,0,1.14,0,1.71h0c0,.5,0,1,0,1.51,0,.25,0,.5,0,.75s0,.5,0,.75a3.21,3.21,0,0,0,0,.41,2.19,2.19,0,0,0,.31,1,2.92,2.92,0,0,0,1.09,1L37.6,87.12a1.91,1.91,0,0,0,2.63-.75l3.71-6.8-2.76,7.81a1.91,1.91,0,0,0,.85,2.3L53,96l.31.16a2.37,2.37,0,0,0,.6.19,1.89,1.89,0,0,0,.59,0,2.56,2.56,0,0,0,.92-.35q13-7.56,26-15.07l.14-.09a2.13,2.13,0,0,0,.26-.23l.24-.26.17-.2.18-.2-.16-.1m-45.5-2.47-1.28,2.68-.5-.29-.23.55L24,74.19V72l12.78,3.56L36,77.21Zm25.19,6.21-9.49,5.48-3.48-2,2.28-5.48,2.62.49.48-1.31,7.59,2-1,.64Z"/><path d="M14.58,64.75a.83.83,0,0,1,.14-.23.83.83,0,0,0-.14.23"/><polygon points="51.7 87.93 53.85 82.08 51.23 81.58 48.95 87.06 52.43 89.07 61.92 83.59 60.96 83.41 52.79 88.86 51.7 87.93"/><polygon points="35.45 80.07 36.73 77.39 36.04 77.21 34.96 79.78 35.45 80.07"/><path class="cls-1" d="M48.4,62.21l.51-.5Z"/><path d="M50.15,60.48h0l-.08.08h0Z"/><path d="M14.41,60.44c0,1.93.2,2.16,2,2.58L35.23,67.3l.76.17.18,0,.57.13.31.07.44.1.34.07.46.1.33.07.52.12.68.15.23.05.62.14.3.07.2,0a1.09,1.09,0,0,0,1-.29l5-5L31.39,51.44l-.77.75,3.74,3.74-6.11-1.1V36L45.77,25.37l8.49,11.22-9,10,9.38,9.19,5-5.23,3.85-4,6.06-6.34a1.78,1.78,0,0,0,.26-2.62L64.9,30.44h0Q57.68,19.75,50.49,9a1.66,1.66,0,0,0-2.61-.6Q32,17.67,16.07,26.81a2.93,2.93,0,0,0-1.67,2.85c0,10.26,0,20.52,0,30.79"/><path d="M63.43,46.57l-3.85,4,3.85-4"/><path d="M52.18,58.33h0L38.38,44.62l-7,6.8,17.5,10.28,1.16-1.14V60.5Z"/><path d="M41.76,68.76l.18-.13a8.73,8.73,0,0,0,1.48-1.11l3.88-4.06-.09-.07Z"/><path d="M48.4,62.21h0l.51-.5L31.41,51.43l0,0L47.2,63.39l1.19-1.18L47.2,63.39l.09.07L49,61.73l0,0Z"/><polygon points="64.9 30.44 64.9 30.43 64.9 30.44 64.9 30.44"/><polygon points="52.17 58.33 53.03 57.47 53.6 56.87 52.17 58.33"/><polygon class="cls-2" points="52.17 58.33 53.03 57.47 53.6 56.87 52.17 58.33"/><polyline points="53.6 56.87 53.6 56.87 53.6 56.86 53.6 56.86 53.6 56.87"/><circle class="cls-2" cx="53.6" cy="56.87" transform="translate(-23.46 69.83) rotate(-56.24)"/></svg>