<svg id="Layer_1" data-name="Layer 1" xmlns="http://www.w3.org/2000/svg" xmlns:xlink="http://www.w3.org/1999/xlink" viewBox="0 0 134 63"><defs><style>.cls-1{fill:none;}.cls-2{clip-path:url(#clip-path);}</style><clipPath id="clip-path"><polyline class="cls-1" points="476 -597 476 171 -607 171 -607 -597"/></clipPath></defs><g class="cls-2"><path d="M35.18,21.22a15.54,15.54,0,0,1,3,9.93,17.38,17.38,0,0,1-3,10.45,9.72,9.72,0,0,1-8.35,4.14,9.73,9.73,0,0,1-5.41-1.34,10.78,10.78,0,0,1-2.64-2.78V45h-7V8.49h7.07v13a10.35,10.35,0,0,1,3-2.88,8.87,8.87,0,0,1,4.89-1.24,10.11,10.11,0,0,1,8.4,3.85M29.27,37.7a10,10,0,0,0,1.53-5.81A13,13,0,0,0,30,27.13a5.23,5.23,0,0,0-5.25-3.57,5.31,5.31,0,0,0-5.33,3.5,13,13,0,0,0-.75,4.81,10,10,0,0,0,1.55,5.76A5.33,5.33,0,0,0,25,39.9a4.91,4.91,0,0,0,4.28-2.21"/><polygon points="74.74 23.73 74.74 17.97 96.13 17.97 96.13 23.85 82.86 39.21 96.6 39.21 96.6 45.02 73.8 45.02 73.8 39.51 87.2 23.73 74.74 23.73"/><path d="M102,50.2l.89.05a11.22,11.22,0,0,0,2-.07,3.56,3.56,0,0,0,1.59-.57,3.81,3.81,0,0,0,1.15-1.76,4.24,4.24,0,0,0,.46-1.64L98.13,18H106l5.91,20,5.58-20H125l-9.27,26.6q-2.69,7.69-4.25,9.54T105.21,56H103.7q-.57,0-1.71-.09Z"/><polyline points="60.24 45.02 66.65 45.02 73.15 17.97 66.32 17.97"/><polyline points="59.28 17.97 52.69 17.97 48.8 37.37 44.58 17.97 36.98 17.97 44.58 45.02 53.54 45.02"/></g></svg>