<svg id="Layer_1" data-name="Layer 1" xmlns="http://www.w3.org/2000/svg" viewBox="0 0 142 93"><defs><style>.cls-1{fill:#fff;}.cls-2{fill:#f9b800;}</style></defs><path d="M39.78,38.7,29.48,30a1,1,0,0,0-1-.17L22.72,32a1,1,0,0,0-.35,1.61l47.28,47a1,1,0,0,0,1.37,0l48.6-47.1a1,1,0,0,0-.35-1.62l-5.86-2.11a1,1,0,0,0-.93.15l-11.79,9.15-22.16-13a1,1,0,0,0-1.21.18L75,28.84a1,1,0,0,1-1.36.07L70,25.75a1,1,0,0,0-1.32,0l-4.11,3.91-3-3.22a1,1,0,0,0-1.24-.16L40.93,38.78a1,1,0,0,1-1.15-.08"/><path class="cls-1" d="M73.71,53.08l-2,1.92a1,1,0,0,0-.31.71v8.18a1,1,0,0,0,1,1h12a1,1,0,0,0,1-1v-1a1,1,0,0,0-1-1h-8a1,1,0,0,1-1-1v-7.1a1,1,0,0,0-1.65-.71"/><path class="cls-2" d="M73.58,50.74,84.35,37.46a1,1,0,0,0-.76-1.59h-1.4a1,1,0,0,0-.76.36L72.1,47.83a1,1,0,0,0-.22.59l0,1.68a1,1,0,0,0,1.74.64"/><path class="cls-1" d="M72.11,38.48l.79-1a1,1,0,0,0-.78-1.57H68.33a1,1,0,0,0-1,1v27a1,1,0,0,0,1,1h1a1,1,0,0,0,1-1v-24a1,1,0,0,1,1-1,1,1,0,0,0,.78-.39"/><path class="cls-1" d="M62.77,35.87H61.41a1,1,0,0,0-.81,1.52l1,1.48h.76V45a1,1,0,0,1-1.75.59l-7-9.28a1,1,0,0,0-.78-.39H51.39a1,1,0,0,0-.77,1.57L62.15,52.37a1,1,0,0,1,.2.6V63.89a1,1,0,0,0,1,1h1a1,1,0,0,0,1-1v-28H62.77Z"/></svg>