<svg id="Layer_1" data-name="Layer 1" xmlns="http://www.w3.org/2000/svg" viewBox="0 0 115 97"><path d="M57.57,60.93A13.55,13.55,0,1,1,71.12,47.39,13.56,13.56,0,0,1,57.57,60.93m0-22.67a9.13,9.13,0,1,0,9.13,9.13,9.14,9.14,0,0,0-9.13-9.13"/><path d="M86.15,61.23A13.55,13.55,0,1,1,99.69,47.69,13.56,13.56,0,0,1,86.15,61.23m0-22.67a9.13,9.13,0,1,0,9.13,9.13,9.14,9.14,0,0,0-9.13-9.13"/><path d="M29.49,60.92A13.55,13.55,0,1,1,43,47.38,13.56,13.56,0,0,1,29.49,60.92m0-22.67a9.13,9.13,0,1,0,9.13,9.13,9.14,9.14,0,0,0-9.13-9.13"/><rect x="66.7" y="6.51" width="4.42" height="40.88"/><rect x="38.61" y="46.05" width="4.42" height="40.88"/><rect x="72.59" y="6.51" width="4.42" height="40.88"/><path d="M104,89.13H11.69V4.3H104ZM16.11,84.71H99.58v-76H16.11Z"/></svg>