<svg id="Layer_1" data-name="Layer 1" xmlns="http://www.w3.org/2000/svg" xmlns:xlink="http://www.w3.org/1999/xlink" viewBox="0 0 199 71"><defs><style>.cls-1{fill:none;}.cls-2{clip-path:url(#clip-path);}.cls-3{fill:#03a9f4;}.cls-4{fill:#2f2f2f;}</style><clipPath id="clip-path"><polyline class="cls-1" points="802 -540 802 228 -281 228 -281 -540"/></clipPath></defs><g class="cls-2"><path class="cls-3" d="M194,35.08a28.12,28.12,0,1,0-11.08,22.33l.19-.15A28,28,0,0,0,194,35.08M181.17,54.45a24.59,24.59,0,1,1,9.42-19.37,24.67,24.67,0,0,1-9.42,19.37"/><polygon class="cls-3" points="153.77 25.2 145.79 17.23 148.06 14.96 155.07 21.96 165.88 21.72 165.96 24.93 153.77 25.2"/><polygon class="cls-3" points="148.11 55.7 145.75 53.51 153.18 45.51 165.92 45.51 165.92 48.72 154.58 48.72 148.11 55.7"/><rect class="cls-3" x="151.4" y="22.11" width="3.21" height="25.83" transform="translate(117.36 187.89) rotate(-89.77)"/><polygon class="cls-3" points="171.71 41.28 165.46 36.32 167.45 33.81 171.36 36.91 176.24 31.59 178.6 33.76 171.71 41.28"/><polygon class="cls-3" points="173.88 30.33 169.37 25.83 175.11 18.82 177.59 20.85 173.7 25.61 176.15 28.06 173.88 30.33"/><rect class="cls-3" x="179.56" y="36.95" width="9.09" height="3.21"/><polygon class="cls-3" points="182.36 33.21 179.96 31.07 184.75 25.69 191.56 25.99 191.41 29.2 186.13 28.96 182.36 33.21"/><rect class="cls-3" x="165.92" y="14.49" width="7.76" height="3.21"/><polygon class="cls-3" points="181.76 23.11 179.49 20.84 181.13 19.21 180.95 15.88 177.24 14.26 176.41 15.09 174.14 12.82 176.52 10.44 184.05 13.73 184.41 20.46 181.76 23.11"/><polygon class="cls-3" points="176.82 50.39 175.16 48.74 165.96 48.96 165.88 45.75 176.46 45.49 179.09 48.12 176.82 50.39"/><polygon class="cls-3" points="174.43 60.67 170.47 57.52 170.47 54.6 173.68 54.6 173.68 55.97 176.43 58.16 174.43 60.67"/><rect class="cls-3" x="181.16" y="42.84" width="3.21" height="5.88"/><rect class="cls-3" x="164.58" y="9.14" width="3.21" height="51.88"/><path class="cls-4" d="M90.09,37.06c.85-1.56,1.73-3.1,2.56-4.68,2.71-5.21,5.43-10.41,8.09-15.65A3.14,3.14,0,0,1,104,14.87c3.23.07,6.45,0,10,0a17.72,17.72,0,0,1-.81,2.1Q102.59,35.77,92,54.54a2.77,2.77,0,0,1-2.69,1.6c-2.35,0-4.7,0-7,0-1.48,0-2.09-.63-2.24-2.06C78.94,44.52,77.83,35,76.73,25.41c-.3-2.65-.63-5.3-.94-8l-.41,0c-.45,2-.88,4.08-1.35,6.12-.52,2.24-.69,2.37-3.09,2.38-4.2,0-8.39.06-12.59,0-1.75,0-2.51.69-2.79,2.37-.25,1.52.28,2.06,1.74,2,3.69,0,7.39,0,11.08,0,2.87,0,2.93.08,2.35,2.81-.35,1.64-.75,3.27-1,4.93a2.13,2.13,0,0,1-2.44,2c-3.92,0-7.83,0-11.75,0-2.25,0-3.35,1.26-3.14,3.49.11,1.19,1,1.2,1.86,1.21,3.64,0,7.27,0,10.91,0h2c2.25,0,2.44.26,2,2.46s-1,4.25-1.37,6.4c-.28,1.65-1.16,2.21-2.77,2.2-7.83,0-15.66,0-23.5,0-2.16,0-2.45-.38-2-2.55Q42.79,38,46.14,22.75c.37-1.69.71-3.39,1.1-5.08.52-2.28.72-2.45,3-2.45,6.77,0,13.54,0,20.31,0,4.92,0,9.84-.22,14.76-.29,2.52,0,2.64.16,2.8,2.6q.58,9,1.23,17.9c0,.53.17,1.06.26,1.59l.46.06"/><path class="cls-4" d="M95.35,55.81c1.3-2.4,2.3-4.31,3.35-6.19,6-10.73,12.06-21.44,18-32.2a3.67,3.67,0,0,1,3.72-2.24c2.12.1,4.25.07,6.38,0,1.52,0,2.19.59,2.38,2.12,1.15,9.66,2.37,19.31,3.57,29,.3,2.44.59,4.89.92,7.32.2,1.5-.39,2.22-1.93,2.2q-3.69,0-7.38,0a2,2,0,0,1-2.29-2.07c-.4-3.31-.44-3.3-3.85-3.31-2,0-4,.07-6,0a3.25,3.25,0,0,0-3.44,2.11c-.23.51-.54,1-.75,1.5a2.72,2.72,0,0,1-2.9,1.8c-3.06,0-6.12,0-9.77,0m25-24.13-.54-.11c-1,1.93-2.11,3.85-3.08,5.81a32.51,32.51,0,0,0-1.19,3.2c1.23.16,2.46.32,3.69.46a.94.94,0,0,0,.65-.08c.42-.38,1.11-.84,1.1-1.24-.12-2.68-.4-5.36-.63-8"/><path class="cls-4" d="M27.41,56.49c-7.51.08-12.33-2.08-16.52-5.88a2,2,0,0,1-.31-3c1.45-2,2.83-4,4.17-6.09.7-1.07,1.28-1.15,2.23-.25a16.45,16.45,0,0,0,8,4.33c2.2.46,3.72,0,4.17-1.18s-.26-2.23-2.58-3.37c-1.9-.94-3.89-1.73-5.73-2.79-5.26-3-7.09-7.66-5.5-13.56A14.2,14.2,0,0,1,28.66,14.19,20.79,20.79,0,0,1,43,18.78c1.15.93,1.36,1.73.48,2.95-1.45,2-2.85,4-4.17,6.1-.74,1.17-1.36,1-2.44.37a47.43,47.43,0,0,0-6.11-3,4.92,4.92,0,0,0-2.8-.12,2.48,2.48,0,0,0-1.61,1.38c-.14.45.42,1.4.93,1.71,1.42.87,3,1.43,4.47,2.29,2.14,1.29,4.49,2.44,6.21,4.18,3.35,3.38,3.29,7.68,2.08,12a13.16,13.16,0,0,1-12.67,9.92"/></g></svg>