<svg id="Layer_1" data-name="Layer 1" xmlns="http://www.w3.org/2000/svg" xmlns:xlink="http://www.w3.org/1999/xlink" viewBox="0 0 263 226"><defs><style>.cls-1,.cls-13,.cls-15,.cls-16,.cls-9{fill:none;}.cls-2{clip-path:url(#clip-path);}.cls-3{fill:#ccb0b2;}.cls-4{fill:#8188b3;}.cls-5{fill:#262626;}.cls-6{fill:#65656e;}.cls-7{fill:#231f20;}.cls-8{fill:#fff;}.cls-9{stroke:#231f20;}.cls-13,.cls-15,.cls-16,.cls-9{stroke-miterlimit:10;}.cls-10{fill:#5f5f67;}.cls-11{fill:#7a7b7b;}.cls-12{fill:#ec1c4e;}.cls-13{stroke:#606061;}.cls-14{fill:#91919d;}.cls-15{stroke:#6d6e70;}.cls-16{stroke:#707176;stroke-width:2px;}.cls-17{fill:#3c4882;}</style><clipPath id="clip-path"><polyline class="cls-1" points="263 7 263 775 -820 775 -820 7"/></clipPath></defs><g class="cls-2"><path class="cls-3" d="M27.14,150s-3.7-1.26.27-17.24S26.28,112,26.28,112l39.81-6.63,5.14,18.19s2.46.27-1.25,17.78S27.14,150,27.14,150"/><path class="cls-4" d="M69.43,117.2s-.26-6.71-21.52-2.29-19,6.15-19,6.15-7.95-7.24-5.11-13.5,19.88-5.63,19.88-5.63l21.22,0s19-4.71,4.52,15.29"/><polygon class="cls-3" points="157.1 150.54 151.58 103.4 148.9 69.64 105.66 94.57 105.66 106.09 103.53 141.26 105.34 166.36 157.1 150.54"/><path class="cls-4" d="M151.74,104.79s2.68-11.32-2.69-13.22-17.51-1.89-17.51-1.89-3.16-3.16-21.3,3.79c-8,5-8.2,6.63-8.2,6.63s2.21,4.42,1.5,8.21a8.7,8.7,0,0,0,1.6,6.61l.85-2.67s5.41-4.1,21.24-7.26,20.74-4,24.52-.2"/><path class="cls-5" d="M180.79,149.92s7.79-10.07-2.78-11.49-11.74-8.84-11.74-8.84l.38,5.6s2.58,5,9.88,5.68,2.27,8.05,2.27,8.05Z"/><path class="cls-6" d="M256.36,187.12s-.24-6.15-36.92-16.33-52.3-38.34-52.3-38.34L165,123.93s-2.13-6.63-12.54-5.92c-8,5-16.34,15.62-16.34,15.62s-12.29,14.2-20.1,17-6.63.24-8.76-3.79-2.84-8.55-5-8.77-3.55,7.82-3.55,7.82-7.81,23-5.44,32.9S249,199.43,249,199.43Z"/><path class="cls-7" d="M171.12,189s-6.59-27.45-32.15-28.63c-25.29,3.08-25.29,20.47-25.29,20.47l20.79,6.51,35.26,3.55Z"/><path class="cls-8" d="M258.25,200.61s2.6-12.31-1.89-13.49-6.39,1.66-6.39,1.66l-2.13,4.94s-12.07,4-61.3-2.58-49.23-8.28-63.43-9.47-29.82-2.84-29.82-2.84H91.63s1.66,0-3.31,2.6c-3.19,1.67-1.42,14.2-1.42,14.2l8.76,6.15,63.19,1.42s46.39,3.79,80,3.08c15.92-1,19.41-5.68,19.41-5.68"/><path class="cls-9" d="M258.25,200.61s2.6-12.31-1.89-13.49-6.39,1.66-6.39,1.66l-2.13,4.94s-12.07,4-61.3-2.58-49.23-8.28-63.43-9.47-29.82-2.84-29.82-2.84H91.63s1.66,0-3.31,2.6c-3.19,1.67-1.42,14.2-1.42,14.2l8.76,6.15,63.19,1.42s46.39,3.79,80,3.08C254.76,205.3,258.25,200.61,258.25,200.61Z"/><path class="cls-5" d="M197.48,161.52s-.4-4.63-4.61-4.52a9.11,9.11,0,0,0-6.63,3.38l1.89,1.14s4.8-4.63,9.35,0"/><path class="cls-10" d="M92.46,200.08l-4.26-14S88,180.65,82,171s-9.7-31.46-9.7-31.46S67.85,124.11,58.86,122a63,63,0,0,0-16.57-1.66s-7.57,2.13-5,8.28,1.18,5,1.18,5l-7.1,10.16-2.84,5.2-1.42,1s-.95-.81-1.42,5.36-4,15.62-4,15.62-1.89,6.88-6.39,10.19-8.14,13-1.11,17.05,38.5,11.59,38.5,11.59H88.2L94.6,202Z"/><path class="cls-5" d="M192.87,157s-5.32-6.69-11.45-7.39-7.38,1.92-7.38,1.92l3.58.84s4.34-2.18,9.26,2.52,6.94,4.36,6.94,4.36Z"/><path class="cls-5" d="M181.08,168.68s-1.68-5.83,1.68-10.41,6.13-5.14,6.13-5.14,1.36-2.54-1.61-2.65S179,158.7,179,158.7s-2.42,5.77-1.68,8.09,1.37,3.37,3.79,1.89"/><path class="cls-5" d="M170.46,148l-3.58,5.58a11.46,11.46,0,0,0,0,6.07c.95,3-2.63.46-2.63.46a8,8,0,0,1,0-8.22c2.52-4.63,4.52-5.36,4.52-5.36Z"/><path class="cls-5" d="M155,151.74s-1.89-4.1,2.63-9a39.78,39.78,0,0,1,8.85-7.36s.4-3.26-2.86-1.79-9,9.26-9,9.26-3.39,4.42-1.82,8.42,2.21.53,2.21.53"/><path class="cls-5" d="M165.83,131s-13.57,1.47-20.62,7.1-.84,4-.84,4,7.15-5.68,13.47-7.26a61.59,61.59,0,0,1,8.64-1.75s1.29-2.41-.65-2.14"/><path class="cls-5" d="M165.71,134.65s1.33.74,2.49,12.94c2.14,2.31,2.95,0,2.95,0l-.81-9.57s-.56-4-2.35-4.06-1.72-.25-2.28.7"/><path class="cls-5" d="M169.88,137.31s-5.27,8.35,2.35,11.9,8.58-6.21,8.58-6.21.59-3.49-5.36-4.25l-3.22-1-.57,2.63,4.84,1.26s3,1.7-1.38,4.74c-4.93.2-3.46-5.28-3.46-5.28s2.5-5.56.57-6.61-3.51-4.63-2.67-8.42,2.67,3.58,2.67,3.58v2h3.22s-1.82-7.55-3.22-8.29-2.74-2.1-5.39,0,.93,9.89.93,9.89Z"/><path class="cls-5" d="M163.88,131.17h15.25s8.31-.76,6.63,6-3.58,6.9-3.58,6.9l-3.42-.64,3.15-5s3.32-3.93-3.2-4.56-8.42.42-8.42.42l-6.42-.1Z"/><path class="cls-8" d="M103.53,153.74l-6.79,11.6s-1.5-6-4.34-9-3.63-6.63-1.89-9.15,1.18-3.08,1.18-3.08.23-1.12,3.94-1l3.71.1-.55,2.4Z"/><path class="cls-9" d="M103.53,153.74l-6.79,11.6s-1.5-6-4.34-9-3.63-6.63-1.89-9.15,1.18-3.08,1.18-3.08.23-1.12,3.94-1l3.71.1-.55,2.4Z"/><path class="cls-11" d="M98.8,145.58s-2.41-1-2.25-1.66,2.8-.73,2.8-.73"/><path class="cls-9" d="M98.8,145.58s-2.41-1-2.25-1.66,2.8-.73,2.8-.73"/><path class="cls-12" d="M101.43,158.56a7.87,7.87,0,0,0-.29-1.92A2.5,2.5,0,0,0,96.33,158a4.38,4.38,0,0,0,.13.53l0-.3c0,.12,0,.24,0,.36a2.5,2.5,0,0,0,5,0"/><path class="cls-12" d="M100.49,155.64a4.35,4.35,0,0,0-1.23-2.86,2.5,2.5,0,0,0-3.54,3.53c.28.28-.1-.18-.17-.3s-.08-.21,0-.09,0,.1,0-.29a2.5,2.5,0,1,0,5,0"/><path class="cls-12" d="M99.12,152.61a4.7,4.7,0,0,0-1.78-2.28,2.51,2.51,0,0,0-3.42.9,2.57,2.57,0,0,0,.9,3.42q-.45-.38-.17-.1a1.13,1.13,0,0,1-.35-.6,2.74,2.74,0,0,0,1.15,1.49,2.55,2.55,0,0,0,1.93.25c1.17-.38,2.27-1.78,1.75-3.08"/><path class="cls-12" d="M97.53,151.72a4.44,4.44,0,0,0-.54-3.27A2.5,2.5,0,1,0,92.68,151c.11.18.12.17,0,0s-.08-.21,0,0l0-.35c0,.27,0,.21.06-.19a2.71,2.71,0,0,0,.25,1.93,2.5,2.5,0,0,0,4.57-.6"/><path class="cls-12" d="M96.57,147.28a2.85,2.85,0,0,0-.25-.38l.13.32a2.51,2.51,0,0,1-.09-.29,2.5,2.5,0,1,0-4.82,1.33,4.51,4.51,0,0,0,.71,1.55A2.72,2.72,0,0,0,93.75,151a2.55,2.55,0,0,0,1.93-.25,2.53,2.53,0,0,0,.9-3.42"/><path class="cls-12" d="M93.92,144.21,93,143.6a2.52,2.52,0,0,0-3.42.9,2.56,2.56,0,0,0,.9,3.42l.91.61a2.52,2.52,0,0,0,3.42-.9,2.56,2.56,0,0,0-.9-3.42"/><path class="cls-8" d="M92.46,200.08s17.75,13.25-7.57,16.8-74.79-1.66-74.79-1.66S-1.26,210,7,200.08c3.27-3.82,4.5-4,4.5-4s2.08,4.25,20.37,7.14c10.07,1.59,17.39,3,20.57,1.38,1.51-.75,2.53-2.62,3.07-3.9a2.27,2.27,0,0,1,2-1.37l21.71-.14a3.39,3.39,0,0,1,2.56,1.14c1.56,1.76,4.86,4.78,8.3,3.58,4.74-1.67,2.37-3.79,2.37-3.79"/><path class="cls-13" d="M92.46,200.08s17.75,13.25-7.57,16.8-74.79-1.66-74.79-1.66S-1.26,210,7,200.08c3.27-3.82,4.5-4,4.5-4s2.08,4.25,20.37,7.14c10.07,1.59,17.39,3,20.57,1.38,1.51-.75,2.53-2.62,3.07-3.9a2.27,2.27,0,0,1,2-1.37l21.71-.14a3.39,3.39,0,0,1,2.56,1.14c1.56,1.76,4.86,4.78,8.3,3.58C94.83,202.2,92.46,200.08,92.46,200.08Z"/><path class="cls-5" d="M71.87,165s-20.35.23-33.37,5.93-1.66-3.53,16.68-8,20.24,3.27,16.69,2.1"/><path class="cls-5" d="M71.16,155.33s-27.93,7.38-44.26,17.43c0-1.32-4.73-.53,11.83-9.21a98.32,98.32,0,0,1,30.77-10.34,1.62,1.62,0,0,1,1.66,2.12"/><path class="cls-5" d="M35.9,164.18s14.44-9,27.45-6.07,17.39,10.44,17.39,10.44,5.44-2-7.39-11.87c-19.46-6.71-29.87,0-29.87,0s-13.39,6.3-7.57,7.5"/><path class="cls-5" d="M29.17,165s11.27-13.46,29-18.4-5-2-5-2S37.59,151,29.91,161.51c-1.66,2.32-.74,3.52-.74,3.52"/><path class="cls-14" d="M73.17,143.74s-6.74-16.53-12.55-18.62a50.83,50.83,0,0,0-15.1-2.87c-3,0-5.51.5-6.18,2.87s1.56,7.61,1.56,7.61S30.63,150.1,25.58,152.88c-.1-1.4,1.57-2.9,1.57-2.9l11.2-17.24s0-.52-1.25-4.72.14-7.76,6.59-8.21,16.94,2.34,16.94,2.34,4.5,1.58,8.59,8.47a27.12,27.12,0,0,1,4,13.12"/><path class="cls-15" d="M73.17,143.74s-6.74-16.53-12.55-18.62a50.83,50.83,0,0,0-15.1-2.87c-3,0-5.51.5-6.18,2.87s1.56,7.61,1.56,7.61S30.63,150.1,25.58,152.88c-.1-1.4,1.57-2.9,1.57-2.9l11.2-17.24s0-.52-1.25-4.72.14-7.76,6.59-8.21,16.94,2.34,16.94,2.34,4.5,1.58,8.59,8.47A27.12,27.12,0,0,1,73.17,143.74Z"/><path class="cls-5" d="M80.3,161.13s-5.79-10.39-20.62-14.18-29.24,1.79-29.24,1.79-5.63,1.1-1.52-3.11,19.84-4,19.84-4,12.61.32,20.6,5.26,15.36,13,10.94,14.28"/><path class="cls-5" d="M55.79,135.69l-18.6,18.43-7.68,8S26,160.31,33.8,152a196.54,196.54,0,0,1,18.63-16.83s2.31-2,3.36.53"/><path class="cls-5" d="M55,132.2c-.65.79,5.68-6.57,13.66-4.73,8.21,1.89,12.74,10.2,12,16.73s-9.47-3.68-9.47-3.68-1.68-3.26-13.89-3.26-1.79-2.84-1.79-2.84,7.35-1.89,13.14,1.47S74.07,139,74.07,139s5.17,6.42,3.16.84-4.43-8.63-9.26-9.57-9.78,3.05-9.78,3.05Z"/><path class="cls-5" d="M60.63,137.38s-1-9.36-8.2-9.36-3.67,4-3.67,4,3.67-2.73,7,1.89-.21,3.37,4.84,3.47"/><path class="cls-5" d="M54.27,131.38s-8.92,9.37-12,10.47a18.73,18.73,0,0,1-5,1.18l6.42-5.82s7.19-8.35,9.43-8a1.38,1.38,0,0,1,1.15,2.21"/><path class="cls-5" d="M47.91,134.42s-13.58,3.49-16.31,11,4.63-1.63,4.63-1.63,7.35-7,10.69-6.89,1-2.43,1-2.43"/><path class="cls-5" d="M50,139.9s9.26-1.22,17.36,3.13S76,151.78,76,151.78s6.9.43-2.81-8-21.91-6.28-21.91-6.28L50,139.37"/><path class="cls-5" d="M57.25,133.63s10.36,1.28,13.49,3.82a14.93,14.93,0,0,1,4.19,5s0,4.63-6.73-3a15.59,15.59,0,0,0-10.95-1.92Z"/><path class="cls-14" d="M165.71,127.17s-8.91-12.72-16-5-21.38,33-40.24,32.33c-5-1.41-5.07-10.05-5.07-10.05s-1-4.54-2.36-4.73-1.72-2.08,0-2.13,3.83,2.27,3.83,4,2.95,20.2,24.46-2.21,20.67-22.72,25.83-22.2,8.69,2.9,9.57,10"/><path class="cls-15" d="M165.71,127.17s-8.91-12.72-16-5-21.38,33-40.24,32.33c-5-1.41-5.07-10.05-5.07-10.05s-1-4.54-2.36-4.73-1.72-2.08,0-2.13,3.83,2.27,3.83,4,2.95,20.2,24.46-2.21,20.67-22.72,25.83-22.2S164.83,120.07,165.71,127.17Z"/><polygon class="cls-16" points="69.22 196.06 60.63 192.61 66.09 188.69 60.63 188.69 64.18 183.48 58.16 180.92 63.69 175.64 58.16 172.76 60.63 169.35 58.16 167.14 63.69 172.76 58.16 178.84 64.18 178.84 58.16 184.43 66.09 192.61 60.63 196.06 64.91 199.25 69.22 196.06"/><path class="cls-17" d="M11.64,61.77l-1.39,8.92s.3,6.94,4.71,8.2-1.89,7.26-1.89,7.26-5.37,8.21.32,12.62,5.36,6.63,5.36,6.63.38,4.73,6.82,4.42,35-2.26,35-2.26l14.31-4.37s14.18-12.46-1.59-22c0,0,5-7.66-1.53-14.43L69.36,7H4.67Z"/><path class="cls-17" d="M156,46.91S153.12,38,154.37,31s0-7,0-7L150.29,7h-48a13.88,13.88,0,0,0-5.54,3.5A17.17,17.17,0,0,0,94,29.23l2.62,18.69c-1.37,2.77-4.39,10.91,1.35,20.6a21.14,21.14,0,0,0,.79,11s-2.37,6,.32,9.38,4.5,5.77,4.5,5.77l-.75,7.21,6.51,2.26s14.23-9.66,43.09-6.33l4.72-12,3.63-5V71.21s1.58-5.68-2.84-12A13.44,13.44,0,0,1,156,46.91"/></g></svg>