<svg id="Layer_1" data-name="Layer 1" xmlns="http://www.w3.org/2000/svg" xmlns:xlink="http://www.w3.org/1999/xlink" viewBox="0 0 188 67"><defs><style>.cls-1{fill:none;}.cls-2{clip-path:url(#clip-path);}.cls-3{opacity:0.63;}.cls-4{clip-path:url(#clip-path-2);}.cls-5{fill:#fff;}.cls-6{fill:#2a2b2b;}.cls-7{clip-path:url(#clip-path-5);}.cls-8{fill:#2eb9ef;}.cls-9{opacity:0.97;}.cls-10{clip-path:url(#clip-path-7);}.cls-11{opacity:0.89;}.cls-12{clip-path:url(#clip-path-8);}.cls-13{clip-path:url(#clip-path-9);}.cls-14{clip-path:url(#clip-path-10);}</style><clipPath id="clip-path"><polyline class="cls-1" points="466 0 466 768 -617 768 -617 0"/></clipPath><clipPath id="clip-path-2"><rect class="cls-1" x="129.4" y="32.59" width="43.53" height="19.53"/></clipPath><clipPath id="clip-path-5"><rect class="cls-1" x="129.71" y="13.29" width="43.06" height="23.57"/></clipPath><clipPath id="clip-path-7"><rect class="cls-1" x="126.37" y="27.62" width="49.56" height="27.38"/></clipPath><clipPath id="clip-path-8"><rect class="cls-1" x="150.12" y="34.32" width="3.3" height="20.52"/></clipPath><clipPath id="clip-path-9"><rect class="cls-1" x="163.84" y="32.58" width="6.3" height="14.1"/></clipPath><clipPath id="clip-path-10"><rect class="cls-1" x="132.51" y="32.5" width="6.06" height="14.23"/></clipPath></defs><g class="cls-2"><path d="M126.45,28.25A26.39,26.39,0,0,1,134,26.84c4.32-.19-4.33,4-4.33,4Z"/><path d="M175.87,27.61a26.39,26.39,0,0,0-7.53-1.42c-4.32-.19,4.33,4,4.33,4Z"/><g class="cls-3"><g class="cls-4"><g class="cls-4"><g class="cls-4"><path class="cls-5" d="M172.93,32.59a21.57,21.57,0,0,1-1.22,5.25,21.93,21.93,0,0,1-41,.26l-1.3-5.3a62.6,62.6,0,0,0,22.46,4.06,51,51,0,0,0,21.07-4.27"/></g></g></g></g><path class="cls-6" d="M85.35,36.19c.77-1.4,1.56-2.79,2.3-4.21,2.45-4.69,4.89-9.38,7.29-14.09a2.82,2.82,0,0,1,2.9-1.68c2.91.06,5.81,0,9,0a15.67,15.67,0,0,1-.73,1.9Q96.61,35,87.05,51.93a2.5,2.5,0,0,1-2.42,1.44c-2.12,0-4.23,0-6.35,0-1.33,0-1.88-.56-2-1.86-1-8.61-2-17.22-2.94-25.83-.27-2.39-.56-4.77-.85-7.16l-.37,0c-.41,1.84-.8,3.68-1.22,5.51-.47,2-.62,2.13-2.78,2.14-3.78,0-7.56.05-11.34,0a2.16,2.16,0,0,0-2.51,2.14c-.22,1.37.25,1.85,1.57,1.84,3.33,0,6.65,0,10,0,2.59,0,2.64.07,2.12,2.53-.31,1.48-.68,2.95-.94,4.43a1.92,1.92,0,0,1-2.2,1.77c-3.53,0-7.05,0-10.58,0-2,0-3,1.13-2.83,3.14.1,1.07.91,1.08,1.67,1.09,3.27,0,6.55,0,9.83,0h1.81c2,0,2.2.24,1.77,2.22s-.9,3.83-1.24,5.76c-.26,1.49-1,2-2.5,2-7.05,0-14.11,0-21.16,0-1.95,0-2.21-.34-1.79-2.29q3-13.74,6-27.47c.33-1.53.64-3.06,1-4.58.47-2.05.65-2.21,2.73-2.21,6.1,0,12.2,0,18.29,0,4.43,0,8.86-.2,13.29-.26,2.27,0,2.38.14,2.52,2.35q.53,8.06,1.1,16.12c0,.48.15,1,.23,1.43l.41.06"/><path class="cls-6" d="M90.09,53.07c1.17-2.16,2.07-3.88,3-5.57,5.41-9.67,10.86-19.31,16.24-29a3.31,3.31,0,0,1,3.35-2c1.91.09,3.83.07,5.74,0,1.37,0,2,.53,2.14,1.91,1,8.7,2.14,17.39,3.21,26.09.27,2.2.54,4.4.83,6.6.18,1.35-.35,2-1.73,2q-3.32,0-6.65,0a1.81,1.81,0,0,1-2.07-1.86c-.36-3-.39-3-3.46-3-1.81,0-3.63.06-5.44,0a2.93,2.93,0,0,0-3.1,1.9c-.2.46-.49.88-.68,1.35a2.45,2.45,0,0,1-2.61,1.62c-2.76,0-5.51,0-8.8,0m22.47-21.73-.48-.1c-.93,1.74-1.9,3.46-2.77,5.24a29,29,0,0,0-1.07,2.88c1.11.14,2.22.29,3.32.41a.85.85,0,0,0,.58-.08c.38-.34,1-.75,1-1.11-.11-2.42-.36-4.83-.57-7.24"/><path class="cls-6" d="M28.9,53.69c-6.76.07-11.1-1.88-14.88-5.29a1.77,1.77,0,0,1-.28-2.74c1.31-1.79,2.55-3.63,3.76-5.48.63-1,1.15-1,2-.23a14.81,14.81,0,0,0,7.22,3.9c2,.41,3.35,0,3.75-1.06s-.23-2-2.32-3c-1.72-.85-3.51-1.56-5.16-2.51-4.74-2.74-6.39-6.9-5-12.21a12.79,12.79,0,0,1,12-9.43A18.73,18.73,0,0,1,43,19.72c1,.84,1.23,1.56.43,2.65-1.3,1.79-2.56,3.62-3.75,5.49-.67,1.05-1.22.91-2.2.34a42.55,42.55,0,0,0-5.5-2.71,4.43,4.43,0,0,0-2.52-.11A2.23,2.23,0,0,0,28,26.62c-.12.41.38,1.26.84,1.54,1.28.78,2.74,1.28,4,2.06A27.86,27.86,0,0,1,38.44,34c3,3,3,6.92,1.88,10.77A11.85,11.85,0,0,1,28.9,53.69"/><g class="cls-7"><g class="cls-7"><path class="cls-8" d="M143.2,21.46c.62.14,1.21.39,2,.65a8.47,8.47,0,0,0,.09-1.41c-.08-.8.21-1.35.88-1.47s1.24.24,1.43,1.05a3.87,3.87,0,0,1-.63,3.18,1,1,0,0,0-.11,1,16.63,16.63,0,0,1,.71,2.64,2.31,2.31,0,0,0,2.27,2.14c1,.08,1.51.59,1.47,1.4a1.27,1.27,0,0,1-1.61,1.21,29.32,29.32,0,0,1-3.2-.89,15.5,15.5,0,0,1-1.62,1.11,1.33,1.33,0,1,1-1.17-2.36,2,2,0,0,0,1.23-2.1,8,8,0,0,0-.49-2.08,2.37,2.37,0,0,0-1.8-1.51,1.3,1.3,0,0,1-1.08-1.58,1.27,1.27,0,0,1,1.65-1"/><path class="cls-8" d="M142.12,27a1.32,1.32,0,0,1-.36,1.79,5.36,5.36,0,0,0-.71.54c-.8.87-1.44,1.81-1,3.07A2.89,2.89,0,0,0,143,34.16h8.79A2.64,2.64,0,0,0,154.4,32a2.57,2.57,0,0,0-1.19-3.26c-.49-.29-1-.55-1.48-.86a5.07,5.07,0,0,1-2.17-2.66,1.34,1.34,0,0,1,.7-1.75,1.39,1.39,0,0,1,1.78.79,6.65,6.65,0,0,0,.92,1.23.69.69,0,0,0,.59.15,3.21,3.21,0,0,0,2-4.32,2,2,0,0,1-.17-1,1.19,1.19,0,0,1,1.11-1,1.37,1.37,0,0,1,1.47.91,5.73,5.73,0,0,1-1.31,6.54l-.76.65c1.49,2,1.58,3.21.57,6.75h3.73A7.78,7.78,0,0,1,162,30.44a7.19,7.19,0,0,1,3.39-2.06,1.32,1.32,0,1,1,.79,2.52c-.23.09-.47.17-.69.27a4.49,4.49,0,0,0-2.57,3c1.39,0,2.7,0,4,0a2.62,2.62,0,0,0,2.65-1.67,5.49,5.49,0,0,0-.28-5.15,3.13,3.13,0,0,0-3-1.71,6.58,6.58,0,0,0-4.26,1.71,1.38,1.38,0,0,1-2,0,1.34,1.34,0,0,1,.2-2,7.13,7.13,0,0,1,1.62-1.17c1.09-.51,2.23-.9,3.39-1.35a2.9,2.9,0,0,0-2-2.55,7,7,0,0,1-.11.8,1.12,1.12,0,0,1-1.85.65,2.55,2.55,0,0,1-.43-1.26c-.16-.81,0-1.79-.45-2.41-1.61-2.42-5.84-2.9-8-1.16.44,1.2.92,2.34,1.26,3.51a1.32,1.32,0,0,1-1,1.84c-.81.17-1.38-.33-1.6-1.34a4.6,4.6,0,0,0-3.48-3.84A6.9,6.9,0,0,0,138.94,23c-.16,1.11-.48,1.42-1.57,1.48a4.61,4.61,0,0,0-4.3,2.81,6.09,6.09,0,0,0,.25,6.11,1.72,1.72,0,0,0,1.14.69c1.11.09,2.23,0,3.36,0-.19-.73-.4-1.36-.5-2s.16-1.31-.13-1.64-1.08-.34-1.64-.48a1.31,1.31,0,0,1-1.06-1.41,1.21,1.21,0,0,1,1.3-1.16,10.53,10.53,0,0,1,2.31.45.71.71,0,0,0,.88-.2,6.86,6.86,0,0,1,1.39-1.1,1.26,1.26,0,0,1,1.75.45m30.65,3.17a6.52,6.52,0,0,1-2.49,5.63,4.58,4.58,0,0,1-2.9,1H151v0c-5.37,0-10.73,0-16.09,0a4.42,4.42,0,0,1-4.11-2.33c-2.2-3.7-1.11-10.49,4-12.18A3.08,3.08,0,0,0,137,20.2c2.15-5.82,8.33-6.9,12.32-5.34a1.43,1.43,0,0,0,1.32-.09,12.11,12.11,0,0,1,5.11-1.47,8,8,0,0,1,7.13,3.43,2.69,2.69,0,0,0,1.06.83,6.27,6.27,0,0,1,4.14,5,1,1,0,0,0,.42.67c3.09,1.3,4.22,3.82,4.29,7"/><path class="cls-5" d="M142.64,24a2.37,2.37,0,0,1,1.8,1.51,8,8,0,0,1,.49,2.08,2,2,0,0,1-1.23,2.1,1.33,1.33,0,1,0,1.17,2.36A15.6,15.6,0,0,0,146.49,31a29.19,29.19,0,0,0,3.2.89,1.27,1.27,0,0,0,1.61-1.21c0-.81-.49-1.31-1.47-1.4a2.31,2.31,0,0,1-2.27-2.14,16.66,16.66,0,0,0-.71-2.64,1,1,0,0,1,.11-1,3.86,3.86,0,0,0,.63-3.18c-.19-.81-.69-1.19-1.43-1.05s-1,.67-.88,1.47a8.59,8.59,0,0,1-.09,1.41c-.78-.26-1.37-.51-2-.65a1.27,1.27,0,0,0-1.65,1A1.3,1.3,0,0,0,142.64,24m-.87,4.82a1.32,1.32,0,0,0,.36-1.79,1.26,1.26,0,0,0-1.75-.44A6.85,6.85,0,0,0,139,27.71a.71.71,0,0,1-.88.2,10.46,10.46,0,0,0-2.31-.45,1.21,1.21,0,0,0-1.3,1.16A1.31,1.31,0,0,0,135.55,30c.57.14,1.32.12,1.64.48s0,1.09.13,1.64.32,1.28.5,2c-1.13,0-2.25.06-3.36,0a1.73,1.73,0,0,1-1.14-.69,6.09,6.09,0,0,1-.25-6.1,4.61,4.61,0,0,1,4.3-2.81c1.09-.06,1.41-.37,1.57-1.48a6.9,6.9,0,0,1,8.73-5.91A4.6,4.6,0,0,1,151.15,21c.22,1,.79,1.51,1.6,1.34a1.32,1.32,0,0,0,1-1.84c-.35-1.18-.83-2.31-1.27-3.51,2.16-1.74,6.39-1.26,8,1.16.41.62.29,1.6.45,2.41a2.55,2.55,0,0,0,.43,1.26,1.12,1.12,0,0,0,1.85-.65,7.28,7.28,0,0,0,.11-.8,2.9,2.9,0,0,1,2,2.55c-1.15.45-2.3.84-3.39,1.35a7.15,7.15,0,0,0-1.62,1.17,1.34,1.34,0,0,0-.2,2,1.38,1.38,0,0,0,2,0,6.57,6.57,0,0,1,4.26-1.71,3.13,3.13,0,0,1,3,1.71,5.49,5.49,0,0,1,.27,5.15A2.62,2.62,0,0,1,167,34.17c-1.31,0-2.62,0-4,0a4.49,4.49,0,0,1,2.57-3c.23-.1.46-.18.69-.27a1.32,1.32,0,1,0-.79-2.52A7.18,7.18,0,0,0,162,30.44a7.79,7.79,0,0,0-1.85,3.68h-3.73c1-3.54.92-4.71-.57-6.75l.76-.65A5.73,5.73,0,0,0,158,20.18a1.37,1.37,0,0,0-1.47-.91,1.19,1.19,0,0,0-1.11,1,2,2,0,0,0,.17,1,3.22,3.22,0,0,1-2,4.32.69.69,0,0,1-.59-.15,6.53,6.53,0,0,1-.92-1.23,1.39,1.39,0,0,0-1.78-.78,1.34,1.34,0,0,0-.7,1.75,5.06,5.06,0,0,0,2.17,2.66c.48.31,1,.57,1.48.86A2.57,2.57,0,0,1,154.4,32a2.65,2.65,0,0,1-2.64,2.18H143a2.9,2.9,0,0,1-2.88-1.71c-.48-1.26.16-2.2,1-3.07a5.36,5.36,0,0,1,.71-.54"/></g></g><path class="cls-8" d="M171.71,37.84a21.5,21.5,0,0,0,1.22-5.24,51,51,0,0,1-21.07,4.27,62.57,62.57,0,0,1-22.46-4.06,21.39,21.39,0,0,0,1.3,5.3c3.33,1.4,10.15,3.61,21.14,3.61,11.95,0,17.12-2.44,19.86-3.87"/><g class="cls-9"><g class="cls-10"><path class="cls-6" d="M175.92,30.22l0-2.6-2.17,1.33c-.08,0-8.39,5-21.87,5a57.56,57.56,0,0,1-23.39-4.72l-2.1-1.05,0,2.35a24.77,24.77,0,0,0,49.54-.18c0-.05,0-.11,0-.16m-4.21,7.62a21.93,21.93,0,0,1-41,.26l-1.3-5.3a62.57,62.57,0,0,0,22.46,4.06,51,51,0,0,0,21.07-4.27,21.5,21.5,0,0,1-1.22,5.24"/></g></g><g class="cls-11"><g class="cls-12"><path class="cls-6" d="M150.19,53.44c-.22-7.85.16-14.86.35-17.79a1.33,1.33,0,0,1,1.4-1.32l.32,0a1.4,1.4,0,0,1,1.16,1.54c-.19,2.86-.56,9.74-.35,17.45a1.38,1.38,0,0,1-1.23,1.48l-.32,0a1.36,1.36,0,0,1-1.33-1.4"/></g></g><g class="cls-11"><g class="cls-13"><path class="cls-6" d="M167.54,45.94a40.19,40.19,0,0,1-3.68-11.66,1.37,1.37,0,0,1,1.09-1.66l.32,0a1.36,1.36,0,0,1,1.4,1.22,36.9,36.9,0,0,0,3.28,10.48,1.57,1.57,0,0,1-.32,1.93l-.26.21a1.2,1.2,0,0,1-1.83-.48"/></g></g><g class="cls-11"><g class="cls-14"><path class="cls-6" d="M133.29,46.47l-.26-.21a1.61,1.61,0,0,1-.35-1.91,35.39,35.39,0,0,0,3-10.55,1.37,1.37,0,0,1,1.4-1.29l.32,0a1.4,1.4,0,0,1,1.12,1.65A38.68,38.68,0,0,1,135.15,46a1.2,1.2,0,0,1-1.85.51"/></g></g></g></svg>