<svg id="Layer_1" data-name="Layer 1" xmlns="http://www.w3.org/2000/svg" xmlns:xlink="http://www.w3.org/1999/xlink" viewBox="0 0 210.5 66"><defs><style>.cls-1,.cls-3{fill:none;}.cls-2{clip-path:url(#clip-path);}.cls-3{stroke:#fff;stroke-width:0.25px;}.cls-4{clip-path:url(#clip-path-2);}.cls-5{fill:#fff;}.cls-6{font-size:37.76px;}.cls-6,.cls-8{font-family:NexaBold, Nexa Bold;}.cls-7{letter-spacing:-0.04em;}.cls-8{font-size:15.05px;}.cls-9{letter-spacing:0.68em;}.cls-10{letter-spacing:0.65em;}.cls-11{letter-spacing:0.65em;}.cls-12{letter-spacing:0.66em;}.cls-13{letter-spacing:0.65em;}</style><clipPath id="clip-path"><polyline class="cls-1" points="342 -302 342 466 -741 466 -741 -302"/></clipPath><clipPath id="clip-path-2"><rect class="cls-1" x="19.22" y="18.5" width="27.13" height="26.99"/></clipPath></defs><g class="cls-2"><path d="M32.71,9.43A22.83,22.83,0,1,0,55.55,32.26,22.83,22.83,0,0,0,32.71,9.43"/><circle class="cls-3" cx="32.72" cy="32.26" r="22.83"/><g class="cls-4"><g class="cls-4"><path class="cls-5" d="M45.71,18.5h.37L37,36.69l-3.4-1.56,5.46-11.4-.66.12-4.7.89a.52.52,0,0,1-.29,0l-4-1.77-.08-.05.17-.06,13.85-3.69,2.26-.6.08,0"/><path class="cls-5" d="M41.47,28.76l4.88,16.74L27.94,37l1.6-3.38,11.79,5.64c0-.11,0-.18-.06-.25l-1.65-5.82a.58.58,0,0,1,0-.44q.86-1.87,1.7-3.75l.12-.25"/><path class="cls-5" d="M35.14,40.79l.19.1L19.59,45.34l8.26-18,3.27,1.53-5.4,11.64.24,0,5.28-1.32a.5.5,0,0,1,.35,0l3.55,1.63"/><path class="cls-5" d="M19.26,18.74l.09,0L37,26.8l-1.72,3.56L23.85,24.92c0,.11,0,.18.06.25q.83,2.75,1.67,5.5a.53.53,0,0,1,0,.41c-.59,1.25-1.16,2.5-1.75,3.75l-.13.25L19.22,18.77l0,0h0"/></g></g><path class="cls-3" d="M41.47,28.76l4.88,16.74L27.94,37l1.6-3.38,11.79,5.64c0-.11,0-.18-.06-.25l-1.65-5.82a.58.58,0,0,1,0-.44q.86-1.87,1.7-3.75Z"/><path class="cls-3" d="M37,26.8l-1.72,3.56L23.85,24.92c0,.11,0,.18.06.25q.83,2.75,1.67,5.5a.52.52,0,0,1,0,.41c-.59,1.25-1.16,2.5-1.75,3.75l-.13.25L19.22,18.77l0,0h0l.09,0Z"/></g><text class="cls-6" transform="translate(62.2 35.08)">SHEL<tspan class="cls-7" x="98.25" y="0">B</tspan><tspan x="122.49" y="0">Y</tspan></text><text class="cls-8" transform="translate(65.76 52.87)"><tspan class="cls-9">C</tspan><tspan class="cls-10" x="20.13" y="0">OM</tspan><tspan class="cls-11" x="64.45" y="0">P</tspan><tspan class="cls-12" x="84.35" y="0">A</tspan><tspan class="cls-13" x="105.5" y="0">N</tspan><tspan x="125.97" y="0">Y</tspan></text></svg>