<svg id="Layer_1" data-name="Layer 1" xmlns="http://www.w3.org/2000/svg" xmlns:xlink="http://www.w3.org/1999/xlink" viewBox="0 0 89 94"><defs><style>.cls-1{fill:none;}.cls-2{clip-path:url(#clip-path);}.cls-3{fill:#5db0e2;}.cls-4{fill:#ef4e4e;}.cls-5{fill:#fff;}</style><clipPath id="clip-path"><polyline class="cls-1" points="150 -368 150 400 -933 400 -933 -368"/></clipPath></defs><g class="cls-2"><path d="M85,44.34c0,.21,0,.43,0,.64q0-.32,0-.64"/><path d="M3.54,46.83c0,.47,0,.94,0,1.4,0-.47,0-1,0-1.43v0"/><path d="M84.7,41.6v0"/><path d="M85,45.55c0,.37,0,.74,0,1.11q0-.56,0-1.11"/><path d="M3.58,48.39A40.75,40.75,0,0,0,27,83.72v0A40.75,40.75,0,0,1,3.58,48.39"/><path d="M44.29,87.53a40.68,40.68,0,0,1-13.21-2.19v0A40.77,40.77,0,0,0,85,46.83v0A40.75,40.75,0,0,1,44.29,87.53"/><path d="M44.59,39.29a8.49,8.49,0,1,0,8.48,8.48,8.49,8.49,0,0,0-8.48-8.48"/><path d="M18.48,39.28A8.48,8.48,0,1,0,27,47.76a8.49,8.49,0,0,0-8.48-8.48"/><path d="M71.16,56.54a8.48,8.48,0,1,0-8.48-8.48,8.49,8.49,0,0,0,8.48,8.48"/><path d="M44.29,6.08a40.86,40.86,0,0,1,8.78,1V7A40.77,40.77,0,0,0,3.54,46.78v0A40.74,40.74,0,0,1,44.29,6.08"/><path d="M84.71,41.69q.16,1.31.24,2.65-.08-1.34-.24-2.65"/><path d="M85,46.78s0-.08,0-.12,0,.1,0,.14Z"/><path d="M85,45c0,.19,0,.38,0,.57,0-.19,0-.38,0-.57"/><path d="M3.58,48.39c0-.05,0-.11,0-.16Z"/><path d="M84.7,41.6a40.77,40.77,0,0,0-22-31.19v0a40.77,40.77,0,0,1,22,31.15"/><path d="M58.56,8.65v0l-1.37-.49v0l1.37.48"/><path d="M27,83.67V57.06a12.59,12.59,0,1,1,4-10.54h.06V85.34A40.77,40.77,0,0,0,85,46.81s0-.1,0-.14q0-.56,0-1.11,0-.29,0-.57c0-.21,0-.43,0-.64q-.08-1.34-.24-2.65V41.6a40.77,40.77,0,0,0-22-31.15v28.3A12.59,12.59,0,1,1,58.56,48c0-.09,0-.19,0-.28h0V8.65l-1.37-.49v39.6a12.61,12.61,0,1,1-4.11-9.3V7A40.77,40.77,0,0,0,3.55,46.8c0,.48,0,1,0,1.43,0,.05,0,.11,0,.16A40.75,40.75,0,0,0,27,83.67"/><path class="cls-3" d="M53.07,38.47a12.59,12.59,0,1,0,4.11,9.3V8.17A40.34,40.34,0,0,0,53.07,7ZM44.59,56.26a8.48,8.48,0,1,1,8.48-8.48,8.49,8.49,0,0,1-8.48,8.48"/><path class="cls-4" d="M31.08,46.52H31a12.61,12.61,0,1,0-4,10.54V83.72a40.61,40.61,0,0,0,4.11,1.67V46.52Zm-12.6,9.72A8.48,8.48,0,1,1,27,47.76a8.49,8.49,0,0,1-8.48,8.48"/><path class="cls-5" d="M58.56,47.77h0c0,.09,0,.19,0,.28a12.61,12.61,0,1,0,4.1-9.29V10.46a40.18,40.18,0,0,0-4.11-1.8Zm12.6-8.21A8.49,8.49,0,1,1,62.68,48a8.49,8.49,0,0,1,8.48-8.48"/></g></svg>