<svg id="Layer_1" data-name="Layer 1" xmlns="http://www.w3.org/2000/svg" xmlns:xlink="http://www.w3.org/1999/xlink" viewBox="0 0 74 87.57"><defs><style>.cls-1{fill:none;}.cls-2{clip-path:url(#clip-path);}</style><clipPath id="clip-path"><polyline class="cls-1" points="476 -665 476 103 -607 103 -607 -665"/></clipPath></defs><g class="cls-2"><path d="M58.67,18.26a19.84,19.84,0,0,0-3.81-7.36Q49.85,5,42.92,5a17.38,17.38,0,0,0-9.29,2.81,32.42,32.42,0,0,0-5.68,4.62c-.18.24-1.9,1.78-2.14,2l-1.28,1.27V10a4.61,4.61,0,0,0-.07-1.06c-.05-.17-.19-.25-.43-.25q-2.66,1.21-5.16,2.16-1.15.45-4.16,1.51L8.85,14.4v1.66q.9-.2,1.73-.33a9.47,9.47,0,0,1,1.33-.13,3.39,3.39,0,0,1,3.39,2.14q.93,2.14.93,7.11l0,19.68c0,7.43,0,8.88-2.46,10.4-1.87,1.15-2.74,1.18-5.82,1.44V58l11.66,0,.12-33c1.36-1.48,2.72-3,4.11-4.4l1.46-1.43a70.27,70.27,0,0,1,7.14-6.62,8.78,8.78,0,0,1,5.84-1.8,20.32,20.32,0,0,0-2.9,1.5,32.42,32.42,0,0,0-5.68,4.62c-.18.24-1.91,1.78-2.14,2-1.77,1.75-3.43,3.4-4.44,4.43h0c-.7.71-1.41,1.42-2.11,2.19V70.25q0,3.67-1.27,5.38t-6,2v1.66H38.63V77.53q-5.58-.41-7.23-1.56t-1.66-6.23V53.27a14.52,14.52,0,0,0,5.93,3.87,15.08,15.08,0,0,0,4.87.7q9.09,0,15.1-8.18a30.07,30.07,0,0,0,6-18.22,26.74,26.74,0,0,0-3-13.18M49,49q-3.84,5.39-9.27,5.39a11,11,0,0,1-6.1-1.68,10.17,10.17,0,0,1-3.89-5.09V22.36q0-2.21,3.07-4.49a11.09,11.09,0,0,1,6.78-2.28,12,12,0,0,1,9.27,4.57q4,4.57,4,13.8,0,9.64-3.84,15"/></g></svg>