<svg id="Layer_1" data-name="Layer 1" xmlns="http://www.w3.org/2000/svg" xmlns:xlink="http://www.w3.org/1999/xlink" viewBox="0 0 168 118"><defs><style>.cls-1{fill:none;}.cls-2{opacity:0.51;}.cls-3{clip-path:url(#clip-path);}.cls-4{fill:#ff001f;}</style><clipPath id="clip-path"><rect id="SVGID" class="cls-1" x="147.18" y="8" width="8.82" height="102"/></clipPath></defs><path d="M79,8h0Z"/><path d="M66,28H8V40.76H56.86a45.3,45.3,0,0,1-3.49-11Z"/><path d="M66.42,27.88v0L66,28h.49l0-.12"/><path d="M66.44,28H66L53.37,29.76a45.36,45.36,0,0,0,3.49,11H71.68A41.8,41.8,0,0,1,66.44,28"/><path d="M93.9,83.72a91,91,0,0,1-28.48-21C52.22,48.15,48.93,34,48.9,33.81l-6.44,1.41L36,36.61c.15.69,3.84,17.2,19.06,34.36a103.78,103.78,0,0,0,32.6,24.38C103.23,102.9,121.5,107.47,142,109V96.15A135.31,135.31,0,0,1,93.9,83.72"/><path d="M33.1,21.19H80.54a3.65,3.65,0,0,1,3.85,3.4A3.65,3.65,0,0,1,80.54,28H66.44a41.8,41.8,0,0,0,5.24,12.76h6.93c10.1,0,18.29-7.24,18.29-16.17S91.8,8,78.62,8H33.1Z"/><path d="M129.24,8V76.2a119.7,119.7,0,0,1-17.8-4.87c-10.87-3.95-20-9.35-27.28-16.06A58.3,58.3,0,0,1,75.34,45l-14.8,0a70.77,70.77,0,0,0,13.83,19.2c8.49,8.1,19.18,14.59,31.79,19.27a146.15,146.15,0,0,0,35.84,8V8Z"/><path d="M110.95,36.5V65.19l.49.18a113.53,113.53,0,0,0,11.85,3.55V8h-.53Z"/><polygon points="110.95 8 110.95 36.5 122.75 8 110.95 8"/><path d="M82.87,45h0C98.61,43.73,105,36.5,105.42,8h17.44l-5.39.43c0,28.07-2.27,41.26-25.24,45.94h0S85.85,51,82.87,45"/><g class="cls-2"><g class="cls-3"><rect class="cls-4" x="147.18" y="8" width="8.82" height="102"/></g></g></svg>