<svg id="Layer_1" data-name="Layer 1" xmlns="http://www.w3.org/2000/svg" viewBox="0 0 201.5 164"><defs><style>.cls-1{fill:#fff;}.cls-2,.cls-5,.cls-7,.cls-8{fill:#010101;}.cls-3{fill:#a1a1a4;}.cls-4{fill:#22222d;}.cls-5,.cls-7{font-size:19.02px;}.cls-5,.cls-7,.cls-8{font-family:Intro, Intro ;}.cls-5{letter-spacing:0.8em;}.cls-6{letter-spacing:0em;}.cls-8{font-size:64.16px;}</style></defs><polygon class="cls-1" points="64.51 28.7 80.5 12.65 134.86 65.49 118.45 81.65 64.51 28.7"/><polygon class="cls-2" points="87.57 51.2 47.71 11.04 12.24 46.78 12.24 80.03 49.05 43.77 87.32 80.96 87.45 81.35 87.58 81.22 87.83 81.48 87.58 81.22 87.83 81.48 127.56 43.64 160.23 77.03 193.12 76.72 127.56 10.91 87.57 51.2"/><polygon class="cls-1" points="12.24 80.03 43.43 80.36 96.31 28.38 80.3 12.03 12.24 80.03"/><polyline class="cls-1" points="103.38 66.67 162.15 10.91 193.12 41.43 193.12 76.72 159.91 44.21 118.45 81.65"/><polygon class="cls-3" points="144.37 27.78 118.45 81.65 103.38 66.67 144.37 27.78"/><polygon class="cls-3" points="12.24 80.03 43.43 80.36 80.25 44.16 12.24 80.03"/><path class="cls-3" d="M87.57,51.2C88.26,51.57,80.3,12,80.3,12l23.08,22.85Z"/><polygon class="cls-3" points="159.91 44.21 162.15 10.91 193.12 76.72 159.91 44.21"/><path class="cls-4" d="M12.24,80,64.33,27.78Z"/><polyline class="cls-4" points="193.12 76.72 143.03 59.45 159.91 44.21 193.08 75.62"/><polygon class="cls-4" points="144.37 27.78 127.56 10.91 87.82 81.48 144.37 27.78"/><polygon class="cls-4" points="87.82 81.48 80.25 44.16 65.04 59.31 87.82 81.48"/><text class="cls-5" transform="translate(13.05 157.26) scale(1 1.13)">M<tspan class="cls-6" x="31.57" y="0">E</tspan></text><text class="cls-7" transform="translate(71.25 157.26) scale(1 1.13)">T</text><text class="cls-7" transform="translate(97.14 157.26) scale(1 1.13)">Z</text><text class="cls-7" transform="translate(123.98 157.26) scale(1 1.13)">G</text><text class="cls-7" transform="translate(154.2 157.26) scale(1 1.13)">E</text><text class="cls-7" transform="translate(180.83 157.26) scale(1 1.13)">R</text><text class="cls-8" transform="translate(7.66 135.53) scale(1.04 1)">MYKE</text></svg>