<svg id="Layer_1" data-name="Layer 1" xmlns="http://www.w3.org/2000/svg" xmlns:xlink="http://www.w3.org/1999/xlink" viewBox="0 0 116 108"><defs><style>.cls-1{fill:none;}.cls-2{clip-path:url(#clip-path);}.cls-3{clip-path:url(#clip-path-2);}.cls-4{fill:#231f20;}.cls-5{fill:#fce8ef;}.cls-6{fill:#ec1c2a;}</style><clipPath id="clip-path"><polyline class="cls-1" points="1074 -660 1074 108 -9 108 -9 -660"/></clipPath><clipPath id="clip-path-2"><rect class="cls-1" x="7.25" y="4" width="102.41" height="100.91"/></clipPath></defs><g class="cls-2"><g class="cls-3"><g class="cls-3"><path class="cls-4" d="M95,4.76l.15.15-.8.75-.13-.13Z"/><path class="cls-4" d="M75.08,20.9A75.27,75.27,0,0,0,64.89,28l0-.17c0-.08,0-.16,0-.24l0-.07V27.5c0-.08,0-.16,0-.25a2.6,2.6,0,0,0,0-.76,83.57,83.57,0,0,1,9.52-6.55l2-1.25.87-.64.9-.66A138.85,138.85,0,0,0,94.32,4l.72.76-.78.78.13.13A137.6,137.6,0,0,1,78.9,18.31L78,19l-.9.66,0,0-2,1.26"/><path class="cls-4" d="M65,26.49a2.61,2.61,0,0,1,0,.76c0,.09,0,.17,0,.25v.07l0,.07c0,.07,0,.15,0,.24l0,.17a31.1,31.1,0,0,0-3.56,3.68,18.2,18.2,0,0,1-2.44.64c.36-.27.73-.53,1.11-.78q.32-.42.66-.82l.66-.22h0a3.26,3.26,0,0,0,1.55-1.44,10.65,10.65,0,0,1,.72-.93l0,0a.92.92,0,0,0,.16-.47c0-.07,0-.14,0-.21q.54-.49,1.11-1"/><path class="cls-4" d="M64.89,28a1.68,1.68,0,0,1-.43.87,9.85,9.85,0,0,0-.64.83A4.24,4.24,0,0,1,61.7,31.6l-.37.13A31,31,0,0,1,64.89,28"/><path class="cls-4" d="M64.76,57.95l-.09.25-1.06-.38.11-.3,1,.43"/><path class="cls-4" d="M64.68,49.79a7,7,0,0,1-1.84,1h0l-.41.14a7.56,7.56,0,0,1-2.72.32l.21-.14A11.32,11.32,0,0,1,62,49.93l.5-.17a4.11,4.11,0,0,1,.78-.15,6.12,6.12,0,0,1,1.52,0l-.09.09Z"/><path class="cls-5" d="M63.86,27.45c0,.07,0,.14,0,.21a.91.91,0,0,1-.16.47l0,0a10.65,10.65,0,0,0-.72.93,3.26,3.26,0,0,1-1.55,1.44h0l-.66.22a31.93,31.93,0,0,1,3.19-3.31"/><path class="cls-5" d="M63.72,57.52a28.24,28.24,0,0,0-3.47-1.13l-.07,0h-.46a7.91,7.91,0,0,0-1.34-.2l-.56-.06a.66.66,0,0,1-.08-.19l0-.07,0-.06a5.42,5.42,0,0,0-.82-1c1.05-.86,2.42-1.85,3.44-2.54l.26-.18A10.43,10.43,0,0,1,62.43,51l.41-.14h0a3.12,3.12,0,0,1,.56-.1c.88-.07,2,0,2.46.71.35.56.06,1.21-.41,2.13l-.23.45c-.63,1.31-1.11,2.43-1.5,3.5"/><path class="cls-4" d="M65.86,51.44c-.45-.73-1.59-.79-2.46-.71a3.12,3.12,0,0,0-.56.1,7,7,0,0,0,1.84-1l0,0,.09-.09a2.75,2.75,0,0,1,2,1.2c.71,1.15.08,2.36-.37,3.24l-.21.42c-.62,1.29-1.09,2.39-1.48,3.44l-1-.43c.39-1.06.88-2.19,1.5-3.5l.23-.45c.48-.92.76-1.57.41-2.13"/><path class="cls-4" d="M62.43,51l.41-.14-.41.14"/><path class="cls-4" d="M62.52,49.76l-.5.17.5-.17"/><path class="cls-4" d="M62.43,51a10.43,10.43,0,0,0-1.87,1.11l-.26.18c-1,.69-2.38,1.68-3.44,2.54a8.39,8.39,0,0,0-.88-.73c1.11-.92,2.59-2,3.69-2.74l0,0A7.54,7.54,0,0,0,62.43,51"/><path class="cls-4" d="M60.35,65.95l.64.92-.22.17-1.15-.42a3.68,3.68,0,0,1,.72-.68"/><path class="cls-4" d="M60.77,67a5.67,5.67,0,0,0-.64.76L60,68a10.1,10.1,0,0,1-1.82,1.75l-.49.4c-.65.55-1.23,1.06-1.76,1.56l-.22,0-1.15-.2c.7-.69,1.49-1.41,2.4-2.18l.5-.41a9.16,9.16,0,0,0,1.63-1.55l.13-.17c.13-.17.26-.34.39-.51l1.15.42"/><path class="cls-6" d="M59.71,51.3l0,0c-1.09.74-2.58,1.82-3.68,2.74-.38-.27-.77-.52-1.16-.77a.77.77,0,0,0-.47-.15,7.49,7.49,0,0,0-2.08-.85c.93-.44,1.82-1,2.62-1.43L56,50.22a9.27,9.27,0,0,0,2.78,1,8.65,8.65,0,0,0,.94.11"/><path class="cls-4" d="M56,54.07a8.52,8.52,0,0,1,.88.73l-.49.42-.74-.85.35-.3"/><path class="cls-4" d="M55.73,49.09l.53,1-.26.14a9.32,9.32,0,0,1-1.09-.67l.83-.46"/><path class="cls-4" d="M54.91,49.55a9.41,9.41,0,0,0,1.09.68l-1.11.63c-.8.47-1.69,1-2.62,1.43a6.88,6.88,0,0,0-3-.07v-.06a17.7,17.7,0,0,0,5-2.27l.59-.34"/><path class="cls-5" d="M106,18.05l.82.84c.41.43.81.84,1.22,1.23-.61.66-1.27,1.29-2,1.94s-1.33,1.27-2,1.95l0,0a22.18,22.18,0,0,0-4.22,8.14,154.62,154.62,0,0,0-6.11,18c-.77,2.64-1.57,5.37-2.43,8.06-.46,1.44-1,2.85-1.56,4.22-.23.57-.46,1.17-.68,1.74a65.53,65.53,0,0,0-2.28,7.25c-.5,1.84-1,3.75-1.67,5.62-.28.8-.64,1.56-1,2.36-.22.47-.45,1-.66,1.46h0a16.59,16.59,0,0,0-.6,1.94c-.08.29-.16.58-.24.88l-.26.51-.13.12-.19.16a1.11,1.11,0,0,1-1.51-.33L80.44,84a1.57,1.57,0,0,1-.27-.7v-.06c-.43-4,.77-8,1.93-11.89l.07-.25a1.16,1.16,0,0,0,.16-.54L83,65l-1.78,5.28a4.1,4.1,0,0,0-.14.41l-.07.1a2.62,2.62,0,0,0-.24.37l0,.06v.06a5.88,5.88,0,0,1-.5,1.22c-.1.21-.21.42-.31.64-1,1.79-1.8,3.54-2.68,5.4l-.67,1.41-.5.75-.1.06a1.5,1.5,0,0,0-.43.29,1,1,0,0,0-.19.27l-1.14.79L73,82.9l-3,1.77-3,1.77-.76.36-.81.38,0,0A31,31,0,0,1,61,89.32l-.68.28,0,0,0,0a3.35,3.35,0,0,1-.36.2,4.31,4.31,0,0,0-.44.24h-.06c-.52-.24-1.73-.9-1.73-2,.09-2.56,2.8-3.82,5.15-4.63A3.46,3.46,0,0,0,64,82.63l.36-.31,0,0a13.08,13.08,0,0,1,1.71-1.44l0,0,0,0a1.75,1.75,0,0,0,.21-.27l.07-.09c.23-.2.47-.4.73-.6a12.06,12.06,0,0,0,1.52-1.37c.43-.36.86-.69,1.28-1l.42-.32.22-.17,2.15-1.84L70.14,76c-.9.29-1.79.61-2.65.91a39.67,39.67,0,0,1-7,2,9.86,9.86,0,0,1-1.59.18,44.59,44.59,0,0,1-8.6-1.2l-.08,0h-.08a10.27,10.27,0,0,1-4.64-.71,1.81,1.81,0,0,1-.84-.78.81.81,0,0,1,0-.45c0-.09,0-.2,0-.31a1.27,1.27,0,0,1,.12-.39,7.83,7.83,0,0,1,2.54-2.52,1.33,1.33,0,0,1,.46-.12l.37-.07a10,10,0,0,1,2.08-.09h.71l.76,0a7.64,7.64,0,0,1,1.33,0h0a19.66,19.66,0,0,1,2.45.35c.58.11,1.19.22,1.82.3h.13l.13,0a34.45,34.45,0,0,1,9.67-1.84,2.37,2.37,0,0,0,1.23-.38l.09-.06.06-.09a.93.93,0,0,1,.23-.21,2.39,2.39,0,0,0,.37-.33c.4-.32.82-.62,1.23-.91s.71-.51,1.06-.78l2-1.46-.1,0,0,0-2.37.48a9.53,9.53,0,0,1-4.8,0h0a5.6,5.6,0,0,0-.85-.19,4.24,4.24,0,0,1-.88-.22.88.88,0,0,0-.61-.28,4.11,4.11,0,0,1-1.05-.16l-1.55-.56-.93-.34a61.82,61.82,0,0,1-5.77-2.35,8,8,0,0,1-2.34-2.18c-1-1.48-2-2.68-3.11-3.94-.48-.57-1-1.16-1.48-1.77a2.92,2.92,0,0,1-.36-.77V54.5a.89.89,0,0,1,.18-.32,5.19,5.19,0,0,1,2-.85,6,6,0,0,1,4.29.79.78.78,0,0,0,.46.15,7.71,7.71,0,0,1,2.45,2.07,1.24,1.24,0,0,0,.8.85l0,0h0l.68.08a6.63,6.63,0,0,1,1.21.19l.08,0H60a35.77,35.77,0,0,1,6.12,2.29l.18.08.19-.05a54.91,54.91,0,0,0,8.33-3h0a1.43,1.43,0,0,0,.38-.29l.07-.07.1,0a3.38,3.38,0,0,0,.91-.39,9.46,9.46,0,0,0,3.47-3.68v0a8.08,8.08,0,0,0,.49-2.08l0-.16v0a8.34,8.34,0,0,0-.2-1.61v0a10.34,10.34,0,0,0-1.29-2.72l-.08-.14v0a6.82,6.82,0,0,0-.79-.94c-.16-.17-.32-.33-.45-.5l0,0a6.77,6.77,0,0,0-.66-.56,6.29,6.29,0,0,1-.56-.47l0,0-2-1.43,0,0c-1.6-1-3.2-1.88-5.14-1.68h0a14,14,0,0,0-8.09,3.79l.79.8,0,0-.22-.19a16.83,16.83,0,0,1-1.81-1.77,17.8,17.8,0,0,0-1.94-1.89A5.4,5.4,0,0,0,56,39.72a29.87,29.87,0,0,0-4.11-1.18c.69-1.25,2-1.88,3.38-2.54.52-.25,1.05-.5,1.56-.79h0A24.92,24.92,0,0,0,59,33.67c.56-.43,1.1-.83,1.67-1.2l.08-.05.06-.08.49-.62.37-.13a4.23,4.23,0,0,0,2.12-1.85,9.65,9.65,0,0,1,.64-.83,1.68,1.68,0,0,0,.43-.87,75.25,75.25,0,0,1,10.2-7.15l2-1.26,0,0,.9-.67.87-.64A137.69,137.69,0,0,0,94.39,5.66c.47.48.91,1,1.38,1.52S96.82,8.38,97.41,9c2.2,2.2,4.22,4.37,6.35,6.66L106,18Z"/><path class="cls-4" d="M55.71,71.65l.22,0-.6.58-.79-.8,0,0,1.15.2"/><path class="cls-4" d="M57.7,25.56c-2.41,0-4.9,0-7.37.25h0c-3,.22-5.62,1.49-8.41,2.84-.64.31-1.31.63-2,.94l-.54.3a5.28,5.28,0,0,0-.69.4l0,0L34.95,33l3-3.48c1-1.15,2-2.24,3-3.3.65-.69,1.32-1.41,2-2.15A13.58,13.58,0,0,1,44,22.81c.24-.25.47-.49.69-.74l.07-.09.1-.05c2.85-1.43,4.25-2.92,4.38-4.69v-.05a1.68,1.68,0,0,0-.35-1.24h0a2.38,2.38,0,0,0-.83-.68l-.5-.25a1.4,1.4,0,0,0-.76.15c-.59.36-1.15.74-1.69,1.1S44,17,43.36,17.38c-1.4,1-2.68,1.87-4.16,3-.15.14-.31.29-.47.42s-.31.27-.44.39a1,1,0,0,1-.41.23h0c-.7.62-1.41,1.18-2.15,1.78l-.46.37c-.71.6-1.34,1.22-2,1.82-.41.41-.84.83-1.29,1.24a1.83,1.83,0,0,0-.26.53c-.05.13-.1.26-.17.4-.65,2.19-1.35,4.34-2,6.41-.39,1.2-.79,2.44-1.18,3.67l-.75,2.9-.35-3a2.82,2.82,0,0,1,.07-.91,2.44,2.44,0,0,0,.06-.47V36l.14-1a35.56,35.56,0,0,0,.51-9,5.62,5.62,0,0,0-.51-1.69l-.27-.54a1.07,1.07,0,0,0-.82-.55H25.9a1.55,1.55,0,0,0-.41.26A3.86,3.86,0,0,0,25,24.69a21.59,21.59,0,0,1-1.42,6c-.65,4-1.21,8-1.67,12v.08a81.45,81.45,0,0,0-2.42,11.64,195.88,195.88,0,0,1-4.23,23.31,32.79,32.79,0,0,1-1.14,4.37h0c-.19.53-.41,1-.62,1.53s-.42,1-.6,1.47l0,.06c-.1.2-.2.38-.3.54s-.18.31-.27.49l0,0A21.68,21.68,0,0,1,10.24,89c-.54.64-1.05,1.25-1.51,1.91,5.57,4.59,11.15,8.92,15.91,12.61-.34.67-.45,1.15-.24,1.37-5-3.84-10.91-8.6-16.77-13.44l-.38-.32.27-.42a22.49,22.49,0,0,1,1.87-2.44,20.75,20.75,0,0,0,2-2.59c.1-.19.19-.36.28-.52s.17-.3.25-.46c.19-.52.4-1,.61-1.5s.41-1,.59-1.46a31.86,31.86,0,0,0,1.1-4.23v0A195.1,195.1,0,0,0,18.4,54.24a82.17,82.17,0,0,1,2.44-11.75c.47-4,1-8.07,1.69-12.08v-.07l0-.07a20.52,20.52,0,0,0,1.36-5.75v0a5,5,0,0,1,.63-1.59l0-.06,0,0a2.61,2.61,0,0,1,1-.61l.09,0h.75a2.14,2.14,0,0,1,1.79,1.12l0,0,.28.56a6.8,6.8,0,0,1,.62,2v0a27.06,27.06,0,0,1-.06,5.69c.47-1.47.95-3,1.4-4.48v0l0,0c.05-.1.1-.22.15-.35a2.51,2.51,0,0,1,.52-.92l0,0c.44-.41.87-.82,1.28-1.23.63-.61,1.27-1.25,2-1.88h0l.47-.37c.74-.59,1.44-1.15,2.13-1.76a1,1,0,0,1,.39-.22h0c.14-.14.3-.27.45-.4s.31-.27.44-.39l0,0,0,0c1.51-1.1,2.81-2,4.23-3l0,0c.6-.37,1.17-.75,1.72-1.11s1.13-.76,1.75-1.14l0,0a2.42,2.42,0,0,1,1.61-.23l.06,0,.62.31a3.46,3.46,0,0,1,1.22,1,2.78,2.78,0,0,1,.58,2.1c-.22,2.84-2.87,4.52-4.89,5.54-.21.24-.44.48-.66.7a12,12,0,0,0-1,1.15l0,0c-.67.75-1.36,1.48-2,2.18l-.9,1,.57-.28c2.75-1.33,5.6-2.72,8.81-3,2.52-.25,5-.25,7.48-.25,1.21,0,2.47,0,3.71,0h0a4.46,4.46,0,0,1,3,1.08l0,0a2.31,2.31,0,0,1,.39.62,1.6,1.6,0,0,1,.13.37q-.56.47-1.11,1v0c0-.08,0-.17,0-.25a1.09,1.09,0,0,0,0-.56,3,3,0,0,0-.17-.32,3.38,3.38,0,0,0-2.22-.78c-1.25,0-2.51,0-3.73,0"/><path class="cls-4" d="M50.82,60.34l.88.7-.26.33-.2.26c-.23-.33-.46-.64-.69-.94h0l.26-.34"/><path class="cls-4" d="M51.88,38.54l-1.12-.24h0c.82-1.77,2.45-2.55,4-3.31.5-.24,1-.48,1.48-.75a23.76,23.76,0,0,0,2.08-1.46l.54-.41a18.35,18.35,0,0,0,2.44-.64l-.49.62-.06.08-.08.05c-.57.37-1.11.77-1.67,1.2a25.13,25.13,0,0,1-2.19,1.53h0c-.51.29-1,.55-1.56.79-1.38.66-2.7,1.29-3.38,2.54"/><path class="cls-4" d="M50.76,38.3l1.12.24-.11.22Z"/><path class="cls-4" d="M53.79,54.12a6,6,0,0,0-4.29-.79v-.06a11.79,11.79,0,0,0,2.78-1,7.52,7.52,0,0,1,2.08.85.78.78,0,0,1,.48.16c.39.25.78.5,1.16.77l-.35.3.74.85.49-.42a5.46,5.46,0,0,1,.82,1l0,.06,0,.07a.66.66,0,0,0,.08.19l.56.06a7.94,7.94,0,0,1,1.34.21h.46l.07,0a28.35,28.35,0,0,1,3.47,1.13l-.11.3,1.06.38.09-.25,1.68.74a54.35,54.35,0,0,0,8-2.91l.09-.08a1.45,1.45,0,0,1,.38-.29l0,0h0l.18-.06a2.58,2.58,0,0,0,.62-.25,8.32,8.32,0,0,0,3.08-3.24,7.33,7.33,0,0,0,.4-1.78V50a7.76,7.76,0,0,0-.17-1.33,9.4,9.4,0,0,0-1.16-2.42l-.08-.13a5.7,5.7,0,0,0-.67-.78c-.17-.17-.34-.35-.5-.55a6.05,6.05,0,0,0-.54-.45,7.34,7.34,0,0,1-.63-.53l-1.92-1.37c-1.47-.92-2.82-1.67-4.4-1.5a12.89,12.89,0,0,0-7.44,3.47l-.79-.8A14,14,0,0,1,69,39.79h0c1.94-.21,3.54.68,5.14,1.68l0,0,2,1.43,0,0a6.28,6.28,0,0,0,.56.47,6.77,6.77,0,0,1,.66.56l0,0c.13.17.29.33.45.5a6.89,6.89,0,0,1,.79.95v0l.08.14a10.34,10.34,0,0,1,1.29,2.72v0a8.35,8.35,0,0,1,.2,1.61v0l0,.16a8.14,8.14,0,0,1-.49,2.08v0A9.47,9.47,0,0,1,76.36,56a3.39,3.39,0,0,1-.91.39l-.1,0-.07.07a1.45,1.45,0,0,1-.38.29h0a54.86,54.86,0,0,1-8.33,3l-.19.05-.18-.08A35.75,35.75,0,0,0,60,57.5h-.48l-.08,0a6.73,6.73,0,0,0-1.21-.19l-.68-.08h-.05l0,0a1.24,1.24,0,0,1-.8-.85,7.73,7.73,0,0,0-2.45-2.08.77.77,0,0,1-.46-.15"/><path class="cls-4" d="M47.68,37.64c.8.19,1.6.35,2.37.51l.71.15,1,.46.11-.22A29.87,29.87,0,0,1,56,39.72a5.41,5.41,0,0,1,1.76.84,17.8,17.8,0,0,1,1.94,1.89,16.74,16.74,0,0,0,1.81,1.77l.22.18.21.18a6.13,6.13,0,0,0,.82.63l.06,0,0,0a.94.94,0,0,1,.18.25,3,3,0,0,1,.52.41,2,2,0,0,0,.24.21l0,0,0,0a3.11,3.11,0,0,1,.21.24l.12.13.11.06.08.09a3.83,3.83,0,0,1,.86,1.76v.09a1.66,1.66,0,0,1-.45,1.06,6.12,6.12,0,0,0-1.52,0,4.11,4.11,0,0,0-.79.15A5.83,5.83,0,0,0,64,48.93a.73.73,0,0,0,.19-.3,2.63,2.63,0,0,0-.56-1.1,1.69,1.69,0,0,1-.35-.35l-.11-.12a3.09,3.09,0,0,1-.33-.28,1.76,1.76,0,0,0-.4-.31l-.08,0-.07-.06a1,1,0,0,1-.19-.26,7.77,7.77,0,0,1-.86-.67l-.41-.34a17.8,17.8,0,0,1-1.94-1.89A16.83,16.83,0,0,0,57,41.44a4.49,4.49,0,0,0-1.42-.66h0a37,37,0,0,0-5.78-1.52c-.77-.16-1.58-.33-2.38-.51l-.51-.07a6,6,0,0,1-1.19-.22,15.56,15.56,0,0,0-3.42-.27,3.67,3.67,0,0,1-1,.1,15.09,15.09,0,0,0-2.19.57l-.27.1-2.93,1.36.52-.51-.05,0L38.25,38l0,0c.4-.39.8-.8,1.19-1.19l1-1,0,0a2.93,2.93,0,0,0,.25-.24,3,3,0,0,1,.52-.47l.06,0,.06,0a34.57,34.57,0,0,1,3.41-1,25,25,0,0,0,4.61-1.46c.34-.15.65-.33,1-.51a8.75,8.75,0,0,1,1.51-.73l.13,0,.13,0a18.87,18.87,0,0,0,8.53-.59l-.66.82c-.38.25-.75.52-1.12.79a20.69,20.69,0,0,1-6.78.12,8.76,8.76,0,0,0-1.2.6c-.34.19-.69.39-1.07.56A25.84,25.84,0,0,1,45,35.16c-1.12.28-2.18.54-3.22.9a2.47,2.47,0,0,0-.28.27,4.14,4.14,0,0,1-.33.32l-.63.63.58-.12h.11a2.79,2.79,0,0,0,.76-.07l.07,0h.07a16.6,16.6,0,0,1,3.78.29H46a4.77,4.77,0,0,0,1,.18l.59.08Z"/><path class="cls-4" d="M49.38,78.15l1,.48a2.12,2.12,0,0,1-.21.35h-.06a13.59,13.59,0,0,1-1.43,0l.29-.32a2.25,2.25,0,0,0,.4-.5"/><path class="cls-4" d="M48.25,53.39a4.88,4.88,0,0,1-1.3-.17,6.27,6.27,0,0,1,2.36-1,6.88,6.88,0,0,1,3,.07,11.8,11.8,0,0,1-2.78,1,6.52,6.52,0,0,1-1.24.13"/><path class="cls-5" d="M47.73,47.86c1,.21,2,.33,3.06.46l.72.09h.54a5.57,5.57,0,0,0,1.47-.08,9.26,9.26,0,0,0,1.39,1.21l-.58.34a17.69,17.69,0,0,1-5,2.27,3.93,3.93,0,0,1-3-.44c-.49-.51-.67-1,.83-3,.22-.29.43-.57.6-.83Z"/><path class="cls-4" d="M46.32,51.72a3.94,3.94,0,0,0,3,.44v.06a6.27,6.27,0,0,0-2.36,1,4.46,4.46,0,0,1-1.3-.6l0,0,0,0C44,51,45.35,49.21,46.25,48l.33-.45c.38.11.76.2,1.15.28h0c-.17.27-.38.54-.6.83-1.5,2-1.32,2.51-.83,3"/><path class="cls-4" d="M46.8,47.26l.93.6c-.39-.08-.77-.17-1.15-.28l.22-.32"/><path class="cls-4" d="M47.72,55.48c.5.62,1,1.21,1.48,1.77,1.07,1.26,2.08,2.46,3.11,3.94a8,8,0,0,0,2.34,2.18,62,62,0,0,0,5.77,2.35l-.08.22a3.67,3.67,0,0,0-.72.68c-1.83-.67-3.68-1.38-5.47-2.24h0a9.12,9.12,0,0,1-2.7-2.49l0,0-.16-.23.2-.26L51.7,61l-.88-.7-.26.34h0c-.72-.95-1.45-1.81-2.21-2.71-.49-.58-1-1.18-1.51-1.81l0,0a4,4,0,0,1-.55-1.21l0-.07v-.53l0-.09a2.06,2.06,0,0,1,.51-.88l0,0,0,0,.1-.07a4.88,4.88,0,0,0,1.3.17,6.52,6.52,0,0,0,1.24-.12v.06a5.17,5.17,0,0,0-2,.85.87.87,0,0,0-.18.32v.21a2.89,2.89,0,0,0,.36.77"/><path class="cls-4" d="M48.36,64.33A8.35,8.35,0,0,1,44.48,66l-.35.09h0a5.11,5.11,0,0,1-1.78,0,10.54,10.54,0,0,1-1.68-.4h0l0,0a5.36,5.36,0,0,0-1-.43h-.07A15.11,15.11,0,0,1,37.19,64l-.52-.31,0,0c-.58-.39-1.07-.78-1.54-1.15l0,0a13.2,13.2,0,0,1-1.56-1.76l0,0-.17-.29a7.94,7.94,0,0,1-1.21-2.71v-.05a6.61,6.61,0,0,1,.41-3.17v0c1.71-3.67,5.29-5.41,8.75-7.09.7-.34,1.42-.69,2.1-1l.05,0,.3-.12a5.72,5.72,0,0,1,1.11-.37l.19,0,.17.09a17.44,17.44,0,0,0,5.75,1.36l.69.08h.48a4.19,4.19,0,0,0,1.3-.08l.08,0h.08a.9.9,0,0,1,.68.26l0,0A7.93,7.93,0,0,0,62,49.93a11.29,11.29,0,0,0-2.1,1.23l-.21.14a8.41,8.41,0,0,1-.93-.11,9.27,9.27,0,0,1-2.78-1l.26-.14-.53-1-.83.46a9.43,9.43,0,0,1-1.39-1.21,5.61,5.61,0,0,1-1.47.08h-.54l-.72-.09c-1-.12-2-.25-3.06-.46l-.93-.6-.22.32a11.23,11.23,0,0,1-1.72-.64,6.25,6.25,0,0,0-.72.27l-.29.12c-.69.36-1.41.71-2.1,1-3.28,1.6-6.67,3.25-8.21,6.54a5.53,5.53,0,0,0-.33,2.61,7.07,7.07,0,0,0,1.06,2.31l.16.27a12.13,12.13,0,0,0,1.41,1.58c.46.37.9.72,1.42,1.07l.52.31a14.66,14.66,0,0,0,2.08,1.13,6.25,6.25,0,0,1,1.17.48,9.26,9.26,0,0,0,1.47.34,4,4,0,0,0,1.39,0l.34-.08a7.37,7.37,0,0,0,3.42-1.46,1,1,0,0,1,.47-.24l.12,0a12.18,12.18,0,0,0,2.33-2.51c.23.3.46.62.69.94a11.22,11.22,0,0,1-2.47,2.54l0,0a1.88,1.88,0,0,1-.34.12h0"/><path class="cls-5" d="M36.95,89.44c-4.47,4.2-10.77,11-12.3,14-4.76-3.69-10.34-8-15.91-12.61.45-.65,1-1.27,1.5-1.91a21.59,21.59,0,0,0,2.07-2.76l0,0c.09-.17.17-.33.27-.49s.2-.34.3-.54l0-.06c.18-.5.39-1,.6-1.47s.43-1,.62-1.53h0a32.94,32.94,0,0,0,1.14-4.37,195.92,195.92,0,0,0,4.23-23.31,81.45,81.45,0,0,1,2.42-11.64v-.08c.46-4,1-8,1.67-12a21.59,21.59,0,0,0,1.42-6,3.88,3.88,0,0,1,.45-1.15,1.55,1.55,0,0,1,.41-.26h.56a1.07,1.07,0,0,1,.82.55l.27.54a5.62,5.62,0,0,1,.51,1.69,35.56,35.56,0,0,1-.51,9l-.14,1v.08a2.51,2.51,0,0,1-.06.47,2.82,2.82,0,0,0-.07.91l.35,3,.75-2.9c.39-1.23.79-2.47,1.19-3.67.68-2.08,1.37-4.22,2-6.41.06-.13.12-.27.17-.4a1.8,1.8,0,0,1,.26-.53c.45-.42.88-.84,1.29-1.24.61-.6,1.24-1.22,2-1.82l.46-.37c.74-.59,1.45-1.15,2.15-1.78h0a1,1,0,0,0,.41-.23c.13-.12.28-.25.44-.39s.32-.28.47-.42c1.48-1.08,2.76-2,4.16-3,.61-.38,1.19-.76,1.74-1.13s1.1-.73,1.69-1.1a1.4,1.4,0,0,1,.76-.15l.5.25a2.38,2.38,0,0,1,.83.68h0a1.68,1.68,0,0,1,.35,1.24v.05c-.13,1.77-1.52,3.27-4.38,4.69l-.1.05-.07.09c-.21.25-.44.49-.69.74A13.58,13.58,0,0,0,42.9,24c-.66.74-1.33,1.45-2,2.15-1,1.06-2,2.15-3,3.3l-3,3.48,3.72-2.66,0,0a5.33,5.33,0,0,1,.69-.4l.54-.3c.66-.3,1.32-.63,2-.94,2.78-1.35,5.41-2.62,8.41-2.84h0c2.47-.25,5-.25,7.38-.25,1.22,0,2.48,0,3.73,0a3.38,3.38,0,0,1,2.22.78,3.14,3.14,0,0,1,.17.32,1.09,1.09,0,0,1,0,.56c0,.08,0,.16,0,.25v0a32,32,0,0,0-3.19,3.31,18.87,18.87,0,0,1-8.54.59l-.13,0-.13,0a8.75,8.75,0,0,0-1.51.73c-.33.19-.65.36-1,.51a25,25,0,0,1-4.61,1.46,34.58,34.58,0,0,0-3.41,1l-.06,0-.06,0a3,3,0,0,0-.53.47,2.79,2.79,0,0,1-.24.24l0,0-1,1c-.39.39-.79.8-1.19,1.19l0,0-1.86,1.79.05,0-.52.51L38.86,39l.27-.11a15.09,15.09,0,0,1,2.19-.57,3.67,3.67,0,0,0,1-.1,15.5,15.5,0,0,1,3.42.27,6.07,6.07,0,0,0,1.19.22l.51.07c.8.19,1.61.35,2.38.51a37,37,0,0,1,5.78,1.52h0a4.49,4.49,0,0,1,1.42.66,16.83,16.83,0,0,1,1.81,1.77,17.71,17.71,0,0,0,1.94,1.89l.41.34a7.77,7.77,0,0,0,.86.67,1,1,0,0,0,.19.26l.07.06.08,0a1.76,1.76,0,0,1,.4.31,3.09,3.09,0,0,0,.33.28l.11.12a1.67,1.67,0,0,0,.35.35,2.63,2.63,0,0,1,.56,1.1.73.73,0,0,1-.19.3,5.83,5.83,0,0,1-1.44.83l-.5.17a7.93,7.93,0,0,1-7.77-2.46l0,0a.9.9,0,0,0-.68-.26h-.08l-.08,0a4.13,4.13,0,0,1-1.3.08h-.48l-.69-.08a17.46,17.46,0,0,1-5.75-1.36L45,45.76l-.19,0a5.79,5.79,0,0,0-1.11.37l-.3.12-.05,0c-.68.35-1.4.71-2.1,1-3.46,1.69-7,3.43-8.75,7.09v0a6.61,6.61,0,0,0-.41,3.17v0a7.93,7.93,0,0,0,1.21,2.71l.17.29,0,0a13.39,13.39,0,0,0,1.56,1.76l0,0c.47.38,1,.76,1.54,1.15l0,0,.52.32a15.21,15.21,0,0,0,2.28,1.22h.07a5.23,5.23,0,0,1,1,.43l0,0h0a10.56,10.56,0,0,0,1.68.4,5.16,5.16,0,0,0,1.78,0h0l.35-.09a8.37,8.37,0,0,0,3.88-1.69h0a2,2,0,0,0,.34-.12l0,0a11.24,11.24,0,0,0,2.46-2.54l.16.23,0,0a9.12,9.12,0,0,0,2.7,2.49h0c1.79.87,3.65,1.58,5.47,2.24-.14.17-.27.34-.39.51l-.13.17a9.13,9.13,0,0,1-1.63,1.55l-.5.41c-.92.77-1.71,1.48-2.4,2.18-.46-.08-.94-.13-1.43-.17a8.81,8.81,0,0,0-1.5,0l-.71,0h-.69a10.92,10.92,0,0,0-2.32.11h0l-.31.06a2.22,2.22,0,0,0-.9.3,8.88,8.88,0,0,0-2.89,2.91l0,0a2.34,2.34,0,0,0-.25.91c0,.08,0,.15,0,.24a1.86,1.86,0,0,0,.16,1l0,0a2.94,2.94,0,0,0,1.39,1.26,10.65,10.65,0,0,0,3.61.8l-.08.1c-1,1.09-2.09,2-3.21,3.06-.56.51-1.14,1-1.71,1.57-.78.69-1.59,1.33-2.36,1.94s-1.6,1.27-2.41,2l0,0a1.69,1.69,0,0,0-.21.27l-.06.09L37,89.41Z"/><path class="cls-4" d="M106.83,17.27l.83.85c.53.55,1,1.07,1.58,1.56l.42.37-.37.42c-.75.85-1.59,1.65-2.4,2.42-.64.61-1.3,1.24-1.92,1.89a21.11,21.11,0,0,0-4,7.75l0,.07a153.4,153.4,0,0,0-6.07,17.93c-.78,2.65-1.58,5.38-2.44,8.08-.47,1.47-1,2.91-1.58,4.29-.22.57-.46,1.16-.68,1.74a64.61,64.61,0,0,0-2.24,7.13c-.51,1.86-1,3.79-1.69,5.69-.3.85-.69,1.67-1.06,2.46-.22.46-.44.94-.64,1.42A15.68,15.68,0,0,0,84,83.15c-.08.31-.17.63-.27,1v0l-.3.61a1.46,1.46,0,0,1-.42.48l-.15.13,0,0,0,0a2.22,2.22,0,0,1-3.11-.6l0,0,0,0-.12-.23a2.56,2.56,0,0,1-.41-1.21,22,22,0,0,1,.54-7.05c-.44.89-.87,1.79-1.31,2.72l-.69,1.45,0,0-.62.92,0,0a1.51,1.51,0,0,1-.43.29l-.12.07h0a1,1,0,0,1-.2.29l0,0,0,0c-.42.28-.82.56-1.21.83s-.8.57-1.23.85l0,0-3,1.78-3,1.78,0,0-.82.38-.76.36a32.27,32.27,0,0,1-4.54,2.18l-.63.26a4.83,4.83,0,0,1-.43.24,3.09,3.09,0,0,0-.36.2l-.06,0a1.17,1.17,0,0,1-1.06,0,3.51,3.51,0,0,1-2.38-3v0c.11-3.28,3.42-4.81,5.91-5.67a2.46,2.46,0,0,0,.83-.58l.39-.34A14.18,14.18,0,0,1,65.45,80l.06-.08a1.74,1.74,0,0,1,.21-.27l0,0c.26-.23.53-.44.79-.65s.72-.58,1-.88a39.51,39.51,0,0,1-6.9,2,10.85,10.85,0,0,1-1.78.19h0A45.41,45.41,0,0,1,50.19,79a2.1,2.1,0,0,0,.21-.35l-1-.48a2.24,2.24,0,0,1-.39.5c-.1.1-.19.21-.29.32a10.65,10.65,0,0,1-3.61-.8,2.94,2.94,0,0,1-1.39-1.26l0,0a1.86,1.86,0,0,1-.16-1c0-.08,0-.16,0-.24a2.33,2.33,0,0,1,.25-.91l0,0a8.86,8.86,0,0,1,2.89-2.9,2.23,2.23,0,0,1,.9-.3l.31-.06h0a10.93,10.93,0,0,1,2.32-.11h.69l.71,0a8.81,8.81,0,0,1,1.5,0c.49,0,1,.09,1.43.17l0,0,.79.8.6-.58c.46.08.93.17,1.4.23a35.72,35.72,0,0,1,9.87-1.86h0a1.28,1.28,0,0,0,.55-.14,2.24,2.24,0,0,1,.4-.37,1.19,1.19,0,0,0,.22-.19l0,0,0,0,.54-.42a7.39,7.39,0,0,1-3.11-.32,4.86,4.86,0,0,0-.68-.15A4.53,4.53,0,0,1,64,68l-.08,0-.07-.06,0,0a5.69,5.69,0,0,1-1.21-.2l-.06,0L61,67.12l-.2-.07.22-.17-.64-.92.08-.22.93.33,1.55.56a4.17,4.17,0,0,0,1.05.16.88.88,0,0,1,.61.28,4.23,4.23,0,0,0,.88.22,5.67,5.67,0,0,1,.85.19h0a9.52,9.52,0,0,0,4.8,0l2.37-.48-.05,0,.1,0-2,1.46c-.35.27-.71.53-1.06.78s-.83.6-1.23.91a2.35,2.35,0,0,1-.37.33.94.94,0,0,0-.23.21l-.06.09-.09.06a2.37,2.37,0,0,1-1.23.38A34.45,34.45,0,0,0,57.58,73l-.13,0-.13,0c-.64-.08-1.24-.19-1.82-.3A19.61,19.61,0,0,0,53,72.41h0a7.64,7.64,0,0,0-1.33,0l-.76,0h-.72a10,10,0,0,0-2.08.09l-.37.07a1.34,1.34,0,0,0-.46.13,7.83,7.83,0,0,0-2.54,2.52,1.27,1.27,0,0,0-.12.39c0,.12,0,.22,0,.31a.81.81,0,0,0,0,.45,1.81,1.81,0,0,0,.84.78,10.27,10.27,0,0,0,4.63.71h.08l.08,0a44.58,44.58,0,0,0,8.6,1.2,9.86,9.86,0,0,0,1.59-.18,39.65,39.65,0,0,0,7-2c.86-.3,1.75-.62,2.65-.91l2.69-.87-2.15,1.84-.22.17-.42.32c-.42.32-.85.65-1.28,1a12.06,12.06,0,0,1-1.52,1.37l-.73.6-.06.1a1.75,1.75,0,0,1-.21.27l0,0,0,0a13.08,13.08,0,0,0-1.71,1.44l0,0-.36.31a3.47,3.47,0,0,1-1.22.82c-2.35.81-5.06,2.08-5.15,4.63,0,1.11,1.21,1.77,1.73,2h.06a4.43,4.43,0,0,1,.44-.24,3.52,3.52,0,0,0,.36-.2l0,0,0,0,.68-.28a31,31,0,0,0,4.4-2.12l0,0,.82-.38.76-.36,3-1.77,3-1.77,1.19-.83,1.14-.79a1,1,0,0,1,.19-.27,1.51,1.51,0,0,1,.43-.29l.11-.06.5-.75.67-1.41c.88-1.86,1.72-3.61,2.68-5.4.1-.22.2-.44.31-.64a5.93,5.93,0,0,0,.5-1.22v-.06l0-.06a2.53,2.53,0,0,1,.24-.37l.07-.1c0-.15.09-.28.14-.41L83,65l-.69,5.58a1.14,1.14,0,0,1-.16.54l-.08.25c-1.16,3.86-2.36,7.85-1.93,11.89v.06a1.56,1.56,0,0,0,.27.7l.12.22a1.12,1.12,0,0,0,1.51.33l.19-.16.13-.12.26-.51c.09-.29.17-.59.24-.87a16.4,16.4,0,0,1,.6-1.94h0c.21-.5.44-1,.66-1.46.38-.8.73-1.56,1-2.36.65-1.86,1.17-3.77,1.67-5.61a65.53,65.53,0,0,1,2.28-7.25c.22-.57.45-1.17.68-1.74.54-1.37,1.1-2.79,1.56-4.22.86-2.69,1.66-5.42,2.43-8.06a154.62,154.62,0,0,1,6.11-18A22.21,22.21,0,0,1,104.12,24l0,0c.64-.68,1.32-1.33,2-1.95s1.35-1.28,2-1.94c-.42-.4-.81-.8-1.22-1.23l-.82-.84h0l-2.26-2.42c-2.13-2.29-4.15-4.46-6.35-6.66-.58-.58-1.12-1.19-1.64-1.78s-.91-1-1.38-1.52l.8-.75L95,4.76l0,0c.54.54,1.06,1.13,1.55,1.69s1,1.17,1.59,1.73c2.22,2.22,4.24,4.39,6.38,6.69l2.25,2.41"/><path class="cls-4" d="M37.71,90.27a94.59,94.59,0,0,0-12.61,14l-.61.67.56-1.12-.4-.31c1.54-3,7.84-9.84,12.3-14l0,0L38.63,88l.06-.09a1.75,1.75,0,0,1,.21-.27l0,0c.81-.71,1.62-1.36,2.41-2s1.58-1.25,2.36-1.94c.57-.54,1.15-1.07,1.71-1.57,1.12-1,2.17-2,3.21-3.06l.08-.1a14.13,14.13,0,0,0,1.43,0h.06a4.82,4.82,0,0,1-.37.43c-.11.12-.22.24-.31.36l0,0C48.39,81,47.26,82,46.17,83c-.56.51-1.14,1-1.7,1.57h0c-.81.71-1.62,1.36-2.41,2s-1.57,1.24-2.35,1.93l-.07.1a1.74,1.74,0,0,1-.21.27l0,0Z"/><path class="cls-4" d="M25.05,103.78l-.56,1.13-.08-.07h0c-.21-.22-.1-.7.24-1.37l.4.31"/><path class="cls-4" d="M24.4,104.84l.08.06-.08-.06"/></g></g></g></svg>