<svg id="Layer_1" data-name="Layer 1" xmlns="http://www.w3.org/2000/svg" xmlns:xlink="http://www.w3.org/1999/xlink" viewBox="0 0 98 94"><defs><style>.cls-1,.cls-10,.cls-8,.cls-9{fill:none;}.cls-2{clip-path:url(#clip-path);}.cls-3{clip-path:url(#clip-path-2);}.cls-4{fill:#231f20;}.cls-5{fill:#fff;}.cls-6{fill:#981a34;}.cls-7{fill:#fbe2ea;}.cls-10,.cls-8,.cls-9{stroke:#231f20;stroke-miterlimit:10;}.cls-8{stroke-width:2px;}.cls-9{stroke-width:3px;}</style><clipPath id="clip-path"><polyline class="cls-1" points="476 -470 476 298 -607 298 -607 -470"/></clipPath><clipPath id="clip-path-2"><rect class="cls-1" x="6.02" y="2.35" width="87.98" height="87.57"/></clipPath></defs><g class="cls-2"><g class="cls-3"><g class="cls-3"><path class="cls-4" d="M70.64,40.09a2.44,2.44,0,0,1,.17.45,5.82,5.82,0,0,1-.65-.06.51.51,0,0,1,.06-.08c.15-.21.26-.33.26-.33Z"/><path class="cls-4" d="M70.13,40.45l0,0-.08,0Z"/><path class="cls-4" d="M70.28,40.64a8.54,8.54,0,0,1-.66.79,1.31,1.31,0,0,0,.08-.16,5.41,5.41,0,0,1,.46-.79Z"/><path class="cls-4" d="M68.05,46.81a2.83,2.83,0,0,1-1,.38l-.36.05-.05-.16.33-.17a2.06,2.06,0,0,0,.33-.22,2.23,2.23,0,0,0,.36-.34,3.7,3.7,0,0,0,.37-.46c.1-.19.24-.36.33-.58a8.47,8.47,0,0,0,.52-1.36c.15-.48.17-1,.29-1.46a6.71,6.71,0,0,1,.41-1.07,8.26,8.26,0,0,0,.66-.79l-.12-.16a5.82,5.82,0,0,0,.65.06,4,4,0,0,1,.18,1A4.21,4.21,0,0,1,70.87,43a9.7,9.7,0,0,1-.73,1.51,7.12,7.12,0,0,1-.94,1.39,7.23,7.23,0,0,1-.55.56,4.54,4.54,0,0,1-.59.4"/><path class="cls-5" d="M66,41a2.27,2.27,0,0,0-1.33-2.06,4.22,4.22,0,0,1,.91.09,4.44,4.44,0,0,1,1,.32c.32.12.71.31,1.08.45s.76.27,1.14.38a8.79,8.79,0,0,0,1.32.28l-1.5.6c-.51.19-1,.37-1.51.53-.25.07-.5.16-.74.21s-.37.1-.56.13A2.27,2.27,0,0,0,66,41"/><path class="cls-4" d="M62.79,42.05l-.65-.13-.57-.17a2.18,2.18,0,0,1-.12-.74,2.23,2.23,0,0,1,.43-1.32,6.61,6.61,0,0,1,.69-.33,5.46,5.46,0,0,1,2-.4h.09a2.27,2.27,0,0,1,1.14,3l-.17,0a7,7,0,0,1-.73.12c-.24,0-.47.06-.7.06a6.4,6.4,0,0,1-.7,0l-.67-.08"/><path class="cls-4" d="M64.63,38.95h-.09a5.45,5.45,0,0,0-2,.41,6.94,6.94,0,0,0-.7.33,2.26,2.26,0,0,1,1.83-.93,2.29,2.29,0,0,1,.93.2"/><path class="cls-4" d="M55.11,30c11.88-13.1,19.28,3,19.28,3a24.23,24.23,0,0,0-10.08-3.69,28.29,28.29,0,0,0-9.2.72"/><path class="cls-4" d="M62.79,42.05l.67.08a6.4,6.4,0,0,0,.7,0c.23,0,.46,0,.7-.06a7,7,0,0,0,.73-.12l.17,0a2.26,2.26,0,0,1-4.2-.18l.57.17.65.13"/><path class="cls-5" d="M61.52,41.73a6.7,6.7,0,0,1-1.2-.57L60,41c.23-.21.47-.4.72-.58a8.11,8.11,0,0,1,1.13-.7A2.23,2.23,0,0,0,61.44,41a2.19,2.19,0,0,0,.12.74l0,0"/><path class="cls-4" d="M60.66,57.41h0l-.07,0,0,0Z"/><path class="cls-4" d="M60.54,57.46l0,0,0,0"/><path class="cls-4" d="M60.6,44.14a6.94,6.94,0,0,1-1.7-1,7.85,7.85,0,0,1-.73-.66,6.3,6.3,0,0,1-.66-.8l-.56-.79.65-.61a11,11,0,0,1,1-.85,11.34,11.34,0,0,1,1.05-.7A10.68,10.68,0,0,1,62,37.68a7.23,7.23,0,0,1,2.61-.29,6.38,6.38,0,0,1,1.3.24,6.73,6.73,0,0,1,1.18.5c.38.19.68.37,1,.54s.67.33,1,.48a6.8,6.8,0,0,0,2.1.57,4.93,4.93,0,0,0,2.14-.33,17,17,0,0,0,2.1-1l.12.21a17.31,17.31,0,0,1-2,1.26,5.75,5.75,0,0,1-2.38.64h-.4a2.44,2.44,0,0,0-.17-.45l-.17,0s-.11.13-.26.33l-.06.08a5.49,5.49,0,0,0-.46.79,1.58,1.58,0,0,1-.08.16A10.31,10.31,0,0,1,67.79,43a9,9,0,0,1-3.35,1.42,8.68,8.68,0,0,1-.94.13,6.37,6.37,0,0,1-1,0,6.65,6.65,0,0,1-1.92-.43m-1.37-2.35a9.58,9.58,0,0,1,.7-.73L60,41l.29.19a6.63,6.63,0,0,0,1.2.57l.05,0a2.26,2.26,0,0,0,4.2.18c.19,0,.37-.09.56-.13s.5-.14.75-.21c.5-.16,1-.34,1.51-.53l1.5-.6.08,0,0,0,0,0a8.93,8.93,0,0,1-1.32-.28c-.38-.12-.77-.24-1.14-.38s-.76-.32-1.09-.45a4.36,4.36,0,0,0-1-.31,4.09,4.09,0,0,0-.91-.09,2.29,2.29,0,0,0-.93-.2,2.26,2.26,0,0,0-1.83.93,8.11,8.11,0,0,0-1.13.71c-.25.18-.49.37-.72.58l-.26-.19c-.17-.12-.36-.32-.46-.4Z"/><path class="cls-4" d="M59.31,40.38c.09.08.29.27.46.4L60,41l-.1.09a9.4,9.4,0,0,0-.7.73Z"/><path class="cls-4" d="M57.3,47.52c0,.06.08.12.12.18l-.31-.27.19.08"/><path class="cls-6" d="M66.14,64.5S51.47,77,36.72,65.83c10.76-1.37,29.42-1.33,29.42-1.33"/><path class="cls-4" d="M41,50a10.65,10.65,0,0,1,1.52-1.28l.73-.5,0,0a.32.32,0,0,1,0-.08,2.49,2.49,0,0,0,.14-.35,27,27,0,0,0,.79-3.48c.41-2.41.75-4.85,1.09-7.28.08,2.46.08,4.93-.06,7.39a21.64,21.64,0,0,1-.46,3.77c0,.17-.09.33-.16.52a1.65,1.65,0,0,1-.14.3l-.1.17-.21.21-.72.6a12.41,12.41,0,0,0-1.19,1.2A6.75,6.75,0,0,0,40.77,54a3.49,3.49,0,0,0,.35,2.7,1.4,1.4,0,0,0,.8.62.56.56,0,0,0,.33,0,.45.45,0,0,0,.16-.07l.34-.21A6.21,6.21,0,0,1,47,55.89a4.74,4.74,0,0,1,1.22.38,4,4,0,0,1,.6.36l.19.16.15.11a6.4,6.4,0,0,0,1.35.75,2.4,2.4,0,0,0,2.34,0,.88.88,0,0,0,.22-.18l.11-.1,0,0,0,0,.09-.09.08-.08.34-.31c.18-.14.41-.28.61-.41A4,4,0,0,1,56.95,56a8,8,0,0,1,2,.68c.58.26,1.14.54,1.5.65.1,0,.13,0,.17,0h0l0,0,0,0,0,0,.07,0h0l.18-.08.1,0,0,0s0,0,.09-.08a2.38,2.38,0,0,0,.61-1.08,4.3,4.3,0,0,0-.27-2.85,7.13,7.13,0,0,0-2-2.54,15.92,15.92,0,0,0-2.89-1.91l-.23-.12-.08-.13a10.25,10.25,0,0,1-.69-1.41c-.2-.47-.36-.94-.51-1.42-.29-1-.52-1.91-.72-2.87s-.34-1.93-.46-2.91A19.2,19.2,0,0,1,53.69,37a22.18,22.18,0,0,0,.6,2.84c.24.94.53,1.85.83,2.77s.63,1.81,1,2.68a13.89,13.89,0,0,0,1.18,2.24l-.19-.08.32.27a2.18,2.18,0,0,1-.12-.18,13.84,13.84,0,0,1,3.21,1.79,9,9,0,0,1,2.7,3,6.11,6.11,0,0,1,.58,4.3,4.5,4.5,0,0,1-1.13,2.12,3.17,3.17,0,0,1-.61.5l-.17.12-.11,0-.21.1-.11,0-.15.05h0l-.06,0-.12,0a3.06,3.06,0,0,1-.46.06,3.47,3.47,0,0,1-.72-.1A11.14,11.14,0,0,1,58,58.89a5.8,5.8,0,0,0-1.43-.47,1.51,1.51,0,0,0-1,.14.72.72,0,0,1-.16.09l-.34.31-.34.32a3.4,3.4,0,0,1-.49.4,4,4,0,0,1-2.43.75,5.86,5.86,0,0,1-2.24-.51,9,9,0,0,1-1.85-1.07l-.22-.17-.12-.09,0,0,0,0a.63.63,0,0,0-.17-.11,2.09,2.09,0,0,0-.53-.17,2.92,2.92,0,0,0-1.29.1,5.1,5.1,0,0,0-.69.24l-.31.15c-.12.06-.27.15-.4.22l-.45.26a2.73,2.73,0,0,1-.69.26,2.84,2.84,0,0,1-1.49,0,3.63,3.63,0,0,1-2-1.62,5.35,5.35,0,0,1-.43-4.4A8.65,8.65,0,0,1,41,50"/><path class="cls-4" d="M40.48,40.38l.08,1.41a8.42,8.42,0,0,0-.71-.73l-.1-.08a2.06,2.06,0,0,0,.27-.2c.17-.12.37-.32.46-.4"/><path class="cls-5" d="M39.75,41l-.28.18a7,7,0,0,1-1.2.57l-.11,0a2.24,2.24,0,0,0-.33-2.12,8.38,8.38,0,0,1,1.21.74,7.13,7.13,0,0,1,.71.59"/><path class="cls-4" d="M37.83,39.64a6.11,6.11,0,0,0-.61-.29,5.48,5.48,0,0,0-2-.4h-.15a2.36,2.36,0,0,1,.94-.2,2.23,2.23,0,0,1,1.8.89"/><path class="cls-4" d="M43.27,30a28.28,28.28,0,0,0-9.2-.72A24.23,24.23,0,0,0,24,32.94s7.39-16.07,19.28-3"/><path class="cls-4" d="M37,42.05l-.67.08a6.47,6.47,0,0,1-.7,0c-.23,0-.47,0-.71-.06s-.48-.06-.73-.12l-.21,0a2.13,2.13,0,0,1-.2-.91,2.26,2.26,0,0,1,1.33-2.06h.15a5.49,5.49,0,0,1,2,.4,5.79,5.79,0,0,1,.61.29,2.23,2.23,0,0,1,.33,2.12c-.17,0-.34.11-.52.16l-.65.13"/><path class="cls-4" d="M38.16,41.76a2.25,2.25,0,0,1-4.19.16l.21,0c.25.06.49.08.73.12s.48.06.71.06a6.47,6.47,0,0,0,.7,0l.67-.08.65-.13c.18,0,.35-.11.52-.16"/><path class="cls-5" d="M33.77,41a2.11,2.11,0,0,0,.2.91l-.51-.12c-.26,0-.5-.14-.75-.21-.5-.16-1-.34-1.51-.53l-1.49-.6A8.48,8.48,0,0,0,31,40.18c.39-.12.78-.24,1.15-.38s.75-.32,1.08-.45a4.44,4.44,0,0,1,1-.32,4.2,4.2,0,0,1,.85-.09A2.27,2.27,0,0,0,33.77,41"/><path class="cls-7" d="M74.39,32.94S67,16.88,55.11,30a28.29,28.29,0,0,1,9.2-.72,24.23,24.23,0,0,1,10.08,3.69M56.95,40.89l.56.79a6.36,6.36,0,0,0,.66.8,7.85,7.85,0,0,0,.73.66,6.94,6.94,0,0,0,1.7,1,6.64,6.64,0,0,0,1.92.43,6.37,6.37,0,0,0,1,0A8.82,8.82,0,0,0,67.79,43a10.31,10.31,0,0,0,1.83-1.61,6.52,6.52,0,0,0-.41,1.07c-.12.46-.14,1-.29,1.46a8.54,8.54,0,0,1-.52,1.36c-.09.22-.23.39-.33.58a3.7,3.7,0,0,1-.37.46,2.27,2.27,0,0,1-.36.34,2.14,2.14,0,0,1-.33.22l-.33.17,0,.16.36,0a2.87,2.87,0,0,0,1-.38,4.46,4.46,0,0,0,.59-.4,6.89,6.89,0,0,0,.55-.56,7.18,7.18,0,0,0,.94-1.39A9.62,9.62,0,0,0,70.87,43,4.2,4.2,0,0,0,71,41.52a3.94,3.94,0,0,0-.18-1h.4a5.73,5.73,0,0,0,2.38-.64,17.37,17.37,0,0,0,2-1.26l-.12-.21a17,17,0,0,1-2.1,1,4.91,4.91,0,0,1-2.14.33,6.81,6.81,0,0,1-2.1-.57c-.35-.15-.69-.31-1-.48s-.65-.35-1-.54a6.76,6.76,0,0,0-1.18-.5,6.4,6.4,0,0,0-1.3-.24,7.27,7.27,0,0,0-2.61.29,10.69,10.69,0,0,0-2.34,1.05,10.94,10.94,0,0,0-1.05.7,11.16,11.16,0,0,0-1,.84ZM72.77,77.07c-5.13,7.79-12.83,11.21-22.9,10.18-18.27-1.88-26.23-18.32-26.3-18.49l-4.66-9.89,2.32,10.68c.8,3.67-.36,6.87-3.8,8.35-2.88,1.26-4.78.75-6.49-1.72-4.57-6.61,3.19-19,3.28-19.14l.21-.28.82-10-.07-.24c-2.14-6.41-1.47-9.71-.54-11.34a3.9,3.9,0,0,1,2.29-1.94l1.06-.2,0-1.08c0-.12-.4-11.48,7.48-19.39C31,7.07,39.24,4.46,50,4.88s18.62,3.64,23.63,9.61C81,23.2,79.57,34.95,79.55,35.06l-.22,1.65L81,36.45a2.65,2.65,0,0,1,2.64.7c2.05,2.25,1.25,9.24.27,13.11l-.73,9.4.4.41c5.49,5.5,9,12.52,7.38,16.11-.9,2-2.28,3.19-6.71,2.63a5.51,5.51,0,0,1-2.76-1.45c-1.51-1.51-3.66-8.69-3.66-8.69l0-3s-.17-5.33-.18-5.31c-.08.55-1.12,11.06-4.83,16.69M41.92,57.29a1.4,1.4,0,0,1-.79-.62,3.49,3.49,0,0,1-.35-2.7,6.76,6.76,0,0,1,1.55-2.81A12.52,12.52,0,0,1,43.52,50l.72-.6.22-.21.1-.17a1.65,1.65,0,0,0,.14-.3c.07-.19.12-.36.16-.52a21.62,21.62,0,0,0,.46-3.77c.14-2.47.14-4.94.06-7.4-.35,2.43-.69,4.87-1.09,7.28a27.17,27.17,0,0,1-.79,3.48,2.53,2.53,0,0,1-.14.35.3.3,0,0,0,0,.08l0,0-.73.5A10.58,10.58,0,0,0,41,50a8.64,8.64,0,0,0-2.19,3.46,5.35,5.35,0,0,0,.43,4.4,3.63,3.63,0,0,0,2,1.62,2.84,2.84,0,0,0,1.49,0,2.69,2.69,0,0,0,.69-.26l.46-.26c.13-.07.27-.17.4-.22l.31-.15a5.25,5.25,0,0,1,.69-.24,2.92,2.92,0,0,1,1.29-.1,2.09,2.09,0,0,1,.53.17.63.63,0,0,1,.17.11l0,0,0,0,.12.09.22.17a9,9,0,0,0,1.85,1.07,5.88,5.88,0,0,0,2.24.51,4,4,0,0,0,2.43-.75,3.39,3.39,0,0,0,.49-.4l.34-.32.34-.31a.73.73,0,0,0,.16-.09,1.51,1.51,0,0,1,1-.14,5.76,5.76,0,0,1,1.43.47,11.23,11.23,0,0,0,1.91.74,3.47,3.47,0,0,0,.72.1,3.2,3.2,0,0,0,.46-.06l.12,0,.06,0h0l.15,0,.11-.05.21-.1.11,0,.17-.12a3.21,3.21,0,0,0,.61-.5,4.5,4.5,0,0,0,1.13-2.12,6.11,6.11,0,0,0-.58-4.3,9,9,0,0,0-2.7-3,13.8,13.8,0,0,0-3.21-1.79,13.86,13.86,0,0,1-1.18-2.24c-.38-.87-.71-1.77-1-2.68s-.59-1.83-.83-2.77a22.19,22.19,0,0,1-.6-2.84,19.33,19.33,0,0,0,.12,2.92c.12,1,.26,1.95.46,2.91s.43,1.92.72,2.87c.15.48.32,1,.51,1.42a10.2,10.2,0,0,0,.69,1.41l.08.13.23.13A16,16,0,0,1,59.4,50.7a7.14,7.14,0,0,1,2,2.54,4.3,4.3,0,0,1,.27,2.85,2.38,2.38,0,0,1-.6,1.08c-.06.07-.07,0-.09.08l0,0-.1,0-.18.08h0s-.08,0-.17,0c-.36-.11-.92-.39-1.5-.65a8,8,0,0,0-2-.68,4,4,0,0,0-2.57.41c-.21.13-.43.27-.61.41l-.34.31-.08.08-.09.09,0,0,0,0-.11.1a.92.92,0,0,1-.22.18,2.4,2.4,0,0,1-2.34,0,6.4,6.4,0,0,1-1.35-.75L49,56.79l-.19-.16a3.94,3.94,0,0,0-.6-.36A4.7,4.7,0,0,0,47,55.89,6.21,6.21,0,0,0,42.75,57l-.34.21a.45.45,0,0,1-.16.07.55.55,0,0,1-.33,0m24.22,7.21s-18.67,0-29.42,1.33C51.46,77,66.14,64.49,66.14,64.49m-35.57-22a5.84,5.84,0,0,0-.41-1.06A10.92,10.92,0,0,0,32,43a9,9,0,0,0,3.34,1.42,9.12,9.12,0,0,0,1,.13,6.38,6.38,0,0,0,1,0,6.71,6.71,0,0,0,1.92-.43,7,7,0,0,0,1.7-1,6.86,6.86,0,0,0,.72-.66,6.37,6.37,0,0,0,.67-.8l.55-.79-.64-.61a11.85,11.85,0,0,0-2.07-1.55,10.43,10.43,0,0,0-2.34-1.05,7.29,7.29,0,0,0-2.61-.29,6.38,6.38,0,0,0-1.3.24,6.29,6.29,0,0,0-1.18.5c-.38.19-.68.37-1,.54s-.68.33-1,.48a6.86,6.86,0,0,1-2.09.57,5,5,0,0,1-2.15-.33,16.92,16.92,0,0,1-2.09-1l-.12.21a18,18,0,0,0,2,1.26,5.78,5.78,0,0,0,2.39.64H29a3.94,3.94,0,0,0-.17,1A4.2,4.2,0,0,0,28.92,43a9.62,9.62,0,0,0,.73,1.51,7.18,7.18,0,0,0,.94,1.39,5.91,5.91,0,0,0,.55.56,5.08,5.08,0,0,0,.58.4,3,3,0,0,0,1,.38l.37,0,0-.16-.33-.17a1.5,1.5,0,0,1-.33-.22,2.26,2.26,0,0,1-.37-.34,3.67,3.67,0,0,1-.37-.46,5.86,5.86,0,0,1-.33-.58,9.41,9.41,0,0,1-.53-1.36c-.15-.48-.17-1-.29-1.46m3.5-13.23a28.28,28.28,0,0,1,9.2.72c-11.88-13.1-19.28,3-19.28,3a24.23,24.23,0,0,1,10.08-3.69"/><path class="cls-4" d="M29.62,40.48a7.33,7.33,0,0,1,.46.79,1.51,1.51,0,0,1,.08.17c-.23-.26-.46-.52-.66-.8Z"/><path class="cls-4" d="M29.7,40.46l-.07,0,0,0Z"/><path class="cls-4" d="M29.56,40.4a.56.56,0,0,1,.06.08,6,6,0,0,1-.66.06,2.39,2.39,0,0,1,.17-.45l.17,0a3.8,3.8,0,0,1,.27.33"/><path class="cls-4" d="M29.5,40.64c.21.27.43.54.66.8a5.91,5.91,0,0,1,.41,1.06c.12.46.14,1,.29,1.46a9.44,9.44,0,0,0,.53,1.36,5.56,5.56,0,0,0,.33.58,3.58,3.58,0,0,0,.36.46,2.3,2.3,0,0,0,.37.34,1.53,1.53,0,0,0,.33.22l.33.17,0,.16-.37,0a2.94,2.94,0,0,1-1-.38,5,5,0,0,1-.58-.4,6,6,0,0,1-.55-.56,7.27,7.27,0,0,1-.94-1.39A9.71,9.71,0,0,1,28.92,43a4.22,4.22,0,0,1-.13-1.43,4,4,0,0,1,.17-1,5.77,5.77,0,0,0,.66-.06Z"/><path class="cls-4" d="M31,40.18a8.55,8.55,0,0,1-1.31.28l0,0,0,0,.07,0,1.49.6c.51.19,1,.37,1.52.53.25.07.49.16.74.21l.51.12a2.25,2.25,0,0,0,4.19-.16l.11,0a7,7,0,0,0,1.2-.57l.28-.18.1.08a8.14,8.14,0,0,1,.71.73l-.08-1.41c-.09.08-.29.27-.46.4a2,2,0,0,1-.27.2,6.88,6.88,0,0,0-.71-.59,8.34,8.34,0,0,0-1.21-.74,2.23,2.23,0,0,0-1.8-.9,2.36,2.36,0,0,0-.94.2,4.2,4.2,0,0,0-.85.09,4.43,4.43,0,0,0-1,.32c-.33.12-.72.31-1.08.45s-.76.26-1.15.38m-2.44.36a5.77,5.77,0,0,1-2.39-.64,18,18,0,0,1-2-1.26l.12-.21a17,17,0,0,0,2.09,1,5,5,0,0,0,2.15.33,6.88,6.88,0,0,0,2.1-.57c.34-.15.68-.31,1-.48s.65-.35,1-.54a6.26,6.26,0,0,1,1.18-.5,6.38,6.38,0,0,1,1.3-.24,7.29,7.29,0,0,1,2.61.29,10.43,10.43,0,0,1,2.33,1.05,11.78,11.78,0,0,1,2.07,1.55l.64.61-.55.79a6.28,6.28,0,0,1-.67.8,6.75,6.75,0,0,1-.72.66,6.93,6.93,0,0,1-1.7,1,6.71,6.71,0,0,1-1.92.43,6.26,6.26,0,0,1-1,0,8.83,8.83,0,0,1-1-.13A9,9,0,0,1,32,43a11,11,0,0,1-1.84-1.6,1.36,1.36,0,0,0-.08-.17,7.39,7.39,0,0,0-.46-.79.67.67,0,0,0-.06-.08,3.78,3.78,0,0,0-.27-.33l-.17,0a2.44,2.44,0,0,0-.17.45h-.39"/><path class="cls-4" d="M23.57,68.76c.07.17,8,16.61,26.3,18.49,10.07,1,17.77-2.38,22.9-10.18,3.71-5.62,4.74-16.13,4.83-16.69,0,0,.18,5.32.18,5.31l0,3s2.15,7.18,3.66,8.69a5.51,5.51,0,0,0,2.76,1.45c4.42.56,5.81-.58,6.71-2.62,1.58-3.59-1.89-10.62-7.38-16.11l-.4-.41.73-9.4c1-3.87,1.79-10.86-.27-13.11a2.65,2.65,0,0,0-2.64-.7l-1.64.26.22-1.65c0-.12,1.47-11.87-5.87-20.58-5-6-13-9.19-23.63-9.61C39.24,4.46,31,7.07,25.41,12.63,17.54,20.54,17.94,31.9,17.94,32l0,1.08-1.06.2a3.9,3.9,0,0,0-2.29,1.94c-.94,1.64-1.6,4.94.54,11.35l.07.24-.82,10-.21.28c-.09.13-7.85,12.53-3.28,19.14,1.71,2.48,3.61,3,6.49,1.72,3.44-1.49,4.6-4.69,3.8-8.36L18.91,58.87Zm26,21c-14.05-1.45-22.28-10.59-26-16-.7,3.91-2,5.7-5.32,7.14-2,.87-6.29,2.45-10.56-3.73C2.56,69.63,10.49,58,12,55.87l.72-8.75c-1.89-5.78-2-10.23-.2-13.21a6.59,6.59,0,0,1,2.92-2.7c0-3,.81-12.89,8.18-20.31,6.05-6.1,15-9,26.51-8.5s20,4,25.46,10.51c6.53,7.76,6.73,17.38,6.54,21a4.8,4.8,0,0,1,3.32,1.56c3.53,3.88,1.26,13.71.86,15.29l-.6,8c5.27,5.47,10,13.46,7.71,18.56-.94,2.12-1.57,4.64-7.75,4.35-1.52-.07-4.39-.73-5.38-1.93a12.7,12.7,0,0,1-2.92-6c-3.21,7.15-10,16.21-24.11,16.21-1.17,0-2.38-.07-3.64-.19"/></g></g><path class="cls-8" d="M43.27,30a28.28,28.28,0,0,0-9.2-.72A24.23,24.23,0,0,0,24,32.94S31.38,16.88,43.27,30Z"/><path class="cls-9" d="M66.14,64.5S51.47,77,36.72,65.83C47.47,64.46,66.14,64.5,66.14,64.5Z"/><path class="cls-10" d="M60.33,79.38s-8.76,4.3-17.07,0"/><path class="cls-8" d="M55.11,30a28.29,28.29,0,0,1,9.2-.72,24.23,24.23,0,0,1,10.08,3.69S67,16.88,55.11,30Z"/></g></svg>