<svg id="Layer_1" data-name="Layer 1" xmlns="http://www.w3.org/2000/svg" viewBox="0 0 252 90.75"><defs><style>.cls-1{fill:#262223;}.cls-2{fill:#fff;}.cls-3{fill:#231f20;}</style></defs><path class="cls-1" d="M112.09,62.12c.46-.54.42-2.09,1.06-2.21s1,.44,1.32.15c0,0,0-.06,0-.08a.84.84,0,0,0,.78-1.19,6.82,6.82,0,0,1,1.1-.81.73.73,0,0,0,.47-.58,4,4,0,0,0,.63-.25,27.33,27.33,0,0,1,4.29-1.22,12.85,12.85,0,0,1,4.67-.58,2,2,0,0,0,1.46-.37c.52-.46,1.06-.91.9-1.54,0-.18.22-.38.18-.55a9.38,9.38,0,0,0-.47-2.32,1.28,1.28,0,0,1-.24.13.82.82,0,0,0-.06-.57c.16,0,.3.14.36,0s0-.51,0-.77c-.36,0-.49-.31-.88-.33a7.52,7.52,0,0,1-2.84-.79c-.17-.08-.45-.06-.27-.4l1.91-3.28a7.64,7.64,0,0,1,1.75-1.92c.42-.35-.07.79-.48.42s-1-.45-.51-1c-.6.23.44-1.89-.36-1.78a3.9,3.9,0,0,1-1,0l0-.11,2.22-1.64c.45-.26.36-.26.81-.15.06,0,.21-.14.21-.22,0-.82,1.28-1.71.21-2.48-.24-.17-1-.23-.81-.87l-.92-.64c2.09.72,3.34,2,2.71,3.69a9.31,9.31,0,0,1-1.33,2c-.76,1.1-.78,1.08.21,1.91a2.17,2.17,0,0,1,.22,3.15c-.26.29-.49.61-.81,1a1.16,1.16,0,0,1,1.48.92,1.72,1.72,0,0,1-.39,2,2.1,2.1,0,0,0-.6,2.62,10.31,10.31,0,0,1,.47,1.36c.32,1.22-1,2.65-2.42,2.65a24,24,0,0,0-4.83.41,11.8,11.8,0,0,0-4.1,1.54,55.27,55.27,0,0,0-5,4.65c-.12.11-1.83,1.28-2.29,1.57Z"/><path class="cls-1" d="M125.15,33.3a2.12,2.12,0,0,0,2.06,1.12l0,0a7.94,7.94,0,0,0-2.06-1.12Z"/><path class="cls-1" d="M125.12,33.32c-.36-.32-.6-.78-1.16-.88l0,0c.1.6.57.81,1.16.88l0,0"/><path class="cls-1" d="M127.21,34.42c.4.2.62.86,1.28.41h0c-.47,0-.78-.5-1.31-.39l0,0"/><path class="cls-1" d="M124,32.45s-.06-.12-.11-.13c-.3-.09-.18-.56-.6-.52,0,0-.09.1-.08.13.17.29.32.63.82.5l0,0"/><path class="cls-1" d="M112.21,62.71c.07,0-.09-.1-.12-.15v-.33a2.21,2.21,0,0,1,.13-.29"/><path class="cls-2" d="M115.16,58.87c.71,0,.55-.29.3-.67-.07.26-.36.42-.27.7Z"/><path class="cls-2" d="M127.59,45.06c.31,0,.26-.26.32-.39s-.14-.11-.22-.12-.27.1-.26.27,0,.24.16.24"/><path class="cls-2" d="M127.76,45.44c.45-.06.61-.18.62-.41,0,0-.13-.13-.19-.12-.28,0-.17.31-.43.53"/><path class="cls-2" d="M128.48,43.84a.92.92,0,0,0-.6.44.91.91,0,0,0,.31.08c.39-.06.09-.31.29-.52"/><path class="cls-1" d="M128.45,45.46a3.26,3.26,0,0,1,.23-1.48l-1.07-.14a4.1,4.1,0,0,1,.06.52,1.61,1.61,0,0,0,0,.42c0,.18.06.15.27-.08h-.17c-.17,0-.36,0-.52,0a.93.93,0,0,0-.76.15,6.69,6.69,0,0,0-.66.8l.92.71.46-.68c.42-.63-.59-1.21-1-.59l-.46.68c-.36.54.49,1.22.92.71l.66-.8-.41.17c.55,0,1.46.21,1.8-.37a3.16,3.16,0,0,0,0-1.95.59.59,0,0,0-1.07-.14,4.52,4.52,0,0,0-.39,2.07c0,.75,1.21.75,1.17,0"/><path class="cls-1" d="M129.39,38.69c.8-1.82.77-3.09-1-4.23-2.23-1.46-4.75-2.24-5.88-4.87A36.18,36.18,0,0,0,119.43,23C114.54,16,105.86,17,98.69,19.55c-.7.25-.4,1.38.31,1.13,6.83-2.47,15.2-3.61,19.7,3.35a31.86,31.86,0,0,1,2.63,5.65,7.34,7.34,0,0,0,2,3c1.66,1.43,6.25,2.61,5,5.39-.3.68.71,1.28,1,.59"/><path class="cls-1" d="M128.09,42.05a2.2,2.2,0,0,1-.89-1.19c0-.41.47-.86.64-1.23.31-.68-.7-1.27-1-.59s-1,1.25-.79,2.11a3.57,3.57,0,0,0,1.46,1.91.58.58,0,0,0,.59-1"/><path class="cls-1" d="M128,48.88a6.62,6.62,0,0,0,.12,3.1c.5,3.57-2.75,2.7-4.92,3a13.19,13.19,0,0,0-8,3.57c-.54.52.29,1.35.83.82a11.39,11.39,0,0,1,6-3c1.82-.36,3.9,0,5.66-.59,3.61-1.15.87-4,1.44-6.52.17-.73-1-1-1.12-.31"/><path class="cls-1" d="M117.56,56.67a50.32,50.32,0,0,1-4.93,1.23c-.74.13-.43,1.26.31,1.13a50.14,50.14,0,0,0,4.93-1.23.58.58,0,0,0-.31-1.12"/><path class="cls-1" d="M115.54,57.46a48.12,48.12,0,0,1-3.69,4.07c-.53.53.3,1.36.83.83a48.13,48.13,0,0,0,3.69-4.07c.46-.58-.36-1.41-.83-.83"/><path d="M11.91,43c.37-2.25,2.67-4.1,5.43-4.33a5.09,5.09,0,0,1,4.55,1.43,2.68,2.68,0,0,1,.3,3.32A2.93,2.93,0,0,1,19,44.55a3.93,3.93,0,0,1-.7-.34l.08-.17c.16,0,.32,0,.47.06,1.82.4,3.09-.68,3-2.22a3.2,3.2,0,0,0-3.27-2.63c-3-.13-5.27,1.6-5.42,4.12-.18,3,2.9,5.14,6.56,4.61a12.43,12.43,0,0,0,6-2.85c1.62-1.26,3.14-2.6,4.78-3.84a24.16,24.16,0,0,1,11.29-4.82c7.31-1,13.53.72,18.71,5.08,1.13,1,2.1,2,3.2,3A12.91,12.91,0,0,0,70,47.78a12.25,12.25,0,0,0,7.41-1A29,29,0,0,0,84.64,42c2.67-2.34,10.27-12.74,13-15.09C101.84,23.19,106,21,109.16,21a27.88,27.88,0,0,0-7.32,3.89c-5.6,4.51-6,8.34-7.74,11.44-1.09,2-3.36,10.21-10.58,14.95a16.91,16.91,0,0,1-10.66,2.85,12.53,12.53,0,0,1-7-2.72c-2.16-1.7-4.18-3.53-6.23-5.32a35.9,35.9,0,0,0-7.09-5,19.58,19.58,0,0,0-17.35-.57,35.76,35.76,0,0,0-7.55,4.63,30.49,30.49,0,0,1-4.36,2.81,9.7,9.7,0,0,1-7.63.55c-2.79-.92-4.13-3-3.71-5.5"/><path d="M64.1,32.11c1.55-2.81,5.65-3.82,8.7-2.21a2.58,2.58,0,0,1-.42,5,3.11,3.11,0,0,1-2.27-.12c-.14-.07-.2-.25-.29-.39a1.59,1.59,0,0,1,.54-.06,2.91,2.91,0,0,0,3.1-.78,2,2,0,0,0-.59-2.78,5.82,5.82,0,0,0-5.44-.54,4.69,4.69,0,0,0-.81,8.55c2.88,1.66,5.83,1.41,8.67-.72a27.34,27.34,0,0,0,5.23-5.49A38.07,38.07,0,0,1,95.67,20.69q1.57-.69,3.17-1.21l8.53-.71c-11.53,1.31-17.92,10.39-20.3,12.94-2,2.09-3.83,4.28-5.9,6.31a14.35,14.35,0,0,1-7.44,4A9.22,9.22,0,0,1,65,39.43a5.76,5.76,0,0,1-.88-7.32"/><path d="M101.18,28.31s-1.75,8.1-2.37,11.92c-.45,2.78-.59,6-5.41,13.34C91,57.55,92.6,66.5,103,68a19.38,19.38,0,0,0,8.36-.39,70.33,70.33,0,0,0,9.24-2.94,12.42,12.42,0,0,1,8.54-.07c2.81.9,4.27,3.24,3.12,5-1,1.45-3.61,2-6.22,1.36a3.36,3.36,0,0,1-2.7-2.33c-.14-.91.62-1.61,1.94-1.81a3.43,3.43,0,0,1,2.91,1c.11.15.05.34.08.51a2.55,2.55,0,0,1-.57-.32,2.29,2.29,0,0,0-1.77-.78,2,2,0,0,0-1.8.72c-.48.76.21,1.93,1.54,2.46a6.26,6.26,0,0,0,4.38.15c1.43-.48,2.12-1.33,2-2.47s-1.07-2.27-2.7-2.9a9.65,9.65,0,0,0-7.82.08,62.5,62.5,0,0,1-9.36,3.89c-5.79,1.68-11.67,3.19-17.34.37-2.4-1.19-4.07-2.75-5.64-6.33-2.84-6.5,2.5-11.18,4.56-14.61C97.7,42,98,33.77,101.18,28.31"/><path d="M54.3,35.52a17.1,17.1,0,0,1,6.93,3.66A56.82,56.82,0,0,0,66,42.88a10.07,10.07,0,0,0,6.61,1.77,13.34,13.34,0,0,0,5.91-2.09,27.91,27.91,0,0,0,5.93-5.36c2-2.13,4.6-6.25,6.64-8.32,2.37-2.4,10.39-10.79,20.19-9.1,0,0-2.79.27-3.59.44-7,1.49-10.21,5.19-12.64,7.27s-8,9.67-10.27,11.86C82,42,81.65,42.78,78,44.62a11.14,11.14,0,0,1-11.6-.42,28.06,28.06,0,0,1-4.86-3.92,19.49,19.49,0,0,0-9.67-5.07c-.06,0-.12,0-.15-.18.86.16,1.74.27,2.58.48"/><path d="M84.44,52.22c2.65-3,6.2-4.26,12.11-18.35,2.6-6.22,5.24-8.29,6.65-8.85,0,0-1.51,1.64-2,2.22-2.57,3.12-4.49,10.56-5.49,14.24-1.64,6-5.12,9-7.9,11.71a35.8,35.8,0,0,0-7.62,11.34c-.39.94.27,0-.52.62.1-.58-1.32.22-1.17-.29a57.25,57.25,0,0,1,2.11-6.26,21.39,21.39,0,0,1,3.81-6.38"/><path d="M84.88,52.72c-.06,3.73,2.84.27-.58,4.6-2.21,2.79-4.39,8.12-4.52,9.52a5.52,5.52,0,0,0,1.84,5,2.61,2.61,0,0,0,4.37-2,3.29,3.29,0,0,0-1.51-2.66,1.19,1.19,0,0,0-1.61.2,1.51,1.51,0,0,0,.28,1.72.87.87,0,0,1,.09.29c-.09,0-.2,0-.27-.08a1.73,1.73,0,0,1-.58-1.13,1.32,1.32,0,0,1,.67-1.46,1.65,1.65,0,0,1,1.88.34c1.54,1.26,1.93,3.52.78,4.82a3.36,3.36,0,0,1-4.09.88,5.45,5.45,0,0,1-3.34-4,7.11,7.11,0,0,1,.45-4.5"/><path d="M116.31,45.14c5.41,0,5.42-8.4,0-8.4s-5.42,8.4,0,8.4"/><path d="M120.57,42.23a5.39,5.39,0,0,0,1.07.37,4.67,4.67,0,0,0,2.92-.21,13.85,13.85,0,0,0,2.24-1.49c3.71-2,2-7.82-2.12-7.83a7.58,7.58,0,0,1-4.61-1.41l.85,6.6-.07.11-2.12.57-.17-.09c3.81.9,6.22-2.89,4.75-6.17l-2.5-5.56c-.85-1.9-1.55-3.88-3.22-5.23-2.52-2-5.61-1.18-8.34-.1-3,1.19-5.34,2.64-6.7,5.73-1.27,2.88-1.51,6.25-2.05,9.33s-.68,6.6-1.63,9.73-2.78,6-3.85,9.15c-2.17,6.38,5.15,11.34,10.84,11,4.21-.29,6.9-4.18,9.54-7l1.16-1.24.6-.62q1.23-.92.08-.5s-1,.12-.07.13a7,7,0,0,0,2-.43c2.13-.65,4.36-.74,6.49-1.41a4.26,4.26,0,0,0,2.93-5.17c-1-3.11-1.57-6.33-2.55-9.44l-2.93,5.17,2-.7c4.7-1.62,3.51-7.68-1.12-8.26-3.19-.39-7.47-.39-9.48,2.55-1.86,2.72-2.56,6.71-3.59,9.82h8.1a65.89,65.89,0,0,1-1.72-20.18h-8.4c.27,4.57-1,8.81-2.45,13.09s-3,8.77-4.57,13.15c-1.78,5.12,6.34,7.32,8.1,2.23,3.13-9,7.89-18.74,7.32-28.48a4.21,4.21,0,0,0-8.4,0,73.71,73.71,0,0,0,2,22.41c1,4.22,6.85,3.77,8.1,0l1.42-4.27A13.32,13.32,0,0,1,121.81,44l-1.51,1.51c.81-.44,2.89,0,3.73.11l-1.12-8.26-2,.7A4.27,4.27,0,0,0,118,43.23c1,3.11,1.57,6.33,2.55,9.44l2.93-5.17c-1.88.59-3.86.64-5.75,1.17-1.37.38-3,.35-4.38,1.29a26.73,26.73,0,0,0-4.43,4.39c-1,1.11-3,2.57-3.61,3.89-.06.12.08.08,0,.08a4.38,4.38,0,0,1-1.07-.27,11,11,0,0,0-1.44-.71c.41,0,.15.75.27.22-.1.44-.47,1.46,0,.55a15.68,15.68,0,0,0,.9-2.31c.59-1.65,1.44-3.18,2.13-4.79,2.53-5.88,2.21-12.76,3.72-18.94.29-1.2.32-1.43.91-1.81a12,12,0,0,1,2.7-1.07c.3-.09.6-.17.9-.23a2.62,2.62,0,0,1-2.17-.59c-.13.22.84,1.82,1,2.19l2.86,6.35,4.75-6.17A5.89,5.89,0,0,0,115,32.32a4.26,4.26,0,0,0,.85,6.6,15.55,15.55,0,0,0,8.85,2.56l-2.12-7.83A10.33,10.33,0,0,0,120.65,35c-.39.34-1,.59.18,0l2.12-.57c1.69,0-1.07-.4-1.47-.46a6.59,6.59,0,0,0-3.14.24c-5.15,1.6-3,9.72,2.23,8.1"/><path d="M123.2,42.3l2.2-2.47a4.43,4.43,0,0,0,1.23-3,4.27,4.27,0,0,0-1.23-3,4.2,4.2,0,0,0-5.94,0l-2.2,2.47a4.43,4.43,0,0,0-1.23,3,4.28,4.28,0,0,0,1.23,3,4.2,4.2,0,0,0,5.94,0"/><path class="cls-3" d="M135.72,49.94h1.57l2-10.8,3.05-16.7,3,16.65v.08l.2,1.21,1.73,9.57h1.65l-5.4-29.11h-2.39l-5.4,29.11"/><polygon class="cls-3" points="173.49 20.87 173.49 49.98 172.09 49.98 171.84 49.98 170.15 49.98 163.51 22.4 163.51 49.98 161.82 49.98 161.82 20.87 163.14 20.87 163.51 20.87 164.79 20.87 171.84 48.95 171.84 20.87 173.49 20.87"/><polygon class="cls-3" points="199.22 20.87 199.22 49.98 197.82 49.98 197.57 49.98 195.88 49.98 189.24 22.4 189.24 49.98 187.55 49.98 187.55 20.87 188.87 20.87 189.24 20.87 190.52 20.87 197.57 48.95 197.57 20.87 199.22 20.87"/><rect class="cls-3" x="213.69" y="20.87" width="1.69" height="29.11"/><polygon class="cls-3" points="240.16 48.74 240.16 49.98 231.26 49.98 230.85 49.98 229.57 49.98 229.57 20.87 240 20.87 240 22.11 231.26 22.11 231.26 33.78 238.31 33.78 238.31 35.01 231.26 35.01 231.26 48.74 240.16 48.74"/><polyline class="cls-3" points="153.25 37.7 154.63 31.9 156 37.74 156.09 38.17 156.88 41.52 157.63 41.52 155.17 31.33 154.08 31.33 151.63 41.52 152.34 41.52 153.13 38.17 153.19 37.92"/><path class="cls-3" d="M180.33,36.44h-2.14v5.09h-.75V31.35h3.4a1.56,1.56,0,0,1,1.71,1.31v2.47c0,.72-.71,1.18-1.37,1.3l2,5.11h-.83ZM178.19,36h2.64a.92.92,0,0,0,.94-.88V32.66a.92.92,0,0,0-.94-.88h-2.64Z"/><polygon class="cls-3" points="209.49 31.82 207.03 31.82 207.03 41.58 206.28 41.58 206.28 31.82 203.81 31.82 203.81 31.39 206.28 31.39 207.03 31.39 209.49 31.39 209.49 31.82"/><polygon class="cls-3" points="225.2 41.14 225.2 41.58 221.14 41.58 220.96 41.58 220.38 41.58 220.38 36.34 220.38 35.9 220.38 31.82 220.38 31.68 220.38 31.39 225.12 31.39 225.12 31.82 221.14 31.82 221.14 35.9 224.35 35.9 224.35 36.34 221.14 36.34 221.14 41.14 225.2 41.14"/><path class="cls-3" d="M143.64,64.91v3.2a1.49,1.49,0,0,1-1.43,1.3h-3.64V59.24h3a1.55,1.55,0,0,1,1.69,1.31v2.18a1.26,1.26,0,0,1-.64,1c.54.22,1,.65,1,1.15m-4.3-5.24v3.94h2.19a.92.92,0,0,0,.94-.88V60.55a.92.92,0,0,0-.94-.88Zm3.53,8.44v-3.2a1,1,0,0,0-1.05-.87h-2.47V69h2.59a.92.92,0,0,0,.94-.88"/><path class="cls-3" d="M142.22,69.66h-3.87V59h3.22a1.77,1.77,0,0,1,1.92,1.55v2.18a1.38,1.38,0,0,1-.44,1,1.49,1.49,0,0,1,.83,1.2v3.2a1.66,1.66,0,0,1-1.43,1.49v0Zm-3.41-.47h.3V59.47h-.3Zm3-5.38a1.25,1.25,0,0,1,1.27,1.1v3.2a1.13,1.13,0,0,1-.7,1,1.18,1.18,0,0,0,1-1v-3.2c0-.4-.44-.76-.89-.94l-.42-.17.38-.25a1,1,0,0,0,.53-.83V60.55a1.17,1.17,0,0,0-1-1,1.13,1.13,0,0,1,.68,1v2.18a1.14,1.14,0,0,1-.88,1.08m-2.26,5h2.35a.69.69,0,0,0,.71-.65v-3.2a.79.79,0,0,0-.82-.63h-2.24Zm0-5.38h2a.69.69,0,0,0,.7-.65V60.55a.69.69,0,0,0-.7-.65h-2Z"/><polygon class="cls-3" points="160.1 68.99 160.1 69.43 156.04 69.43 155.86 69.43 155.28 69.43 155.28 64.19 155.28 63.75 155.28 59.67 155.28 59.52 155.28 59.24 160.02 59.24 160.02 59.67 156.04 59.67 156.04 63.75 159.25 63.75 159.25 64.19 156.04 64.19 156.04 68.99 160.1 68.99"/><path class="cls-3" d="M160.33,69.66H155V59h5.21v.9h-4v3.62h3.21v.9h-3.21v4.34h4.05Zm-4.82-.47h.3V59.47h-.3Z"/><polygon class="cls-3" points="175.48 68.99 175.48 69.43 171.9 69.43 171.13 69.43 171.13 68.99 171.13 59.24 171.9 59.24 171.9 68.99 175.48 68.99"/><path class="cls-3" d="M175.71,69.66H170.9V59h1.24v9.76h3.58Zm-4.35-.47h.3V59.47h-.3Z"/><polygon class="cls-3" points="191.02 68.99 191.02 69.43 187.43 69.43 186.66 69.43 186.66 68.99 186.66 59.24 187.43 59.24 187.43 68.99 191.02 68.99"/><path class="cls-3" d="M191.25,69.66h-4.82V59h1.24v9.76h3.58Zm-4.35-.47h.3V59.47h-.3Z"/><polygon class="cls-3" points="207.02 68.99 207.02 69.43 202.97 69.43 202.78 69.43 202.2 69.43 202.2 64.19 202.2 63.75 202.2 59.67 202.2 59.52 202.2 59.24 206.95 59.24 206.95 59.67 202.97 59.67 202.97 63.75 206.18 63.75 206.18 64.19 202.97 64.19 202.97 68.99 207.02 68.99"/><path class="cls-3" d="M207.25,69.66H202V59h5.21v.9h-4v3.62h3.21v.9H203.2v4.34h4.05Zm-4.82-.47h.3V59.47h-.3Z"/><polygon class="cls-3" points="222.78 69.43 217.47 69.43 217.47 68.99 221.82 59.67 218.05 59.67 218.05 59.24 222.59 59.24 222.59 59.67 218.24 68.99 222.78 68.99 222.78 69.43"/><path class="cls-3" d="M223,69.66h-5.78l0-.77,4.2-9h-3.64V59h5l0,.76-4.2,9H223Zm-5.31-.47h.19l4.47-9.58v-.15h-.18L217.71,69Z"/><polyline class="cls-3" points="237.92 66.06 236.46 59.78 238.71 69.41 239.46 69.41 237 59.22 235.91 59.22 233.46 69.41 234.17 69.41 236.46 59.78"/><path class="cls-3" d="M239.76,69.65h-1.23l-.83-3.53h0l-1.23-5.31-2.1,8.84h-1.19L235.73,59h1.45Zm-.86-.47h.27l-2.35-9.72h-.72l-2.34,9.72H234l2.25-9.45.23.05.23-.05Z"/><path class="cls-3" d="M209.92,55,191,55v-.47c19.51,0,34.66,0,49.15-.07v.47c-9.45.07-19.2.1-30.24.1"/><path class="cls-3" d="M158.78,55c-7.64,0-15.29,0-23.06-.08v-.47c15.54.11,30.6.11,46.06,0v.47c-7.73.06-15.36.08-23,.08"/><path class="cls-3" d="M185,53.59v2.3a.47.47,0,0,1-.52.4h-1v-3.1h1a.47.47,0,0,1,.52.4m-.23,2.3v-2.3a.28.28,0,0,0-.29-.27h-.81v2.84h.81a.28.28,0,0,0,.29-.27"/><rect class="cls-3" x="188.67" y="53.19" width="0.23" height="3.1"/></svg>